M48
; DRILL file {KiCad 8.0.3} date 2024-10-06T22:03:01-0300
; FORMAT={-:-/ absolute / inch / decimal}
; #@! TF.CreationDate,2024-10-06T22:03:01-03:00
; #@! TF.GenerationSoftware,Kicad,Pcbnew,8.0.3
; #@! TF.FileFunction,Plated,1,2,PTH
FMAT,2
INCH
; #@! TA.AperFunction,Plated,PTH,ViaDrill
T1C0.0197
; #@! TA.AperFunction,Plated,PTH,ComponentDrill
T2C0.0236
; #@! TA.AperFunction,Plated,PTH,ComponentDrill
T3C0.0315
; #@! TA.AperFunction,Plated,PTH,ComponentDrill
T4C0.0394
; #@! TA.AperFunction,Plated,PTH,ComponentDrill
T5C0.0433
; #@! TA.AperFunction,Plated,PTH,ComponentDrill
T6C0.1693
%
G90
G05
T1
X4.6841Y-4.2982
X4.6841Y-4.4163
X4.6841Y-4.5344
X4.6841Y-4.6526
X4.6841Y-4.7707
X4.6841Y-4.8888
X4.6841Y-5.0069
X4.6841Y-5.125
X4.6841Y-5.2431
X4.6841Y-5.3612
X4.6841Y-5.4793
X4.6841Y-5.5974
X4.6841Y-5.7156
X4.8022Y-4.2982
X4.8022Y-4.4163
X4.8022Y-4.5344
X4.8022Y-4.6526
X4.8022Y-4.7707
X4.8022Y-4.8888
X4.8022Y-5.0069
X4.8022Y-5.125
X4.8022Y-5.2431
X4.8022Y-5.3612
X4.8022Y-5.4793
X4.8022Y-5.5974
X4.8022Y-5.7156
X4.9203Y-4.5344
X4.9203Y-4.6526
X4.9203Y-4.7707
X4.9203Y-4.8888
X4.9203Y-5.0069
X4.9203Y-5.7156
X5.0384Y-3.9439
X5.0384Y-4.1801
X5.0384Y-4.2982
X5.0384Y-4.5344
X5.0384Y-4.6526
X5.0384Y-4.7707
X5.0384Y-6.0699
X5.1565Y-3.9439
X5.1565Y-4.1801
X5.1565Y-4.2982
X5.1565Y-4.5344
X5.1565Y-4.6526
X5.1565Y-4.8888
X5.1565Y-5.0069
X5.1565Y-5.4793
X5.1565Y-5.5974
X5.1565Y-5.7156
X5.1565Y-5.8337
X5.1565Y-6.0699
X5.1575Y-5.2835
X5.2746Y-3.9439
X5.2746Y-4.1801
X5.2746Y-4.2982
X5.2746Y-4.5344
X5.2746Y-4.7707
X5.2746Y-4.8888
X5.2746Y-5.8337
X5.2746Y-6.0699
X5.3927Y-3.9439
X5.3927Y-4.2982
X5.3927Y-4.7707
X5.3927Y-4.8888
X5.3927Y-5.4793
X5.3927Y-5.5974
X5.3927Y-5.7156
X5.3927Y-5.8337
X5.3927Y-6.0699
X5.4134Y-5.1102
X5.4331Y-5.3071
X5.5108Y-3.9439
X5.5108Y-4.1801
X5.5108Y-4.4163
X5.5108Y-4.5344
X5.5108Y-6.0699
X5.5827Y-4.7795
X5.6063Y-4.7008
X5.6289Y-3.9439
X5.6289Y-4.4163
X5.6289Y-5.7156
X5.6289Y-6.0699
X5.6378Y-4.9528
X5.6772Y-4.874
X5.6772Y-5.3622
X5.7402Y-4.811
X5.747Y-3.9439
X5.747Y-4.062
X5.747Y-4.1801
X5.747Y-4.2982
X5.747Y-4.4163
X5.747Y-4.5344
X5.747Y-5.125
X5.747Y-5.7156
X5.747Y-5.8337
X5.747Y-6.0699
X5.8189Y-4.0102
X5.8189Y-4.1102
X5.8189Y-4.2102
X5.8189Y-4.3102
X5.8652Y-6.0699
X5.9189Y-4.0102
X5.9189Y-4.1102
X5.9189Y-4.2102
X5.9189Y-4.3102
X5.9833Y-5.3612
X5.9833Y-5.5974
X5.9833Y-5.7156
X5.9833Y-6.0699
X5.9843Y-4.5827
X5.9843Y-4.7008
X6.0189Y-4.0102
X6.0189Y-4.1102
X6.0189Y-4.2102
X6.0189Y-4.3102
X6.0472Y-5.9055
X6.1014Y-4.8888
X6.1014Y-5.5974
X6.1024Y-4.5827
X6.1181Y-4.1102
X6.1189Y-4.0102
X6.1189Y-4.2102
X6.1189Y-4.3102
X6.2189Y-4.0102
X6.2189Y-4.3102
X6.2195Y-4.8888
X6.2195Y-5.0069
X6.2205Y-4.7008
X6.2205Y-5.3071
X6.2717Y-6.0315
X6.2953Y-6.1181
X6.3189Y-4.0102
X6.3189Y-4.3102
X6.3228Y-5.874
X6.3376Y-4.8888
X6.3376Y-5.0069
X6.3376Y-5.125
X6.3376Y-5.5974
X6.3386Y-4.5827
X6.3386Y-4.7008
X6.4557Y-3.9439
X6.4557Y-4.062
X6.4557Y-4.1801
X6.4557Y-4.2982
X6.4557Y-4.8888
X6.4557Y-5.0069
X6.4557Y-5.125
X6.4557Y-5.2431
X6.4567Y-4.5827
X6.4567Y-4.7008
X6.5433Y-5.6378
X6.5669Y-6.1024
X6.5738Y-3.9439
X6.5738Y-4.062
X6.5738Y-4.1801
X6.5738Y-4.2982
X6.5738Y-4.7707
X6.5738Y-4.8888
X6.5738Y-5.0069
X6.5738Y-5.125
X6.5738Y-5.2431
X6.5738Y-5.3612
X6.5748Y-4.5315
X6.685Y-5.8819
X6.6919Y-3.9439
X6.6919Y-4.062
X6.6919Y-4.1801
X6.6919Y-4.2982
X6.6919Y-4.4163
X6.81Y-3.9439
X6.81Y-4.062
X6.81Y-4.1801
X6.81Y-4.2982
X6.81Y-4.4163
X6.81Y-4.5344
X6.81Y-5.125
X6.81Y-5.2431
X6.81Y-5.3612
X6.81Y-5.9518
X6.81Y-6.0699
X6.9281Y-3.9439
X6.9281Y-4.062
X6.9281Y-4.1801
X6.9281Y-4.2982
X6.9281Y-4.4163
X6.9281Y-4.5344
X6.9281Y-4.6526
X6.9281Y-5.0069
X6.9281Y-5.125
X6.9281Y-5.2431
X6.9281Y-5.3612
X6.9281Y-5.7156
X6.9281Y-5.9518
X6.9281Y-6.0699
X7.0463Y-3.9439
X7.0463Y-4.062
X7.0463Y-4.1801
X7.0463Y-4.2982
X7.0463Y-4.4163
X7.0463Y-5.3612
X7.0463Y-5.9518
X7.0463Y-6.0699
X7.1644Y-4.2982
X7.1644Y-4.4163
X7.1644Y-5.2431
X7.1644Y-5.7156
X7.1654Y-5.4488
X7.252Y-5.5039
X7.2825Y-4.2982
X7.2825Y-4.4163
X7.4006Y-4.2982
X7.4006Y-4.4163
X7.4006Y-4.5344
X7.4006Y-4.6526
X7.4006Y-4.7707
X7.4006Y-4.8888
X7.4006Y-5.0069
X7.4006Y-5.125
X7.4006Y-5.2431
X7.4006Y-5.3612
X7.4006Y-5.4793
X7.4006Y-5.5974
X7.4006Y-5.7156
X7.5187Y-4.1801
X7.5187Y-4.2982
X7.5187Y-4.4163
X7.5187Y-4.5344
X7.5187Y-4.6526
X7.5187Y-4.7707
X7.5187Y-4.8888
X7.5187Y-5.0069
X7.5187Y-5.125
X7.5187Y-5.2431
X7.5187Y-5.3612
X7.5187Y-5.4793
X7.5187Y-5.5974
X7.5187Y-5.7156
X7.5187Y-5.8337
T2
X4.6762Y-4.063
X4.6762Y-5.9843
X4.7134Y-3.9732
X4.7134Y-4.1528
X4.7134Y-5.8945
X4.7134Y-6.074
X4.8031Y-3.936
X4.8031Y-4.19
X4.8031Y-5.8573
X4.8031Y-6.1112
X4.8929Y-3.9732
X4.8929Y-4.1528
X4.8929Y-5.8945
X4.8929Y-6.074
X4.9301Y-4.063
X4.9301Y-5.9843
X7.1959Y-4.063
X7.1959Y-5.9843
X7.2331Y-3.9732
X7.2331Y-4.1528
X7.2331Y-5.8945
X7.2331Y-6.074
X7.3228Y-3.936
X7.3228Y-4.19
X7.3228Y-5.8573
X7.3228Y-6.1112
X7.4126Y-3.9732
X7.4126Y-4.1528
X7.4126Y-5.8945
X7.4126Y-6.074
X7.4498Y-4.063
X7.4498Y-5.9843
T3
X4.9835Y-5.0654
X4.9835Y-5.1654
X4.9835Y-5.2654
X4.9835Y-5.3654
X4.9835Y-5.4654
X4.9835Y-5.5654
X4.9835Y-5.6654
X5.0866Y-5.9016
X5.185Y-5.9016
X5.2835Y-5.0654
X5.2835Y-5.1654
X5.2835Y-5.2654
X5.2835Y-5.3654
X5.2835Y-5.4654
X5.2835Y-5.5654
X5.2835Y-5.6654
X5.3268Y-4.3817
X5.3778Y-4.0563
X5.3778Y-4.1547
X5.4252Y-4.3817
X5.5197Y-5.0654
X5.5197Y-5.1654
X5.5197Y-5.2654
X5.5197Y-5.3654
X5.5197Y-5.4654
X5.5197Y-5.5654
X5.5197Y-5.6654
X5.6378Y-4.4843
X5.6378Y-4.5827
X5.8197Y-5.0654
X5.8197Y-5.1654
X5.8197Y-5.2654
X5.8197Y-5.3654
X5.8197Y-5.4654
X5.8197Y-5.5654
X5.8197Y-5.6654
X5.8268Y-4.4795
X5.8268Y-4.7795
X5.9268Y-4.4795
X5.9268Y-4.7795
X5.9921Y-5.1339
X6.0268Y-4.4795
X6.0268Y-4.7795
X6.0709Y-5.7787
X6.0709Y-6.0787
X6.0906Y-5.1339
X6.1268Y-4.4795
X6.1268Y-4.7795
X6.1496Y-5.5079
X6.189Y-5.7787
X6.189Y-6.0787
X6.2268Y-4.4795
X6.2268Y-4.7795
X6.248Y-5.5079
X6.3268Y-4.4795
X6.3268Y-4.7795
X6.4118Y-5.9817
X6.4118Y-6.0801
X6.4268Y-4.4795
X6.4268Y-4.7795
X6.4386Y-5.5063
X6.4386Y-5.8063
X6.5386Y-5.5063
X6.5386Y-5.8063
X6.6386Y-5.5063
X6.6386Y-5.8063
X6.7053Y-4.5236
X6.7053Y-4.6417
X6.7053Y-4.7598
X6.7053Y-4.878
X6.7053Y-4.9961
X6.7053Y-5.1142
X6.7053Y-5.2323
X6.7071Y-5.962
X6.7071Y-6.0604
X6.7386Y-5.5063
X6.7386Y-5.8063
X6.8386Y-5.5063
X6.8386Y-5.8063
X6.9386Y-5.5063
X6.9386Y-5.8063
X7.0053Y-4.5236
X7.0053Y-4.6417
X7.0053Y-4.7598
X7.0053Y-4.878
X7.0053Y-4.9961
X7.0053Y-5.1142
X7.0053Y-5.2323
X7.0386Y-5.5063
X7.0386Y-5.8063
T4
X4.9094Y-4.3596
X4.9094Y-4.4596
X5.8543Y-5.8819
X5.8543Y-5.9819
X7.2307Y-4.578
X7.2307Y-4.678
X7.2307Y-4.778
X7.2307Y-4.878
X7.2307Y-4.978
X7.2307Y-5.078
X7.2307Y-5.178
X7.3307Y-4.578
X7.3307Y-4.678
X7.3307Y-4.778
X7.3307Y-4.878
X7.3307Y-4.978
X7.3307Y-5.078
X7.3307Y-5.178
X7.3307Y-5.3535
X7.3307Y-5.4535
X7.3307Y-5.5535
X7.3307Y-5.6535
T5
X5.0825Y-4.0563
X5.0825Y-4.4563
X5.614Y-4.0563
X5.614Y-4.1563
X5.614Y-4.2563
T6
X4.8031Y-4.063
X4.8031Y-5.9843
X7.3228Y-4.063
X7.3228Y-5.9843
M30
