%TF.GenerationSoftware,KiCad,Pcbnew,8.0.3*%
%TF.CreationDate,2024-10-06T22:03:06-03:00*%
%TF.ProjectId,digital_dice,64696769-7461-46c5-9f64-6963652e6b69,rev?*%
%TF.SameCoordinates,Original*%
%TF.FileFunction,Drillmap*%
%TF.FilePolarity,Positive*%
%FSLAX45Y45*%
G04 Gerber Fmt 4.5, Leading zero omitted, Abs format (unit mm)*
G04 Created by KiCad (PCBNEW 8.0.3) date 2024-10-06 22:03:06*
%MOMM*%
%LPD*%
G01*
G04 APERTURE LIST*
%ADD10C,0.050000*%
%ADD11C,0.200000*%
%ADD12C,0.100000*%
%ADD13C,0.110000*%
%ADD14C,0.430000*%
G04 APERTURE END LIST*
D10*
X19200000Y-15200000D02*
X19200000Y-10320000D01*
X12200000Y-15800000D02*
X18600000Y-15800000D01*
X11600000Y-10320000D02*
X11600000Y-15200000D01*
X18600000Y-9720000D02*
X12200000Y-9720000D01*
X18600000Y-9720000D02*
G75*
G02*
X19200000Y-10320000I0J-600000D01*
G01*
X19200000Y-15200000D02*
G75*
G02*
X18600000Y-15800000I-600000J0D01*
G01*
X12200000Y-15800000D02*
G75*
G02*
X11600000Y-15200000I0J600000D01*
G01*
X11600000Y-10320000D02*
G75*
G02*
X12200000Y-9720000I600000J0D01*
G01*
D11*
D12*
X11872500Y-10892500D02*
X11922500Y-10942500D01*
X11922500Y-10892500D02*
X11872500Y-10942500D01*
X11872500Y-11192500D02*
X11922500Y-11242500D01*
X11922500Y-11192500D02*
X11872500Y-11242500D01*
X11872500Y-11492500D02*
X11922500Y-11542500D01*
X11922500Y-11492500D02*
X11872500Y-11542500D01*
X11872500Y-11792500D02*
X11922500Y-11842500D01*
X11922500Y-11792500D02*
X11872500Y-11842500D01*
X11872500Y-12092500D02*
X11922500Y-12142500D01*
X11922500Y-12092500D02*
X11872500Y-12142500D01*
X11872500Y-12392500D02*
X11922500Y-12442500D01*
X11922500Y-12392500D02*
X11872500Y-12442500D01*
X11872500Y-12692500D02*
X11922500Y-12742500D01*
X11922500Y-12692500D02*
X11872500Y-12742500D01*
X11872500Y-12992500D02*
X11922500Y-13042500D01*
X11922500Y-12992500D02*
X11872500Y-13042500D01*
X11872500Y-13292500D02*
X11922500Y-13342500D01*
X11922500Y-13292500D02*
X11872500Y-13342500D01*
X11872500Y-13592500D02*
X11922500Y-13642500D01*
X11922500Y-13592500D02*
X11872500Y-13642500D01*
X11872500Y-13892500D02*
X11922500Y-13942500D01*
X11922500Y-13892500D02*
X11872500Y-13942500D01*
X11872500Y-14192500D02*
X11922500Y-14242500D01*
X11922500Y-14192500D02*
X11872500Y-14242500D01*
X11872500Y-14492500D02*
X11922500Y-14542500D01*
X11922500Y-14492500D02*
X11872500Y-14542500D01*
X12172500Y-10892500D02*
X12222500Y-10942500D01*
X12222500Y-10892500D02*
X12172500Y-10942500D01*
X12172500Y-11192500D02*
X12222500Y-11242500D01*
X12222500Y-11192500D02*
X12172500Y-11242500D01*
X12172500Y-11492500D02*
X12222500Y-11542500D01*
X12222500Y-11492500D02*
X12172500Y-11542500D01*
X12172500Y-11792500D02*
X12222500Y-11842500D01*
X12222500Y-11792500D02*
X12172500Y-11842500D01*
X12172500Y-12092500D02*
X12222500Y-12142500D01*
X12222500Y-12092500D02*
X12172500Y-12142500D01*
X12172500Y-12392500D02*
X12222500Y-12442500D01*
X12222500Y-12392500D02*
X12172500Y-12442500D01*
X12172500Y-12692500D02*
X12222500Y-12742500D01*
X12222500Y-12692500D02*
X12172500Y-12742500D01*
X12172500Y-12992500D02*
X12222500Y-13042500D01*
X12222500Y-12992500D02*
X12172500Y-13042500D01*
X12172500Y-13292500D02*
X12222500Y-13342500D01*
X12222500Y-13292500D02*
X12172500Y-13342500D01*
X12172500Y-13592500D02*
X12222500Y-13642500D01*
X12222500Y-13592500D02*
X12172500Y-13642500D01*
X12172500Y-13892500D02*
X12222500Y-13942500D01*
X12222500Y-13892500D02*
X12172500Y-13942500D01*
X12172500Y-14192500D02*
X12222500Y-14242500D01*
X12222500Y-14192500D02*
X12172500Y-14242500D01*
X12172500Y-14492500D02*
X12222500Y-14542500D01*
X12222500Y-14492500D02*
X12172500Y-14542500D01*
X12472500Y-11492500D02*
X12522500Y-11542500D01*
X12522500Y-11492500D02*
X12472500Y-11542500D01*
X12472500Y-11792500D02*
X12522500Y-11842500D01*
X12522500Y-11792500D02*
X12472500Y-11842500D01*
X12472500Y-12092500D02*
X12522500Y-12142500D01*
X12522500Y-12092500D02*
X12472500Y-12142500D01*
X12472500Y-12392500D02*
X12522500Y-12442500D01*
X12522500Y-12392500D02*
X12472500Y-12442500D01*
X12472500Y-12692500D02*
X12522500Y-12742500D01*
X12522500Y-12692500D02*
X12472500Y-12742500D01*
X12472500Y-14492500D02*
X12522500Y-14542500D01*
X12522500Y-14492500D02*
X12472500Y-14542500D01*
X12772500Y-9992500D02*
X12822500Y-10042500D01*
X12822500Y-9992500D02*
X12772500Y-10042500D01*
X12772500Y-10592500D02*
X12822500Y-10642500D01*
X12822500Y-10592500D02*
X12772500Y-10642500D01*
X12772500Y-10892500D02*
X12822500Y-10942500D01*
X12822500Y-10892500D02*
X12772500Y-10942500D01*
X12772500Y-11492500D02*
X12822500Y-11542500D01*
X12822500Y-11492500D02*
X12772500Y-11542500D01*
X12772500Y-11792500D02*
X12822500Y-11842500D01*
X12822500Y-11792500D02*
X12772500Y-11842500D01*
X12772500Y-12092500D02*
X12822500Y-12142500D01*
X12822500Y-12092500D02*
X12772500Y-12142500D01*
X12772500Y-15392500D02*
X12822500Y-15442500D01*
X12822500Y-15392500D02*
X12772500Y-15442500D01*
X13072500Y-9992500D02*
X13122500Y-10042500D01*
X13122500Y-9992500D02*
X13072500Y-10042500D01*
X13072500Y-10592500D02*
X13122500Y-10642500D01*
X13122500Y-10592500D02*
X13072500Y-10642500D01*
X13072500Y-10892500D02*
X13122500Y-10942500D01*
X13122500Y-10892500D02*
X13072500Y-10942500D01*
X13072500Y-11492500D02*
X13122500Y-11542500D01*
X13122500Y-11492500D02*
X13072500Y-11542500D01*
X13072500Y-11792500D02*
X13122500Y-11842500D01*
X13122500Y-11792500D02*
X13072500Y-11842500D01*
X13072500Y-12392500D02*
X13122500Y-12442500D01*
X13122500Y-12392500D02*
X13072500Y-12442500D01*
X13072500Y-12692500D02*
X13122500Y-12742500D01*
X13122500Y-12692500D02*
X13072500Y-12742500D01*
X13072500Y-13892500D02*
X13122500Y-13942500D01*
X13122500Y-13892500D02*
X13072500Y-13942500D01*
X13072500Y-14192500D02*
X13122500Y-14242500D01*
X13122500Y-14192500D02*
X13072500Y-14242500D01*
X13072500Y-14492500D02*
X13122500Y-14542500D01*
X13122500Y-14492500D02*
X13072500Y-14542500D01*
X13072500Y-14792500D02*
X13122500Y-14842500D01*
X13122500Y-14792500D02*
X13072500Y-14842500D01*
X13072500Y-15392500D02*
X13122500Y-15442500D01*
X13122500Y-15392500D02*
X13072500Y-15442500D01*
X13075000Y-13395000D02*
X13125000Y-13445000D01*
X13125000Y-13395000D02*
X13075000Y-13445000D01*
X13372500Y-9992500D02*
X13422500Y-10042500D01*
X13422500Y-9992500D02*
X13372500Y-10042500D01*
X13372500Y-10592500D02*
X13422500Y-10642500D01*
X13422500Y-10592500D02*
X13372500Y-10642500D01*
X13372500Y-10892500D02*
X13422500Y-10942500D01*
X13422500Y-10892500D02*
X13372500Y-10942500D01*
X13372500Y-11492500D02*
X13422500Y-11542500D01*
X13422500Y-11492500D02*
X13372500Y-11542500D01*
X13372500Y-12092500D02*
X13422500Y-12142500D01*
X13422500Y-12092500D02*
X13372500Y-12142500D01*
X13372500Y-12392500D02*
X13422500Y-12442500D01*
X13422500Y-12392500D02*
X13372500Y-12442500D01*
X13372500Y-14792500D02*
X13422500Y-14842500D01*
X13422500Y-14792500D02*
X13372500Y-14842500D01*
X13372500Y-15392500D02*
X13422500Y-15442500D01*
X13422500Y-15392500D02*
X13372500Y-15442500D01*
X13672500Y-9992500D02*
X13722500Y-10042500D01*
X13722500Y-9992500D02*
X13672500Y-10042500D01*
X13672500Y-10892500D02*
X13722500Y-10942500D01*
X13722500Y-10892500D02*
X13672500Y-10942500D01*
X13672500Y-12092500D02*
X13722500Y-12142500D01*
X13722500Y-12092500D02*
X13672500Y-12142500D01*
X13672500Y-12392500D02*
X13722500Y-12442500D01*
X13722500Y-12392500D02*
X13672500Y-12442500D01*
X13672500Y-13892500D02*
X13722500Y-13942500D01*
X13722500Y-13892500D02*
X13672500Y-13942500D01*
X13672500Y-14192500D02*
X13722500Y-14242500D01*
X13722500Y-14192500D02*
X13672500Y-14242500D01*
X13672500Y-14492500D02*
X13722500Y-14542500D01*
X13722500Y-14492500D02*
X13672500Y-14542500D01*
X13672500Y-14792500D02*
X13722500Y-14842500D01*
X13722500Y-14792500D02*
X13672500Y-14842500D01*
X13672500Y-15392500D02*
X13722500Y-15442500D01*
X13722500Y-15392500D02*
X13672500Y-15442500D01*
X13725000Y-12955000D02*
X13775000Y-13005000D01*
X13775000Y-12955000D02*
X13725000Y-13005000D01*
X13775000Y-13455000D02*
X13825000Y-13505000D01*
X13825000Y-13455000D02*
X13775000Y-13505000D01*
X13972500Y-9992500D02*
X14022500Y-10042500D01*
X14022500Y-9992500D02*
X13972500Y-10042500D01*
X13972500Y-10592500D02*
X14022500Y-10642500D01*
X14022500Y-10592500D02*
X13972500Y-10642500D01*
X13972500Y-11192500D02*
X14022500Y-11242500D01*
X14022500Y-11192500D02*
X13972500Y-11242500D01*
X13972500Y-11492500D02*
X14022500Y-11542500D01*
X14022500Y-11492500D02*
X13972500Y-11542500D01*
X13972500Y-15392500D02*
X14022500Y-15442500D01*
X14022500Y-15392500D02*
X13972500Y-15442500D01*
X14155000Y-12115000D02*
X14205000Y-12165000D01*
X14205000Y-12115000D02*
X14155000Y-12165000D01*
X14215000Y-11915000D02*
X14265000Y-11965000D01*
X14265000Y-11915000D02*
X14215000Y-11965000D01*
X14272500Y-9992500D02*
X14322500Y-10042500D01*
X14322500Y-9992500D02*
X14272500Y-10042500D01*
X14272500Y-11192500D02*
X14322500Y-11242500D01*
X14322500Y-11192500D02*
X14272500Y-11242500D01*
X14272500Y-14492500D02*
X14322500Y-14542500D01*
X14322500Y-14492500D02*
X14272500Y-14542500D01*
X14272500Y-15392500D02*
X14322500Y-15442500D01*
X14322500Y-15392500D02*
X14272500Y-15442500D01*
X14295000Y-12555000D02*
X14345000Y-12605000D01*
X14345000Y-12555000D02*
X14295000Y-12605000D01*
X14395000Y-12355000D02*
X14445000Y-12405000D01*
X14445000Y-12355000D02*
X14395000Y-12405000D01*
X14395000Y-13595000D02*
X14445000Y-13645000D01*
X14445000Y-13595000D02*
X14395000Y-13645000D01*
X14555000Y-12195000D02*
X14605000Y-12245000D01*
X14605000Y-12195000D02*
X14555000Y-12245000D01*
X14572500Y-9992500D02*
X14622500Y-10042500D01*
X14622500Y-9992500D02*
X14572500Y-10042500D01*
X14572500Y-10292500D02*
X14622500Y-10342500D01*
X14622500Y-10292500D02*
X14572500Y-10342500D01*
X14572500Y-10592500D02*
X14622500Y-10642500D01*
X14622500Y-10592500D02*
X14572500Y-10642500D01*
X14572500Y-10892500D02*
X14622500Y-10942500D01*
X14622500Y-10892500D02*
X14572500Y-10942500D01*
X14572500Y-11192500D02*
X14622500Y-11242500D01*
X14622500Y-11192500D02*
X14572500Y-11242500D01*
X14572500Y-11492500D02*
X14622500Y-11542500D01*
X14622500Y-11492500D02*
X14572500Y-11542500D01*
X14572500Y-12992500D02*
X14622500Y-13042500D01*
X14622500Y-12992500D02*
X14572500Y-13042500D01*
X14572500Y-14492500D02*
X14622500Y-14542500D01*
X14622500Y-14492500D02*
X14572500Y-14542500D01*
X14572500Y-14792500D02*
X14622500Y-14842500D01*
X14622500Y-14792500D02*
X14572500Y-14842500D01*
X14572500Y-15392500D02*
X14622500Y-15442500D01*
X14622500Y-15392500D02*
X14572500Y-15442500D01*
X14755000Y-10161000D02*
X14805000Y-10211000D01*
X14805000Y-10161000D02*
X14755000Y-10211000D01*
X14755000Y-10415000D02*
X14805000Y-10465000D01*
X14805000Y-10415000D02*
X14755000Y-10465000D01*
X14755000Y-10669000D02*
X14805000Y-10719000D01*
X14805000Y-10669000D02*
X14755000Y-10719000D01*
X14755000Y-10923000D02*
X14805000Y-10973000D01*
X14805000Y-10923000D02*
X14755000Y-10973000D01*
X14872500Y-15392500D02*
X14922500Y-15442500D01*
X14922500Y-15392500D02*
X14872500Y-15442500D01*
X15009000Y-10161000D02*
X15059000Y-10211000D01*
X15059000Y-10161000D02*
X15009000Y-10211000D01*
X15009000Y-10415000D02*
X15059000Y-10465000D01*
X15059000Y-10415000D02*
X15009000Y-10465000D01*
X15009000Y-10669000D02*
X15059000Y-10719000D01*
X15059000Y-10669000D02*
X15009000Y-10719000D01*
X15009000Y-10923000D02*
X15059000Y-10973000D01*
X15059000Y-10923000D02*
X15009000Y-10973000D01*
X15172500Y-13592500D02*
X15222500Y-13642500D01*
X15222500Y-13592500D02*
X15172500Y-13642500D01*
X15172500Y-14192500D02*
X15222500Y-14242500D01*
X15222500Y-14192500D02*
X15172500Y-14242500D01*
X15172500Y-14492500D02*
X15222500Y-14542500D01*
X15222500Y-14492500D02*
X15172500Y-14542500D01*
X15172500Y-15392500D02*
X15222500Y-15442500D01*
X15222500Y-15392500D02*
X15172500Y-15442500D01*
X15175000Y-11615000D02*
X15225000Y-11665000D01*
X15225000Y-11615000D02*
X15175000Y-11665000D01*
X15175000Y-11915000D02*
X15225000Y-11965000D01*
X15225000Y-11915000D02*
X15175000Y-11965000D01*
X15263000Y-10161000D02*
X15313000Y-10211000D01*
X15313000Y-10161000D02*
X15263000Y-10211000D01*
X15263000Y-10415000D02*
X15313000Y-10465000D01*
X15313000Y-10415000D02*
X15263000Y-10465000D01*
X15263000Y-10669000D02*
X15313000Y-10719000D01*
X15313000Y-10669000D02*
X15263000Y-10719000D01*
X15263000Y-10923000D02*
X15313000Y-10973000D01*
X15313000Y-10923000D02*
X15263000Y-10973000D01*
X15335000Y-14975000D02*
X15385000Y-15025000D01*
X15385000Y-14975000D02*
X15335000Y-15025000D01*
X15472500Y-12392500D02*
X15522500Y-12442500D01*
X15522500Y-12392500D02*
X15472500Y-12442500D01*
X15472500Y-14192500D02*
X15522500Y-14242500D01*
X15522500Y-14192500D02*
X15472500Y-14242500D01*
X15475000Y-11615000D02*
X15525000Y-11665000D01*
X15525000Y-11615000D02*
X15475000Y-11665000D01*
X15515000Y-10415000D02*
X15565000Y-10465000D01*
X15565000Y-10415000D02*
X15515000Y-10465000D01*
X15517000Y-10161000D02*
X15567000Y-10211000D01*
X15567000Y-10161000D02*
X15517000Y-10211000D01*
X15517000Y-10669000D02*
X15567000Y-10719000D01*
X15567000Y-10669000D02*
X15517000Y-10719000D01*
X15517000Y-10923000D02*
X15567000Y-10973000D01*
X15567000Y-10923000D02*
X15517000Y-10973000D01*
X15771000Y-10161000D02*
X15821000Y-10211000D01*
X15821000Y-10161000D02*
X15771000Y-10211000D01*
X15771000Y-10923000D02*
X15821000Y-10973000D01*
X15821000Y-10923000D02*
X15771000Y-10973000D01*
X15772500Y-12392500D02*
X15822500Y-12442500D01*
X15822500Y-12392500D02*
X15772500Y-12442500D01*
X15772500Y-12692500D02*
X15822500Y-12742500D01*
X15822500Y-12692500D02*
X15772500Y-12742500D01*
X15775000Y-11915000D02*
X15825000Y-11965000D01*
X15825000Y-11915000D02*
X15775000Y-11965000D01*
X15775000Y-13455000D02*
X15825000Y-13505000D01*
X15825000Y-13455000D02*
X15775000Y-13505000D01*
X15905000Y-15295000D02*
X15955000Y-15345000D01*
X15955000Y-15295000D02*
X15905000Y-15345000D01*
X15965000Y-15515000D02*
X16015000Y-15565000D01*
X16015000Y-15515000D02*
X15965000Y-15565000D01*
X16025000Y-10161000D02*
X16075000Y-10211000D01*
X16075000Y-10161000D02*
X16025000Y-10211000D01*
X16025000Y-10923000D02*
X16075000Y-10973000D01*
X16075000Y-10923000D02*
X16025000Y-10973000D01*
X16035000Y-14895000D02*
X16085000Y-14945000D01*
X16085000Y-14895000D02*
X16035000Y-14945000D01*
X16072500Y-12392500D02*
X16122500Y-12442500D01*
X16122500Y-12392500D02*
X16072500Y-12442500D01*
X16072500Y-12692500D02*
X16122500Y-12742500D01*
X16122500Y-12692500D02*
X16072500Y-12742500D01*
X16072500Y-12992500D02*
X16122500Y-13042500D01*
X16122500Y-12992500D02*
X16072500Y-13042500D01*
X16072500Y-14192500D02*
X16122500Y-14242500D01*
X16122500Y-14192500D02*
X16072500Y-14242500D01*
X16075000Y-11615000D02*
X16125000Y-11665000D01*
X16125000Y-11615000D02*
X16075000Y-11665000D01*
X16075000Y-11915000D02*
X16125000Y-11965000D01*
X16125000Y-11915000D02*
X16075000Y-11965000D01*
X16372500Y-9992500D02*
X16422500Y-10042500D01*
X16422500Y-9992500D02*
X16372500Y-10042500D01*
X16372500Y-10292500D02*
X16422500Y-10342500D01*
X16422500Y-10292500D02*
X16372500Y-10342500D01*
X16372500Y-10592500D02*
X16422500Y-10642500D01*
X16422500Y-10592500D02*
X16372500Y-10642500D01*
X16372500Y-10892500D02*
X16422500Y-10942500D01*
X16422500Y-10892500D02*
X16372500Y-10942500D01*
X16372500Y-12392500D02*
X16422500Y-12442500D01*
X16422500Y-12392500D02*
X16372500Y-12442500D01*
X16372500Y-12692500D02*
X16422500Y-12742500D01*
X16422500Y-12692500D02*
X16372500Y-12742500D01*
X16372500Y-12992500D02*
X16422500Y-13042500D01*
X16422500Y-12992500D02*
X16372500Y-13042500D01*
X16372500Y-13292500D02*
X16422500Y-13342500D01*
X16422500Y-13292500D02*
X16372500Y-13342500D01*
X16375000Y-11615000D02*
X16425000Y-11665000D01*
X16425000Y-11615000D02*
X16375000Y-11665000D01*
X16375000Y-11915000D02*
X16425000Y-11965000D01*
X16425000Y-11915000D02*
X16375000Y-11965000D01*
X16595000Y-14295000D02*
X16645000Y-14345000D01*
X16645000Y-14295000D02*
X16595000Y-14345000D01*
X16655000Y-15475000D02*
X16705000Y-15525000D01*
X16705000Y-15475000D02*
X16655000Y-15525000D01*
X16672500Y-9992500D02*
X16722500Y-10042500D01*
X16722500Y-9992500D02*
X16672500Y-10042500D01*
X16672500Y-10292500D02*
X16722500Y-10342500D01*
X16722500Y-10292500D02*
X16672500Y-10342500D01*
X16672500Y-10592500D02*
X16722500Y-10642500D01*
X16722500Y-10592500D02*
X16672500Y-10642500D01*
X16672500Y-10892500D02*
X16722500Y-10942500D01*
X16722500Y-10892500D02*
X16672500Y-10942500D01*
X16672500Y-12092500D02*
X16722500Y-12142500D01*
X16722500Y-12092500D02*
X16672500Y-12142500D01*
X16672500Y-12392500D02*
X16722500Y-12442500D01*
X16722500Y-12392500D02*
X16672500Y-12442500D01*
X16672500Y-12692500D02*
X16722500Y-12742500D01*
X16722500Y-12692500D02*
X16672500Y-12742500D01*
X16672500Y-12992500D02*
X16722500Y-13042500D01*
X16722500Y-12992500D02*
X16672500Y-13042500D01*
X16672500Y-13292500D02*
X16722500Y-13342500D01*
X16722500Y-13292500D02*
X16672500Y-13342500D01*
X16672500Y-13592500D02*
X16722500Y-13642500D01*
X16722500Y-13592500D02*
X16672500Y-13642500D01*
X16675000Y-11485000D02*
X16725000Y-11535000D01*
X16725000Y-11485000D02*
X16675000Y-11535000D01*
X16955000Y-14915000D02*
X17005000Y-14965000D01*
X17005000Y-14915000D02*
X16955000Y-14965000D01*
X16972500Y-9992500D02*
X17022500Y-10042500D01*
X17022500Y-9992500D02*
X16972500Y-10042500D01*
X16972500Y-10292500D02*
X17022500Y-10342500D01*
X17022500Y-10292500D02*
X16972500Y-10342500D01*
X16972500Y-10592500D02*
X17022500Y-10642500D01*
X17022500Y-10592500D02*
X16972500Y-10642500D01*
X16972500Y-10892500D02*
X17022500Y-10942500D01*
X17022500Y-10892500D02*
X16972500Y-10942500D01*
X16972500Y-11192500D02*
X17022500Y-11242500D01*
X17022500Y-11192500D02*
X16972500Y-11242500D01*
X17272500Y-9992500D02*
X17322500Y-10042500D01*
X17322500Y-9992500D02*
X17272500Y-10042500D01*
X17272500Y-10292500D02*
X17322500Y-10342500D01*
X17322500Y-10292500D02*
X17272500Y-10342500D01*
X17272500Y-10592500D02*
X17322500Y-10642500D01*
X17322500Y-10592500D02*
X17272500Y-10642500D01*
X17272500Y-10892500D02*
X17322500Y-10942500D01*
X17322500Y-10892500D02*
X17272500Y-10942500D01*
X17272500Y-11192500D02*
X17322500Y-11242500D01*
X17322500Y-11192500D02*
X17272500Y-11242500D01*
X17272500Y-11492500D02*
X17322500Y-11542500D01*
X17322500Y-11492500D02*
X17272500Y-11542500D01*
X17272500Y-12992500D02*
X17322500Y-13042500D01*
X17322500Y-12992500D02*
X17272500Y-13042500D01*
X17272500Y-13292500D02*
X17322500Y-13342500D01*
X17322500Y-13292500D02*
X17272500Y-13342500D01*
X17272500Y-13592500D02*
X17322500Y-13642500D01*
X17322500Y-13592500D02*
X17272500Y-13642500D01*
X17272500Y-15092500D02*
X17322500Y-15142500D01*
X17322500Y-15092500D02*
X17272500Y-15142500D01*
X17272500Y-15392500D02*
X17322500Y-15442500D01*
X17322500Y-15392500D02*
X17272500Y-15442500D01*
X17572500Y-9992500D02*
X17622500Y-10042500D01*
X17622500Y-9992500D02*
X17572500Y-10042500D01*
X17572500Y-10292500D02*
X17622500Y-10342500D01*
X17622500Y-10292500D02*
X17572500Y-10342500D01*
X17572500Y-10592500D02*
X17622500Y-10642500D01*
X17622500Y-10592500D02*
X17572500Y-10642500D01*
X17572500Y-10892500D02*
X17622500Y-10942500D01*
X17622500Y-10892500D02*
X17572500Y-10942500D01*
X17572500Y-11192500D02*
X17622500Y-11242500D01*
X17622500Y-11192500D02*
X17572500Y-11242500D01*
X17572500Y-11492500D02*
X17622500Y-11542500D01*
X17622500Y-11492500D02*
X17572500Y-11542500D01*
X17572500Y-11792500D02*
X17622500Y-11842500D01*
X17622500Y-11792500D02*
X17572500Y-11842500D01*
X17572500Y-12692500D02*
X17622500Y-12742500D01*
X17622500Y-12692500D02*
X17572500Y-12742500D01*
X17572500Y-12992500D02*
X17622500Y-13042500D01*
X17622500Y-12992500D02*
X17572500Y-13042500D01*
X17572500Y-13292500D02*
X17622500Y-13342500D01*
X17622500Y-13292500D02*
X17572500Y-13342500D01*
X17572500Y-13592500D02*
X17622500Y-13642500D01*
X17622500Y-13592500D02*
X17572500Y-13642500D01*
X17572500Y-14492500D02*
X17622500Y-14542500D01*
X17622500Y-14492500D02*
X17572500Y-14542500D01*
X17572500Y-15092500D02*
X17622500Y-15142500D01*
X17622500Y-15092500D02*
X17572500Y-15142500D01*
X17572500Y-15392500D02*
X17622500Y-15442500D01*
X17622500Y-15392500D02*
X17572500Y-15442500D01*
X17872500Y-9992500D02*
X17922500Y-10042500D01*
X17922500Y-9992500D02*
X17872500Y-10042500D01*
X17872500Y-10292500D02*
X17922500Y-10342500D01*
X17922500Y-10292500D02*
X17872500Y-10342500D01*
X17872500Y-10592500D02*
X17922500Y-10642500D01*
X17922500Y-10592500D02*
X17872500Y-10642500D01*
X17872500Y-10892500D02*
X17922500Y-10942500D01*
X17922500Y-10892500D02*
X17872500Y-10942500D01*
X17872500Y-11192500D02*
X17922500Y-11242500D01*
X17922500Y-11192500D02*
X17872500Y-11242500D01*
X17872500Y-13592500D02*
X17922500Y-13642500D01*
X17922500Y-13592500D02*
X17872500Y-13642500D01*
X17872500Y-15092500D02*
X17922500Y-15142500D01*
X17922500Y-15092500D02*
X17872500Y-15142500D01*
X17872500Y-15392500D02*
X17922500Y-15442500D01*
X17922500Y-15392500D02*
X17872500Y-15442500D01*
X18172500Y-10892500D02*
X18222500Y-10942500D01*
X18222500Y-10892500D02*
X18172500Y-10942500D01*
X18172500Y-11192500D02*
X18222500Y-11242500D01*
X18222500Y-11192500D02*
X18172500Y-11242500D01*
X18172500Y-13292500D02*
X18222500Y-13342500D01*
X18222500Y-13292500D02*
X18172500Y-13342500D01*
X18172500Y-14492500D02*
X18222500Y-14542500D01*
X18222500Y-14492500D02*
X18172500Y-14542500D01*
X18175000Y-13815000D02*
X18225000Y-13865000D01*
X18225000Y-13815000D02*
X18175000Y-13865000D01*
X18395000Y-13955000D02*
X18445000Y-14005000D01*
X18445000Y-13955000D02*
X18395000Y-14005000D01*
X18472500Y-10892500D02*
X18522500Y-10942500D01*
X18522500Y-10892500D02*
X18472500Y-10942500D01*
X18472500Y-11192500D02*
X18522500Y-11242500D01*
X18522500Y-11192500D02*
X18472500Y-11242500D01*
X18772500Y-10892500D02*
X18822500Y-10942500D01*
X18822500Y-10892500D02*
X18772500Y-10942500D01*
X18772500Y-11192500D02*
X18822500Y-11242500D01*
X18822500Y-11192500D02*
X18772500Y-11242500D01*
X18772500Y-11492500D02*
X18822500Y-11542500D01*
X18822500Y-11492500D02*
X18772500Y-11542500D01*
X18772500Y-11792500D02*
X18822500Y-11842500D01*
X18822500Y-11792500D02*
X18772500Y-11842500D01*
X18772500Y-12092500D02*
X18822500Y-12142500D01*
X18822500Y-12092500D02*
X18772500Y-12142500D01*
X18772500Y-12392500D02*
X18822500Y-12442500D01*
X18822500Y-12392500D02*
X18772500Y-12442500D01*
X18772500Y-12692500D02*
X18822500Y-12742500D01*
X18822500Y-12692500D02*
X18772500Y-12742500D01*
X18772500Y-12992500D02*
X18822500Y-13042500D01*
X18822500Y-12992500D02*
X18772500Y-13042500D01*
X18772500Y-13292500D02*
X18822500Y-13342500D01*
X18822500Y-13292500D02*
X18772500Y-13342500D01*
X18772500Y-13592500D02*
X18822500Y-13642500D01*
X18822500Y-13592500D02*
X18772500Y-13642500D01*
X18772500Y-13892500D02*
X18822500Y-13942500D01*
X18822500Y-13892500D02*
X18772500Y-13942500D01*
X18772500Y-14192500D02*
X18822500Y-14242500D01*
X18822500Y-14192500D02*
X18772500Y-14242500D01*
X18772500Y-14492500D02*
X18822500Y-14542500D01*
X18822500Y-14492500D02*
X18772500Y-14542500D01*
X19072500Y-10592500D02*
X19122500Y-10642500D01*
X19122500Y-10592500D02*
X19072500Y-10642500D01*
X19072500Y-10892500D02*
X19122500Y-10942500D01*
X19122500Y-10892500D02*
X19072500Y-10942500D01*
X19072500Y-11192500D02*
X19122500Y-11242500D01*
X19122500Y-11192500D02*
X19072500Y-11242500D01*
X19072500Y-11492500D02*
X19122500Y-11542500D01*
X19122500Y-11492500D02*
X19072500Y-11542500D01*
X19072500Y-11792500D02*
X19122500Y-11842500D01*
X19122500Y-11792500D02*
X19072500Y-11842500D01*
X19072500Y-12092500D02*
X19122500Y-12142500D01*
X19122500Y-12092500D02*
X19072500Y-12142500D01*
X19072500Y-12392500D02*
X19122500Y-12442500D01*
X19122500Y-12392500D02*
X19072500Y-12442500D01*
X19072500Y-12692500D02*
X19122500Y-12742500D01*
X19122500Y-12692500D02*
X19072500Y-12742500D01*
X19072500Y-12992500D02*
X19122500Y-13042500D01*
X19122500Y-12992500D02*
X19072500Y-13042500D01*
X19072500Y-13292500D02*
X19122500Y-13342500D01*
X19122500Y-13292500D02*
X19072500Y-13342500D01*
X19072500Y-13592500D02*
X19122500Y-13642500D01*
X19122500Y-13592500D02*
X19072500Y-13642500D01*
X19072500Y-13892500D02*
X19122500Y-13942500D01*
X19122500Y-13892500D02*
X19072500Y-13942500D01*
X19072500Y-14192500D02*
X19122500Y-14242500D01*
X19122500Y-14192500D02*
X19072500Y-14242500D01*
X19072500Y-14492500D02*
X19122500Y-14542500D01*
X19122500Y-14492500D02*
X19072500Y-14542500D01*
X19072500Y-14792500D02*
X19122500Y-14842500D01*
X19122500Y-14792500D02*
X19072500Y-14842500D01*
X11907500Y-10320000D02*
G75*
G02*
X11847500Y-10320000I-30000J0D01*
G01*
X11847500Y-10320000D02*
G75*
G02*
X11907500Y-10320000I30000J0D01*
G01*
X11907500Y-15200000D02*
G75*
G02*
X11847500Y-15200000I-30000J0D01*
G01*
X11847500Y-15200000D02*
G75*
G02*
X11907500Y-15200000I30000J0D01*
G01*
X12001958Y-10091958D02*
G75*
G02*
X11941958Y-10091958I-30000J0D01*
G01*
X11941958Y-10091958D02*
G75*
G02*
X12001958Y-10091958I30000J0D01*
G01*
X12001958Y-10548042D02*
G75*
G02*
X11941958Y-10548042I-30000J0D01*
G01*
X11941958Y-10548042D02*
G75*
G02*
X12001958Y-10548042I30000J0D01*
G01*
X12001958Y-14971958D02*
G75*
G02*
X11941958Y-14971958I-30000J0D01*
G01*
X11941958Y-14971958D02*
G75*
G02*
X12001958Y-14971958I30000J0D01*
G01*
X12001958Y-15428042D02*
G75*
G02*
X11941958Y-15428042I-30000J0D01*
G01*
X11941958Y-15428042D02*
G75*
G02*
X12001958Y-15428042I30000J0D01*
G01*
X12230000Y-9997500D02*
G75*
G02*
X12170000Y-9997500I-30000J0D01*
G01*
X12170000Y-9997500D02*
G75*
G02*
X12230000Y-9997500I30000J0D01*
G01*
X12230000Y-10642500D02*
G75*
G02*
X12170000Y-10642500I-30000J0D01*
G01*
X12170000Y-10642500D02*
G75*
G02*
X12230000Y-10642500I30000J0D01*
G01*
X12230000Y-14877500D02*
G75*
G02*
X12170000Y-14877500I-30000J0D01*
G01*
X12170000Y-14877500D02*
G75*
G02*
X12230000Y-14877500I30000J0D01*
G01*
X12230000Y-15522500D02*
G75*
G02*
X12170000Y-15522500I-30000J0D01*
G01*
X12170000Y-15522500D02*
G75*
G02*
X12230000Y-15522500I30000J0D01*
G01*
X12458042Y-10091958D02*
G75*
G02*
X12398042Y-10091958I-30000J0D01*
G01*
X12398042Y-10091958D02*
G75*
G02*
X12458042Y-10091958I30000J0D01*
G01*
X12458042Y-10548042D02*
G75*
G02*
X12398042Y-10548042I-30000J0D01*
G01*
X12398042Y-10548042D02*
G75*
G02*
X12458042Y-10548042I30000J0D01*
G01*
X12458042Y-14971958D02*
G75*
G02*
X12398042Y-14971958I-30000J0D01*
G01*
X12398042Y-14971958D02*
G75*
G02*
X12458042Y-14971958I30000J0D01*
G01*
X12458042Y-15428042D02*
G75*
G02*
X12398042Y-15428042I-30000J0D01*
G01*
X12398042Y-15428042D02*
G75*
G02*
X12458042Y-15428042I30000J0D01*
G01*
X12552500Y-10320000D02*
G75*
G02*
X12492500Y-10320000I-30000J0D01*
G01*
X12492500Y-10320000D02*
G75*
G02*
X12552500Y-10320000I30000J0D01*
G01*
X12552500Y-15200000D02*
G75*
G02*
X12492500Y-15200000I-30000J0D01*
G01*
X12492500Y-15200000D02*
G75*
G02*
X12552500Y-15200000I30000J0D01*
G01*
X18307500Y-10320000D02*
G75*
G02*
X18247500Y-10320000I-30000J0D01*
G01*
X18247500Y-10320000D02*
G75*
G02*
X18307500Y-10320000I30000J0D01*
G01*
X18307500Y-15200000D02*
G75*
G02*
X18247500Y-15200000I-30000J0D01*
G01*
X18247500Y-15200000D02*
G75*
G02*
X18307500Y-15200000I30000J0D01*
G01*
X18401958Y-10091958D02*
G75*
G02*
X18341958Y-10091958I-30000J0D01*
G01*
X18341958Y-10091958D02*
G75*
G02*
X18401958Y-10091958I30000J0D01*
G01*
X18401958Y-10548042D02*
G75*
G02*
X18341958Y-10548042I-30000J0D01*
G01*
X18341958Y-10548042D02*
G75*
G02*
X18401958Y-10548042I30000J0D01*
G01*
X18401958Y-14971958D02*
G75*
G02*
X18341958Y-14971958I-30000J0D01*
G01*
X18341958Y-14971958D02*
G75*
G02*
X18401958Y-14971958I30000J0D01*
G01*
X18401958Y-15428042D02*
G75*
G02*
X18341958Y-15428042I-30000J0D01*
G01*
X18341958Y-15428042D02*
G75*
G02*
X18401958Y-15428042I30000J0D01*
G01*
X18630000Y-9997500D02*
G75*
G02*
X18570000Y-9997500I-30000J0D01*
G01*
X18570000Y-9997500D02*
G75*
G02*
X18630000Y-9997500I30000J0D01*
G01*
X18630000Y-10642500D02*
G75*
G02*
X18570000Y-10642500I-30000J0D01*
G01*
X18570000Y-10642500D02*
G75*
G02*
X18630000Y-10642500I30000J0D01*
G01*
X18630000Y-14877500D02*
G75*
G02*
X18570000Y-14877500I-30000J0D01*
G01*
X18570000Y-14877500D02*
G75*
G02*
X18630000Y-14877500I30000J0D01*
G01*
X18630000Y-15522500D02*
G75*
G02*
X18570000Y-15522500I-30000J0D01*
G01*
X18570000Y-15522500D02*
G75*
G02*
X18630000Y-15522500I30000J0D01*
G01*
X18858042Y-10091958D02*
G75*
G02*
X18798042Y-10091958I-30000J0D01*
G01*
X18798042Y-10091958D02*
G75*
G02*
X18858042Y-10091958I30000J0D01*
G01*
X18858042Y-10548042D02*
G75*
G02*
X18798042Y-10548042I-30000J0D01*
G01*
X18798042Y-10548042D02*
G75*
G02*
X18858042Y-10548042I30000J0D01*
G01*
X18858042Y-14971958D02*
G75*
G02*
X18798042Y-14971958I-30000J0D01*
G01*
X18798042Y-14971958D02*
G75*
G02*
X18858042Y-14971958I30000J0D01*
G01*
X18858042Y-15428042D02*
G75*
G02*
X18798042Y-15428042I-30000J0D01*
G01*
X18798042Y-15428042D02*
G75*
G02*
X18858042Y-15428042I30000J0D01*
G01*
X18952500Y-10320000D02*
G75*
G02*
X18892500Y-10320000I-30000J0D01*
G01*
X18892500Y-10320000D02*
G75*
G02*
X18952500Y-10320000I30000J0D01*
G01*
X18952500Y-15200000D02*
G75*
G02*
X18892500Y-15200000I-30000J0D01*
G01*
X18892500Y-15200000D02*
G75*
G02*
X18952500Y-15200000I30000J0D01*
G01*
X12658000Y-12826000D02*
X12658000Y-12906000D01*
X12618000Y-12866000D02*
X12698000Y-12866000D01*
X12658000Y-13080000D02*
X12658000Y-13160000D01*
X12618000Y-13120000D02*
X12698000Y-13120000D01*
X12658000Y-13334000D02*
X12658000Y-13414000D01*
X12618000Y-13374000D02*
X12698000Y-13374000D01*
X12658000Y-13588000D02*
X12658000Y-13668000D01*
X12618000Y-13628000D02*
X12698000Y-13628000D01*
X12658000Y-13842000D02*
X12658000Y-13922000D01*
X12618000Y-13882000D02*
X12698000Y-13882000D01*
X12658000Y-14096000D02*
X12658000Y-14176000D01*
X12618000Y-14136000D02*
X12698000Y-14136000D01*
X12658000Y-14350000D02*
X12658000Y-14430000D01*
X12618000Y-14390000D02*
X12698000Y-14390000D01*
X12920000Y-14950000D02*
X12920000Y-15030000D01*
X12880000Y-14990000D02*
X12960000Y-14990000D01*
X13170000Y-14950000D02*
X13170000Y-15030000D01*
X13130000Y-14990000D02*
X13210000Y-14990000D01*
X13420000Y-12826000D02*
X13420000Y-12906000D01*
X13380000Y-12866000D02*
X13460000Y-12866000D01*
X13420000Y-13080000D02*
X13420000Y-13160000D01*
X13380000Y-13120000D02*
X13460000Y-13120000D01*
X13420000Y-13334000D02*
X13420000Y-13414000D01*
X13380000Y-13374000D02*
X13460000Y-13374000D01*
X13420000Y-13588000D02*
X13420000Y-13668000D01*
X13380000Y-13628000D02*
X13460000Y-13628000D01*
X13420000Y-13842000D02*
X13420000Y-13922000D01*
X13380000Y-13882000D02*
X13460000Y-13882000D01*
X13420000Y-14096000D02*
X13420000Y-14176000D01*
X13380000Y-14136000D02*
X13460000Y-14136000D01*
X13420000Y-14350000D02*
X13420000Y-14430000D01*
X13380000Y-14390000D02*
X13460000Y-14390000D01*
X13530000Y-11089489D02*
X13530000Y-11169489D01*
X13490000Y-11129489D02*
X13570000Y-11129489D01*
X13659489Y-10262989D02*
X13659489Y-10342989D01*
X13619489Y-10302989D02*
X13699489Y-10302989D01*
X13659489Y-10512989D02*
X13659489Y-10592989D01*
X13619489Y-10552989D02*
X13699489Y-10552989D01*
X13780000Y-11089489D02*
X13780000Y-11169489D01*
X13740000Y-11129489D02*
X13820000Y-11129489D01*
X14020000Y-12826000D02*
X14020000Y-12906000D01*
X13980000Y-12866000D02*
X14060000Y-12866000D01*
X14020000Y-13080000D02*
X14020000Y-13160000D01*
X13980000Y-13120000D02*
X14060000Y-13120000D01*
X14020000Y-13334000D02*
X14020000Y-13414000D01*
X13980000Y-13374000D02*
X14060000Y-13374000D01*
X14020000Y-13588000D02*
X14020000Y-13668000D01*
X13980000Y-13628000D02*
X14060000Y-13628000D01*
X14020000Y-13842000D02*
X14020000Y-13922000D01*
X13980000Y-13882000D02*
X14060000Y-13882000D01*
X14020000Y-14096000D02*
X14020000Y-14176000D01*
X13980000Y-14136000D02*
X14060000Y-14136000D01*
X14020000Y-14350000D02*
X14020000Y-14430000D01*
X13980000Y-14390000D02*
X14060000Y-14390000D01*
X14320000Y-11350000D02*
X14320000Y-11430000D01*
X14280000Y-11390000D02*
X14360000Y-11390000D01*
X14320000Y-11600000D02*
X14320000Y-11680000D01*
X14280000Y-11640000D02*
X14360000Y-11640000D01*
X14782000Y-12826000D02*
X14782000Y-12906000D01*
X14742000Y-12866000D02*
X14822000Y-12866000D01*
X14782000Y-13080000D02*
X14782000Y-13160000D01*
X14742000Y-13120000D02*
X14822000Y-13120000D01*
X14782000Y-13334000D02*
X14782000Y-13414000D01*
X14742000Y-13374000D02*
X14822000Y-13374000D01*
X14782000Y-13588000D02*
X14782000Y-13668000D01*
X14742000Y-13628000D02*
X14822000Y-13628000D01*
X14782000Y-13842000D02*
X14782000Y-13922000D01*
X14742000Y-13882000D02*
X14822000Y-13882000D01*
X14782000Y-14096000D02*
X14782000Y-14176000D01*
X14742000Y-14136000D02*
X14822000Y-14136000D01*
X14782000Y-14350000D02*
X14782000Y-14430000D01*
X14742000Y-14390000D02*
X14822000Y-14390000D01*
X14800000Y-11338000D02*
X14800000Y-11418000D01*
X14760000Y-11378000D02*
X14840000Y-11378000D01*
X14800000Y-12100000D02*
X14800000Y-12180000D01*
X14760000Y-12140000D02*
X14840000Y-12140000D01*
X15054000Y-11338000D02*
X15054000Y-11418000D01*
X15014000Y-11378000D02*
X15094000Y-11378000D01*
X15054000Y-12100000D02*
X15054000Y-12180000D01*
X15014000Y-12140000D02*
X15094000Y-12140000D01*
X15220000Y-13000000D02*
X15220000Y-13080000D01*
X15180000Y-13040000D02*
X15260000Y-13040000D01*
X15308000Y-11338000D02*
X15308000Y-11418000D01*
X15268000Y-11378000D02*
X15348000Y-11378000D01*
X15308000Y-12100000D02*
X15308000Y-12180000D01*
X15268000Y-12140000D02*
X15348000Y-12140000D01*
X15420000Y-14638000D02*
X15420000Y-14718000D01*
X15380000Y-14678000D02*
X15460000Y-14678000D01*
X15420000Y-15400000D02*
X15420000Y-15480000D01*
X15380000Y-15440000D02*
X15460000Y-15440000D01*
X15470000Y-13000000D02*
X15470000Y-13080000D01*
X15430000Y-13040000D02*
X15510000Y-13040000D01*
X15562000Y-11338000D02*
X15562000Y-11418000D01*
X15522000Y-11378000D02*
X15602000Y-11378000D01*
X15562000Y-12100000D02*
X15562000Y-12180000D01*
X15522000Y-12140000D02*
X15602000Y-12140000D01*
X15620000Y-13950000D02*
X15620000Y-14030000D01*
X15580000Y-13990000D02*
X15660000Y-13990000D01*
X15720000Y-14638000D02*
X15720000Y-14718000D01*
X15680000Y-14678000D02*
X15760000Y-14678000D01*
X15720000Y-15400000D02*
X15720000Y-15480000D01*
X15680000Y-15440000D02*
X15760000Y-15440000D01*
X15816000Y-11338000D02*
X15816000Y-11418000D01*
X15776000Y-11378000D02*
X15856000Y-11378000D01*
X15816000Y-12100000D02*
X15816000Y-12180000D01*
X15776000Y-12140000D02*
X15856000Y-12140000D01*
X15870000Y-13950000D02*
X15870000Y-14030000D01*
X15830000Y-13990000D02*
X15910000Y-13990000D01*
X16070000Y-11338000D02*
X16070000Y-11418000D01*
X16030000Y-11378000D02*
X16110000Y-11378000D01*
X16070000Y-12100000D02*
X16070000Y-12180000D01*
X16030000Y-12140000D02*
X16110000Y-12140000D01*
X16286000Y-15153500D02*
X16286000Y-15233500D01*
X16246000Y-15193500D02*
X16326000Y-15193500D01*
X16286000Y-15403500D02*
X16286000Y-15483500D01*
X16246000Y-15443500D02*
X16326000Y-15443500D01*
X16324000Y-11338000D02*
X16324000Y-11418000D01*
X16284000Y-11378000D02*
X16364000Y-11378000D01*
X16324000Y-12100000D02*
X16324000Y-12180000D01*
X16284000Y-12140000D02*
X16364000Y-12140000D01*
X16354000Y-13946000D02*
X16354000Y-14026000D01*
X16314000Y-13986000D02*
X16394000Y-13986000D01*
X16354000Y-14708000D02*
X16354000Y-14788000D01*
X16314000Y-14748000D02*
X16394000Y-14748000D01*
X16608000Y-13946000D02*
X16608000Y-14026000D01*
X16568000Y-13986000D02*
X16648000Y-13986000D01*
X16608000Y-14708000D02*
X16608000Y-14788000D01*
X16568000Y-14748000D02*
X16648000Y-14748000D01*
X16862000Y-13946000D02*
X16862000Y-14026000D01*
X16822000Y-13986000D02*
X16902000Y-13986000D01*
X16862000Y-14708000D02*
X16862000Y-14788000D01*
X16822000Y-14748000D02*
X16902000Y-14748000D01*
X17031500Y-11450000D02*
X17031500Y-11530000D01*
X16991500Y-11490000D02*
X17071500Y-11490000D01*
X17031500Y-11750000D02*
X17031500Y-11830000D01*
X16991500Y-11790000D02*
X17071500Y-11790000D01*
X17031500Y-12050000D02*
X17031500Y-12130000D01*
X16991500Y-12090000D02*
X17071500Y-12090000D01*
X17031500Y-12350000D02*
X17031500Y-12430000D01*
X16991500Y-12390000D02*
X17071500Y-12390000D01*
X17031500Y-12650000D02*
X17031500Y-12730000D01*
X16991500Y-12690000D02*
X17071500Y-12690000D01*
X17031500Y-12950000D02*
X17031500Y-13030000D01*
X16991500Y-12990000D02*
X17071500Y-12990000D01*
X17031500Y-13250000D02*
X17031500Y-13330000D01*
X16991500Y-13290000D02*
X17071500Y-13290000D01*
X17036000Y-15103500D02*
X17036000Y-15183500D01*
X16996000Y-15143500D02*
X17076000Y-15143500D01*
X17036000Y-15353500D02*
X17036000Y-15433500D01*
X16996000Y-15393500D02*
X17076000Y-15393500D01*
X17116000Y-13946000D02*
X17116000Y-14026000D01*
X17076000Y-13986000D02*
X17156000Y-13986000D01*
X17116000Y-14708000D02*
X17116000Y-14788000D01*
X17076000Y-14748000D02*
X17156000Y-14748000D01*
X17370000Y-13946000D02*
X17370000Y-14026000D01*
X17330000Y-13986000D02*
X17410000Y-13986000D01*
X17370000Y-14708000D02*
X17370000Y-14788000D01*
X17330000Y-14748000D02*
X17410000Y-14748000D01*
X17624000Y-13946000D02*
X17624000Y-14026000D01*
X17584000Y-13986000D02*
X17664000Y-13986000D01*
X17624000Y-14708000D02*
X17624000Y-14788000D01*
X17584000Y-14748000D02*
X17664000Y-14748000D01*
X17793500Y-11450000D02*
X17793500Y-11530000D01*
X17753500Y-11490000D02*
X17833500Y-11490000D01*
X17793500Y-11750000D02*
X17793500Y-11830000D01*
X17753500Y-11790000D02*
X17833500Y-11790000D01*
X17793500Y-12050000D02*
X17793500Y-12130000D01*
X17753500Y-12090000D02*
X17833500Y-12090000D01*
X17793500Y-12350000D02*
X17793500Y-12430000D01*
X17753500Y-12390000D02*
X17833500Y-12390000D01*
X17793500Y-12650000D02*
X17793500Y-12730000D01*
X17753500Y-12690000D02*
X17833500Y-12690000D01*
X17793500Y-12950000D02*
X17793500Y-13030000D01*
X17753500Y-12990000D02*
X17833500Y-12990000D01*
X17793500Y-13250000D02*
X17793500Y-13330000D01*
X17753500Y-13290000D02*
X17833500Y-13290000D01*
X17878000Y-13946000D02*
X17878000Y-14026000D01*
X17838000Y-13986000D02*
X17918000Y-13986000D01*
X17878000Y-14708000D02*
X17878000Y-14788000D01*
X17838000Y-14748000D02*
X17918000Y-14748000D01*
X12505356Y-11108856D02*
X12505356Y-11038144D01*
X12434644Y-11038144D01*
X12434644Y-11108856D01*
X12505356Y-11108856D01*
X12505356Y-11362856D02*
X12505356Y-11292144D01*
X12434644Y-11292144D01*
X12434644Y-11362856D01*
X12505356Y-11362856D01*
X14905356Y-14975356D02*
X14905356Y-14904644D01*
X14834644Y-14904644D01*
X14834644Y-14975356D01*
X14905356Y-14975356D01*
X14905356Y-15229356D02*
X14905356Y-15158644D01*
X14834644Y-15158644D01*
X14834644Y-15229356D01*
X14905356Y-15229356D01*
X18401356Y-11663356D02*
X18401356Y-11592644D01*
X18330644Y-11592644D01*
X18330644Y-11663356D01*
X18401356Y-11663356D01*
X18401356Y-11917356D02*
X18401356Y-11846644D01*
X18330644Y-11846644D01*
X18330644Y-11917356D01*
X18401356Y-11917356D01*
X18401356Y-12171356D02*
X18401356Y-12100644D01*
X18330644Y-12100644D01*
X18330644Y-12171356D01*
X18401356Y-12171356D01*
X18401356Y-12425356D02*
X18401356Y-12354644D01*
X18330644Y-12354644D01*
X18330644Y-12425356D01*
X18401356Y-12425356D01*
X18401356Y-12679356D02*
X18401356Y-12608644D01*
X18330644Y-12608644D01*
X18330644Y-12679356D01*
X18401356Y-12679356D01*
X18401356Y-12933356D02*
X18401356Y-12862644D01*
X18330644Y-12862644D01*
X18330644Y-12933356D01*
X18401356Y-12933356D01*
X18401356Y-13187356D02*
X18401356Y-13116644D01*
X18330644Y-13116644D01*
X18330644Y-13187356D01*
X18401356Y-13187356D01*
X18655356Y-11663356D02*
X18655356Y-11592644D01*
X18584644Y-11592644D01*
X18584644Y-11663356D01*
X18655356Y-11663356D01*
X18655356Y-11917356D02*
X18655356Y-11846644D01*
X18584644Y-11846644D01*
X18584644Y-11917356D01*
X18655356Y-11917356D01*
X18655356Y-12171356D02*
X18655356Y-12100644D01*
X18584644Y-12100644D01*
X18584644Y-12171356D01*
X18655356Y-12171356D01*
X18655356Y-12425356D02*
X18655356Y-12354644D01*
X18584644Y-12354644D01*
X18584644Y-12425356D01*
X18655356Y-12425356D01*
X18655356Y-12679356D02*
X18655356Y-12608644D01*
X18584644Y-12608644D01*
X18584644Y-12679356D01*
X18655356Y-12679356D01*
X18655356Y-12933356D02*
X18655356Y-12862644D01*
X18584644Y-12862644D01*
X18584644Y-12933356D01*
X18655356Y-12933356D01*
X18655356Y-13187356D02*
X18655356Y-13116644D01*
X18584644Y-13116644D01*
X18584644Y-13187356D01*
X18655356Y-13187356D01*
X18655356Y-13633356D02*
X18655356Y-13562644D01*
X18584644Y-13562644D01*
X18584644Y-13633356D01*
X18655356Y-13633356D01*
X18655356Y-13887356D02*
X18655356Y-13816644D01*
X18584644Y-13816644D01*
X18584644Y-13887356D01*
X18655356Y-13887356D01*
X18655356Y-14141356D02*
X18655356Y-14070644D01*
X18584644Y-14070644D01*
X18584644Y-14141356D01*
X18655356Y-14141356D01*
X18655356Y-14395356D02*
X18655356Y-14324644D01*
X18584644Y-14324644D01*
X18584644Y-14395356D01*
X18655356Y-14395356D01*
D13*
X12909489Y-10357989D02*
X12964489Y-10302989D01*
X12909489Y-10247989D01*
X12854489Y-10302989D01*
X12909489Y-10357989D01*
X12909489Y-11373989D02*
X12964489Y-11318989D01*
X12909489Y-11263989D01*
X12854489Y-11318989D01*
X12909489Y-11373989D01*
X14259489Y-10357989D02*
X14314489Y-10302989D01*
X14259489Y-10247989D01*
X14204489Y-10302989D01*
X14259489Y-10357989D01*
X14259489Y-10611989D02*
X14314489Y-10556989D01*
X14259489Y-10501989D01*
X14204489Y-10556989D01*
X14259489Y-10611989D01*
X14259489Y-10865989D02*
X14314489Y-10810989D01*
X14259489Y-10755989D01*
X14204489Y-10810989D01*
X14259489Y-10865989D01*
D14*
X11985000Y-10105000D02*
X12415000Y-10535000D01*
X12415000Y-10105000D02*
X11985000Y-10535000D01*
X12415000Y-10320000D02*
G75*
G02*
X11985000Y-10320000I-215000J0D01*
G01*
X11985000Y-10320000D02*
G75*
G02*
X12415000Y-10320000I215000J0D01*
G01*
X11985000Y-14985000D02*
X12415000Y-15415000D01*
X12415000Y-14985000D02*
X11985000Y-15415000D01*
X12415000Y-15200000D02*
G75*
G02*
X11985000Y-15200000I-215000J0D01*
G01*
X11985000Y-15200000D02*
G75*
G02*
X12415000Y-15200000I215000J0D01*
G01*
X18385000Y-10105000D02*
X18815000Y-10535000D01*
X18815000Y-10105000D02*
X18385000Y-10535000D01*
X18815000Y-10320000D02*
G75*
G02*
X18385000Y-10320000I-215000J0D01*
G01*
X18385000Y-10320000D02*
G75*
G02*
X18815000Y-10320000I215000J0D01*
G01*
X18385000Y-14985000D02*
X18815000Y-15415000D01*
X18815000Y-14985000D02*
X18385000Y-15415000D01*
X18815000Y-15200000D02*
G75*
G02*
X18385000Y-15200000I-215000J0D01*
G01*
X18385000Y-15200000D02*
G75*
G02*
X18815000Y-15200000I215000J0D01*
G01*
D11*
X11858277Y-16113984D02*
X11858277Y-15913984D01*
X11858277Y-15913984D02*
X11905896Y-15913984D01*
X11905896Y-15913984D02*
X11934467Y-15923508D01*
X11934467Y-15923508D02*
X11953515Y-15942555D01*
X11953515Y-15942555D02*
X11963039Y-15961603D01*
X11963039Y-15961603D02*
X11972562Y-15999698D01*
X11972562Y-15999698D02*
X11972562Y-16028269D01*
X11972562Y-16028269D02*
X11963039Y-16066365D01*
X11963039Y-16066365D02*
X11953515Y-16085412D01*
X11953515Y-16085412D02*
X11934467Y-16104460D01*
X11934467Y-16104460D02*
X11905896Y-16113984D01*
X11905896Y-16113984D02*
X11858277Y-16113984D01*
X12058277Y-16113984D02*
X12058277Y-15980650D01*
X12058277Y-16018746D02*
X12067801Y-15999698D01*
X12067801Y-15999698D02*
X12077324Y-15990174D01*
X12077324Y-15990174D02*
X12096372Y-15980650D01*
X12096372Y-15980650D02*
X12115420Y-15980650D01*
X12182086Y-16113984D02*
X12182086Y-15980650D01*
X12182086Y-15913984D02*
X12172562Y-15923508D01*
X12172562Y-15923508D02*
X12182086Y-15933031D01*
X12182086Y-15933031D02*
X12191610Y-15923508D01*
X12191610Y-15923508D02*
X12182086Y-15913984D01*
X12182086Y-15913984D02*
X12182086Y-15933031D01*
X12305896Y-16113984D02*
X12286848Y-16104460D01*
X12286848Y-16104460D02*
X12277324Y-16085412D01*
X12277324Y-16085412D02*
X12277324Y-15913984D01*
X12410658Y-16113984D02*
X12391610Y-16104460D01*
X12391610Y-16104460D02*
X12382086Y-16085412D01*
X12382086Y-16085412D02*
X12382086Y-15913984D01*
X12639229Y-16113984D02*
X12639229Y-15913984D01*
X12639229Y-15913984D02*
X12705896Y-16056841D01*
X12705896Y-16056841D02*
X12772562Y-15913984D01*
X12772562Y-15913984D02*
X12772562Y-16113984D01*
X12953515Y-16113984D02*
X12953515Y-16009222D01*
X12953515Y-16009222D02*
X12943991Y-15990174D01*
X12943991Y-15990174D02*
X12924943Y-15980650D01*
X12924943Y-15980650D02*
X12886848Y-15980650D01*
X12886848Y-15980650D02*
X12867801Y-15990174D01*
X12953515Y-16104460D02*
X12934467Y-16113984D01*
X12934467Y-16113984D02*
X12886848Y-16113984D01*
X12886848Y-16113984D02*
X12867801Y-16104460D01*
X12867801Y-16104460D02*
X12858277Y-16085412D01*
X12858277Y-16085412D02*
X12858277Y-16066365D01*
X12858277Y-16066365D02*
X12867801Y-16047317D01*
X12867801Y-16047317D02*
X12886848Y-16037793D01*
X12886848Y-16037793D02*
X12934467Y-16037793D01*
X12934467Y-16037793D02*
X12953515Y-16028269D01*
X13048753Y-15980650D02*
X13048753Y-16180650D01*
X13048753Y-15990174D02*
X13067801Y-15980650D01*
X13067801Y-15980650D02*
X13105896Y-15980650D01*
X13105896Y-15980650D02*
X13124943Y-15990174D01*
X13124943Y-15990174D02*
X13134467Y-15999698D01*
X13134467Y-15999698D02*
X13143991Y-16018746D01*
X13143991Y-16018746D02*
X13143991Y-16075888D01*
X13143991Y-16075888D02*
X13134467Y-16094936D01*
X13134467Y-16094936D02*
X13124943Y-16104460D01*
X13124943Y-16104460D02*
X13105896Y-16113984D01*
X13105896Y-16113984D02*
X13067801Y-16113984D01*
X13067801Y-16113984D02*
X13048753Y-16104460D01*
X13229705Y-16094936D02*
X13239229Y-16104460D01*
X13239229Y-16104460D02*
X13229705Y-16113984D01*
X13229705Y-16113984D02*
X13220182Y-16104460D01*
X13220182Y-16104460D02*
X13229705Y-16094936D01*
X13229705Y-16094936D02*
X13229705Y-16113984D01*
X13229705Y-15990174D02*
X13239229Y-15999698D01*
X13239229Y-15999698D02*
X13229705Y-16009222D01*
X13229705Y-16009222D02*
X13220182Y-15999698D01*
X13220182Y-15999698D02*
X13229705Y-15990174D01*
X13229705Y-15990174D02*
X13229705Y-16009222D01*
D12*
X11547500Y-16417500D02*
X11597500Y-16467500D01*
X11597500Y-16417500D02*
X11547500Y-16467500D01*
D11*
X11896372Y-16333984D02*
X11915420Y-16333984D01*
X11915420Y-16333984D02*
X11934467Y-16343508D01*
X11934467Y-16343508D02*
X11943991Y-16353031D01*
X11943991Y-16353031D02*
X11953515Y-16372079D01*
X11953515Y-16372079D02*
X11963039Y-16410174D01*
X11963039Y-16410174D02*
X11963039Y-16457793D01*
X11963039Y-16457793D02*
X11953515Y-16495888D01*
X11953515Y-16495888D02*
X11943991Y-16514936D01*
X11943991Y-16514936D02*
X11934467Y-16524460D01*
X11934467Y-16524460D02*
X11915420Y-16533984D01*
X11915420Y-16533984D02*
X11896372Y-16533984D01*
X11896372Y-16533984D02*
X11877324Y-16524460D01*
X11877324Y-16524460D02*
X11867801Y-16514936D01*
X11867801Y-16514936D02*
X11858277Y-16495888D01*
X11858277Y-16495888D02*
X11848753Y-16457793D01*
X11848753Y-16457793D02*
X11848753Y-16410174D01*
X11848753Y-16410174D02*
X11858277Y-16372079D01*
X11858277Y-16372079D02*
X11867801Y-16353031D01*
X11867801Y-16353031D02*
X11877324Y-16343508D01*
X11877324Y-16343508D02*
X11896372Y-16333984D01*
X12048753Y-16514936D02*
X12058277Y-16524460D01*
X12058277Y-16524460D02*
X12048753Y-16533984D01*
X12048753Y-16533984D02*
X12039229Y-16524460D01*
X12039229Y-16524460D02*
X12048753Y-16514936D01*
X12048753Y-16514936D02*
X12048753Y-16533984D01*
X12239229Y-16333984D02*
X12143991Y-16333984D01*
X12143991Y-16333984D02*
X12134467Y-16429222D01*
X12134467Y-16429222D02*
X12143991Y-16419698D01*
X12143991Y-16419698D02*
X12163039Y-16410174D01*
X12163039Y-16410174D02*
X12210658Y-16410174D01*
X12210658Y-16410174D02*
X12229705Y-16419698D01*
X12229705Y-16419698D02*
X12239229Y-16429222D01*
X12239229Y-16429222D02*
X12248753Y-16448269D01*
X12248753Y-16448269D02*
X12248753Y-16495888D01*
X12248753Y-16495888D02*
X12239229Y-16514936D01*
X12239229Y-16514936D02*
X12229705Y-16524460D01*
X12229705Y-16524460D02*
X12210658Y-16533984D01*
X12210658Y-16533984D02*
X12163039Y-16533984D01*
X12163039Y-16533984D02*
X12143991Y-16524460D01*
X12143991Y-16524460D02*
X12134467Y-16514936D01*
X12372562Y-16333984D02*
X12391610Y-16333984D01*
X12391610Y-16333984D02*
X12410658Y-16343508D01*
X12410658Y-16343508D02*
X12420182Y-16353031D01*
X12420182Y-16353031D02*
X12429705Y-16372079D01*
X12429705Y-16372079D02*
X12439229Y-16410174D01*
X12439229Y-16410174D02*
X12439229Y-16457793D01*
X12439229Y-16457793D02*
X12429705Y-16495888D01*
X12429705Y-16495888D02*
X12420182Y-16514936D01*
X12420182Y-16514936D02*
X12410658Y-16524460D01*
X12410658Y-16524460D02*
X12391610Y-16533984D01*
X12391610Y-16533984D02*
X12372562Y-16533984D01*
X12372562Y-16533984D02*
X12353515Y-16524460D01*
X12353515Y-16524460D02*
X12343991Y-16514936D01*
X12343991Y-16514936D02*
X12334467Y-16495888D01*
X12334467Y-16495888D02*
X12324943Y-16457793D01*
X12324943Y-16457793D02*
X12324943Y-16410174D01*
X12324943Y-16410174D02*
X12334467Y-16372079D01*
X12334467Y-16372079D02*
X12343991Y-16353031D01*
X12343991Y-16353031D02*
X12353515Y-16343508D01*
X12353515Y-16343508D02*
X12372562Y-16333984D01*
X12563039Y-16333984D02*
X12582086Y-16333984D01*
X12582086Y-16333984D02*
X12601134Y-16343508D01*
X12601134Y-16343508D02*
X12610658Y-16353031D01*
X12610658Y-16353031D02*
X12620182Y-16372079D01*
X12620182Y-16372079D02*
X12629705Y-16410174D01*
X12629705Y-16410174D02*
X12629705Y-16457793D01*
X12629705Y-16457793D02*
X12620182Y-16495888D01*
X12620182Y-16495888D02*
X12610658Y-16514936D01*
X12610658Y-16514936D02*
X12601134Y-16524460D01*
X12601134Y-16524460D02*
X12582086Y-16533984D01*
X12582086Y-16533984D02*
X12563039Y-16533984D01*
X12563039Y-16533984D02*
X12543991Y-16524460D01*
X12543991Y-16524460D02*
X12534467Y-16514936D01*
X12534467Y-16514936D02*
X12524943Y-16495888D01*
X12524943Y-16495888D02*
X12515420Y-16457793D01*
X12515420Y-16457793D02*
X12515420Y-16410174D01*
X12515420Y-16410174D02*
X12524943Y-16372079D01*
X12524943Y-16372079D02*
X12534467Y-16353031D01*
X12534467Y-16353031D02*
X12543991Y-16343508D01*
X12543991Y-16343508D02*
X12563039Y-16333984D01*
X12715420Y-16533984D02*
X12715420Y-16400650D01*
X12715420Y-16419698D02*
X12724943Y-16410174D01*
X12724943Y-16410174D02*
X12743991Y-16400650D01*
X12743991Y-16400650D02*
X12772563Y-16400650D01*
X12772563Y-16400650D02*
X12791610Y-16410174D01*
X12791610Y-16410174D02*
X12801134Y-16429222D01*
X12801134Y-16429222D02*
X12801134Y-16533984D01*
X12801134Y-16429222D02*
X12810658Y-16410174D01*
X12810658Y-16410174D02*
X12829705Y-16400650D01*
X12829705Y-16400650D02*
X12858277Y-16400650D01*
X12858277Y-16400650D02*
X12877324Y-16410174D01*
X12877324Y-16410174D02*
X12886848Y-16429222D01*
X12886848Y-16429222D02*
X12886848Y-16533984D01*
X12982086Y-16533984D02*
X12982086Y-16400650D01*
X12982086Y-16419698D02*
X12991610Y-16410174D01*
X12991610Y-16410174D02*
X13010658Y-16400650D01*
X13010658Y-16400650D02*
X13039229Y-16400650D01*
X13039229Y-16400650D02*
X13058277Y-16410174D01*
X13058277Y-16410174D02*
X13067801Y-16429222D01*
X13067801Y-16429222D02*
X13067801Y-16533984D01*
X13067801Y-16429222D02*
X13077324Y-16410174D01*
X13077324Y-16410174D02*
X13096372Y-16400650D01*
X13096372Y-16400650D02*
X13124943Y-16400650D01*
X13124943Y-16400650D02*
X13143991Y-16410174D01*
X13143991Y-16410174D02*
X13153515Y-16429222D01*
X13153515Y-16429222D02*
X13153515Y-16533984D01*
X13543991Y-16324460D02*
X13372563Y-16581603D01*
X13801134Y-16333984D02*
X13820182Y-16333984D01*
X13820182Y-16333984D02*
X13839229Y-16343508D01*
X13839229Y-16343508D02*
X13848753Y-16353031D01*
X13848753Y-16353031D02*
X13858277Y-16372079D01*
X13858277Y-16372079D02*
X13867801Y-16410174D01*
X13867801Y-16410174D02*
X13867801Y-16457793D01*
X13867801Y-16457793D02*
X13858277Y-16495888D01*
X13858277Y-16495888D02*
X13848753Y-16514936D01*
X13848753Y-16514936D02*
X13839229Y-16524460D01*
X13839229Y-16524460D02*
X13820182Y-16533984D01*
X13820182Y-16533984D02*
X13801134Y-16533984D01*
X13801134Y-16533984D02*
X13782086Y-16524460D01*
X13782086Y-16524460D02*
X13772563Y-16514936D01*
X13772563Y-16514936D02*
X13763039Y-16495888D01*
X13763039Y-16495888D02*
X13753515Y-16457793D01*
X13753515Y-16457793D02*
X13753515Y-16410174D01*
X13753515Y-16410174D02*
X13763039Y-16372079D01*
X13763039Y-16372079D02*
X13772563Y-16353031D01*
X13772563Y-16353031D02*
X13782086Y-16343508D01*
X13782086Y-16343508D02*
X13801134Y-16333984D01*
X13953515Y-16514936D02*
X13963039Y-16524460D01*
X13963039Y-16524460D02*
X13953515Y-16533984D01*
X13953515Y-16533984D02*
X13943991Y-16524460D01*
X13943991Y-16524460D02*
X13953515Y-16514936D01*
X13953515Y-16514936D02*
X13953515Y-16533984D01*
X14086848Y-16333984D02*
X14105896Y-16333984D01*
X14105896Y-16333984D02*
X14124944Y-16343508D01*
X14124944Y-16343508D02*
X14134467Y-16353031D01*
X14134467Y-16353031D02*
X14143991Y-16372079D01*
X14143991Y-16372079D02*
X14153515Y-16410174D01*
X14153515Y-16410174D02*
X14153515Y-16457793D01*
X14153515Y-16457793D02*
X14143991Y-16495888D01*
X14143991Y-16495888D02*
X14134467Y-16514936D01*
X14134467Y-16514936D02*
X14124944Y-16524460D01*
X14124944Y-16524460D02*
X14105896Y-16533984D01*
X14105896Y-16533984D02*
X14086848Y-16533984D01*
X14086848Y-16533984D02*
X14067801Y-16524460D01*
X14067801Y-16524460D02*
X14058277Y-16514936D01*
X14058277Y-16514936D02*
X14048753Y-16495888D01*
X14048753Y-16495888D02*
X14039229Y-16457793D01*
X14039229Y-16457793D02*
X14039229Y-16410174D01*
X14039229Y-16410174D02*
X14048753Y-16372079D01*
X14048753Y-16372079D02*
X14058277Y-16353031D01*
X14058277Y-16353031D02*
X14067801Y-16343508D01*
X14067801Y-16343508D02*
X14086848Y-16333984D01*
X14343991Y-16533984D02*
X14229706Y-16533984D01*
X14286848Y-16533984D02*
X14286848Y-16333984D01*
X14286848Y-16333984D02*
X14267801Y-16362555D01*
X14267801Y-16362555D02*
X14248753Y-16381603D01*
X14248753Y-16381603D02*
X14229706Y-16391127D01*
X14439229Y-16533984D02*
X14477325Y-16533984D01*
X14477325Y-16533984D02*
X14496372Y-16524460D01*
X14496372Y-16524460D02*
X14505896Y-16514936D01*
X14505896Y-16514936D02*
X14524944Y-16486365D01*
X14524944Y-16486365D02*
X14534467Y-16448269D01*
X14534467Y-16448269D02*
X14534467Y-16372079D01*
X14534467Y-16372079D02*
X14524944Y-16353031D01*
X14524944Y-16353031D02*
X14515420Y-16343508D01*
X14515420Y-16343508D02*
X14496372Y-16333984D01*
X14496372Y-16333984D02*
X14458277Y-16333984D01*
X14458277Y-16333984D02*
X14439229Y-16343508D01*
X14439229Y-16343508D02*
X14429706Y-16353031D01*
X14429706Y-16353031D02*
X14420182Y-16372079D01*
X14420182Y-16372079D02*
X14420182Y-16419698D01*
X14420182Y-16419698D02*
X14429706Y-16438746D01*
X14429706Y-16438746D02*
X14439229Y-16448269D01*
X14439229Y-16448269D02*
X14458277Y-16457793D01*
X14458277Y-16457793D02*
X14496372Y-16457793D01*
X14496372Y-16457793D02*
X14515420Y-16448269D01*
X14515420Y-16448269D02*
X14524944Y-16438746D01*
X14524944Y-16438746D02*
X14534467Y-16419698D01*
X14601134Y-16333984D02*
X14734467Y-16333984D01*
X14734467Y-16333984D02*
X14648753Y-16533984D01*
X14801134Y-16333984D02*
X14801134Y-16372079D01*
X14877325Y-16333984D02*
X14877325Y-16372079D01*
X15172563Y-16610174D02*
X15163039Y-16600650D01*
X15163039Y-16600650D02*
X15143991Y-16572079D01*
X15143991Y-16572079D02*
X15134468Y-16553031D01*
X15134468Y-16553031D02*
X15124944Y-16524460D01*
X15124944Y-16524460D02*
X15115420Y-16476841D01*
X15115420Y-16476841D02*
X15115420Y-16438746D01*
X15115420Y-16438746D02*
X15124944Y-16391127D01*
X15124944Y-16391127D02*
X15134468Y-16362555D01*
X15134468Y-16362555D02*
X15143991Y-16343508D01*
X15143991Y-16343508D02*
X15163039Y-16314936D01*
X15163039Y-16314936D02*
X15172563Y-16305412D01*
X15239229Y-16353031D02*
X15248753Y-16343508D01*
X15248753Y-16343508D02*
X15267801Y-16333984D01*
X15267801Y-16333984D02*
X15315420Y-16333984D01*
X15315420Y-16333984D02*
X15334468Y-16343508D01*
X15334468Y-16343508D02*
X15343991Y-16353031D01*
X15343991Y-16353031D02*
X15353515Y-16372079D01*
X15353515Y-16372079D02*
X15353515Y-16391127D01*
X15353515Y-16391127D02*
X15343991Y-16419698D01*
X15343991Y-16419698D02*
X15229706Y-16533984D01*
X15229706Y-16533984D02*
X15353515Y-16533984D01*
X15420182Y-16333984D02*
X15543991Y-16333984D01*
X15543991Y-16333984D02*
X15477325Y-16410174D01*
X15477325Y-16410174D02*
X15505896Y-16410174D01*
X15505896Y-16410174D02*
X15524944Y-16419698D01*
X15524944Y-16419698D02*
X15534468Y-16429222D01*
X15534468Y-16429222D02*
X15543991Y-16448269D01*
X15543991Y-16448269D02*
X15543991Y-16495888D01*
X15543991Y-16495888D02*
X15534468Y-16514936D01*
X15534468Y-16514936D02*
X15524944Y-16524460D01*
X15524944Y-16524460D02*
X15505896Y-16533984D01*
X15505896Y-16533984D02*
X15448753Y-16533984D01*
X15448753Y-16533984D02*
X15429706Y-16524460D01*
X15429706Y-16524460D02*
X15420182Y-16514936D01*
X15658277Y-16419698D02*
X15639229Y-16410174D01*
X15639229Y-16410174D02*
X15629706Y-16400650D01*
X15629706Y-16400650D02*
X15620182Y-16381603D01*
X15620182Y-16381603D02*
X15620182Y-16372079D01*
X15620182Y-16372079D02*
X15629706Y-16353031D01*
X15629706Y-16353031D02*
X15639229Y-16343508D01*
X15639229Y-16343508D02*
X15658277Y-16333984D01*
X15658277Y-16333984D02*
X15696372Y-16333984D01*
X15696372Y-16333984D02*
X15715420Y-16343508D01*
X15715420Y-16343508D02*
X15724944Y-16353031D01*
X15724944Y-16353031D02*
X15734468Y-16372079D01*
X15734468Y-16372079D02*
X15734468Y-16381603D01*
X15734468Y-16381603D02*
X15724944Y-16400650D01*
X15724944Y-16400650D02*
X15715420Y-16410174D01*
X15715420Y-16410174D02*
X15696372Y-16419698D01*
X15696372Y-16419698D02*
X15658277Y-16419698D01*
X15658277Y-16419698D02*
X15639229Y-16429222D01*
X15639229Y-16429222D02*
X15629706Y-16438746D01*
X15629706Y-16438746D02*
X15620182Y-16457793D01*
X15620182Y-16457793D02*
X15620182Y-16495888D01*
X15620182Y-16495888D02*
X15629706Y-16514936D01*
X15629706Y-16514936D02*
X15639229Y-16524460D01*
X15639229Y-16524460D02*
X15658277Y-16533984D01*
X15658277Y-16533984D02*
X15696372Y-16533984D01*
X15696372Y-16533984D02*
X15715420Y-16524460D01*
X15715420Y-16524460D02*
X15724944Y-16514936D01*
X15724944Y-16514936D02*
X15734468Y-16495888D01*
X15734468Y-16495888D02*
X15734468Y-16457793D01*
X15734468Y-16457793D02*
X15724944Y-16438746D01*
X15724944Y-16438746D02*
X15715420Y-16429222D01*
X15715420Y-16429222D02*
X15696372Y-16419698D01*
X15972563Y-16533984D02*
X15972563Y-16333984D01*
X16058277Y-16533984D02*
X16058277Y-16429222D01*
X16058277Y-16429222D02*
X16048753Y-16410174D01*
X16048753Y-16410174D02*
X16029706Y-16400650D01*
X16029706Y-16400650D02*
X16001134Y-16400650D01*
X16001134Y-16400650D02*
X15982087Y-16410174D01*
X15982087Y-16410174D02*
X15972563Y-16419698D01*
X16182087Y-16533984D02*
X16163039Y-16524460D01*
X16163039Y-16524460D02*
X16153515Y-16514936D01*
X16153515Y-16514936D02*
X16143991Y-16495888D01*
X16143991Y-16495888D02*
X16143991Y-16438746D01*
X16143991Y-16438746D02*
X16153515Y-16419698D01*
X16153515Y-16419698D02*
X16163039Y-16410174D01*
X16163039Y-16410174D02*
X16182087Y-16400650D01*
X16182087Y-16400650D02*
X16210658Y-16400650D01*
X16210658Y-16400650D02*
X16229706Y-16410174D01*
X16229706Y-16410174D02*
X16239230Y-16419698D01*
X16239230Y-16419698D02*
X16248753Y-16438746D01*
X16248753Y-16438746D02*
X16248753Y-16495888D01*
X16248753Y-16495888D02*
X16239230Y-16514936D01*
X16239230Y-16514936D02*
X16229706Y-16524460D01*
X16229706Y-16524460D02*
X16210658Y-16533984D01*
X16210658Y-16533984D02*
X16182087Y-16533984D01*
X16363039Y-16533984D02*
X16343991Y-16524460D01*
X16343991Y-16524460D02*
X16334468Y-16505412D01*
X16334468Y-16505412D02*
X16334468Y-16333984D01*
X16515420Y-16524460D02*
X16496372Y-16533984D01*
X16496372Y-16533984D02*
X16458277Y-16533984D01*
X16458277Y-16533984D02*
X16439230Y-16524460D01*
X16439230Y-16524460D02*
X16429706Y-16505412D01*
X16429706Y-16505412D02*
X16429706Y-16429222D01*
X16429706Y-16429222D02*
X16439230Y-16410174D01*
X16439230Y-16410174D02*
X16458277Y-16400650D01*
X16458277Y-16400650D02*
X16496372Y-16400650D01*
X16496372Y-16400650D02*
X16515420Y-16410174D01*
X16515420Y-16410174D02*
X16524944Y-16429222D01*
X16524944Y-16429222D02*
X16524944Y-16448269D01*
X16524944Y-16448269D02*
X16429706Y-16467317D01*
X16601134Y-16524460D02*
X16620182Y-16533984D01*
X16620182Y-16533984D02*
X16658277Y-16533984D01*
X16658277Y-16533984D02*
X16677325Y-16524460D01*
X16677325Y-16524460D02*
X16686849Y-16505412D01*
X16686849Y-16505412D02*
X16686849Y-16495888D01*
X16686849Y-16495888D02*
X16677325Y-16476841D01*
X16677325Y-16476841D02*
X16658277Y-16467317D01*
X16658277Y-16467317D02*
X16629706Y-16467317D01*
X16629706Y-16467317D02*
X16610658Y-16457793D01*
X16610658Y-16457793D02*
X16601134Y-16438746D01*
X16601134Y-16438746D02*
X16601134Y-16429222D01*
X16601134Y-16429222D02*
X16610658Y-16410174D01*
X16610658Y-16410174D02*
X16629706Y-16400650D01*
X16629706Y-16400650D02*
X16658277Y-16400650D01*
X16658277Y-16400650D02*
X16677325Y-16410174D01*
X16753515Y-16610174D02*
X16763039Y-16600650D01*
X16763039Y-16600650D02*
X16782087Y-16572079D01*
X16782087Y-16572079D02*
X16791611Y-16553031D01*
X16791611Y-16553031D02*
X16801134Y-16524460D01*
X16801134Y-16524460D02*
X16810658Y-16476841D01*
X16810658Y-16476841D02*
X16810658Y-16438746D01*
X16810658Y-16438746D02*
X16801134Y-16391127D01*
X16801134Y-16391127D02*
X16791611Y-16362555D01*
X16791611Y-16362555D02*
X16782087Y-16343508D01*
X16782087Y-16343508D02*
X16763039Y-16314936D01*
X16763039Y-16314936D02*
X16753515Y-16305412D01*
D12*
X11597500Y-16706500D02*
G75*
G02*
X11537500Y-16706500I-30000J0D01*
G01*
X11537500Y-16706500D02*
G75*
G02*
X11597500Y-16706500I30000J0D01*
G01*
D11*
X11896372Y-16597984D02*
X11915420Y-16597984D01*
X11915420Y-16597984D02*
X11934467Y-16607508D01*
X11934467Y-16607508D02*
X11943991Y-16617031D01*
X11943991Y-16617031D02*
X11953515Y-16636079D01*
X11953515Y-16636079D02*
X11963039Y-16674174D01*
X11963039Y-16674174D02*
X11963039Y-16721793D01*
X11963039Y-16721793D02*
X11953515Y-16759888D01*
X11953515Y-16759888D02*
X11943991Y-16778936D01*
X11943991Y-16778936D02*
X11934467Y-16788460D01*
X11934467Y-16788460D02*
X11915420Y-16797984D01*
X11915420Y-16797984D02*
X11896372Y-16797984D01*
X11896372Y-16797984D02*
X11877324Y-16788460D01*
X11877324Y-16788460D02*
X11867801Y-16778936D01*
X11867801Y-16778936D02*
X11858277Y-16759888D01*
X11858277Y-16759888D02*
X11848753Y-16721793D01*
X11848753Y-16721793D02*
X11848753Y-16674174D01*
X11848753Y-16674174D02*
X11858277Y-16636079D01*
X11858277Y-16636079D02*
X11867801Y-16617031D01*
X11867801Y-16617031D02*
X11877324Y-16607508D01*
X11877324Y-16607508D02*
X11896372Y-16597984D01*
X12048753Y-16778936D02*
X12058277Y-16788460D01*
X12058277Y-16788460D02*
X12048753Y-16797984D01*
X12048753Y-16797984D02*
X12039229Y-16788460D01*
X12039229Y-16788460D02*
X12048753Y-16778936D01*
X12048753Y-16778936D02*
X12048753Y-16797984D01*
X12229705Y-16597984D02*
X12191610Y-16597984D01*
X12191610Y-16597984D02*
X12172562Y-16607508D01*
X12172562Y-16607508D02*
X12163039Y-16617031D01*
X12163039Y-16617031D02*
X12143991Y-16645603D01*
X12143991Y-16645603D02*
X12134467Y-16683698D01*
X12134467Y-16683698D02*
X12134467Y-16759888D01*
X12134467Y-16759888D02*
X12143991Y-16778936D01*
X12143991Y-16778936D02*
X12153515Y-16788460D01*
X12153515Y-16788460D02*
X12172562Y-16797984D01*
X12172562Y-16797984D02*
X12210658Y-16797984D01*
X12210658Y-16797984D02*
X12229705Y-16788460D01*
X12229705Y-16788460D02*
X12239229Y-16778936D01*
X12239229Y-16778936D02*
X12248753Y-16759888D01*
X12248753Y-16759888D02*
X12248753Y-16712269D01*
X12248753Y-16712269D02*
X12239229Y-16693222D01*
X12239229Y-16693222D02*
X12229705Y-16683698D01*
X12229705Y-16683698D02*
X12210658Y-16674174D01*
X12210658Y-16674174D02*
X12172562Y-16674174D01*
X12172562Y-16674174D02*
X12153515Y-16683698D01*
X12153515Y-16683698D02*
X12143991Y-16693222D01*
X12143991Y-16693222D02*
X12134467Y-16712269D01*
X12372562Y-16597984D02*
X12391610Y-16597984D01*
X12391610Y-16597984D02*
X12410658Y-16607508D01*
X12410658Y-16607508D02*
X12420182Y-16617031D01*
X12420182Y-16617031D02*
X12429705Y-16636079D01*
X12429705Y-16636079D02*
X12439229Y-16674174D01*
X12439229Y-16674174D02*
X12439229Y-16721793D01*
X12439229Y-16721793D02*
X12429705Y-16759888D01*
X12429705Y-16759888D02*
X12420182Y-16778936D01*
X12420182Y-16778936D02*
X12410658Y-16788460D01*
X12410658Y-16788460D02*
X12391610Y-16797984D01*
X12391610Y-16797984D02*
X12372562Y-16797984D01*
X12372562Y-16797984D02*
X12353515Y-16788460D01*
X12353515Y-16788460D02*
X12343991Y-16778936D01*
X12343991Y-16778936D02*
X12334467Y-16759888D01*
X12334467Y-16759888D02*
X12324943Y-16721793D01*
X12324943Y-16721793D02*
X12324943Y-16674174D01*
X12324943Y-16674174D02*
X12334467Y-16636079D01*
X12334467Y-16636079D02*
X12343991Y-16617031D01*
X12343991Y-16617031D02*
X12353515Y-16607508D01*
X12353515Y-16607508D02*
X12372562Y-16597984D01*
X12563039Y-16597984D02*
X12582086Y-16597984D01*
X12582086Y-16597984D02*
X12601134Y-16607508D01*
X12601134Y-16607508D02*
X12610658Y-16617031D01*
X12610658Y-16617031D02*
X12620182Y-16636079D01*
X12620182Y-16636079D02*
X12629705Y-16674174D01*
X12629705Y-16674174D02*
X12629705Y-16721793D01*
X12629705Y-16721793D02*
X12620182Y-16759888D01*
X12620182Y-16759888D02*
X12610658Y-16778936D01*
X12610658Y-16778936D02*
X12601134Y-16788460D01*
X12601134Y-16788460D02*
X12582086Y-16797984D01*
X12582086Y-16797984D02*
X12563039Y-16797984D01*
X12563039Y-16797984D02*
X12543991Y-16788460D01*
X12543991Y-16788460D02*
X12534467Y-16778936D01*
X12534467Y-16778936D02*
X12524943Y-16759888D01*
X12524943Y-16759888D02*
X12515420Y-16721793D01*
X12515420Y-16721793D02*
X12515420Y-16674174D01*
X12515420Y-16674174D02*
X12524943Y-16636079D01*
X12524943Y-16636079D02*
X12534467Y-16617031D01*
X12534467Y-16617031D02*
X12543991Y-16607508D01*
X12543991Y-16607508D02*
X12563039Y-16597984D01*
X12715420Y-16797984D02*
X12715420Y-16664650D01*
X12715420Y-16683698D02*
X12724943Y-16674174D01*
X12724943Y-16674174D02*
X12743991Y-16664650D01*
X12743991Y-16664650D02*
X12772563Y-16664650D01*
X12772563Y-16664650D02*
X12791610Y-16674174D01*
X12791610Y-16674174D02*
X12801134Y-16693222D01*
X12801134Y-16693222D02*
X12801134Y-16797984D01*
X12801134Y-16693222D02*
X12810658Y-16674174D01*
X12810658Y-16674174D02*
X12829705Y-16664650D01*
X12829705Y-16664650D02*
X12858277Y-16664650D01*
X12858277Y-16664650D02*
X12877324Y-16674174D01*
X12877324Y-16674174D02*
X12886848Y-16693222D01*
X12886848Y-16693222D02*
X12886848Y-16797984D01*
X12982086Y-16797984D02*
X12982086Y-16664650D01*
X12982086Y-16683698D02*
X12991610Y-16674174D01*
X12991610Y-16674174D02*
X13010658Y-16664650D01*
X13010658Y-16664650D02*
X13039229Y-16664650D01*
X13039229Y-16664650D02*
X13058277Y-16674174D01*
X13058277Y-16674174D02*
X13067801Y-16693222D01*
X13067801Y-16693222D02*
X13067801Y-16797984D01*
X13067801Y-16693222D02*
X13077324Y-16674174D01*
X13077324Y-16674174D02*
X13096372Y-16664650D01*
X13096372Y-16664650D02*
X13124943Y-16664650D01*
X13124943Y-16664650D02*
X13143991Y-16674174D01*
X13143991Y-16674174D02*
X13153515Y-16693222D01*
X13153515Y-16693222D02*
X13153515Y-16797984D01*
X13543991Y-16588460D02*
X13372563Y-16845603D01*
X13801134Y-16597984D02*
X13820182Y-16597984D01*
X13820182Y-16597984D02*
X13839229Y-16607508D01*
X13839229Y-16607508D02*
X13848753Y-16617031D01*
X13848753Y-16617031D02*
X13858277Y-16636079D01*
X13858277Y-16636079D02*
X13867801Y-16674174D01*
X13867801Y-16674174D02*
X13867801Y-16721793D01*
X13867801Y-16721793D02*
X13858277Y-16759888D01*
X13858277Y-16759888D02*
X13848753Y-16778936D01*
X13848753Y-16778936D02*
X13839229Y-16788460D01*
X13839229Y-16788460D02*
X13820182Y-16797984D01*
X13820182Y-16797984D02*
X13801134Y-16797984D01*
X13801134Y-16797984D02*
X13782086Y-16788460D01*
X13782086Y-16788460D02*
X13772563Y-16778936D01*
X13772563Y-16778936D02*
X13763039Y-16759888D01*
X13763039Y-16759888D02*
X13753515Y-16721793D01*
X13753515Y-16721793D02*
X13753515Y-16674174D01*
X13753515Y-16674174D02*
X13763039Y-16636079D01*
X13763039Y-16636079D02*
X13772563Y-16617031D01*
X13772563Y-16617031D02*
X13782086Y-16607508D01*
X13782086Y-16607508D02*
X13801134Y-16597984D01*
X13953515Y-16778936D02*
X13963039Y-16788460D01*
X13963039Y-16788460D02*
X13953515Y-16797984D01*
X13953515Y-16797984D02*
X13943991Y-16788460D01*
X13943991Y-16788460D02*
X13953515Y-16778936D01*
X13953515Y-16778936D02*
X13953515Y-16797984D01*
X14086848Y-16597984D02*
X14105896Y-16597984D01*
X14105896Y-16597984D02*
X14124944Y-16607508D01*
X14124944Y-16607508D02*
X14134467Y-16617031D01*
X14134467Y-16617031D02*
X14143991Y-16636079D01*
X14143991Y-16636079D02*
X14153515Y-16674174D01*
X14153515Y-16674174D02*
X14153515Y-16721793D01*
X14153515Y-16721793D02*
X14143991Y-16759888D01*
X14143991Y-16759888D02*
X14134467Y-16778936D01*
X14134467Y-16778936D02*
X14124944Y-16788460D01*
X14124944Y-16788460D02*
X14105896Y-16797984D01*
X14105896Y-16797984D02*
X14086848Y-16797984D01*
X14086848Y-16797984D02*
X14067801Y-16788460D01*
X14067801Y-16788460D02*
X14058277Y-16778936D01*
X14058277Y-16778936D02*
X14048753Y-16759888D01*
X14048753Y-16759888D02*
X14039229Y-16721793D01*
X14039229Y-16721793D02*
X14039229Y-16674174D01*
X14039229Y-16674174D02*
X14048753Y-16636079D01*
X14048753Y-16636079D02*
X14058277Y-16617031D01*
X14058277Y-16617031D02*
X14067801Y-16607508D01*
X14067801Y-16607508D02*
X14086848Y-16597984D01*
X14229706Y-16617031D02*
X14239229Y-16607508D01*
X14239229Y-16607508D02*
X14258277Y-16597984D01*
X14258277Y-16597984D02*
X14305896Y-16597984D01*
X14305896Y-16597984D02*
X14324944Y-16607508D01*
X14324944Y-16607508D02*
X14334467Y-16617031D01*
X14334467Y-16617031D02*
X14343991Y-16636079D01*
X14343991Y-16636079D02*
X14343991Y-16655127D01*
X14343991Y-16655127D02*
X14334467Y-16683698D01*
X14334467Y-16683698D02*
X14220182Y-16797984D01*
X14220182Y-16797984D02*
X14343991Y-16797984D01*
X14410658Y-16597984D02*
X14534467Y-16597984D01*
X14534467Y-16597984D02*
X14467801Y-16674174D01*
X14467801Y-16674174D02*
X14496372Y-16674174D01*
X14496372Y-16674174D02*
X14515420Y-16683698D01*
X14515420Y-16683698D02*
X14524944Y-16693222D01*
X14524944Y-16693222D02*
X14534467Y-16712269D01*
X14534467Y-16712269D02*
X14534467Y-16759888D01*
X14534467Y-16759888D02*
X14524944Y-16778936D01*
X14524944Y-16778936D02*
X14515420Y-16788460D01*
X14515420Y-16788460D02*
X14496372Y-16797984D01*
X14496372Y-16797984D02*
X14439229Y-16797984D01*
X14439229Y-16797984D02*
X14420182Y-16788460D01*
X14420182Y-16788460D02*
X14410658Y-16778936D01*
X14705896Y-16597984D02*
X14667801Y-16597984D01*
X14667801Y-16597984D02*
X14648753Y-16607508D01*
X14648753Y-16607508D02*
X14639229Y-16617031D01*
X14639229Y-16617031D02*
X14620182Y-16645603D01*
X14620182Y-16645603D02*
X14610658Y-16683698D01*
X14610658Y-16683698D02*
X14610658Y-16759888D01*
X14610658Y-16759888D02*
X14620182Y-16778936D01*
X14620182Y-16778936D02*
X14629706Y-16788460D01*
X14629706Y-16788460D02*
X14648753Y-16797984D01*
X14648753Y-16797984D02*
X14686848Y-16797984D01*
X14686848Y-16797984D02*
X14705896Y-16788460D01*
X14705896Y-16788460D02*
X14715420Y-16778936D01*
X14715420Y-16778936D02*
X14724944Y-16759888D01*
X14724944Y-16759888D02*
X14724944Y-16712269D01*
X14724944Y-16712269D02*
X14715420Y-16693222D01*
X14715420Y-16693222D02*
X14705896Y-16683698D01*
X14705896Y-16683698D02*
X14686848Y-16674174D01*
X14686848Y-16674174D02*
X14648753Y-16674174D01*
X14648753Y-16674174D02*
X14629706Y-16683698D01*
X14629706Y-16683698D02*
X14620182Y-16693222D01*
X14620182Y-16693222D02*
X14610658Y-16712269D01*
X14801134Y-16597984D02*
X14801134Y-16636079D01*
X14877325Y-16597984D02*
X14877325Y-16636079D01*
X15172563Y-16874174D02*
X15163039Y-16864650D01*
X15163039Y-16864650D02*
X15143991Y-16836079D01*
X15143991Y-16836079D02*
X15134468Y-16817031D01*
X15134468Y-16817031D02*
X15124944Y-16788460D01*
X15124944Y-16788460D02*
X15115420Y-16740841D01*
X15115420Y-16740841D02*
X15115420Y-16702746D01*
X15115420Y-16702746D02*
X15124944Y-16655127D01*
X15124944Y-16655127D02*
X15134468Y-16626555D01*
X15134468Y-16626555D02*
X15143991Y-16607508D01*
X15143991Y-16607508D02*
X15163039Y-16578936D01*
X15163039Y-16578936D02*
X15172563Y-16569412D01*
X15229706Y-16597984D02*
X15353515Y-16597984D01*
X15353515Y-16597984D02*
X15286848Y-16674174D01*
X15286848Y-16674174D02*
X15315420Y-16674174D01*
X15315420Y-16674174D02*
X15334468Y-16683698D01*
X15334468Y-16683698D02*
X15343991Y-16693222D01*
X15343991Y-16693222D02*
X15353515Y-16712269D01*
X15353515Y-16712269D02*
X15353515Y-16759888D01*
X15353515Y-16759888D02*
X15343991Y-16778936D01*
X15343991Y-16778936D02*
X15334468Y-16788460D01*
X15334468Y-16788460D02*
X15315420Y-16797984D01*
X15315420Y-16797984D02*
X15258277Y-16797984D01*
X15258277Y-16797984D02*
X15239229Y-16788460D01*
X15239229Y-16788460D02*
X15229706Y-16778936D01*
X15429706Y-16617031D02*
X15439229Y-16607508D01*
X15439229Y-16607508D02*
X15458277Y-16597984D01*
X15458277Y-16597984D02*
X15505896Y-16597984D01*
X15505896Y-16597984D02*
X15524944Y-16607508D01*
X15524944Y-16607508D02*
X15534468Y-16617031D01*
X15534468Y-16617031D02*
X15543991Y-16636079D01*
X15543991Y-16636079D02*
X15543991Y-16655127D01*
X15543991Y-16655127D02*
X15534468Y-16683698D01*
X15534468Y-16683698D02*
X15420182Y-16797984D01*
X15420182Y-16797984D02*
X15543991Y-16797984D01*
X15782087Y-16797984D02*
X15782087Y-16597984D01*
X15867801Y-16797984D02*
X15867801Y-16693222D01*
X15867801Y-16693222D02*
X15858277Y-16674174D01*
X15858277Y-16674174D02*
X15839230Y-16664650D01*
X15839230Y-16664650D02*
X15810658Y-16664650D01*
X15810658Y-16664650D02*
X15791610Y-16674174D01*
X15791610Y-16674174D02*
X15782087Y-16683698D01*
X15991610Y-16797984D02*
X15972563Y-16788460D01*
X15972563Y-16788460D02*
X15963039Y-16778936D01*
X15963039Y-16778936D02*
X15953515Y-16759888D01*
X15953515Y-16759888D02*
X15953515Y-16702746D01*
X15953515Y-16702746D02*
X15963039Y-16683698D01*
X15963039Y-16683698D02*
X15972563Y-16674174D01*
X15972563Y-16674174D02*
X15991610Y-16664650D01*
X15991610Y-16664650D02*
X16020182Y-16664650D01*
X16020182Y-16664650D02*
X16039230Y-16674174D01*
X16039230Y-16674174D02*
X16048753Y-16683698D01*
X16048753Y-16683698D02*
X16058277Y-16702746D01*
X16058277Y-16702746D02*
X16058277Y-16759888D01*
X16058277Y-16759888D02*
X16048753Y-16778936D01*
X16048753Y-16778936D02*
X16039230Y-16788460D01*
X16039230Y-16788460D02*
X16020182Y-16797984D01*
X16020182Y-16797984D02*
X15991610Y-16797984D01*
X16172563Y-16797984D02*
X16153515Y-16788460D01*
X16153515Y-16788460D02*
X16143991Y-16769412D01*
X16143991Y-16769412D02*
X16143991Y-16597984D01*
X16324944Y-16788460D02*
X16305896Y-16797984D01*
X16305896Y-16797984D02*
X16267801Y-16797984D01*
X16267801Y-16797984D02*
X16248753Y-16788460D01*
X16248753Y-16788460D02*
X16239230Y-16769412D01*
X16239230Y-16769412D02*
X16239230Y-16693222D01*
X16239230Y-16693222D02*
X16248753Y-16674174D01*
X16248753Y-16674174D02*
X16267801Y-16664650D01*
X16267801Y-16664650D02*
X16305896Y-16664650D01*
X16305896Y-16664650D02*
X16324944Y-16674174D01*
X16324944Y-16674174D02*
X16334468Y-16693222D01*
X16334468Y-16693222D02*
X16334468Y-16712269D01*
X16334468Y-16712269D02*
X16239230Y-16731317D01*
X16410658Y-16788460D02*
X16429706Y-16797984D01*
X16429706Y-16797984D02*
X16467801Y-16797984D01*
X16467801Y-16797984D02*
X16486849Y-16788460D01*
X16486849Y-16788460D02*
X16496372Y-16769412D01*
X16496372Y-16769412D02*
X16496372Y-16759888D01*
X16496372Y-16759888D02*
X16486849Y-16740841D01*
X16486849Y-16740841D02*
X16467801Y-16731317D01*
X16467801Y-16731317D02*
X16439230Y-16731317D01*
X16439230Y-16731317D02*
X16420182Y-16721793D01*
X16420182Y-16721793D02*
X16410658Y-16702746D01*
X16410658Y-16702746D02*
X16410658Y-16693222D01*
X16410658Y-16693222D02*
X16420182Y-16674174D01*
X16420182Y-16674174D02*
X16439230Y-16664650D01*
X16439230Y-16664650D02*
X16467801Y-16664650D01*
X16467801Y-16664650D02*
X16486849Y-16674174D01*
X16563039Y-16874174D02*
X16572563Y-16864650D01*
X16572563Y-16864650D02*
X16591611Y-16836079D01*
X16591611Y-16836079D02*
X16601134Y-16817031D01*
X16601134Y-16817031D02*
X16610658Y-16788460D01*
X16610658Y-16788460D02*
X16620182Y-16740841D01*
X16620182Y-16740841D02*
X16620182Y-16702746D01*
X16620182Y-16702746D02*
X16610658Y-16655127D01*
X16610658Y-16655127D02*
X16601134Y-16626555D01*
X16601134Y-16626555D02*
X16591611Y-16607508D01*
X16591611Y-16607508D02*
X16572563Y-16578936D01*
X16572563Y-16578936D02*
X16563039Y-16569412D01*
D12*
X11557500Y-16930500D02*
X11557500Y-17010500D01*
X11517500Y-16970500D02*
X11597500Y-16970500D01*
D11*
X11896372Y-16861984D02*
X11915420Y-16861984D01*
X11915420Y-16861984D02*
X11934467Y-16871508D01*
X11934467Y-16871508D02*
X11943991Y-16881031D01*
X11943991Y-16881031D02*
X11953515Y-16900079D01*
X11953515Y-16900079D02*
X11963039Y-16938174D01*
X11963039Y-16938174D02*
X11963039Y-16985793D01*
X11963039Y-16985793D02*
X11953515Y-17023889D01*
X11953515Y-17023889D02*
X11943991Y-17042936D01*
X11943991Y-17042936D02*
X11934467Y-17052460D01*
X11934467Y-17052460D02*
X11915420Y-17061984D01*
X11915420Y-17061984D02*
X11896372Y-17061984D01*
X11896372Y-17061984D02*
X11877324Y-17052460D01*
X11877324Y-17052460D02*
X11867801Y-17042936D01*
X11867801Y-17042936D02*
X11858277Y-17023889D01*
X11858277Y-17023889D02*
X11848753Y-16985793D01*
X11848753Y-16985793D02*
X11848753Y-16938174D01*
X11848753Y-16938174D02*
X11858277Y-16900079D01*
X11858277Y-16900079D02*
X11867801Y-16881031D01*
X11867801Y-16881031D02*
X11877324Y-16871508D01*
X11877324Y-16871508D02*
X11896372Y-16861984D01*
X12048753Y-17042936D02*
X12058277Y-17052460D01*
X12058277Y-17052460D02*
X12048753Y-17061984D01*
X12048753Y-17061984D02*
X12039229Y-17052460D01*
X12039229Y-17052460D02*
X12048753Y-17042936D01*
X12048753Y-17042936D02*
X12048753Y-17061984D01*
X12172562Y-16947698D02*
X12153515Y-16938174D01*
X12153515Y-16938174D02*
X12143991Y-16928650D01*
X12143991Y-16928650D02*
X12134467Y-16909603D01*
X12134467Y-16909603D02*
X12134467Y-16900079D01*
X12134467Y-16900079D02*
X12143991Y-16881031D01*
X12143991Y-16881031D02*
X12153515Y-16871508D01*
X12153515Y-16871508D02*
X12172562Y-16861984D01*
X12172562Y-16861984D02*
X12210658Y-16861984D01*
X12210658Y-16861984D02*
X12229705Y-16871508D01*
X12229705Y-16871508D02*
X12239229Y-16881031D01*
X12239229Y-16881031D02*
X12248753Y-16900079D01*
X12248753Y-16900079D02*
X12248753Y-16909603D01*
X12248753Y-16909603D02*
X12239229Y-16928650D01*
X12239229Y-16928650D02*
X12229705Y-16938174D01*
X12229705Y-16938174D02*
X12210658Y-16947698D01*
X12210658Y-16947698D02*
X12172562Y-16947698D01*
X12172562Y-16947698D02*
X12153515Y-16957222D01*
X12153515Y-16957222D02*
X12143991Y-16966746D01*
X12143991Y-16966746D02*
X12134467Y-16985793D01*
X12134467Y-16985793D02*
X12134467Y-17023889D01*
X12134467Y-17023889D02*
X12143991Y-17042936D01*
X12143991Y-17042936D02*
X12153515Y-17052460D01*
X12153515Y-17052460D02*
X12172562Y-17061984D01*
X12172562Y-17061984D02*
X12210658Y-17061984D01*
X12210658Y-17061984D02*
X12229705Y-17052460D01*
X12229705Y-17052460D02*
X12239229Y-17042936D01*
X12239229Y-17042936D02*
X12248753Y-17023889D01*
X12248753Y-17023889D02*
X12248753Y-16985793D01*
X12248753Y-16985793D02*
X12239229Y-16966746D01*
X12239229Y-16966746D02*
X12229705Y-16957222D01*
X12229705Y-16957222D02*
X12210658Y-16947698D01*
X12372562Y-16861984D02*
X12391610Y-16861984D01*
X12391610Y-16861984D02*
X12410658Y-16871508D01*
X12410658Y-16871508D02*
X12420182Y-16881031D01*
X12420182Y-16881031D02*
X12429705Y-16900079D01*
X12429705Y-16900079D02*
X12439229Y-16938174D01*
X12439229Y-16938174D02*
X12439229Y-16985793D01*
X12439229Y-16985793D02*
X12429705Y-17023889D01*
X12429705Y-17023889D02*
X12420182Y-17042936D01*
X12420182Y-17042936D02*
X12410658Y-17052460D01*
X12410658Y-17052460D02*
X12391610Y-17061984D01*
X12391610Y-17061984D02*
X12372562Y-17061984D01*
X12372562Y-17061984D02*
X12353515Y-17052460D01*
X12353515Y-17052460D02*
X12343991Y-17042936D01*
X12343991Y-17042936D02*
X12334467Y-17023889D01*
X12334467Y-17023889D02*
X12324943Y-16985793D01*
X12324943Y-16985793D02*
X12324943Y-16938174D01*
X12324943Y-16938174D02*
X12334467Y-16900079D01*
X12334467Y-16900079D02*
X12343991Y-16881031D01*
X12343991Y-16881031D02*
X12353515Y-16871508D01*
X12353515Y-16871508D02*
X12372562Y-16861984D01*
X12563039Y-16861984D02*
X12582086Y-16861984D01*
X12582086Y-16861984D02*
X12601134Y-16871508D01*
X12601134Y-16871508D02*
X12610658Y-16881031D01*
X12610658Y-16881031D02*
X12620182Y-16900079D01*
X12620182Y-16900079D02*
X12629705Y-16938174D01*
X12629705Y-16938174D02*
X12629705Y-16985793D01*
X12629705Y-16985793D02*
X12620182Y-17023889D01*
X12620182Y-17023889D02*
X12610658Y-17042936D01*
X12610658Y-17042936D02*
X12601134Y-17052460D01*
X12601134Y-17052460D02*
X12582086Y-17061984D01*
X12582086Y-17061984D02*
X12563039Y-17061984D01*
X12563039Y-17061984D02*
X12543991Y-17052460D01*
X12543991Y-17052460D02*
X12534467Y-17042936D01*
X12534467Y-17042936D02*
X12524943Y-17023889D01*
X12524943Y-17023889D02*
X12515420Y-16985793D01*
X12515420Y-16985793D02*
X12515420Y-16938174D01*
X12515420Y-16938174D02*
X12524943Y-16900079D01*
X12524943Y-16900079D02*
X12534467Y-16881031D01*
X12534467Y-16881031D02*
X12543991Y-16871508D01*
X12543991Y-16871508D02*
X12563039Y-16861984D01*
X12715420Y-17061984D02*
X12715420Y-16928650D01*
X12715420Y-16947698D02*
X12724943Y-16938174D01*
X12724943Y-16938174D02*
X12743991Y-16928650D01*
X12743991Y-16928650D02*
X12772563Y-16928650D01*
X12772563Y-16928650D02*
X12791610Y-16938174D01*
X12791610Y-16938174D02*
X12801134Y-16957222D01*
X12801134Y-16957222D02*
X12801134Y-17061984D01*
X12801134Y-16957222D02*
X12810658Y-16938174D01*
X12810658Y-16938174D02*
X12829705Y-16928650D01*
X12829705Y-16928650D02*
X12858277Y-16928650D01*
X12858277Y-16928650D02*
X12877324Y-16938174D01*
X12877324Y-16938174D02*
X12886848Y-16957222D01*
X12886848Y-16957222D02*
X12886848Y-17061984D01*
X12982086Y-17061984D02*
X12982086Y-16928650D01*
X12982086Y-16947698D02*
X12991610Y-16938174D01*
X12991610Y-16938174D02*
X13010658Y-16928650D01*
X13010658Y-16928650D02*
X13039229Y-16928650D01*
X13039229Y-16928650D02*
X13058277Y-16938174D01*
X13058277Y-16938174D02*
X13067801Y-16957222D01*
X13067801Y-16957222D02*
X13067801Y-17061984D01*
X13067801Y-16957222D02*
X13077324Y-16938174D01*
X13077324Y-16938174D02*
X13096372Y-16928650D01*
X13096372Y-16928650D02*
X13124943Y-16928650D01*
X13124943Y-16928650D02*
X13143991Y-16938174D01*
X13143991Y-16938174D02*
X13153515Y-16957222D01*
X13153515Y-16957222D02*
X13153515Y-17061984D01*
X13543991Y-16852460D02*
X13372563Y-17109603D01*
X13801134Y-16861984D02*
X13820182Y-16861984D01*
X13820182Y-16861984D02*
X13839229Y-16871508D01*
X13839229Y-16871508D02*
X13848753Y-16881031D01*
X13848753Y-16881031D02*
X13858277Y-16900079D01*
X13858277Y-16900079D02*
X13867801Y-16938174D01*
X13867801Y-16938174D02*
X13867801Y-16985793D01*
X13867801Y-16985793D02*
X13858277Y-17023889D01*
X13858277Y-17023889D02*
X13848753Y-17042936D01*
X13848753Y-17042936D02*
X13839229Y-17052460D01*
X13839229Y-17052460D02*
X13820182Y-17061984D01*
X13820182Y-17061984D02*
X13801134Y-17061984D01*
X13801134Y-17061984D02*
X13782086Y-17052460D01*
X13782086Y-17052460D02*
X13772563Y-17042936D01*
X13772563Y-17042936D02*
X13763039Y-17023889D01*
X13763039Y-17023889D02*
X13753515Y-16985793D01*
X13753515Y-16985793D02*
X13753515Y-16938174D01*
X13753515Y-16938174D02*
X13763039Y-16900079D01*
X13763039Y-16900079D02*
X13772563Y-16881031D01*
X13772563Y-16881031D02*
X13782086Y-16871508D01*
X13782086Y-16871508D02*
X13801134Y-16861984D01*
X13953515Y-17042936D02*
X13963039Y-17052460D01*
X13963039Y-17052460D02*
X13953515Y-17061984D01*
X13953515Y-17061984D02*
X13943991Y-17052460D01*
X13943991Y-17052460D02*
X13953515Y-17042936D01*
X13953515Y-17042936D02*
X13953515Y-17061984D01*
X14086848Y-16861984D02*
X14105896Y-16861984D01*
X14105896Y-16861984D02*
X14124944Y-16871508D01*
X14124944Y-16871508D02*
X14134467Y-16881031D01*
X14134467Y-16881031D02*
X14143991Y-16900079D01*
X14143991Y-16900079D02*
X14153515Y-16938174D01*
X14153515Y-16938174D02*
X14153515Y-16985793D01*
X14153515Y-16985793D02*
X14143991Y-17023889D01*
X14143991Y-17023889D02*
X14134467Y-17042936D01*
X14134467Y-17042936D02*
X14124944Y-17052460D01*
X14124944Y-17052460D02*
X14105896Y-17061984D01*
X14105896Y-17061984D02*
X14086848Y-17061984D01*
X14086848Y-17061984D02*
X14067801Y-17052460D01*
X14067801Y-17052460D02*
X14058277Y-17042936D01*
X14058277Y-17042936D02*
X14048753Y-17023889D01*
X14048753Y-17023889D02*
X14039229Y-16985793D01*
X14039229Y-16985793D02*
X14039229Y-16938174D01*
X14039229Y-16938174D02*
X14048753Y-16900079D01*
X14048753Y-16900079D02*
X14058277Y-16881031D01*
X14058277Y-16881031D02*
X14067801Y-16871508D01*
X14067801Y-16871508D02*
X14086848Y-16861984D01*
X14220182Y-16861984D02*
X14343991Y-16861984D01*
X14343991Y-16861984D02*
X14277325Y-16938174D01*
X14277325Y-16938174D02*
X14305896Y-16938174D01*
X14305896Y-16938174D02*
X14324944Y-16947698D01*
X14324944Y-16947698D02*
X14334467Y-16957222D01*
X14334467Y-16957222D02*
X14343991Y-16976270D01*
X14343991Y-16976270D02*
X14343991Y-17023889D01*
X14343991Y-17023889D02*
X14334467Y-17042936D01*
X14334467Y-17042936D02*
X14324944Y-17052460D01*
X14324944Y-17052460D02*
X14305896Y-17061984D01*
X14305896Y-17061984D02*
X14248753Y-17061984D01*
X14248753Y-17061984D02*
X14229706Y-17052460D01*
X14229706Y-17052460D02*
X14220182Y-17042936D01*
X14534467Y-17061984D02*
X14420182Y-17061984D01*
X14477325Y-17061984D02*
X14477325Y-16861984D01*
X14477325Y-16861984D02*
X14458277Y-16890555D01*
X14458277Y-16890555D02*
X14439229Y-16909603D01*
X14439229Y-16909603D02*
X14420182Y-16919127D01*
X14715420Y-16861984D02*
X14620182Y-16861984D01*
X14620182Y-16861984D02*
X14610658Y-16957222D01*
X14610658Y-16957222D02*
X14620182Y-16947698D01*
X14620182Y-16947698D02*
X14639229Y-16938174D01*
X14639229Y-16938174D02*
X14686848Y-16938174D01*
X14686848Y-16938174D02*
X14705896Y-16947698D01*
X14705896Y-16947698D02*
X14715420Y-16957222D01*
X14715420Y-16957222D02*
X14724944Y-16976270D01*
X14724944Y-16976270D02*
X14724944Y-17023889D01*
X14724944Y-17023889D02*
X14715420Y-17042936D01*
X14715420Y-17042936D02*
X14705896Y-17052460D01*
X14705896Y-17052460D02*
X14686848Y-17061984D01*
X14686848Y-17061984D02*
X14639229Y-17061984D01*
X14639229Y-17061984D02*
X14620182Y-17052460D01*
X14620182Y-17052460D02*
X14610658Y-17042936D01*
X14801134Y-16861984D02*
X14801134Y-16900079D01*
X14877325Y-16861984D02*
X14877325Y-16900079D01*
X15172563Y-17138174D02*
X15163039Y-17128650D01*
X15163039Y-17128650D02*
X15143991Y-17100079D01*
X15143991Y-17100079D02*
X15134468Y-17081031D01*
X15134468Y-17081031D02*
X15124944Y-17052460D01*
X15124944Y-17052460D02*
X15115420Y-17004841D01*
X15115420Y-17004841D02*
X15115420Y-16966746D01*
X15115420Y-16966746D02*
X15124944Y-16919127D01*
X15124944Y-16919127D02*
X15134468Y-16890555D01*
X15134468Y-16890555D02*
X15143991Y-16871508D01*
X15143991Y-16871508D02*
X15163039Y-16842936D01*
X15163039Y-16842936D02*
X15172563Y-16833412D01*
X15258277Y-17061984D02*
X15296372Y-17061984D01*
X15296372Y-17061984D02*
X15315420Y-17052460D01*
X15315420Y-17052460D02*
X15324944Y-17042936D01*
X15324944Y-17042936D02*
X15343991Y-17014365D01*
X15343991Y-17014365D02*
X15353515Y-16976270D01*
X15353515Y-16976270D02*
X15353515Y-16900079D01*
X15353515Y-16900079D02*
X15343991Y-16881031D01*
X15343991Y-16881031D02*
X15334468Y-16871508D01*
X15334468Y-16871508D02*
X15315420Y-16861984D01*
X15315420Y-16861984D02*
X15277325Y-16861984D01*
X15277325Y-16861984D02*
X15258277Y-16871508D01*
X15258277Y-16871508D02*
X15248753Y-16881031D01*
X15248753Y-16881031D02*
X15239229Y-16900079D01*
X15239229Y-16900079D02*
X15239229Y-16947698D01*
X15239229Y-16947698D02*
X15248753Y-16966746D01*
X15248753Y-16966746D02*
X15258277Y-16976270D01*
X15258277Y-16976270D02*
X15277325Y-16985793D01*
X15277325Y-16985793D02*
X15315420Y-16985793D01*
X15315420Y-16985793D02*
X15334468Y-16976270D01*
X15334468Y-16976270D02*
X15343991Y-16966746D01*
X15343991Y-16966746D02*
X15353515Y-16947698D01*
X15477325Y-16861984D02*
X15496372Y-16861984D01*
X15496372Y-16861984D02*
X15515420Y-16871508D01*
X15515420Y-16871508D02*
X15524944Y-16881031D01*
X15524944Y-16881031D02*
X15534468Y-16900079D01*
X15534468Y-16900079D02*
X15543991Y-16938174D01*
X15543991Y-16938174D02*
X15543991Y-16985793D01*
X15543991Y-16985793D02*
X15534468Y-17023889D01*
X15534468Y-17023889D02*
X15524944Y-17042936D01*
X15524944Y-17042936D02*
X15515420Y-17052460D01*
X15515420Y-17052460D02*
X15496372Y-17061984D01*
X15496372Y-17061984D02*
X15477325Y-17061984D01*
X15477325Y-17061984D02*
X15458277Y-17052460D01*
X15458277Y-17052460D02*
X15448753Y-17042936D01*
X15448753Y-17042936D02*
X15439229Y-17023889D01*
X15439229Y-17023889D02*
X15429706Y-16985793D01*
X15429706Y-16985793D02*
X15429706Y-16938174D01*
X15429706Y-16938174D02*
X15439229Y-16900079D01*
X15439229Y-16900079D02*
X15448753Y-16881031D01*
X15448753Y-16881031D02*
X15458277Y-16871508D01*
X15458277Y-16871508D02*
X15477325Y-16861984D01*
X15782087Y-17061984D02*
X15782087Y-16861984D01*
X15867801Y-17061984D02*
X15867801Y-16957222D01*
X15867801Y-16957222D02*
X15858277Y-16938174D01*
X15858277Y-16938174D02*
X15839230Y-16928650D01*
X15839230Y-16928650D02*
X15810658Y-16928650D01*
X15810658Y-16928650D02*
X15791610Y-16938174D01*
X15791610Y-16938174D02*
X15782087Y-16947698D01*
X15991610Y-17061984D02*
X15972563Y-17052460D01*
X15972563Y-17052460D02*
X15963039Y-17042936D01*
X15963039Y-17042936D02*
X15953515Y-17023889D01*
X15953515Y-17023889D02*
X15953515Y-16966746D01*
X15953515Y-16966746D02*
X15963039Y-16947698D01*
X15963039Y-16947698D02*
X15972563Y-16938174D01*
X15972563Y-16938174D02*
X15991610Y-16928650D01*
X15991610Y-16928650D02*
X16020182Y-16928650D01*
X16020182Y-16928650D02*
X16039230Y-16938174D01*
X16039230Y-16938174D02*
X16048753Y-16947698D01*
X16048753Y-16947698D02*
X16058277Y-16966746D01*
X16058277Y-16966746D02*
X16058277Y-17023889D01*
X16058277Y-17023889D02*
X16048753Y-17042936D01*
X16048753Y-17042936D02*
X16039230Y-17052460D01*
X16039230Y-17052460D02*
X16020182Y-17061984D01*
X16020182Y-17061984D02*
X15991610Y-17061984D01*
X16172563Y-17061984D02*
X16153515Y-17052460D01*
X16153515Y-17052460D02*
X16143991Y-17033412D01*
X16143991Y-17033412D02*
X16143991Y-16861984D01*
X16324944Y-17052460D02*
X16305896Y-17061984D01*
X16305896Y-17061984D02*
X16267801Y-17061984D01*
X16267801Y-17061984D02*
X16248753Y-17052460D01*
X16248753Y-17052460D02*
X16239230Y-17033412D01*
X16239230Y-17033412D02*
X16239230Y-16957222D01*
X16239230Y-16957222D02*
X16248753Y-16938174D01*
X16248753Y-16938174D02*
X16267801Y-16928650D01*
X16267801Y-16928650D02*
X16305896Y-16928650D01*
X16305896Y-16928650D02*
X16324944Y-16938174D01*
X16324944Y-16938174D02*
X16334468Y-16957222D01*
X16334468Y-16957222D02*
X16334468Y-16976270D01*
X16334468Y-16976270D02*
X16239230Y-16995317D01*
X16410658Y-17052460D02*
X16429706Y-17061984D01*
X16429706Y-17061984D02*
X16467801Y-17061984D01*
X16467801Y-17061984D02*
X16486849Y-17052460D01*
X16486849Y-17052460D02*
X16496372Y-17033412D01*
X16496372Y-17033412D02*
X16496372Y-17023889D01*
X16496372Y-17023889D02*
X16486849Y-17004841D01*
X16486849Y-17004841D02*
X16467801Y-16995317D01*
X16467801Y-16995317D02*
X16439230Y-16995317D01*
X16439230Y-16995317D02*
X16420182Y-16985793D01*
X16420182Y-16985793D02*
X16410658Y-16966746D01*
X16410658Y-16966746D02*
X16410658Y-16957222D01*
X16410658Y-16957222D02*
X16420182Y-16938174D01*
X16420182Y-16938174D02*
X16439230Y-16928650D01*
X16439230Y-16928650D02*
X16467801Y-16928650D01*
X16467801Y-16928650D02*
X16486849Y-16938174D01*
X16563039Y-17138174D02*
X16572563Y-17128650D01*
X16572563Y-17128650D02*
X16591611Y-17100079D01*
X16591611Y-17100079D02*
X16601134Y-17081031D01*
X16601134Y-17081031D02*
X16610658Y-17052460D01*
X16610658Y-17052460D02*
X16620182Y-17004841D01*
X16620182Y-17004841D02*
X16620182Y-16966746D01*
X16620182Y-16966746D02*
X16610658Y-16919127D01*
X16610658Y-16919127D02*
X16601134Y-16890555D01*
X16601134Y-16890555D02*
X16591611Y-16871508D01*
X16591611Y-16871508D02*
X16572563Y-16842936D01*
X16572563Y-16842936D02*
X16563039Y-16833412D01*
D12*
X11582856Y-17269856D02*
X11582856Y-17199144D01*
X11512144Y-17199144D01*
X11512144Y-17269856D01*
X11582856Y-17269856D01*
D11*
X11963039Y-17325984D02*
X11848753Y-17325984D01*
X11905896Y-17325984D02*
X11905896Y-17125984D01*
X11905896Y-17125984D02*
X11886848Y-17154555D01*
X11886848Y-17154555D02*
X11867801Y-17173603D01*
X11867801Y-17173603D02*
X11848753Y-17183127D01*
X12048753Y-17306936D02*
X12058277Y-17316460D01*
X12058277Y-17316460D02*
X12048753Y-17325984D01*
X12048753Y-17325984D02*
X12039229Y-17316460D01*
X12039229Y-17316460D02*
X12048753Y-17306936D01*
X12048753Y-17306936D02*
X12048753Y-17325984D01*
X12182086Y-17125984D02*
X12201134Y-17125984D01*
X12201134Y-17125984D02*
X12220182Y-17135508D01*
X12220182Y-17135508D02*
X12229705Y-17145031D01*
X12229705Y-17145031D02*
X12239229Y-17164079D01*
X12239229Y-17164079D02*
X12248753Y-17202174D01*
X12248753Y-17202174D02*
X12248753Y-17249793D01*
X12248753Y-17249793D02*
X12239229Y-17287889D01*
X12239229Y-17287889D02*
X12229705Y-17306936D01*
X12229705Y-17306936D02*
X12220182Y-17316460D01*
X12220182Y-17316460D02*
X12201134Y-17325984D01*
X12201134Y-17325984D02*
X12182086Y-17325984D01*
X12182086Y-17325984D02*
X12163039Y-17316460D01*
X12163039Y-17316460D02*
X12153515Y-17306936D01*
X12153515Y-17306936D02*
X12143991Y-17287889D01*
X12143991Y-17287889D02*
X12134467Y-17249793D01*
X12134467Y-17249793D02*
X12134467Y-17202174D01*
X12134467Y-17202174D02*
X12143991Y-17164079D01*
X12143991Y-17164079D02*
X12153515Y-17145031D01*
X12153515Y-17145031D02*
X12163039Y-17135508D01*
X12163039Y-17135508D02*
X12182086Y-17125984D01*
X12372562Y-17125984D02*
X12391610Y-17125984D01*
X12391610Y-17125984D02*
X12410658Y-17135508D01*
X12410658Y-17135508D02*
X12420182Y-17145031D01*
X12420182Y-17145031D02*
X12429705Y-17164079D01*
X12429705Y-17164079D02*
X12439229Y-17202174D01*
X12439229Y-17202174D02*
X12439229Y-17249793D01*
X12439229Y-17249793D02*
X12429705Y-17287889D01*
X12429705Y-17287889D02*
X12420182Y-17306936D01*
X12420182Y-17306936D02*
X12410658Y-17316460D01*
X12410658Y-17316460D02*
X12391610Y-17325984D01*
X12391610Y-17325984D02*
X12372562Y-17325984D01*
X12372562Y-17325984D02*
X12353515Y-17316460D01*
X12353515Y-17316460D02*
X12343991Y-17306936D01*
X12343991Y-17306936D02*
X12334467Y-17287889D01*
X12334467Y-17287889D02*
X12324943Y-17249793D01*
X12324943Y-17249793D02*
X12324943Y-17202174D01*
X12324943Y-17202174D02*
X12334467Y-17164079D01*
X12334467Y-17164079D02*
X12343991Y-17145031D01*
X12343991Y-17145031D02*
X12353515Y-17135508D01*
X12353515Y-17135508D02*
X12372562Y-17125984D01*
X12563039Y-17125984D02*
X12582086Y-17125984D01*
X12582086Y-17125984D02*
X12601134Y-17135508D01*
X12601134Y-17135508D02*
X12610658Y-17145031D01*
X12610658Y-17145031D02*
X12620182Y-17164079D01*
X12620182Y-17164079D02*
X12629705Y-17202174D01*
X12629705Y-17202174D02*
X12629705Y-17249793D01*
X12629705Y-17249793D02*
X12620182Y-17287889D01*
X12620182Y-17287889D02*
X12610658Y-17306936D01*
X12610658Y-17306936D02*
X12601134Y-17316460D01*
X12601134Y-17316460D02*
X12582086Y-17325984D01*
X12582086Y-17325984D02*
X12563039Y-17325984D01*
X12563039Y-17325984D02*
X12543991Y-17316460D01*
X12543991Y-17316460D02*
X12534467Y-17306936D01*
X12534467Y-17306936D02*
X12524943Y-17287889D01*
X12524943Y-17287889D02*
X12515420Y-17249793D01*
X12515420Y-17249793D02*
X12515420Y-17202174D01*
X12515420Y-17202174D02*
X12524943Y-17164079D01*
X12524943Y-17164079D02*
X12534467Y-17145031D01*
X12534467Y-17145031D02*
X12543991Y-17135508D01*
X12543991Y-17135508D02*
X12563039Y-17125984D01*
X12715420Y-17325984D02*
X12715420Y-17192650D01*
X12715420Y-17211698D02*
X12724943Y-17202174D01*
X12724943Y-17202174D02*
X12743991Y-17192650D01*
X12743991Y-17192650D02*
X12772563Y-17192650D01*
X12772563Y-17192650D02*
X12791610Y-17202174D01*
X12791610Y-17202174D02*
X12801134Y-17221222D01*
X12801134Y-17221222D02*
X12801134Y-17325984D01*
X12801134Y-17221222D02*
X12810658Y-17202174D01*
X12810658Y-17202174D02*
X12829705Y-17192650D01*
X12829705Y-17192650D02*
X12858277Y-17192650D01*
X12858277Y-17192650D02*
X12877324Y-17202174D01*
X12877324Y-17202174D02*
X12886848Y-17221222D01*
X12886848Y-17221222D02*
X12886848Y-17325984D01*
X12982086Y-17325984D02*
X12982086Y-17192650D01*
X12982086Y-17211698D02*
X12991610Y-17202174D01*
X12991610Y-17202174D02*
X13010658Y-17192650D01*
X13010658Y-17192650D02*
X13039229Y-17192650D01*
X13039229Y-17192650D02*
X13058277Y-17202174D01*
X13058277Y-17202174D02*
X13067801Y-17221222D01*
X13067801Y-17221222D02*
X13067801Y-17325984D01*
X13067801Y-17221222D02*
X13077324Y-17202174D01*
X13077324Y-17202174D02*
X13096372Y-17192650D01*
X13096372Y-17192650D02*
X13124943Y-17192650D01*
X13124943Y-17192650D02*
X13143991Y-17202174D01*
X13143991Y-17202174D02*
X13153515Y-17221222D01*
X13153515Y-17221222D02*
X13153515Y-17325984D01*
X13543991Y-17116460D02*
X13372563Y-17373603D01*
X13801134Y-17125984D02*
X13820182Y-17125984D01*
X13820182Y-17125984D02*
X13839229Y-17135508D01*
X13839229Y-17135508D02*
X13848753Y-17145031D01*
X13848753Y-17145031D02*
X13858277Y-17164079D01*
X13858277Y-17164079D02*
X13867801Y-17202174D01*
X13867801Y-17202174D02*
X13867801Y-17249793D01*
X13867801Y-17249793D02*
X13858277Y-17287889D01*
X13858277Y-17287889D02*
X13848753Y-17306936D01*
X13848753Y-17306936D02*
X13839229Y-17316460D01*
X13839229Y-17316460D02*
X13820182Y-17325984D01*
X13820182Y-17325984D02*
X13801134Y-17325984D01*
X13801134Y-17325984D02*
X13782086Y-17316460D01*
X13782086Y-17316460D02*
X13772563Y-17306936D01*
X13772563Y-17306936D02*
X13763039Y-17287889D01*
X13763039Y-17287889D02*
X13753515Y-17249793D01*
X13753515Y-17249793D02*
X13753515Y-17202174D01*
X13753515Y-17202174D02*
X13763039Y-17164079D01*
X13763039Y-17164079D02*
X13772563Y-17145031D01*
X13772563Y-17145031D02*
X13782086Y-17135508D01*
X13782086Y-17135508D02*
X13801134Y-17125984D01*
X13953515Y-17306936D02*
X13963039Y-17316460D01*
X13963039Y-17316460D02*
X13953515Y-17325984D01*
X13953515Y-17325984D02*
X13943991Y-17316460D01*
X13943991Y-17316460D02*
X13953515Y-17306936D01*
X13953515Y-17306936D02*
X13953515Y-17325984D01*
X14086848Y-17125984D02*
X14105896Y-17125984D01*
X14105896Y-17125984D02*
X14124944Y-17135508D01*
X14124944Y-17135508D02*
X14134467Y-17145031D01*
X14134467Y-17145031D02*
X14143991Y-17164079D01*
X14143991Y-17164079D02*
X14153515Y-17202174D01*
X14153515Y-17202174D02*
X14153515Y-17249793D01*
X14153515Y-17249793D02*
X14143991Y-17287889D01*
X14143991Y-17287889D02*
X14134467Y-17306936D01*
X14134467Y-17306936D02*
X14124944Y-17316460D01*
X14124944Y-17316460D02*
X14105896Y-17325984D01*
X14105896Y-17325984D02*
X14086848Y-17325984D01*
X14086848Y-17325984D02*
X14067801Y-17316460D01*
X14067801Y-17316460D02*
X14058277Y-17306936D01*
X14058277Y-17306936D02*
X14048753Y-17287889D01*
X14048753Y-17287889D02*
X14039229Y-17249793D01*
X14039229Y-17249793D02*
X14039229Y-17202174D01*
X14039229Y-17202174D02*
X14048753Y-17164079D01*
X14048753Y-17164079D02*
X14058277Y-17145031D01*
X14058277Y-17145031D02*
X14067801Y-17135508D01*
X14067801Y-17135508D02*
X14086848Y-17125984D01*
X14220182Y-17125984D02*
X14343991Y-17125984D01*
X14343991Y-17125984D02*
X14277325Y-17202174D01*
X14277325Y-17202174D02*
X14305896Y-17202174D01*
X14305896Y-17202174D02*
X14324944Y-17211698D01*
X14324944Y-17211698D02*
X14334467Y-17221222D01*
X14334467Y-17221222D02*
X14343991Y-17240270D01*
X14343991Y-17240270D02*
X14343991Y-17287889D01*
X14343991Y-17287889D02*
X14334467Y-17306936D01*
X14334467Y-17306936D02*
X14324944Y-17316460D01*
X14324944Y-17316460D02*
X14305896Y-17325984D01*
X14305896Y-17325984D02*
X14248753Y-17325984D01*
X14248753Y-17325984D02*
X14229706Y-17316460D01*
X14229706Y-17316460D02*
X14220182Y-17306936D01*
X14439229Y-17325984D02*
X14477325Y-17325984D01*
X14477325Y-17325984D02*
X14496372Y-17316460D01*
X14496372Y-17316460D02*
X14505896Y-17306936D01*
X14505896Y-17306936D02*
X14524944Y-17278365D01*
X14524944Y-17278365D02*
X14534467Y-17240270D01*
X14534467Y-17240270D02*
X14534467Y-17164079D01*
X14534467Y-17164079D02*
X14524944Y-17145031D01*
X14524944Y-17145031D02*
X14515420Y-17135508D01*
X14515420Y-17135508D02*
X14496372Y-17125984D01*
X14496372Y-17125984D02*
X14458277Y-17125984D01*
X14458277Y-17125984D02*
X14439229Y-17135508D01*
X14439229Y-17135508D02*
X14429706Y-17145031D01*
X14429706Y-17145031D02*
X14420182Y-17164079D01*
X14420182Y-17164079D02*
X14420182Y-17211698D01*
X14420182Y-17211698D02*
X14429706Y-17230746D01*
X14429706Y-17230746D02*
X14439229Y-17240270D01*
X14439229Y-17240270D02*
X14458277Y-17249793D01*
X14458277Y-17249793D02*
X14496372Y-17249793D01*
X14496372Y-17249793D02*
X14515420Y-17240270D01*
X14515420Y-17240270D02*
X14524944Y-17230746D01*
X14524944Y-17230746D02*
X14534467Y-17211698D01*
X14705896Y-17192650D02*
X14705896Y-17325984D01*
X14658277Y-17116460D02*
X14610658Y-17259317D01*
X14610658Y-17259317D02*
X14734467Y-17259317D01*
X14801134Y-17125984D02*
X14801134Y-17164079D01*
X14877325Y-17125984D02*
X14877325Y-17164079D01*
X15172563Y-17402174D02*
X15163039Y-17392650D01*
X15163039Y-17392650D02*
X15143991Y-17364079D01*
X15143991Y-17364079D02*
X15134468Y-17345031D01*
X15134468Y-17345031D02*
X15124944Y-17316460D01*
X15124944Y-17316460D02*
X15115420Y-17268841D01*
X15115420Y-17268841D02*
X15115420Y-17230746D01*
X15115420Y-17230746D02*
X15124944Y-17183127D01*
X15124944Y-17183127D02*
X15134468Y-17154555D01*
X15134468Y-17154555D02*
X15143991Y-17135508D01*
X15143991Y-17135508D02*
X15163039Y-17106936D01*
X15163039Y-17106936D02*
X15172563Y-17097412D01*
X15239229Y-17145031D02*
X15248753Y-17135508D01*
X15248753Y-17135508D02*
X15267801Y-17125984D01*
X15267801Y-17125984D02*
X15315420Y-17125984D01*
X15315420Y-17125984D02*
X15334468Y-17135508D01*
X15334468Y-17135508D02*
X15343991Y-17145031D01*
X15343991Y-17145031D02*
X15353515Y-17164079D01*
X15353515Y-17164079D02*
X15353515Y-17183127D01*
X15353515Y-17183127D02*
X15343991Y-17211698D01*
X15343991Y-17211698D02*
X15229706Y-17325984D01*
X15229706Y-17325984D02*
X15353515Y-17325984D01*
X15429706Y-17145031D02*
X15439229Y-17135508D01*
X15439229Y-17135508D02*
X15458277Y-17125984D01*
X15458277Y-17125984D02*
X15505896Y-17125984D01*
X15505896Y-17125984D02*
X15524944Y-17135508D01*
X15524944Y-17135508D02*
X15534468Y-17145031D01*
X15534468Y-17145031D02*
X15543991Y-17164079D01*
X15543991Y-17164079D02*
X15543991Y-17183127D01*
X15543991Y-17183127D02*
X15534468Y-17211698D01*
X15534468Y-17211698D02*
X15420182Y-17325984D01*
X15420182Y-17325984D02*
X15543991Y-17325984D01*
X15782087Y-17325984D02*
X15782087Y-17125984D01*
X15867801Y-17325984D02*
X15867801Y-17221222D01*
X15867801Y-17221222D02*
X15858277Y-17202174D01*
X15858277Y-17202174D02*
X15839230Y-17192650D01*
X15839230Y-17192650D02*
X15810658Y-17192650D01*
X15810658Y-17192650D02*
X15791610Y-17202174D01*
X15791610Y-17202174D02*
X15782087Y-17211698D01*
X15991610Y-17325984D02*
X15972563Y-17316460D01*
X15972563Y-17316460D02*
X15963039Y-17306936D01*
X15963039Y-17306936D02*
X15953515Y-17287889D01*
X15953515Y-17287889D02*
X15953515Y-17230746D01*
X15953515Y-17230746D02*
X15963039Y-17211698D01*
X15963039Y-17211698D02*
X15972563Y-17202174D01*
X15972563Y-17202174D02*
X15991610Y-17192650D01*
X15991610Y-17192650D02*
X16020182Y-17192650D01*
X16020182Y-17192650D02*
X16039230Y-17202174D01*
X16039230Y-17202174D02*
X16048753Y-17211698D01*
X16048753Y-17211698D02*
X16058277Y-17230746D01*
X16058277Y-17230746D02*
X16058277Y-17287889D01*
X16058277Y-17287889D02*
X16048753Y-17306936D01*
X16048753Y-17306936D02*
X16039230Y-17316460D01*
X16039230Y-17316460D02*
X16020182Y-17325984D01*
X16020182Y-17325984D02*
X15991610Y-17325984D01*
X16172563Y-17325984D02*
X16153515Y-17316460D01*
X16153515Y-17316460D02*
X16143991Y-17297412D01*
X16143991Y-17297412D02*
X16143991Y-17125984D01*
X16324944Y-17316460D02*
X16305896Y-17325984D01*
X16305896Y-17325984D02*
X16267801Y-17325984D01*
X16267801Y-17325984D02*
X16248753Y-17316460D01*
X16248753Y-17316460D02*
X16239230Y-17297412D01*
X16239230Y-17297412D02*
X16239230Y-17221222D01*
X16239230Y-17221222D02*
X16248753Y-17202174D01*
X16248753Y-17202174D02*
X16267801Y-17192650D01*
X16267801Y-17192650D02*
X16305896Y-17192650D01*
X16305896Y-17192650D02*
X16324944Y-17202174D01*
X16324944Y-17202174D02*
X16334468Y-17221222D01*
X16334468Y-17221222D02*
X16334468Y-17240270D01*
X16334468Y-17240270D02*
X16239230Y-17259317D01*
X16410658Y-17316460D02*
X16429706Y-17325984D01*
X16429706Y-17325984D02*
X16467801Y-17325984D01*
X16467801Y-17325984D02*
X16486849Y-17316460D01*
X16486849Y-17316460D02*
X16496372Y-17297412D01*
X16496372Y-17297412D02*
X16496372Y-17287889D01*
X16496372Y-17287889D02*
X16486849Y-17268841D01*
X16486849Y-17268841D02*
X16467801Y-17259317D01*
X16467801Y-17259317D02*
X16439230Y-17259317D01*
X16439230Y-17259317D02*
X16420182Y-17249793D01*
X16420182Y-17249793D02*
X16410658Y-17230746D01*
X16410658Y-17230746D02*
X16410658Y-17221222D01*
X16410658Y-17221222D02*
X16420182Y-17202174D01*
X16420182Y-17202174D02*
X16439230Y-17192650D01*
X16439230Y-17192650D02*
X16467801Y-17192650D01*
X16467801Y-17192650D02*
X16486849Y-17202174D01*
X16563039Y-17402174D02*
X16572563Y-17392650D01*
X16572563Y-17392650D02*
X16591611Y-17364079D01*
X16591611Y-17364079D02*
X16601134Y-17345031D01*
X16601134Y-17345031D02*
X16610658Y-17316460D01*
X16610658Y-17316460D02*
X16620182Y-17268841D01*
X16620182Y-17268841D02*
X16620182Y-17230746D01*
X16620182Y-17230746D02*
X16610658Y-17183127D01*
X16610658Y-17183127D02*
X16601134Y-17154555D01*
X16601134Y-17154555D02*
X16591611Y-17135508D01*
X16591611Y-17135508D02*
X16572563Y-17106936D01*
X16572563Y-17106936D02*
X16563039Y-17097412D01*
D13*
X11542500Y-17553500D02*
X11597500Y-17498500D01*
X11542500Y-17443500D01*
X11487500Y-17498500D01*
X11542500Y-17553500D01*
D11*
X11963039Y-17589984D02*
X11848753Y-17589984D01*
X11905896Y-17589984D02*
X11905896Y-17389984D01*
X11905896Y-17389984D02*
X11886848Y-17418555D01*
X11886848Y-17418555D02*
X11867801Y-17437603D01*
X11867801Y-17437603D02*
X11848753Y-17447127D01*
X12048753Y-17570936D02*
X12058277Y-17580460D01*
X12058277Y-17580460D02*
X12048753Y-17589984D01*
X12048753Y-17589984D02*
X12039229Y-17580460D01*
X12039229Y-17580460D02*
X12048753Y-17570936D01*
X12048753Y-17570936D02*
X12048753Y-17589984D01*
X12248753Y-17589984D02*
X12134467Y-17589984D01*
X12191610Y-17589984D02*
X12191610Y-17389984D01*
X12191610Y-17389984D02*
X12172562Y-17418555D01*
X12172562Y-17418555D02*
X12153515Y-17437603D01*
X12153515Y-17437603D02*
X12134467Y-17447127D01*
X12372562Y-17389984D02*
X12391610Y-17389984D01*
X12391610Y-17389984D02*
X12410658Y-17399508D01*
X12410658Y-17399508D02*
X12420182Y-17409031D01*
X12420182Y-17409031D02*
X12429705Y-17428079D01*
X12429705Y-17428079D02*
X12439229Y-17466174D01*
X12439229Y-17466174D02*
X12439229Y-17513793D01*
X12439229Y-17513793D02*
X12429705Y-17551889D01*
X12429705Y-17551889D02*
X12420182Y-17570936D01*
X12420182Y-17570936D02*
X12410658Y-17580460D01*
X12410658Y-17580460D02*
X12391610Y-17589984D01*
X12391610Y-17589984D02*
X12372562Y-17589984D01*
X12372562Y-17589984D02*
X12353515Y-17580460D01*
X12353515Y-17580460D02*
X12343991Y-17570936D01*
X12343991Y-17570936D02*
X12334467Y-17551889D01*
X12334467Y-17551889D02*
X12324943Y-17513793D01*
X12324943Y-17513793D02*
X12324943Y-17466174D01*
X12324943Y-17466174D02*
X12334467Y-17428079D01*
X12334467Y-17428079D02*
X12343991Y-17409031D01*
X12343991Y-17409031D02*
X12353515Y-17399508D01*
X12353515Y-17399508D02*
X12372562Y-17389984D01*
X12563039Y-17389984D02*
X12582086Y-17389984D01*
X12582086Y-17389984D02*
X12601134Y-17399508D01*
X12601134Y-17399508D02*
X12610658Y-17409031D01*
X12610658Y-17409031D02*
X12620182Y-17428079D01*
X12620182Y-17428079D02*
X12629705Y-17466174D01*
X12629705Y-17466174D02*
X12629705Y-17513793D01*
X12629705Y-17513793D02*
X12620182Y-17551889D01*
X12620182Y-17551889D02*
X12610658Y-17570936D01*
X12610658Y-17570936D02*
X12601134Y-17580460D01*
X12601134Y-17580460D02*
X12582086Y-17589984D01*
X12582086Y-17589984D02*
X12563039Y-17589984D01*
X12563039Y-17589984D02*
X12543991Y-17580460D01*
X12543991Y-17580460D02*
X12534467Y-17570936D01*
X12534467Y-17570936D02*
X12524943Y-17551889D01*
X12524943Y-17551889D02*
X12515420Y-17513793D01*
X12515420Y-17513793D02*
X12515420Y-17466174D01*
X12515420Y-17466174D02*
X12524943Y-17428079D01*
X12524943Y-17428079D02*
X12534467Y-17409031D01*
X12534467Y-17409031D02*
X12543991Y-17399508D01*
X12543991Y-17399508D02*
X12563039Y-17389984D01*
X12715420Y-17589984D02*
X12715420Y-17456650D01*
X12715420Y-17475698D02*
X12724943Y-17466174D01*
X12724943Y-17466174D02*
X12743991Y-17456650D01*
X12743991Y-17456650D02*
X12772563Y-17456650D01*
X12772563Y-17456650D02*
X12791610Y-17466174D01*
X12791610Y-17466174D02*
X12801134Y-17485222D01*
X12801134Y-17485222D02*
X12801134Y-17589984D01*
X12801134Y-17485222D02*
X12810658Y-17466174D01*
X12810658Y-17466174D02*
X12829705Y-17456650D01*
X12829705Y-17456650D02*
X12858277Y-17456650D01*
X12858277Y-17456650D02*
X12877324Y-17466174D01*
X12877324Y-17466174D02*
X12886848Y-17485222D01*
X12886848Y-17485222D02*
X12886848Y-17589984D01*
X12982086Y-17589984D02*
X12982086Y-17456650D01*
X12982086Y-17475698D02*
X12991610Y-17466174D01*
X12991610Y-17466174D02*
X13010658Y-17456650D01*
X13010658Y-17456650D02*
X13039229Y-17456650D01*
X13039229Y-17456650D02*
X13058277Y-17466174D01*
X13058277Y-17466174D02*
X13067801Y-17485222D01*
X13067801Y-17485222D02*
X13067801Y-17589984D01*
X13067801Y-17485222D02*
X13077324Y-17466174D01*
X13077324Y-17466174D02*
X13096372Y-17456650D01*
X13096372Y-17456650D02*
X13124943Y-17456650D01*
X13124943Y-17456650D02*
X13143991Y-17466174D01*
X13143991Y-17466174D02*
X13153515Y-17485222D01*
X13153515Y-17485222D02*
X13153515Y-17589984D01*
X13543991Y-17380460D02*
X13372563Y-17637603D01*
X13801134Y-17389984D02*
X13820182Y-17389984D01*
X13820182Y-17389984D02*
X13839229Y-17399508D01*
X13839229Y-17399508D02*
X13848753Y-17409031D01*
X13848753Y-17409031D02*
X13858277Y-17428079D01*
X13858277Y-17428079D02*
X13867801Y-17466174D01*
X13867801Y-17466174D02*
X13867801Y-17513793D01*
X13867801Y-17513793D02*
X13858277Y-17551889D01*
X13858277Y-17551889D02*
X13848753Y-17570936D01*
X13848753Y-17570936D02*
X13839229Y-17580460D01*
X13839229Y-17580460D02*
X13820182Y-17589984D01*
X13820182Y-17589984D02*
X13801134Y-17589984D01*
X13801134Y-17589984D02*
X13782086Y-17580460D01*
X13782086Y-17580460D02*
X13772563Y-17570936D01*
X13772563Y-17570936D02*
X13763039Y-17551889D01*
X13763039Y-17551889D02*
X13753515Y-17513793D01*
X13753515Y-17513793D02*
X13753515Y-17466174D01*
X13753515Y-17466174D02*
X13763039Y-17428079D01*
X13763039Y-17428079D02*
X13772563Y-17409031D01*
X13772563Y-17409031D02*
X13782086Y-17399508D01*
X13782086Y-17399508D02*
X13801134Y-17389984D01*
X13953515Y-17570936D02*
X13963039Y-17580460D01*
X13963039Y-17580460D02*
X13953515Y-17589984D01*
X13953515Y-17589984D02*
X13943991Y-17580460D01*
X13943991Y-17580460D02*
X13953515Y-17570936D01*
X13953515Y-17570936D02*
X13953515Y-17589984D01*
X14086848Y-17389984D02*
X14105896Y-17389984D01*
X14105896Y-17389984D02*
X14124944Y-17399508D01*
X14124944Y-17399508D02*
X14134467Y-17409031D01*
X14134467Y-17409031D02*
X14143991Y-17428079D01*
X14143991Y-17428079D02*
X14153515Y-17466174D01*
X14153515Y-17466174D02*
X14153515Y-17513793D01*
X14153515Y-17513793D02*
X14143991Y-17551889D01*
X14143991Y-17551889D02*
X14134467Y-17570936D01*
X14134467Y-17570936D02*
X14124944Y-17580460D01*
X14124944Y-17580460D02*
X14105896Y-17589984D01*
X14105896Y-17589984D02*
X14086848Y-17589984D01*
X14086848Y-17589984D02*
X14067801Y-17580460D01*
X14067801Y-17580460D02*
X14058277Y-17570936D01*
X14058277Y-17570936D02*
X14048753Y-17551889D01*
X14048753Y-17551889D02*
X14039229Y-17513793D01*
X14039229Y-17513793D02*
X14039229Y-17466174D01*
X14039229Y-17466174D02*
X14048753Y-17428079D01*
X14048753Y-17428079D02*
X14058277Y-17409031D01*
X14058277Y-17409031D02*
X14067801Y-17399508D01*
X14067801Y-17399508D02*
X14086848Y-17389984D01*
X14324944Y-17456650D02*
X14324944Y-17589984D01*
X14277325Y-17380460D02*
X14229706Y-17523317D01*
X14229706Y-17523317D02*
X14353515Y-17523317D01*
X14410658Y-17389984D02*
X14534467Y-17389984D01*
X14534467Y-17389984D02*
X14467801Y-17466174D01*
X14467801Y-17466174D02*
X14496372Y-17466174D01*
X14496372Y-17466174D02*
X14515420Y-17475698D01*
X14515420Y-17475698D02*
X14524944Y-17485222D01*
X14524944Y-17485222D02*
X14534467Y-17504270D01*
X14534467Y-17504270D02*
X14534467Y-17551889D01*
X14534467Y-17551889D02*
X14524944Y-17570936D01*
X14524944Y-17570936D02*
X14515420Y-17580460D01*
X14515420Y-17580460D02*
X14496372Y-17589984D01*
X14496372Y-17589984D02*
X14439229Y-17589984D01*
X14439229Y-17589984D02*
X14420182Y-17580460D01*
X14420182Y-17580460D02*
X14410658Y-17570936D01*
X14601134Y-17389984D02*
X14724944Y-17389984D01*
X14724944Y-17389984D02*
X14658277Y-17466174D01*
X14658277Y-17466174D02*
X14686848Y-17466174D01*
X14686848Y-17466174D02*
X14705896Y-17475698D01*
X14705896Y-17475698D02*
X14715420Y-17485222D01*
X14715420Y-17485222D02*
X14724944Y-17504270D01*
X14724944Y-17504270D02*
X14724944Y-17551889D01*
X14724944Y-17551889D02*
X14715420Y-17570936D01*
X14715420Y-17570936D02*
X14705896Y-17580460D01*
X14705896Y-17580460D02*
X14686848Y-17589984D01*
X14686848Y-17589984D02*
X14629706Y-17589984D01*
X14629706Y-17589984D02*
X14610658Y-17580460D01*
X14610658Y-17580460D02*
X14601134Y-17570936D01*
X14801134Y-17389984D02*
X14801134Y-17428079D01*
X14877325Y-17389984D02*
X14877325Y-17428079D01*
X15172563Y-17666174D02*
X15163039Y-17656650D01*
X15163039Y-17656650D02*
X15143991Y-17628079D01*
X15143991Y-17628079D02*
X15134468Y-17609031D01*
X15134468Y-17609031D02*
X15124944Y-17580460D01*
X15124944Y-17580460D02*
X15115420Y-17532841D01*
X15115420Y-17532841D02*
X15115420Y-17494746D01*
X15115420Y-17494746D02*
X15124944Y-17447127D01*
X15124944Y-17447127D02*
X15134468Y-17418555D01*
X15134468Y-17418555D02*
X15143991Y-17399508D01*
X15143991Y-17399508D02*
X15163039Y-17370936D01*
X15163039Y-17370936D02*
X15172563Y-17361412D01*
X15343991Y-17389984D02*
X15248753Y-17389984D01*
X15248753Y-17389984D02*
X15239229Y-17485222D01*
X15239229Y-17485222D02*
X15248753Y-17475698D01*
X15248753Y-17475698D02*
X15267801Y-17466174D01*
X15267801Y-17466174D02*
X15315420Y-17466174D01*
X15315420Y-17466174D02*
X15334468Y-17475698D01*
X15334468Y-17475698D02*
X15343991Y-17485222D01*
X15343991Y-17485222D02*
X15353515Y-17504270D01*
X15353515Y-17504270D02*
X15353515Y-17551889D01*
X15353515Y-17551889D02*
X15343991Y-17570936D01*
X15343991Y-17570936D02*
X15334468Y-17580460D01*
X15334468Y-17580460D02*
X15315420Y-17589984D01*
X15315420Y-17589984D02*
X15267801Y-17589984D01*
X15267801Y-17589984D02*
X15248753Y-17580460D01*
X15248753Y-17580460D02*
X15239229Y-17570936D01*
X15591610Y-17589984D02*
X15591610Y-17389984D01*
X15677325Y-17589984D02*
X15677325Y-17485222D01*
X15677325Y-17485222D02*
X15667801Y-17466174D01*
X15667801Y-17466174D02*
X15648753Y-17456650D01*
X15648753Y-17456650D02*
X15620182Y-17456650D01*
X15620182Y-17456650D02*
X15601134Y-17466174D01*
X15601134Y-17466174D02*
X15591610Y-17475698D01*
X15801134Y-17589984D02*
X15782087Y-17580460D01*
X15782087Y-17580460D02*
X15772563Y-17570936D01*
X15772563Y-17570936D02*
X15763039Y-17551889D01*
X15763039Y-17551889D02*
X15763039Y-17494746D01*
X15763039Y-17494746D02*
X15772563Y-17475698D01*
X15772563Y-17475698D02*
X15782087Y-17466174D01*
X15782087Y-17466174D02*
X15801134Y-17456650D01*
X15801134Y-17456650D02*
X15829706Y-17456650D01*
X15829706Y-17456650D02*
X15848753Y-17466174D01*
X15848753Y-17466174D02*
X15858277Y-17475698D01*
X15858277Y-17475698D02*
X15867801Y-17494746D01*
X15867801Y-17494746D02*
X15867801Y-17551889D01*
X15867801Y-17551889D02*
X15858277Y-17570936D01*
X15858277Y-17570936D02*
X15848753Y-17580460D01*
X15848753Y-17580460D02*
X15829706Y-17589984D01*
X15829706Y-17589984D02*
X15801134Y-17589984D01*
X15982087Y-17589984D02*
X15963039Y-17580460D01*
X15963039Y-17580460D02*
X15953515Y-17561412D01*
X15953515Y-17561412D02*
X15953515Y-17389984D01*
X16134468Y-17580460D02*
X16115420Y-17589984D01*
X16115420Y-17589984D02*
X16077325Y-17589984D01*
X16077325Y-17589984D02*
X16058277Y-17580460D01*
X16058277Y-17580460D02*
X16048753Y-17561412D01*
X16048753Y-17561412D02*
X16048753Y-17485222D01*
X16048753Y-17485222D02*
X16058277Y-17466174D01*
X16058277Y-17466174D02*
X16077325Y-17456650D01*
X16077325Y-17456650D02*
X16115420Y-17456650D01*
X16115420Y-17456650D02*
X16134468Y-17466174D01*
X16134468Y-17466174D02*
X16143991Y-17485222D01*
X16143991Y-17485222D02*
X16143991Y-17504270D01*
X16143991Y-17504270D02*
X16048753Y-17523317D01*
X16220182Y-17580460D02*
X16239230Y-17589984D01*
X16239230Y-17589984D02*
X16277325Y-17589984D01*
X16277325Y-17589984D02*
X16296372Y-17580460D01*
X16296372Y-17580460D02*
X16305896Y-17561412D01*
X16305896Y-17561412D02*
X16305896Y-17551889D01*
X16305896Y-17551889D02*
X16296372Y-17532841D01*
X16296372Y-17532841D02*
X16277325Y-17523317D01*
X16277325Y-17523317D02*
X16248753Y-17523317D01*
X16248753Y-17523317D02*
X16229706Y-17513793D01*
X16229706Y-17513793D02*
X16220182Y-17494746D01*
X16220182Y-17494746D02*
X16220182Y-17485222D01*
X16220182Y-17485222D02*
X16229706Y-17466174D01*
X16229706Y-17466174D02*
X16248753Y-17456650D01*
X16248753Y-17456650D02*
X16277325Y-17456650D01*
X16277325Y-17456650D02*
X16296372Y-17466174D01*
X16372563Y-17666174D02*
X16382087Y-17656650D01*
X16382087Y-17656650D02*
X16401134Y-17628079D01*
X16401134Y-17628079D02*
X16410658Y-17609031D01*
X16410658Y-17609031D02*
X16420182Y-17580460D01*
X16420182Y-17580460D02*
X16429706Y-17532841D01*
X16429706Y-17532841D02*
X16429706Y-17494746D01*
X16429706Y-17494746D02*
X16420182Y-17447127D01*
X16420182Y-17447127D02*
X16410658Y-17418555D01*
X16410658Y-17418555D02*
X16401134Y-17399508D01*
X16401134Y-17399508D02*
X16382087Y-17370936D01*
X16382087Y-17370936D02*
X16372563Y-17361412D01*
X11397500Y-17662500D02*
X11597500Y-17862500D01*
X11597500Y-17662500D02*
X11397500Y-17862500D01*
X11597500Y-17762500D02*
G75*
G02*
X11397500Y-17762500I-100000J0D01*
G01*
X11397500Y-17762500D02*
G75*
G02*
X11597500Y-17762500I100000J0D01*
G01*
X11943991Y-17720650D02*
X11943991Y-17853984D01*
X11896372Y-17644460D02*
X11848753Y-17787317D01*
X11848753Y-17787317D02*
X11972562Y-17787317D01*
X12048753Y-17834936D02*
X12058277Y-17844460D01*
X12058277Y-17844460D02*
X12048753Y-17853984D01*
X12048753Y-17853984D02*
X12039229Y-17844460D01*
X12039229Y-17844460D02*
X12048753Y-17834936D01*
X12048753Y-17834936D02*
X12048753Y-17853984D01*
X12124943Y-17653984D02*
X12248753Y-17653984D01*
X12248753Y-17653984D02*
X12182086Y-17730174D01*
X12182086Y-17730174D02*
X12210658Y-17730174D01*
X12210658Y-17730174D02*
X12229705Y-17739698D01*
X12229705Y-17739698D02*
X12239229Y-17749222D01*
X12239229Y-17749222D02*
X12248753Y-17768270D01*
X12248753Y-17768270D02*
X12248753Y-17815889D01*
X12248753Y-17815889D02*
X12239229Y-17834936D01*
X12239229Y-17834936D02*
X12229705Y-17844460D01*
X12229705Y-17844460D02*
X12210658Y-17853984D01*
X12210658Y-17853984D02*
X12153515Y-17853984D01*
X12153515Y-17853984D02*
X12134467Y-17844460D01*
X12134467Y-17844460D02*
X12124943Y-17834936D01*
X12372562Y-17653984D02*
X12391610Y-17653984D01*
X12391610Y-17653984D02*
X12410658Y-17663508D01*
X12410658Y-17663508D02*
X12420182Y-17673031D01*
X12420182Y-17673031D02*
X12429705Y-17692079D01*
X12429705Y-17692079D02*
X12439229Y-17730174D01*
X12439229Y-17730174D02*
X12439229Y-17777793D01*
X12439229Y-17777793D02*
X12429705Y-17815889D01*
X12429705Y-17815889D02*
X12420182Y-17834936D01*
X12420182Y-17834936D02*
X12410658Y-17844460D01*
X12410658Y-17844460D02*
X12391610Y-17853984D01*
X12391610Y-17853984D02*
X12372562Y-17853984D01*
X12372562Y-17853984D02*
X12353515Y-17844460D01*
X12353515Y-17844460D02*
X12343991Y-17834936D01*
X12343991Y-17834936D02*
X12334467Y-17815889D01*
X12334467Y-17815889D02*
X12324943Y-17777793D01*
X12324943Y-17777793D02*
X12324943Y-17730174D01*
X12324943Y-17730174D02*
X12334467Y-17692079D01*
X12334467Y-17692079D02*
X12343991Y-17673031D01*
X12343991Y-17673031D02*
X12353515Y-17663508D01*
X12353515Y-17663508D02*
X12372562Y-17653984D01*
X12563039Y-17653984D02*
X12582086Y-17653984D01*
X12582086Y-17653984D02*
X12601134Y-17663508D01*
X12601134Y-17663508D02*
X12610658Y-17673031D01*
X12610658Y-17673031D02*
X12620182Y-17692079D01*
X12620182Y-17692079D02*
X12629705Y-17730174D01*
X12629705Y-17730174D02*
X12629705Y-17777793D01*
X12629705Y-17777793D02*
X12620182Y-17815889D01*
X12620182Y-17815889D02*
X12610658Y-17834936D01*
X12610658Y-17834936D02*
X12601134Y-17844460D01*
X12601134Y-17844460D02*
X12582086Y-17853984D01*
X12582086Y-17853984D02*
X12563039Y-17853984D01*
X12563039Y-17853984D02*
X12543991Y-17844460D01*
X12543991Y-17844460D02*
X12534467Y-17834936D01*
X12534467Y-17834936D02*
X12524943Y-17815889D01*
X12524943Y-17815889D02*
X12515420Y-17777793D01*
X12515420Y-17777793D02*
X12515420Y-17730174D01*
X12515420Y-17730174D02*
X12524943Y-17692079D01*
X12524943Y-17692079D02*
X12534467Y-17673031D01*
X12534467Y-17673031D02*
X12543991Y-17663508D01*
X12543991Y-17663508D02*
X12563039Y-17653984D01*
X12715420Y-17853984D02*
X12715420Y-17720650D01*
X12715420Y-17739698D02*
X12724943Y-17730174D01*
X12724943Y-17730174D02*
X12743991Y-17720650D01*
X12743991Y-17720650D02*
X12772563Y-17720650D01*
X12772563Y-17720650D02*
X12791610Y-17730174D01*
X12791610Y-17730174D02*
X12801134Y-17749222D01*
X12801134Y-17749222D02*
X12801134Y-17853984D01*
X12801134Y-17749222D02*
X12810658Y-17730174D01*
X12810658Y-17730174D02*
X12829705Y-17720650D01*
X12829705Y-17720650D02*
X12858277Y-17720650D01*
X12858277Y-17720650D02*
X12877324Y-17730174D01*
X12877324Y-17730174D02*
X12886848Y-17749222D01*
X12886848Y-17749222D02*
X12886848Y-17853984D01*
X12982086Y-17853984D02*
X12982086Y-17720650D01*
X12982086Y-17739698D02*
X12991610Y-17730174D01*
X12991610Y-17730174D02*
X13010658Y-17720650D01*
X13010658Y-17720650D02*
X13039229Y-17720650D01*
X13039229Y-17720650D02*
X13058277Y-17730174D01*
X13058277Y-17730174D02*
X13067801Y-17749222D01*
X13067801Y-17749222D02*
X13067801Y-17853984D01*
X13067801Y-17749222D02*
X13077324Y-17730174D01*
X13077324Y-17730174D02*
X13096372Y-17720650D01*
X13096372Y-17720650D02*
X13124943Y-17720650D01*
X13124943Y-17720650D02*
X13143991Y-17730174D01*
X13143991Y-17730174D02*
X13153515Y-17749222D01*
X13153515Y-17749222D02*
X13153515Y-17853984D01*
X13543991Y-17644460D02*
X13372563Y-17901603D01*
X13801134Y-17653984D02*
X13820182Y-17653984D01*
X13820182Y-17653984D02*
X13839229Y-17663508D01*
X13839229Y-17663508D02*
X13848753Y-17673031D01*
X13848753Y-17673031D02*
X13858277Y-17692079D01*
X13858277Y-17692079D02*
X13867801Y-17730174D01*
X13867801Y-17730174D02*
X13867801Y-17777793D01*
X13867801Y-17777793D02*
X13858277Y-17815889D01*
X13858277Y-17815889D02*
X13848753Y-17834936D01*
X13848753Y-17834936D02*
X13839229Y-17844460D01*
X13839229Y-17844460D02*
X13820182Y-17853984D01*
X13820182Y-17853984D02*
X13801134Y-17853984D01*
X13801134Y-17853984D02*
X13782086Y-17844460D01*
X13782086Y-17844460D02*
X13772563Y-17834936D01*
X13772563Y-17834936D02*
X13763039Y-17815889D01*
X13763039Y-17815889D02*
X13753515Y-17777793D01*
X13753515Y-17777793D02*
X13753515Y-17730174D01*
X13753515Y-17730174D02*
X13763039Y-17692079D01*
X13763039Y-17692079D02*
X13772563Y-17673031D01*
X13772563Y-17673031D02*
X13782086Y-17663508D01*
X13782086Y-17663508D02*
X13801134Y-17653984D01*
X13953515Y-17834936D02*
X13963039Y-17844460D01*
X13963039Y-17844460D02*
X13953515Y-17853984D01*
X13953515Y-17853984D02*
X13943991Y-17844460D01*
X13943991Y-17844460D02*
X13953515Y-17834936D01*
X13953515Y-17834936D02*
X13953515Y-17853984D01*
X14153515Y-17853984D02*
X14039229Y-17853984D01*
X14096372Y-17853984D02*
X14096372Y-17653984D01*
X14096372Y-17653984D02*
X14077325Y-17682555D01*
X14077325Y-17682555D02*
X14058277Y-17701603D01*
X14058277Y-17701603D02*
X14039229Y-17711127D01*
X14324944Y-17653984D02*
X14286848Y-17653984D01*
X14286848Y-17653984D02*
X14267801Y-17663508D01*
X14267801Y-17663508D02*
X14258277Y-17673031D01*
X14258277Y-17673031D02*
X14239229Y-17701603D01*
X14239229Y-17701603D02*
X14229706Y-17739698D01*
X14229706Y-17739698D02*
X14229706Y-17815889D01*
X14229706Y-17815889D02*
X14239229Y-17834936D01*
X14239229Y-17834936D02*
X14248753Y-17844460D01*
X14248753Y-17844460D02*
X14267801Y-17853984D01*
X14267801Y-17853984D02*
X14305896Y-17853984D01*
X14305896Y-17853984D02*
X14324944Y-17844460D01*
X14324944Y-17844460D02*
X14334467Y-17834936D01*
X14334467Y-17834936D02*
X14343991Y-17815889D01*
X14343991Y-17815889D02*
X14343991Y-17768270D01*
X14343991Y-17768270D02*
X14334467Y-17749222D01*
X14334467Y-17749222D02*
X14324944Y-17739698D01*
X14324944Y-17739698D02*
X14305896Y-17730174D01*
X14305896Y-17730174D02*
X14267801Y-17730174D01*
X14267801Y-17730174D02*
X14248753Y-17739698D01*
X14248753Y-17739698D02*
X14239229Y-17749222D01*
X14239229Y-17749222D02*
X14229706Y-17768270D01*
X14439229Y-17853984D02*
X14477325Y-17853984D01*
X14477325Y-17853984D02*
X14496372Y-17844460D01*
X14496372Y-17844460D02*
X14505896Y-17834936D01*
X14505896Y-17834936D02*
X14524944Y-17806365D01*
X14524944Y-17806365D02*
X14534467Y-17768270D01*
X14534467Y-17768270D02*
X14534467Y-17692079D01*
X14534467Y-17692079D02*
X14524944Y-17673031D01*
X14524944Y-17673031D02*
X14515420Y-17663508D01*
X14515420Y-17663508D02*
X14496372Y-17653984D01*
X14496372Y-17653984D02*
X14458277Y-17653984D01*
X14458277Y-17653984D02*
X14439229Y-17663508D01*
X14439229Y-17663508D02*
X14429706Y-17673031D01*
X14429706Y-17673031D02*
X14420182Y-17692079D01*
X14420182Y-17692079D02*
X14420182Y-17739698D01*
X14420182Y-17739698D02*
X14429706Y-17758746D01*
X14429706Y-17758746D02*
X14439229Y-17768270D01*
X14439229Y-17768270D02*
X14458277Y-17777793D01*
X14458277Y-17777793D02*
X14496372Y-17777793D01*
X14496372Y-17777793D02*
X14515420Y-17768270D01*
X14515420Y-17768270D02*
X14524944Y-17758746D01*
X14524944Y-17758746D02*
X14534467Y-17739698D01*
X14601134Y-17653984D02*
X14724944Y-17653984D01*
X14724944Y-17653984D02*
X14658277Y-17730174D01*
X14658277Y-17730174D02*
X14686848Y-17730174D01*
X14686848Y-17730174D02*
X14705896Y-17739698D01*
X14705896Y-17739698D02*
X14715420Y-17749222D01*
X14715420Y-17749222D02*
X14724944Y-17768270D01*
X14724944Y-17768270D02*
X14724944Y-17815889D01*
X14724944Y-17815889D02*
X14715420Y-17834936D01*
X14715420Y-17834936D02*
X14705896Y-17844460D01*
X14705896Y-17844460D02*
X14686848Y-17853984D01*
X14686848Y-17853984D02*
X14629706Y-17853984D01*
X14629706Y-17853984D02*
X14610658Y-17844460D01*
X14610658Y-17844460D02*
X14601134Y-17834936D01*
X14801134Y-17653984D02*
X14801134Y-17692079D01*
X14877325Y-17653984D02*
X14877325Y-17692079D01*
X15172563Y-17930174D02*
X15163039Y-17920650D01*
X15163039Y-17920650D02*
X15143991Y-17892079D01*
X15143991Y-17892079D02*
X15134468Y-17873031D01*
X15134468Y-17873031D02*
X15124944Y-17844460D01*
X15124944Y-17844460D02*
X15115420Y-17796841D01*
X15115420Y-17796841D02*
X15115420Y-17758746D01*
X15115420Y-17758746D02*
X15124944Y-17711127D01*
X15124944Y-17711127D02*
X15134468Y-17682555D01*
X15134468Y-17682555D02*
X15143991Y-17663508D01*
X15143991Y-17663508D02*
X15163039Y-17634936D01*
X15163039Y-17634936D02*
X15172563Y-17625412D01*
X15334468Y-17720650D02*
X15334468Y-17853984D01*
X15286848Y-17644460D02*
X15239229Y-17787317D01*
X15239229Y-17787317D02*
X15363039Y-17787317D01*
X15591610Y-17853984D02*
X15591610Y-17653984D01*
X15677325Y-17853984D02*
X15677325Y-17749222D01*
X15677325Y-17749222D02*
X15667801Y-17730174D01*
X15667801Y-17730174D02*
X15648753Y-17720650D01*
X15648753Y-17720650D02*
X15620182Y-17720650D01*
X15620182Y-17720650D02*
X15601134Y-17730174D01*
X15601134Y-17730174D02*
X15591610Y-17739698D01*
X15801134Y-17853984D02*
X15782087Y-17844460D01*
X15782087Y-17844460D02*
X15772563Y-17834936D01*
X15772563Y-17834936D02*
X15763039Y-17815889D01*
X15763039Y-17815889D02*
X15763039Y-17758746D01*
X15763039Y-17758746D02*
X15772563Y-17739698D01*
X15772563Y-17739698D02*
X15782087Y-17730174D01*
X15782087Y-17730174D02*
X15801134Y-17720650D01*
X15801134Y-17720650D02*
X15829706Y-17720650D01*
X15829706Y-17720650D02*
X15848753Y-17730174D01*
X15848753Y-17730174D02*
X15858277Y-17739698D01*
X15858277Y-17739698D02*
X15867801Y-17758746D01*
X15867801Y-17758746D02*
X15867801Y-17815889D01*
X15867801Y-17815889D02*
X15858277Y-17834936D01*
X15858277Y-17834936D02*
X15848753Y-17844460D01*
X15848753Y-17844460D02*
X15829706Y-17853984D01*
X15829706Y-17853984D02*
X15801134Y-17853984D01*
X15982087Y-17853984D02*
X15963039Y-17844460D01*
X15963039Y-17844460D02*
X15953515Y-17825412D01*
X15953515Y-17825412D02*
X15953515Y-17653984D01*
X16134468Y-17844460D02*
X16115420Y-17853984D01*
X16115420Y-17853984D02*
X16077325Y-17853984D01*
X16077325Y-17853984D02*
X16058277Y-17844460D01*
X16058277Y-17844460D02*
X16048753Y-17825412D01*
X16048753Y-17825412D02*
X16048753Y-17749222D01*
X16048753Y-17749222D02*
X16058277Y-17730174D01*
X16058277Y-17730174D02*
X16077325Y-17720650D01*
X16077325Y-17720650D02*
X16115420Y-17720650D01*
X16115420Y-17720650D02*
X16134468Y-17730174D01*
X16134468Y-17730174D02*
X16143991Y-17749222D01*
X16143991Y-17749222D02*
X16143991Y-17768270D01*
X16143991Y-17768270D02*
X16048753Y-17787317D01*
X16220182Y-17844460D02*
X16239230Y-17853984D01*
X16239230Y-17853984D02*
X16277325Y-17853984D01*
X16277325Y-17853984D02*
X16296372Y-17844460D01*
X16296372Y-17844460D02*
X16305896Y-17825412D01*
X16305896Y-17825412D02*
X16305896Y-17815889D01*
X16305896Y-17815889D02*
X16296372Y-17796841D01*
X16296372Y-17796841D02*
X16277325Y-17787317D01*
X16277325Y-17787317D02*
X16248753Y-17787317D01*
X16248753Y-17787317D02*
X16229706Y-17777793D01*
X16229706Y-17777793D02*
X16220182Y-17758746D01*
X16220182Y-17758746D02*
X16220182Y-17749222D01*
X16220182Y-17749222D02*
X16229706Y-17730174D01*
X16229706Y-17730174D02*
X16248753Y-17720650D01*
X16248753Y-17720650D02*
X16277325Y-17720650D01*
X16277325Y-17720650D02*
X16296372Y-17730174D01*
X16372563Y-17930174D02*
X16382087Y-17920650D01*
X16382087Y-17920650D02*
X16401134Y-17892079D01*
X16401134Y-17892079D02*
X16410658Y-17873031D01*
X16410658Y-17873031D02*
X16420182Y-17844460D01*
X16420182Y-17844460D02*
X16429706Y-17796841D01*
X16429706Y-17796841D02*
X16429706Y-17758746D01*
X16429706Y-17758746D02*
X16420182Y-17711127D01*
X16420182Y-17711127D02*
X16410658Y-17682555D01*
X16410658Y-17682555D02*
X16401134Y-17663508D01*
X16401134Y-17663508D02*
X16382087Y-17634936D01*
X16382087Y-17634936D02*
X16372563Y-17625412D01*
M02*
