%TF.GenerationSoftware,KiCad,Pcbnew,8.0.3*%
%TF.CreationDate,2024-10-06T22:02:56-03:00*%
%TF.ProjectId,digital_dice,64696769-7461-46c5-9f64-6963652e6b69,rev?*%
%TF.SameCoordinates,Original*%
%TF.FileFunction,Copper,L1,Top*%
%TF.FilePolarity,Positive*%
%FSLAX46Y46*%
G04 Gerber Fmt 4.6, Leading zero omitted, Abs format (unit mm)*
G04 Created by KiCad (PCBNEW 8.0.3) date 2024-10-06 22:02:56*
%MOMM*%
%LPD*%
G01*
G04 APERTURE LIST*
%TA.AperFunction,ComponentPad*%
%ADD10R,1.600000X1.600000*%
%TD*%
%TA.AperFunction,ComponentPad*%
%ADD11C,1.600000*%
%TD*%
%TA.AperFunction,ComponentPad*%
%ADD12O,1.600000X1.600000*%
%TD*%
%TA.AperFunction,ComponentPad*%
%ADD13C,0.900000*%
%TD*%
%TA.AperFunction,ComponentPad*%
%ADD14C,8.600000*%
%TD*%
%TA.AperFunction,ComponentPad*%
%ADD15R,1.700000X1.700000*%
%TD*%
%TA.AperFunction,ComponentPad*%
%ADD16O,1.700000X1.700000*%
%TD*%
%TA.AperFunction,ComponentPad*%
%ADD17R,2.200000X2.200000*%
%TD*%
%TA.AperFunction,ComponentPad*%
%ADD18O,2.200000X2.200000*%
%TD*%
%TA.AperFunction,ComponentPad*%
%ADD19R,2.000000X1.905000*%
%TD*%
%TA.AperFunction,ComponentPad*%
%ADD20O,2.000000X1.905000*%
%TD*%
%TA.AperFunction,ViaPad*%
%ADD21C,0.800000*%
%TD*%
%TA.AperFunction,Conductor*%
%ADD22C,0.381000*%
%TD*%
G04 APERTURE END LIST*
D10*
%TO.P,C5,1*%
%TO.N,VCC*%
X143200000Y-113900000D03*
D11*
%TO.P,C5,2*%
%TO.N,GND*%
X143200000Y-116400000D03*
%TD*%
D10*
%TO.P,C8,1*%
%TO.N,VCC*%
X152200000Y-130400000D03*
D11*
%TO.P,C8,2*%
%TO.N,GND*%
X154700000Y-130400000D03*
%TD*%
%TO.P,R9,1*%
%TO.N,g*%
X170315000Y-132900000D03*
D12*
%TO.P,R9,2*%
%TO.N,LED7*%
X177935000Y-132900000D03*
%TD*%
D10*
%TO.P,C4,1*%
%TO.N,VCC*%
X129200000Y-149900000D03*
D11*
%TO.P,C4,2*%
%TO.N,GND*%
X131700000Y-149900000D03*
%TD*%
D10*
%TO.P,U4,1*%
%TO.N,Q0*%
X148000000Y-121400000D03*
D12*
%TO.P,U4,2*%
%TO.N,Q1*%
X150540000Y-121400000D03*
%TO.P,U4,3*%
%TO.N,Net-(U4-Pad3)*%
X153080000Y-121400000D03*
%TO.P,U4,4*%
%TO.N,GND*%
X155620000Y-121400000D03*
%TO.P,U4,5*%
X158160000Y-121400000D03*
%TO.P,U4,6*%
%TO.N,unconnected-(U4-Pad6)*%
X160700000Y-121400000D03*
%TO.P,U4,7,GND*%
%TO.N,GND*%
X163240000Y-121400000D03*
%TO.P,U4,8*%
%TO.N,c*%
X163240000Y-113780000D03*
%TO.P,U4,9*%
%TO.N,Net-(U4-Pad3)*%
X160700000Y-113780000D03*
%TO.P,U4,10*%
%TO.N,Q2*%
X158160000Y-113780000D03*
%TO.P,U4,11*%
%TO.N,a*%
X155620000Y-113780000D03*
%TO.P,U4,12*%
%TO.N,Net-(U3-Pad6)*%
X153080000Y-113780000D03*
%TO.P,U4,13*%
%TO.N,Q2*%
X150540000Y-113780000D03*
%TO.P,U4,14,VCC*%
%TO.N,VCC*%
X148000000Y-113780000D03*
%TD*%
D11*
%TO.P,R4,1*%
%TO.N,b*%
X170315000Y-117900000D03*
D12*
%TO.P,R4,2*%
%TO.N,LED2*%
X177935000Y-117900000D03*
%TD*%
D10*
%TO.P,C1,1*%
%TO.N,VBAT*%
X136594887Y-103029887D03*
D11*
%TO.P,C1,2*%
%TO.N,GND*%
X136594887Y-105529887D03*
%TD*%
D10*
%TO.P,U2,1*%
%TO.N,Net-(C7-Pad1)*%
X163540000Y-147480000D03*
D12*
%TO.P,U2,2*%
%TO.N,Net-(SW1-Pin_1)*%
X166080000Y-147480000D03*
%TO.P,U2,3*%
%TO.N,Net-(C6-Pad2)*%
X168620000Y-147480000D03*
%TO.P,U2,4*%
%TO.N,Net-(C7-Pad2)*%
X171160000Y-147480000D03*
%TO.P,U2,5*%
%TO.N,Q2*%
X173700000Y-147480000D03*
%TO.P,U2,6*%
%TO.N,~{Q2}*%
X176240000Y-147480000D03*
%TO.P,U2,7,GND*%
%TO.N,GND*%
X178780000Y-147480000D03*
%TO.P,U2,8*%
%TO.N,~{Q0}*%
X178780000Y-139860000D03*
%TO.P,U2,9*%
%TO.N,Q0*%
X176240000Y-139860000D03*
%TO.P,U2,10*%
%TO.N,~{Q1}*%
X173700000Y-139860000D03*
%TO.P,U2,11*%
%TO.N,Q1*%
X171160000Y-139860000D03*
%TO.P,U2,12*%
%TO.N,g*%
X168620000Y-139860000D03*
%TO.P,U2,13*%
%TO.N,Q0*%
X166080000Y-139860000D03*
%TO.P,U2,14,VCC*%
%TO.N,VCC*%
X163540000Y-139860000D03*
%TD*%
D13*
%TO.P,H4,1,1*%
%TO.N,GND*%
X182775000Y-152000000D03*
X183719581Y-149719581D03*
X183719581Y-154280419D03*
X186000000Y-148775000D03*
D14*
X186000000Y-152000000D03*
D13*
X186000000Y-155225000D03*
X188280419Y-149719581D03*
X188280419Y-154280419D03*
X189225000Y-152000000D03*
%TD*%
D15*
%TO.P,SW1,1,Pin_1*%
%TO.N,Net-(SW1-Pin_1)*%
X148700000Y-149400000D03*
D16*
%TO.P,SW1,2,Pin_2*%
%TO.N,Unstable_Clock*%
X148700000Y-151940000D03*
%TD*%
D10*
%TO.P,U5,1,CP1..3*%
%TO.N,Q0*%
X147820000Y-143900000D03*
D12*
%TO.P,U5,2,R0(1)*%
%TO.N,Q1*%
X147820000Y-141360000D03*
%TO.P,U5,3,R0(2)*%
%TO.N,Q2*%
X147820000Y-138820000D03*
%TO.P,U5,4*%
%TO.N,N/C*%
X147820000Y-136280000D03*
%TO.P,U5,5,VCC*%
%TO.N,VCC*%
X147820000Y-133740000D03*
%TO.P,U5,6*%
%TO.N,N/C*%
X147820000Y-131200000D03*
%TO.P,U5,7*%
X147820000Y-128660000D03*
%TO.P,U5,8,Q2*%
%TO.N,Q2*%
X140200000Y-128660000D03*
%TO.P,U5,9,Q1*%
%TO.N,Q1*%
X140200000Y-131200000D03*
%TO.P,U5,10,GND*%
%TO.N,GND*%
X140200000Y-133740000D03*
%TO.P,U5,11,Q3*%
%TO.N,unconnected-(U5-Q3-Pad11)*%
X140200000Y-136280000D03*
%TO.P,U5,12,Q0*%
%TO.N,Q0*%
X140200000Y-138820000D03*
%TO.P,U5,13*%
%TO.N,N/C*%
X140200000Y-141360000D03*
%TO.P,U5,14,CP0*%
%TO.N,Unstable_Clock*%
X140200000Y-143900000D03*
%TD*%
D15*
%TO.P,BATT1,1,Pin_1*%
%TO.N,Net-(BATT1-Pin_1)*%
X124700000Y-113275000D03*
D16*
%TO.P,BATT1,2,Pin_2*%
%TO.N,GND*%
X124700000Y-110735000D03*
%TD*%
D10*
%TO.P,U3,1*%
%TO.N,GND*%
X134200000Y-143900000D03*
D12*
%TO.P,U3,2*%
X134200000Y-141360000D03*
%TO.P,U3,3*%
%TO.N,unconnected-(U3-Pad3)*%
X134200000Y-138820000D03*
%TO.P,U3,4*%
%TO.N,Q0*%
X134200000Y-136280000D03*
%TO.P,U3,5*%
%TO.N,Q1*%
X134200000Y-133740000D03*
%TO.P,U3,6*%
%TO.N,Net-(U3-Pad6)*%
X134200000Y-131200000D03*
%TO.P,U3,7,GND*%
%TO.N,GND*%
X134200000Y-128660000D03*
%TO.P,U3,8*%
%TO.N,b*%
X126580000Y-128660000D03*
%TO.P,U3,9*%
%TO.N,Q2*%
X126580000Y-131200000D03*
%TO.P,U3,10*%
%TO.N,Q0*%
X126580000Y-133740000D03*
%TO.P,U3,11*%
%TO.N,unconnected-(U3-Pad11)*%
X126580000Y-136280000D03*
%TO.P,U3,12*%
%TO.N,GND*%
X126580000Y-138820000D03*
%TO.P,U3,13*%
X126580000Y-141360000D03*
%TO.P,U3,14,VCC*%
%TO.N,VCC*%
X126580000Y-143900000D03*
%TD*%
D13*
%TO.P,H2,1,1*%
%TO.N,GND*%
X182775000Y-103200000D03*
X183719581Y-100919581D03*
X183719581Y-105480419D03*
X186000000Y-99975000D03*
D14*
X186000000Y-103200000D03*
D13*
X186000000Y-106425000D03*
X188280419Y-100919581D03*
X188280419Y-105480419D03*
X189225000Y-103200000D03*
%TD*%
D10*
%TO.P,C6,1*%
%TO.N,Net-(SW1-Pin_1)*%
X162860000Y-151935000D03*
D11*
%TO.P,C6,2*%
%TO.N,Net-(C6-Pad2)*%
X162860000Y-154435000D03*
%TD*%
D10*
%TO.P,C2,1*%
%TO.N,VCC*%
X137800000Y-111294887D03*
D11*
%TO.P,C2,2*%
%TO.N,GND*%
X135300000Y-111294887D03*
%TD*%
%TO.P,R8,1*%
%TO.N,a*%
X170315000Y-129900000D03*
D12*
%TO.P,R8,2*%
%TO.N,LED6*%
X177935000Y-129900000D03*
%TD*%
D15*
%TO.P,J1,1,Pin_1*%
%TO.N,~{Q0}*%
X186200000Y-135980000D03*
D16*
%TO.P,J1,2,Pin_2*%
%TO.N,~{Q1}*%
X186200000Y-138520000D03*
%TO.P,J1,3,Pin_3*%
%TO.N,~{Q2}*%
X186200000Y-141060000D03*
%TO.P,J1,4,Pin_4*%
%TO.N,GND*%
X186200000Y-143600000D03*
%TD*%
D11*
%TO.P,R3,1*%
%TO.N,a*%
X170315000Y-114900000D03*
D12*
%TO.P,R3,2*%
%TO.N,LED1*%
X177935000Y-114900000D03*
%TD*%
D10*
%TO.P,C7,1*%
%TO.N,Net-(C7-Pad1)*%
X170360000Y-153935000D03*
D11*
%TO.P,C7,2*%
%TO.N,Net-(C7-Pad2)*%
X170360000Y-151435000D03*
%TD*%
%TO.P,R6,1*%
%TO.N,c*%
X170315000Y-123900000D03*
D12*
%TO.P,R6,2*%
%TO.N,LED4*%
X177935000Y-123900000D03*
%TD*%
D15*
%TO.P,J2,1,Pin_1*%
%TO.N,LED1*%
X183660000Y-116280000D03*
D16*
%TO.P,J2,2,Pin_2*%
%TO.N,GND*%
X186200000Y-116280000D03*
%TO.P,J2,3,Pin_3*%
%TO.N,LED2*%
X183660000Y-118820000D03*
%TO.P,J2,4,Pin_4*%
%TO.N,GND*%
X186200000Y-118820000D03*
%TO.P,J2,5,Pin_5*%
%TO.N,LED3*%
X183660000Y-121360000D03*
%TO.P,J2,6,Pin_6*%
%TO.N,GND*%
X186200000Y-121360000D03*
%TO.P,J2,7,Pin_7*%
%TO.N,LED4*%
X183660000Y-123900000D03*
%TO.P,J2,8,Pin_8*%
%TO.N,GND*%
X186200000Y-123900000D03*
%TO.P,J2,9,Pin_9*%
%TO.N,LED5*%
X183660000Y-126440000D03*
%TO.P,J2,10,Pin_10*%
%TO.N,GND*%
X186200000Y-126440000D03*
%TO.P,J2,11,Pin_11*%
%TO.N,LED6*%
X183660000Y-128980000D03*
%TO.P,J2,12,Pin_12*%
%TO.N,GND*%
X186200000Y-128980000D03*
%TO.P,J2,13,Pin_13*%
%TO.N,LED7*%
X183660000Y-131520000D03*
%TO.P,J2,14,Pin_14*%
%TO.N,GND*%
X186200000Y-131520000D03*
%TD*%
D11*
%TO.P,R5,1*%
%TO.N,c*%
X170315000Y-120900000D03*
D12*
%TO.P,R5,2*%
%TO.N,LED3*%
X177935000Y-120900000D03*
%TD*%
D11*
%TO.P,R2,1*%
%TO.N,VCC*%
X154200000Y-146780000D03*
D12*
%TO.P,R2,2*%
%TO.N,Net-(C7-Pad1)*%
X154200000Y-154400000D03*
%TD*%
D13*
%TO.P,H1,1,1*%
%TO.N,GND*%
X118775000Y-103200000D03*
X119719581Y-100919581D03*
X119719581Y-105480419D03*
X122000000Y-99975000D03*
D14*
X122000000Y-103200000D03*
D13*
X122000000Y-106425000D03*
X124280419Y-100919581D03*
X124280419Y-105480419D03*
X125225000Y-103200000D03*
%TD*%
D10*
%TO.P,C3,1*%
%TO.N,VCC*%
X158700000Y-139900000D03*
D11*
%TO.P,C3,2*%
%TO.N,GND*%
X156200000Y-139900000D03*
%TD*%
%TO.P,R7,1*%
%TO.N,b*%
X170315000Y-126900000D03*
D12*
%TO.P,R7,2*%
%TO.N,LED5*%
X177935000Y-126900000D03*
%TD*%
D17*
%TO.P,D1,1,K*%
%TO.N,VBAT*%
X129094887Y-103029887D03*
D18*
%TO.P,D1,2,A*%
%TO.N,Net-(BATT1-Pin_1)*%
X129094887Y-113189887D03*
%TD*%
D11*
%TO.P,R1,1*%
%TO.N,VCC*%
X157200000Y-146780000D03*
D12*
%TO.P,R1,2*%
%TO.N,Net-(C6-Pad2)*%
X157200000Y-154400000D03*
%TD*%
D19*
%TO.P,U1,1,VI*%
%TO.N,VBAT*%
X142594887Y-103029887D03*
D20*
%TO.P,U1,2,GND*%
%TO.N,GND*%
X142594887Y-105569887D03*
%TO.P,U1,3,VO*%
%TO.N,VCC*%
X142594887Y-108109887D03*
%TD*%
D13*
%TO.P,H3,1,1*%
%TO.N,GND*%
X118775000Y-152000000D03*
X119719581Y-149719581D03*
X119719581Y-154280419D03*
X122000000Y-148775000D03*
D14*
X122000000Y-152000000D03*
D13*
X122000000Y-155225000D03*
X124280419Y-149719581D03*
X124280419Y-154280419D03*
X125225000Y-152000000D03*
%TD*%
D21*
%TO.N,VCC*%
X141800000Y-121400000D03*
X144200000Y-123800000D03*
%TO.N,GND*%
X172975000Y-115175000D03*
X127975000Y-118175000D03*
X145975000Y-103175000D03*
X127975000Y-109175000D03*
X159900000Y-155400000D03*
X145975000Y-106175000D03*
X163975000Y-100175000D03*
X190975000Y-148175000D03*
X164000000Y-119400000D03*
X133975000Y-154175000D03*
X163975000Y-133175000D03*
X121975000Y-136175000D03*
X169975000Y-112175000D03*
X133975000Y-148175000D03*
X124975000Y-115175000D03*
X124975000Y-124175000D03*
X130975000Y-100175000D03*
X169975000Y-100175000D03*
X145975000Y-148175000D03*
X178975000Y-136175000D03*
X157960000Y-109480000D03*
X190975000Y-112175000D03*
X124975000Y-127175000D03*
X155420000Y-101860000D03*
X190975000Y-136175000D03*
X130975000Y-124175000D03*
X175975000Y-133175000D03*
X166975000Y-130175000D03*
X175975000Y-103175000D03*
X147800000Y-101860000D03*
X190975000Y-109175000D03*
X133975000Y-121175000D03*
X142975000Y-100175000D03*
X172975000Y-133175000D03*
X151975000Y-154175000D03*
X118975000Y-109175000D03*
X163975000Y-130175000D03*
X145975000Y-154175000D03*
X166975000Y-103175000D03*
X121975000Y-133175000D03*
X118975000Y-136175000D03*
X118975000Y-124175000D03*
X133975000Y-124175000D03*
X121975000Y-127175000D03*
X187975000Y-118175000D03*
X118975000Y-112175000D03*
X139975000Y-106175000D03*
X166200000Y-143200000D03*
X163975000Y-109175000D03*
X187975000Y-130175000D03*
X187975000Y-127175000D03*
X172975000Y-103175000D03*
X148975000Y-154175000D03*
X121975000Y-121175000D03*
X145975000Y-109175000D03*
X139975000Y-112175000D03*
X143200000Y-125800000D03*
X118975000Y-142175000D03*
X151975000Y-142175000D03*
X172975000Y-154175000D03*
X175975000Y-130175000D03*
X161000000Y-116400000D03*
X159300000Y-153200000D03*
X175975000Y-151175000D03*
X166975000Y-127175000D03*
X155420000Y-109480000D03*
X158000000Y-119400000D03*
X167000000Y-115100000D03*
X151975000Y-136175000D03*
X118975000Y-130175000D03*
X187975000Y-124175000D03*
X190975000Y-124175000D03*
X163975000Y-127175000D03*
X169975000Y-109175000D03*
X139975000Y-154175000D03*
X130975000Y-154175000D03*
X155420000Y-106940000D03*
X145800000Y-122200000D03*
X145975000Y-112175000D03*
X175975000Y-136175000D03*
X175975000Y-106175000D03*
X187975000Y-115175000D03*
X175975000Y-127175000D03*
X130975000Y-145175000D03*
X118975000Y-115175000D03*
X133975000Y-100175000D03*
X178975000Y-103175000D03*
X160500000Y-109480000D03*
X172975000Y-100175000D03*
X130975000Y-148175000D03*
X121975000Y-112175000D03*
X172975000Y-112175000D03*
X121975000Y-145175000D03*
X133975000Y-106175000D03*
X187975000Y-136175000D03*
X187975000Y-142175000D03*
X152880000Y-109480000D03*
X178975000Y-100175000D03*
X161000000Y-119400000D03*
X160975000Y-142175000D03*
X124975000Y-145175000D03*
X160975000Y-124175000D03*
X178975000Y-154175000D03*
X150340000Y-104400000D03*
X166975000Y-124175000D03*
X184975000Y-112175000D03*
X136975000Y-148175000D03*
X130975000Y-118175000D03*
X150340000Y-109480000D03*
X178975000Y-106175000D03*
X187975000Y-121175000D03*
X152880000Y-104400000D03*
X163975000Y-106175000D03*
X169975000Y-103175000D03*
X190975000Y-118175000D03*
X190975000Y-115175000D03*
X187975000Y-109175000D03*
X175975000Y-109175000D03*
X142975000Y-145175000D03*
X130975000Y-115175000D03*
X133975000Y-109175000D03*
X172975000Y-109175000D03*
X121975000Y-142175000D03*
X118975000Y-118175000D03*
X181975000Y-145175000D03*
X121975000Y-124175000D03*
X158000000Y-134800000D03*
X139975000Y-100175000D03*
X127975000Y-115175000D03*
X152000000Y-119400000D03*
X142975000Y-154175000D03*
X130975000Y-142175000D03*
X175975000Y-112175000D03*
X160975000Y-127175000D03*
X169975000Y-106175000D03*
X152880000Y-101860000D03*
X160600000Y-149200000D03*
X124975000Y-121175000D03*
X187975000Y-133175000D03*
X166975000Y-133175000D03*
X145975000Y-100175000D03*
X133975000Y-115175000D03*
X166975000Y-136175000D03*
X163975000Y-124175000D03*
X130975000Y-106175000D03*
X142975000Y-112175000D03*
X172975000Y-130175000D03*
X145975000Y-130175000D03*
X136975000Y-100175000D03*
X147800000Y-104400000D03*
X136975000Y-154175000D03*
X178975000Y-112175000D03*
X136975000Y-142175000D03*
X136975000Y-121175000D03*
X181975000Y-112175000D03*
X190975000Y-121175000D03*
X157960000Y-101860000D03*
X182000000Y-138400000D03*
X190975000Y-127175000D03*
X169800000Y-149400000D03*
X166975000Y-121175000D03*
X139975000Y-115175000D03*
X127975000Y-121175000D03*
X121975000Y-115175000D03*
X190975000Y-130175000D03*
X166975000Y-109175000D03*
X190975000Y-142175000D03*
X150340000Y-106940000D03*
X150340000Y-101860000D03*
X118975000Y-127175000D03*
X152880000Y-106940000D03*
X136975000Y-145175000D03*
X118975000Y-133175000D03*
X181975000Y-133175000D03*
X172975000Y-106175000D03*
X190975000Y-133175000D03*
X178975000Y-109175000D03*
X144200000Y-136200000D03*
X190975000Y-145175000D03*
X142400000Y-119400000D03*
X166975000Y-100175000D03*
X127975000Y-100175000D03*
X157975000Y-127175000D03*
X147800000Y-109480000D03*
X166975000Y-106175000D03*
X184975000Y-109175000D03*
X163975000Y-103175000D03*
X157975000Y-124175000D03*
X118975000Y-121175000D03*
X155000000Y-116400000D03*
X121975000Y-139175000D03*
X152000000Y-116400000D03*
X136975000Y-109175000D03*
X130975000Y-139175000D03*
X118975000Y-139175000D03*
X172975000Y-136175000D03*
X187975000Y-145175000D03*
X153600000Y-150000000D03*
X131000000Y-134200000D03*
X190975000Y-139175000D03*
X164000000Y-116400000D03*
X145975000Y-145175000D03*
X175975000Y-154175000D03*
X172975000Y-151175000D03*
X136975000Y-124175000D03*
X154975000Y-142175000D03*
X160500000Y-101860000D03*
X175975000Y-100175000D03*
X130975000Y-109175000D03*
X175975000Y-145175000D03*
X147800000Y-106940000D03*
X187975000Y-112175000D03*
X166800000Y-155000000D03*
X130975000Y-127175000D03*
X136975000Y-139175000D03*
X175975000Y-118175000D03*
X137500000Y-129800000D03*
X121975000Y-109175000D03*
X121975000Y-130175000D03*
X138000000Y-134800000D03*
X154975000Y-124175000D03*
X190975000Y-106175000D03*
X181975000Y-109175000D03*
X121975000Y-118175000D03*
X187975000Y-139175000D03*
X160975000Y-130175000D03*
X124975000Y-118175000D03*
X155400000Y-104400000D03*
X127975000Y-154175000D03*
X127975000Y-106175000D03*
X118975000Y-145175000D03*
X145975000Y-115175000D03*
X175975000Y-115175000D03*
X151975000Y-145175000D03*
X178975000Y-151175000D03*
X184200000Y-139800000D03*
%TD*%
D22*
%TO.N,VCC*%
X151160000Y-130400000D02*
X152200000Y-130400000D01*
X138300000Y-113900000D02*
X137800000Y-114400000D01*
X142594887Y-108109887D02*
X140985000Y-108109887D01*
X151700000Y-127900000D02*
X147700000Y-123900000D01*
X158700000Y-138400000D02*
X158700000Y-139900000D01*
X152200000Y-131900000D02*
X158700000Y-138400000D01*
X138800000Y-113900000D02*
X138300000Y-113900000D01*
X137800000Y-114400000D02*
X137800000Y-117500000D01*
X158700000Y-139900000D02*
X158700000Y-145280000D01*
X147820000Y-133740000D02*
X151160000Y-130400000D01*
X148000000Y-113780000D02*
X143320000Y-113780000D01*
X163500000Y-139900000D02*
X163540000Y-139860000D01*
X152200000Y-130400000D02*
X152200000Y-128400000D01*
X158700000Y-139900000D02*
X163500000Y-139900000D01*
X138300000Y-113900000D02*
X137800000Y-113400000D01*
X137800000Y-113800000D02*
X137800000Y-114400000D01*
X139000000Y-113900000D02*
X138800000Y-113900000D01*
X152200000Y-130400000D02*
X152200000Y-131900000D01*
X138800000Y-113900000D02*
X137900000Y-113900000D01*
X158700000Y-145280000D02*
X157200000Y-146780000D01*
X157200000Y-146780000D02*
X154200000Y-146780000D01*
X143320000Y-113780000D02*
X143200000Y-113900000D01*
X137800000Y-113400000D02*
X137800000Y-113800000D01*
X137800000Y-111294887D02*
X137800000Y-113400000D01*
X147700000Y-123900000D02*
X144200000Y-123900000D01*
X143200000Y-113900000D02*
X139000000Y-113900000D01*
X139000000Y-113900000D02*
X138300000Y-113900000D01*
X137800000Y-117500000D02*
X141700000Y-121400000D01*
X137900000Y-113900000D02*
X137800000Y-113800000D01*
X152200000Y-128400000D02*
X151700000Y-127900000D01*
X140985000Y-108109887D02*
X137800000Y-111294887D01*
%TO.N,a*%
X157000000Y-112400000D02*
X155620000Y-113780000D01*
X167200000Y-112400000D02*
X157000000Y-112400000D01*
X170315000Y-129900000D02*
X170200000Y-129900000D01*
X169700000Y-114900000D02*
X167200000Y-112400000D01*
X172508000Y-117093000D02*
X170315000Y-114900000D01*
X172508000Y-127592000D02*
X172508000Y-117093000D01*
X170200000Y-129900000D02*
X172508000Y-127592000D01*
X170315000Y-114900000D02*
X169700000Y-114900000D01*
%TO.N,b*%
X170315000Y-117900000D02*
X170700000Y-117900000D01*
X170700000Y-117900000D02*
X172000000Y-119200000D01*
X172000000Y-119200000D02*
X172000000Y-125215000D01*
X172000000Y-125215000D02*
X170315000Y-126900000D01*
%TO.N,c*%
X170315000Y-123900000D02*
X170315000Y-120900000D01*
X163240000Y-113940000D02*
X163240000Y-113780000D01*
X170315000Y-120900000D02*
X170200000Y-120900000D01*
X170200000Y-120900000D02*
X163240000Y-113940000D01*
%TO.N,g*%
X168620000Y-136480000D02*
X168620000Y-139860000D01*
X170315000Y-132900000D02*
X170315000Y-134785000D01*
X170315000Y-134785000D02*
X168620000Y-136480000D01*
%TO.N,Unstable_Clock*%
X140200000Y-146900000D02*
X145240000Y-151940000D01*
X145240000Y-151940000D02*
X148700000Y-151940000D01*
X140200000Y-143900000D02*
X140200000Y-146900000D01*
%TO.N,Q0*%
X136595000Y-136280000D02*
X134200000Y-136280000D01*
X148000000Y-121400000D02*
X148000000Y-121780000D01*
X126580000Y-133740000D02*
X128540000Y-133740000D01*
X139135000Y-138820000D02*
X136595000Y-136280000D01*
X128540000Y-133740000D02*
X131080000Y-136280000D01*
X140200000Y-138820000D02*
X139135000Y-138820000D01*
X131080000Y-136280000D02*
X134200000Y-136280000D01*
X146215000Y-143900000D02*
X147820000Y-143900000D01*
X140200000Y-138820000D02*
X141135000Y-138820000D01*
X141135000Y-138820000D02*
X146215000Y-143900000D01*
X148000000Y-121780000D02*
X166080000Y-139860000D01*
%TO.N,Q1*%
X136235000Y-133740000D02*
X134200000Y-133740000D01*
X142895000Y-138080000D02*
X146175000Y-141360000D01*
X138775000Y-131200000D02*
X136235000Y-133740000D01*
X140200000Y-131200000D02*
X138775000Y-131200000D01*
X146175000Y-141360000D02*
X147820000Y-141360000D01*
X140200000Y-131200000D02*
X141515000Y-131200000D01*
X142895000Y-132580000D02*
X142895000Y-138080000D01*
X141515000Y-131200000D02*
X142895000Y-132580000D01*
%TO.N,Q2*%
X147820000Y-138820000D02*
X150700000Y-141700000D01*
X145300000Y-132485000D02*
X141475000Y-128660000D01*
X151080000Y-113780000D02*
X150540000Y-113780000D01*
X146635000Y-138820000D02*
X145300000Y-137485000D01*
X150700000Y-146400000D02*
X152700000Y-148400000D01*
X152700000Y-115400000D02*
X151080000Y-113780000D01*
X140200000Y-125400000D02*
X140200000Y-128660000D01*
X150540000Y-113780000D02*
X150540000Y-115060000D01*
X158700000Y-148400000D02*
X161700000Y-145400000D01*
X152700000Y-148400000D02*
X158700000Y-148400000D01*
X145300000Y-137485000D02*
X145300000Y-132485000D01*
X150700000Y-141700000D02*
X150700000Y-146400000D01*
X126580000Y-131200000D02*
X129900000Y-131200000D01*
X147820000Y-138820000D02*
X146635000Y-138820000D01*
X131100000Y-132400000D02*
X136460000Y-132400000D01*
X161700000Y-145400000D02*
X171620000Y-145400000D01*
X129900000Y-131200000D02*
X131100000Y-132400000D01*
X150540000Y-115060000D02*
X140200000Y-125400000D01*
X156540000Y-115400000D02*
X152700000Y-115400000D01*
X158160000Y-113780000D02*
X156540000Y-115400000D01*
X136460000Y-132400000D02*
X140200000Y-128660000D01*
X171620000Y-145400000D02*
X173700000Y-147480000D01*
X141475000Y-128660000D02*
X140200000Y-128660000D01*
%TO.N,Net-(U3-Pad6)*%
X137700000Y-126900000D02*
X149200000Y-115400000D01*
X151700000Y-112400000D02*
X153080000Y-113780000D01*
X149200000Y-115400000D02*
X149200000Y-112969808D01*
X149200000Y-112969808D02*
X149769808Y-112400000D01*
X149769808Y-112400000D02*
X151700000Y-112400000D01*
X134200000Y-131200000D02*
X137700000Y-127700000D01*
X137700000Y-127700000D02*
X137700000Y-126900000D01*
%TO.N,LED1*%
X177935000Y-114900000D02*
X180200000Y-114900000D01*
X181580000Y-116280000D02*
X183660000Y-116280000D01*
X180200000Y-114900000D02*
X181580000Y-116280000D01*
%TO.N,LED2*%
X177935000Y-117900000D02*
X179970000Y-117900000D01*
X179970000Y-117900000D02*
X180890000Y-118820000D01*
X180890000Y-118820000D02*
X183660000Y-118820000D01*
%TO.N,LED3*%
X177935000Y-120900000D02*
X179700000Y-120900000D01*
X180200000Y-121400000D02*
X183620000Y-121400000D01*
X183620000Y-121400000D02*
X183660000Y-121360000D01*
X179700000Y-120900000D02*
X180200000Y-121400000D01*
%TO.N,LED4*%
X177935000Y-123900000D02*
X183660000Y-123900000D01*
%TO.N,LED5*%
X180200000Y-126400000D02*
X183620000Y-126400000D01*
X177935000Y-126900000D02*
X179700000Y-126900000D01*
X183620000Y-126400000D02*
X183660000Y-126440000D01*
X179700000Y-126900000D02*
X180200000Y-126400000D01*
%TO.N,LED6*%
X180700000Y-128900000D02*
X183580000Y-128900000D01*
X177935000Y-129900000D02*
X179700000Y-129900000D01*
X183580000Y-128900000D02*
X183660000Y-128980000D01*
X179700000Y-129900000D02*
X180700000Y-128900000D01*
%TO.N,LED7*%
X177935000Y-132900000D02*
X179700000Y-132900000D01*
X179700000Y-132900000D02*
X181080000Y-131520000D01*
X181080000Y-131520000D02*
X183660000Y-131520000D01*
%TO.N,Net-(SW1-Pin_1)*%
X148700000Y-149400000D02*
X150700000Y-149400000D01*
X150700000Y-149400000D02*
X153235000Y-151935000D01*
X166080000Y-147480000D02*
X166080000Y-149715000D01*
X153235000Y-151935000D02*
X162860000Y-151935000D01*
X163860000Y-151935000D02*
X162860000Y-151935000D01*
X166080000Y-149715000D02*
X163860000Y-151935000D01*
%TO.N,Net-(BATT1-Pin_1)*%
X129009774Y-113275000D02*
X129094887Y-113189887D01*
X124700000Y-113275000D02*
X129009774Y-113275000D01*
%TO.N,Net-(C6-Pad2)*%
X168620000Y-147480000D02*
X168620000Y-148675000D01*
X162860000Y-154435000D02*
X157235000Y-154435000D01*
X157235000Y-154435000D02*
X157200000Y-154400000D01*
X168620000Y-148675000D02*
X162860000Y-154435000D01*
%TO.N,VBAT*%
X136594887Y-103029887D02*
X142594887Y-103029887D01*
X129094887Y-103029887D02*
X136594887Y-103029887D01*
%TO.N,~{Q1}*%
X183880000Y-138520000D02*
X179960000Y-142440000D01*
X176280000Y-142440000D02*
X173700000Y-139860000D01*
X186200000Y-138520000D02*
X183880000Y-138520000D01*
X179960000Y-142440000D02*
X176280000Y-142440000D01*
%TO.N,~{Q2}*%
X176240000Y-147480000D02*
X176320000Y-147480000D01*
X182740000Y-141060000D02*
X186200000Y-141060000D01*
X176320000Y-147480000D02*
X182740000Y-141060000D01*
%TO.N,~{Q0}*%
X186200000Y-135980000D02*
X182660000Y-135980000D01*
X178820000Y-139900000D02*
X178780000Y-139860000D01*
X182660000Y-135980000D02*
X178780000Y-139860000D01*
%TO.N,Net-(C7-Pad2)*%
X171160000Y-150635000D02*
X170360000Y-151435000D01*
X171160000Y-147480000D02*
X171160000Y-150635000D01*
%TO.N,Net-(C7-Pad1)*%
X154200000Y-154400000D02*
X156200000Y-156400000D01*
X156200000Y-156400000D02*
X169047500Y-156400000D01*
X170360000Y-155087500D02*
X170360000Y-153935000D01*
X169047500Y-156400000D02*
X170360000Y-155087500D01*
%TO.N,Net-(U4-Pad3)*%
X160700000Y-113780000D02*
X160320000Y-113780000D01*
X153080000Y-121020000D02*
X153080000Y-121400000D01*
X160320000Y-113780000D02*
X153080000Y-121020000D01*
%TD*%
%TA.AperFunction,Conductor*%
%TO.N,GND*%
G36*
X161758714Y-155145685D02*
G01*
X161793250Y-155178877D01*
X161859954Y-155274141D01*
X162020858Y-155435045D01*
X162089952Y-155483425D01*
X162133577Y-155538002D01*
X162140771Y-155607500D01*
X162109248Y-155669855D01*
X162049019Y-155705269D01*
X162018829Y-155709000D01*
X157991185Y-155709000D01*
X157924146Y-155689315D01*
X157878391Y-155636511D01*
X157868447Y-155567353D01*
X157897472Y-155503797D01*
X157920062Y-155483425D01*
X158018052Y-155414812D01*
X158039139Y-155400047D01*
X158200047Y-155239139D01*
X158222865Y-155206550D01*
X158242243Y-155178877D01*
X158296820Y-155135252D01*
X158343818Y-155126000D01*
X161691675Y-155126000D01*
X161758714Y-155145685D01*
G37*
%TD.AperFunction*%
%TA.AperFunction,Conductor*%
G36*
X169957865Y-148023348D02*
G01*
X170002382Y-148074725D01*
X170029429Y-148132728D01*
X170029432Y-148132734D01*
X170159954Y-148319141D01*
X170320857Y-148480044D01*
X170320860Y-148480046D01*
X170320861Y-148480047D01*
X170416123Y-148546749D01*
X170459748Y-148601325D01*
X170469000Y-148648324D01*
X170469000Y-150006370D01*
X170449315Y-150073409D01*
X170396511Y-150119164D01*
X170355808Y-150129898D01*
X170133312Y-150149364D01*
X170133302Y-150149366D01*
X169913511Y-150208258D01*
X169913502Y-150208261D01*
X169707267Y-150304431D01*
X169707265Y-150304432D01*
X169520858Y-150434954D01*
X169359954Y-150595858D01*
X169229432Y-150782265D01*
X169229431Y-150782267D01*
X169133261Y-150988502D01*
X169133258Y-150988511D01*
X169074366Y-151208302D01*
X169074364Y-151208313D01*
X169054532Y-151434998D01*
X169054532Y-151435001D01*
X169074364Y-151661686D01*
X169074366Y-151661697D01*
X169133258Y-151881488D01*
X169133261Y-151881497D01*
X169229431Y-152087732D01*
X169229432Y-152087734D01*
X169359954Y-152274141D01*
X169517086Y-152431273D01*
X169550571Y-152492596D01*
X169545587Y-152562288D01*
X169503715Y-152618221D01*
X169457932Y-152639628D01*
X169452522Y-152640906D01*
X169317671Y-152691202D01*
X169317664Y-152691206D01*
X169202455Y-152777452D01*
X169202452Y-152777455D01*
X169116206Y-152892664D01*
X169116202Y-152892671D01*
X169065908Y-153027517D01*
X169059501Y-153087116D01*
X169059501Y-153087123D01*
X169059500Y-153087135D01*
X169059500Y-154782870D01*
X169059501Y-154782876D01*
X169065908Y-154842483D01*
X169116202Y-154977328D01*
X169116203Y-154977329D01*
X169116204Y-154977331D01*
X169158840Y-155034285D01*
X169207769Y-155099646D01*
X169206732Y-155100421D01*
X169235894Y-155153816D01*
X169230915Y-155223508D01*
X169202411Y-155267865D01*
X168797597Y-155672681D01*
X168736274Y-155706166D01*
X168709916Y-155709000D01*
X163701171Y-155709000D01*
X163634132Y-155689315D01*
X163588377Y-155636511D01*
X163578433Y-155567353D01*
X163607458Y-155503797D01*
X163630048Y-155483425D01*
X163657722Y-155464046D01*
X163699139Y-155435047D01*
X163860047Y-155274139D01*
X163990568Y-155087734D01*
X164086739Y-154881496D01*
X164145635Y-154661692D01*
X164165468Y-154435000D01*
X164145635Y-154208308D01*
X164145632Y-154208298D01*
X164144694Y-154202974D01*
X164147184Y-154202534D01*
X164148491Y-154143363D01*
X164178985Y-154093235D01*
X169156735Y-149115487D01*
X169232356Y-149002311D01*
X169284445Y-148876557D01*
X169302131Y-148787644D01*
X169311000Y-148743059D01*
X169311000Y-148648324D01*
X169330685Y-148581285D01*
X169363875Y-148546750D01*
X169459139Y-148480047D01*
X169620047Y-148319139D01*
X169750568Y-148132734D01*
X169777618Y-148074724D01*
X169823790Y-148022285D01*
X169890983Y-148003133D01*
X169957865Y-148023348D01*
G37*
%TD.AperFunction*%
%TA.AperFunction,Conductor*%
G36*
X141157688Y-139825529D02*
G01*
X141182519Y-139844740D01*
X145774510Y-144436732D01*
X145774514Y-144436735D01*
X145887682Y-144512352D01*
X145887695Y-144512359D01*
X145985165Y-144552732D01*
X146013443Y-144564445D01*
X146013447Y-144564445D01*
X146013448Y-144564446D01*
X146146939Y-144591000D01*
X146146942Y-144591000D01*
X146146943Y-144591000D01*
X146283057Y-144591000D01*
X146395501Y-144591000D01*
X146462540Y-144610685D01*
X146508295Y-144663489D01*
X146519501Y-144715000D01*
X146519501Y-144747876D01*
X146525908Y-144807483D01*
X146576202Y-144942328D01*
X146576206Y-144942335D01*
X146662452Y-145057544D01*
X146662455Y-145057547D01*
X146777664Y-145143793D01*
X146777671Y-145143797D01*
X146912517Y-145194091D01*
X146912516Y-145194091D01*
X146919444Y-145194835D01*
X146972127Y-145200500D01*
X148667872Y-145200499D01*
X148727483Y-145194091D01*
X148862331Y-145143796D01*
X148977546Y-145057546D01*
X149063796Y-144942331D01*
X149114091Y-144807483D01*
X149120500Y-144747873D01*
X149120499Y-143052128D01*
X149114091Y-142992517D01*
X149112178Y-142987389D01*
X149063797Y-142857671D01*
X149063793Y-142857664D01*
X148977547Y-142742455D01*
X148977544Y-142742452D01*
X148862335Y-142656206D01*
X148862328Y-142656202D01*
X148727482Y-142605908D01*
X148727483Y-142605908D01*
X148692404Y-142602137D01*
X148627853Y-142575399D01*
X148588005Y-142518006D01*
X148585512Y-142448181D01*
X148621165Y-142388092D01*
X148634539Y-142377272D01*
X148659140Y-142360046D01*
X148820045Y-142199141D01*
X148820047Y-142199139D01*
X148950568Y-142012734D01*
X149046739Y-141806496D01*
X149105635Y-141586692D01*
X149122992Y-141388295D01*
X149148444Y-141323228D01*
X149205035Y-141282249D01*
X149274797Y-141278371D01*
X149334201Y-141311423D01*
X149972681Y-141949903D01*
X150006166Y-142011226D01*
X150009000Y-142037584D01*
X150009000Y-146468058D01*
X150009000Y-146468060D01*
X150008999Y-146468060D01*
X150029812Y-146572686D01*
X150029812Y-146572687D01*
X150035553Y-146601550D01*
X150035557Y-146601563D01*
X150087642Y-146727309D01*
X150087644Y-146727312D01*
X150163263Y-146840485D01*
X150163269Y-146840492D01*
X152259507Y-148936730D01*
X152259514Y-148936736D01*
X152372687Y-149012355D01*
X152372690Y-149012357D01*
X152468724Y-149052135D01*
X152498443Y-149064445D01*
X152498447Y-149064445D01*
X152498448Y-149064446D01*
X152631939Y-149091000D01*
X152631942Y-149091000D01*
X158768060Y-149091000D01*
X158857870Y-149073134D01*
X158901557Y-149064445D01*
X159027311Y-149012356D01*
X159140487Y-148936735D01*
X161949902Y-146127318D01*
X162011225Y-146093834D01*
X162037583Y-146091000D01*
X162319080Y-146091000D01*
X162386119Y-146110685D01*
X162431874Y-146163489D01*
X162441818Y-146232647D01*
X162412793Y-146296203D01*
X162393392Y-146314266D01*
X162382452Y-146322455D01*
X162296206Y-146437664D01*
X162296202Y-146437671D01*
X162245908Y-146572517D01*
X162239501Y-146632116D01*
X162239500Y-146632135D01*
X162239500Y-148327870D01*
X162239501Y-148327876D01*
X162245908Y-148387483D01*
X162296202Y-148522328D01*
X162296206Y-148522335D01*
X162382452Y-148637544D01*
X162382455Y-148637547D01*
X162497664Y-148723793D01*
X162497671Y-148723797D01*
X162632517Y-148774091D01*
X162632516Y-148774091D01*
X162639444Y-148774835D01*
X162692127Y-148780500D01*
X164387872Y-148780499D01*
X164447483Y-148774091D01*
X164582331Y-148723796D01*
X164697546Y-148637546D01*
X164783796Y-148522331D01*
X164834091Y-148387483D01*
X164837862Y-148352401D01*
X164864599Y-148287855D01*
X164921990Y-148248006D01*
X164991816Y-148245511D01*
X165051905Y-148281163D01*
X165062726Y-148294536D01*
X165079956Y-148319143D01*
X165240857Y-148480044D01*
X165240860Y-148480046D01*
X165240861Y-148480047D01*
X165336123Y-148546749D01*
X165379748Y-148601325D01*
X165389000Y-148648324D01*
X165389000Y-149377415D01*
X165369315Y-149444454D01*
X165352681Y-149465096D01*
X164106548Y-150711228D01*
X164045225Y-150744713D01*
X163975533Y-150739729D01*
X163944556Y-150722813D01*
X163902335Y-150691206D01*
X163902328Y-150691202D01*
X163767482Y-150640908D01*
X163767483Y-150640908D01*
X163707883Y-150634501D01*
X163707881Y-150634500D01*
X163707873Y-150634500D01*
X163707864Y-150634500D01*
X162012129Y-150634500D01*
X162012123Y-150634501D01*
X161952516Y-150640908D01*
X161817671Y-150691202D01*
X161817664Y-150691206D01*
X161702455Y-150777452D01*
X161702452Y-150777455D01*
X161616206Y-150892664D01*
X161616202Y-150892671D01*
X161565908Y-151027517D01*
X161559501Y-151087116D01*
X161559500Y-151087135D01*
X161559500Y-151120000D01*
X161539815Y-151187039D01*
X161487011Y-151232794D01*
X161435500Y-151244000D01*
X153572584Y-151244000D01*
X153505545Y-151224315D01*
X153484903Y-151207681D01*
X151140492Y-148863269D01*
X151140485Y-148863263D01*
X151027312Y-148787644D01*
X151027309Y-148787642D01*
X150901561Y-148735556D01*
X150901557Y-148735555D01*
X150842441Y-148723796D01*
X150842440Y-148723795D01*
X150842439Y-148723795D01*
X150768060Y-148709000D01*
X150768058Y-148709000D01*
X150174499Y-148709000D01*
X150107460Y-148689315D01*
X150061705Y-148636511D01*
X150050499Y-148585000D01*
X150050499Y-148502129D01*
X150050498Y-148502123D01*
X150050497Y-148502116D01*
X150044091Y-148442517D01*
X150001330Y-148327870D01*
X149993797Y-148307671D01*
X149993793Y-148307664D01*
X149907547Y-148192455D01*
X149907544Y-148192452D01*
X149792335Y-148106206D01*
X149792328Y-148106202D01*
X149657482Y-148055908D01*
X149657483Y-148055908D01*
X149597883Y-148049501D01*
X149597881Y-148049500D01*
X149597873Y-148049500D01*
X149597864Y-148049500D01*
X147802129Y-148049500D01*
X147802123Y-148049501D01*
X147742516Y-148055908D01*
X147607671Y-148106202D01*
X147607664Y-148106206D01*
X147492455Y-148192452D01*
X147492452Y-148192455D01*
X147406206Y-148307664D01*
X147406202Y-148307671D01*
X147355908Y-148442517D01*
X147349501Y-148502116D01*
X147349501Y-148502123D01*
X147349500Y-148502135D01*
X147349500Y-150297870D01*
X147349501Y-150297876D01*
X147355908Y-150357483D01*
X147406202Y-150492328D01*
X147406206Y-150492335D01*
X147492452Y-150607544D01*
X147492455Y-150607547D01*
X147607664Y-150693793D01*
X147607671Y-150693797D01*
X147739082Y-150742810D01*
X147795016Y-150784681D01*
X147819433Y-150850145D01*
X147804582Y-150918418D01*
X147783431Y-150946673D01*
X147661501Y-151068603D01*
X147572212Y-151196123D01*
X147517635Y-151239748D01*
X147470637Y-151249000D01*
X145577584Y-151249000D01*
X145510545Y-151229315D01*
X145489903Y-151212681D01*
X140927319Y-146650097D01*
X140893834Y-146588774D01*
X140891000Y-146562416D01*
X140891000Y-145068324D01*
X140910685Y-145001285D01*
X140943875Y-144966750D01*
X141039139Y-144900047D01*
X141200047Y-144739139D01*
X141330568Y-144552734D01*
X141426739Y-144346496D01*
X141485635Y-144126692D01*
X141505468Y-143900000D01*
X141485635Y-143673308D01*
X141426739Y-143453504D01*
X141330568Y-143247266D01*
X141200047Y-143060861D01*
X141200045Y-143060858D01*
X141039141Y-142899954D01*
X140852734Y-142769432D01*
X140852728Y-142769429D01*
X140794882Y-142742455D01*
X140794724Y-142742381D01*
X140742285Y-142696210D01*
X140723133Y-142629017D01*
X140743348Y-142562135D01*
X140794725Y-142517618D01*
X140852734Y-142490568D01*
X141039139Y-142360047D01*
X141200047Y-142199139D01*
X141330568Y-142012734D01*
X141426739Y-141806496D01*
X141485635Y-141586692D01*
X141505468Y-141360000D01*
X141485635Y-141133308D01*
X141426739Y-140913504D01*
X141330568Y-140707266D01*
X141200047Y-140520861D01*
X141200045Y-140520858D01*
X141039141Y-140359954D01*
X140852734Y-140229432D01*
X140852728Y-140229429D01*
X140794725Y-140202382D01*
X140742285Y-140156210D01*
X140723133Y-140089017D01*
X140743348Y-140022135D01*
X140794725Y-139977618D01*
X140852734Y-139950568D01*
X141023717Y-139830845D01*
X141089921Y-139808519D01*
X141157688Y-139825529D01*
G37*
%TD.AperFunction*%
%TA.AperFunction,Conductor*%
G36*
X151061589Y-131578145D02*
G01*
X151092566Y-131595060D01*
X151157668Y-131643795D01*
X151157671Y-131643797D01*
X151202618Y-131660561D01*
X151292517Y-131694091D01*
X151352127Y-131700500D01*
X151384999Y-131700499D01*
X151452037Y-131720182D01*
X151497793Y-131772984D01*
X151509000Y-131824499D01*
X151509000Y-131831943D01*
X151509000Y-131968057D01*
X151509000Y-131968059D01*
X151508999Y-131968059D01*
X151535553Y-132101551D01*
X151535556Y-132101561D01*
X151587642Y-132227309D01*
X151587644Y-132227312D01*
X151663263Y-132340485D01*
X151663269Y-132340492D01*
X157755260Y-138432482D01*
X157788745Y-138493805D01*
X157783761Y-138563497D01*
X157741889Y-138619430D01*
X157710912Y-138636345D01*
X157657671Y-138656202D01*
X157657664Y-138656206D01*
X157542455Y-138742452D01*
X157542452Y-138742455D01*
X157456206Y-138857664D01*
X157456202Y-138857671D01*
X157405908Y-138992517D01*
X157399501Y-139052116D01*
X157399501Y-139052123D01*
X157399500Y-139052135D01*
X157399500Y-140747870D01*
X157399501Y-140747876D01*
X157405908Y-140807483D01*
X157456202Y-140942328D01*
X157456206Y-140942335D01*
X157542452Y-141057544D01*
X157542455Y-141057547D01*
X157657664Y-141143793D01*
X157657671Y-141143797D01*
X157666704Y-141147166D01*
X157792517Y-141194091D01*
X157852127Y-141200500D01*
X157884999Y-141200499D01*
X157952037Y-141220182D01*
X157997793Y-141272984D01*
X158009000Y-141324499D01*
X158009000Y-144942415D01*
X157989315Y-145009454D01*
X157972681Y-145030096D01*
X157541765Y-145461011D01*
X157480442Y-145494496D01*
X157432363Y-145493383D01*
X157432025Y-145495306D01*
X157426686Y-145494364D01*
X157200001Y-145474532D01*
X157199998Y-145474532D01*
X156973313Y-145494364D01*
X156973302Y-145494366D01*
X156753511Y-145553258D01*
X156753502Y-145553261D01*
X156547267Y-145649431D01*
X156547265Y-145649432D01*
X156360858Y-145779954D01*
X156199954Y-145940858D01*
X156133250Y-146036123D01*
X156078673Y-146079748D01*
X156031675Y-146089000D01*
X155368325Y-146089000D01*
X155301286Y-146069315D01*
X155266750Y-146036123D01*
X155200045Y-145940858D01*
X155039141Y-145779954D01*
X154852734Y-145649432D01*
X154852732Y-145649431D01*
X154646497Y-145553261D01*
X154646488Y-145553258D01*
X154426697Y-145494366D01*
X154426693Y-145494365D01*
X154426692Y-145494365D01*
X154426691Y-145494364D01*
X154426686Y-145494364D01*
X154200002Y-145474532D01*
X154199998Y-145474532D01*
X153973313Y-145494364D01*
X153973302Y-145494366D01*
X153753511Y-145553258D01*
X153753502Y-145553261D01*
X153547267Y-145649431D01*
X153547265Y-145649432D01*
X153360858Y-145779954D01*
X153199954Y-145940858D01*
X153069432Y-146127265D01*
X153069431Y-146127267D01*
X152973261Y-146333502D01*
X152973258Y-146333511D01*
X152914366Y-146553302D01*
X152914364Y-146553313D01*
X152894532Y-146779998D01*
X152894532Y-146780001D01*
X152914364Y-147006686D01*
X152914366Y-147006697D01*
X152973258Y-147226488D01*
X152973261Y-147226497D01*
X153069431Y-147432732D01*
X153069432Y-147432734D01*
X153096096Y-147470814D01*
X153118423Y-147537020D01*
X153101411Y-147604787D01*
X153050463Y-147652599D01*
X152981753Y-147665277D01*
X152917096Y-147638795D01*
X152906839Y-147629617D01*
X151427319Y-146150097D01*
X151393834Y-146088774D01*
X151391000Y-146062416D01*
X151391000Y-141631939D01*
X151364446Y-141498448D01*
X151364445Y-141498447D01*
X151364445Y-141498443D01*
X151364443Y-141498438D01*
X151312357Y-141372690D01*
X151312355Y-141372687D01*
X151236736Y-141259514D01*
X151236730Y-141259507D01*
X149138988Y-139161766D01*
X149105503Y-139100443D01*
X149106669Y-139052377D01*
X149104694Y-139052029D01*
X149105631Y-139046704D01*
X149105635Y-139046692D01*
X149125468Y-138820000D01*
X149105635Y-138593308D01*
X149046739Y-138373504D01*
X148950568Y-138167266D01*
X148820047Y-137980861D01*
X148820045Y-137980858D01*
X148659141Y-137819954D01*
X148472734Y-137689432D01*
X148472728Y-137689429D01*
X148414725Y-137662382D01*
X148362285Y-137616210D01*
X148343133Y-137549017D01*
X148363348Y-137482135D01*
X148414725Y-137437618D01*
X148472734Y-137410568D01*
X148659139Y-137280047D01*
X148820047Y-137119139D01*
X148950568Y-136932734D01*
X149046739Y-136726496D01*
X149105635Y-136506692D01*
X149125468Y-136280000D01*
X149125331Y-136278438D01*
X149114329Y-136152682D01*
X149105635Y-136053308D01*
X149046739Y-135833504D01*
X148950568Y-135627266D01*
X148820047Y-135440861D01*
X148820045Y-135440858D01*
X148659141Y-135279954D01*
X148472734Y-135149432D01*
X148472728Y-135149429D01*
X148414725Y-135122382D01*
X148362285Y-135076210D01*
X148343133Y-135009017D01*
X148363348Y-134942135D01*
X148414725Y-134897618D01*
X148472734Y-134870568D01*
X148659139Y-134740047D01*
X148820047Y-134579139D01*
X148950568Y-134392734D01*
X149046739Y-134186496D01*
X149105635Y-133966692D01*
X149125468Y-133740000D01*
X149105635Y-133513308D01*
X149105632Y-133513298D01*
X149104694Y-133507974D01*
X149107184Y-133507534D01*
X149108491Y-133448363D01*
X149138985Y-133398235D01*
X150930576Y-131606644D01*
X150991897Y-131573161D01*
X151061589Y-131578145D01*
G37*
%TD.AperFunction*%
%TA.AperFunction,Conductor*%
G36*
X172497865Y-140403348D02*
G01*
X172542382Y-140454725D01*
X172569429Y-140512728D01*
X172569432Y-140512734D01*
X172699954Y-140699141D01*
X172860858Y-140860045D01*
X172860861Y-140860047D01*
X173047266Y-140990568D01*
X173253504Y-141086739D01*
X173473308Y-141145635D01*
X173635230Y-141159801D01*
X173699998Y-141165468D01*
X173700000Y-141165468D01*
X173700002Y-141165468D01*
X173731421Y-141162719D01*
X173926692Y-141145635D01*
X173926704Y-141145631D01*
X173932029Y-141144694D01*
X173932464Y-141147166D01*
X173991732Y-141148522D01*
X174041766Y-141178988D01*
X175839507Y-142976730D01*
X175839510Y-142976733D01*
X175925377Y-143034107D01*
X175952689Y-143052356D01*
X175952691Y-143052357D01*
X175952695Y-143052359D01*
X176078438Y-143104443D01*
X176078443Y-143104445D01*
X176078447Y-143104445D01*
X176078448Y-143104446D01*
X176211939Y-143131000D01*
X176211942Y-143131000D01*
X176211943Y-143131000D01*
X176348057Y-143131000D01*
X179392416Y-143131000D01*
X179459455Y-143150685D01*
X179505210Y-143203489D01*
X179515154Y-143272647D01*
X179486129Y-143336203D01*
X179480097Y-143342681D01*
X176644859Y-146177917D01*
X176583536Y-146211402D01*
X176525085Y-146210011D01*
X176466697Y-146194366D01*
X176466693Y-146194365D01*
X176466692Y-146194365D01*
X176466691Y-146194364D01*
X176466686Y-146194364D01*
X176240002Y-146174532D01*
X176239998Y-146174532D01*
X176013313Y-146194364D01*
X176013302Y-146194366D01*
X175793511Y-146253258D01*
X175793502Y-146253261D01*
X175587267Y-146349431D01*
X175587265Y-146349432D01*
X175400858Y-146479954D01*
X175239954Y-146640858D01*
X175109432Y-146827265D01*
X175109431Y-146827267D01*
X175082382Y-146885275D01*
X175036209Y-146937714D01*
X174969016Y-146956866D01*
X174902135Y-146936650D01*
X174857618Y-146885275D01*
X174830568Y-146827267D01*
X174830567Y-146827265D01*
X174700045Y-146640858D01*
X174539141Y-146479954D01*
X174352734Y-146349432D01*
X174352732Y-146349431D01*
X174146497Y-146253261D01*
X174146488Y-146253258D01*
X173926697Y-146194366D01*
X173926693Y-146194365D01*
X173926692Y-146194365D01*
X173926691Y-146194364D01*
X173926686Y-146194364D01*
X173700002Y-146174532D01*
X173699999Y-146174532D01*
X173473313Y-146194364D01*
X173467975Y-146195306D01*
X173467550Y-146192899D01*
X173407948Y-146191375D01*
X173358234Y-146161011D01*
X172060492Y-144863269D01*
X172060485Y-144863263D01*
X171947312Y-144787644D01*
X171947309Y-144787642D01*
X171821561Y-144735556D01*
X171821551Y-144735553D01*
X171688060Y-144709000D01*
X171688058Y-144709000D01*
X161631942Y-144709000D01*
X161631940Y-144709000D01*
X161498448Y-144735553D01*
X161498438Y-144735556D01*
X161372695Y-144787640D01*
X161372682Y-144787647D01*
X161259514Y-144863264D01*
X161259510Y-144863267D01*
X158493160Y-147629617D01*
X158431837Y-147663102D01*
X158362145Y-147658118D01*
X158306212Y-147616246D01*
X158281795Y-147550782D01*
X158296647Y-147482509D01*
X158303904Y-147470814D01*
X158330568Y-147432734D01*
X158426739Y-147226496D01*
X158485635Y-147006692D01*
X158505468Y-146780000D01*
X158485635Y-146553308D01*
X158485632Y-146553298D01*
X158484694Y-146547974D01*
X158487142Y-146547542D01*
X158488558Y-146488155D01*
X158518988Y-146438233D01*
X158855421Y-146101801D01*
X159236735Y-145720487D01*
X159312356Y-145607311D01*
X159364445Y-145481557D01*
X159367130Y-145468057D01*
X159391000Y-145348058D01*
X159391000Y-141324499D01*
X159410685Y-141257460D01*
X159463489Y-141211705D01*
X159515000Y-141200499D01*
X159547871Y-141200499D01*
X159547872Y-141200499D01*
X159607483Y-141194091D01*
X159742331Y-141143796D01*
X159857546Y-141057546D01*
X159943796Y-140942331D01*
X159994091Y-140807483D01*
X160000500Y-140747873D01*
X160000500Y-140715000D01*
X160020185Y-140647961D01*
X160072989Y-140602206D01*
X160124500Y-140591000D01*
X162399683Y-140591000D01*
X162466722Y-140610685D01*
X162501258Y-140643877D01*
X162539954Y-140699141D01*
X162700858Y-140860045D01*
X162700861Y-140860047D01*
X162887266Y-140990568D01*
X163093504Y-141086739D01*
X163313308Y-141145635D01*
X163475230Y-141159801D01*
X163539998Y-141165468D01*
X163540000Y-141165468D01*
X163540002Y-141165468D01*
X163596673Y-141160509D01*
X163766692Y-141145635D01*
X163986496Y-141086739D01*
X164192734Y-140990568D01*
X164379139Y-140860047D01*
X164540047Y-140699139D01*
X164670568Y-140512734D01*
X164697618Y-140454724D01*
X164743790Y-140402285D01*
X164810983Y-140383133D01*
X164877865Y-140403348D01*
X164922382Y-140454725D01*
X164949429Y-140512728D01*
X164949432Y-140512734D01*
X165079954Y-140699141D01*
X165240858Y-140860045D01*
X165240861Y-140860047D01*
X165427266Y-140990568D01*
X165633504Y-141086739D01*
X165853308Y-141145635D01*
X166015230Y-141159801D01*
X166079998Y-141165468D01*
X166080000Y-141165468D01*
X166080002Y-141165468D01*
X166136673Y-141160509D01*
X166306692Y-141145635D01*
X166526496Y-141086739D01*
X166732734Y-140990568D01*
X166919139Y-140860047D01*
X167080047Y-140699139D01*
X167210568Y-140512734D01*
X167237618Y-140454724D01*
X167283790Y-140402285D01*
X167350983Y-140383133D01*
X167417865Y-140403348D01*
X167462382Y-140454725D01*
X167489429Y-140512728D01*
X167489432Y-140512734D01*
X167619954Y-140699141D01*
X167780858Y-140860045D01*
X167780861Y-140860047D01*
X167967266Y-140990568D01*
X168173504Y-141086739D01*
X168393308Y-141145635D01*
X168555230Y-141159801D01*
X168619998Y-141165468D01*
X168620000Y-141165468D01*
X168620002Y-141165468D01*
X168676673Y-141160509D01*
X168846692Y-141145635D01*
X169066496Y-141086739D01*
X169272734Y-140990568D01*
X169459139Y-140860047D01*
X169620047Y-140699139D01*
X169750568Y-140512734D01*
X169777618Y-140454724D01*
X169823790Y-140402285D01*
X169890983Y-140383133D01*
X169957865Y-140403348D01*
X170002382Y-140454725D01*
X170029429Y-140512728D01*
X170029432Y-140512734D01*
X170159954Y-140699141D01*
X170320858Y-140860045D01*
X170320861Y-140860047D01*
X170507266Y-140990568D01*
X170713504Y-141086739D01*
X170933308Y-141145635D01*
X171095230Y-141159801D01*
X171159998Y-141165468D01*
X171160000Y-141165468D01*
X171160002Y-141165468D01*
X171216673Y-141160509D01*
X171386692Y-141145635D01*
X171606496Y-141086739D01*
X171812734Y-140990568D01*
X171999139Y-140860047D01*
X172160047Y-140699139D01*
X172290568Y-140512734D01*
X172317618Y-140454724D01*
X172363790Y-140402285D01*
X172430983Y-140383133D01*
X172497865Y-140403348D01*
G37*
%TD.AperFunction*%
%TA.AperFunction,Conductor*%
G36*
X139108330Y-131946405D02*
G01*
X139164263Y-131988277D01*
X139166572Y-131991465D01*
X139199955Y-132039142D01*
X139360858Y-132200045D01*
X139360861Y-132200047D01*
X139547266Y-132330568D01*
X139753504Y-132426739D01*
X139973308Y-132485635D01*
X140135230Y-132499801D01*
X140199998Y-132505468D01*
X140200000Y-132505468D01*
X140200002Y-132505468D01*
X140256673Y-132500509D01*
X140426692Y-132485635D01*
X140646496Y-132426739D01*
X140852734Y-132330568D01*
X141039139Y-132200047D01*
X141200047Y-132039139D01*
X141200049Y-132039135D01*
X141200800Y-132038385D01*
X141262124Y-132004900D01*
X141331815Y-132009884D01*
X141376163Y-132038385D01*
X142167681Y-132829902D01*
X142201166Y-132891225D01*
X142204000Y-132917583D01*
X142204000Y-138011943D01*
X142204000Y-138148057D01*
X142204000Y-138148059D01*
X142203999Y-138148059D01*
X142230553Y-138281551D01*
X142230556Y-138281561D01*
X142282642Y-138407309D01*
X142282644Y-138407312D01*
X142358263Y-138520485D01*
X142358269Y-138520492D01*
X145734509Y-141896732D01*
X145734513Y-141896735D01*
X145847681Y-141972352D01*
X145847694Y-141972359D01*
X145881163Y-141986222D01*
X145973442Y-142024445D01*
X145973446Y-142024445D01*
X145973447Y-142024446D01*
X145987824Y-142027306D01*
X145987837Y-142027308D01*
X145987851Y-142027311D01*
X146039496Y-142037584D01*
X146106940Y-142051000D01*
X146106942Y-142051000D01*
X146651675Y-142051000D01*
X146718714Y-142070685D01*
X146753250Y-142103877D01*
X146819954Y-142199141D01*
X146980858Y-142360045D01*
X147005462Y-142377273D01*
X147049087Y-142431849D01*
X147056281Y-142501348D01*
X147024758Y-142563703D01*
X146964529Y-142599117D01*
X146947593Y-142602138D01*
X146912516Y-142605908D01*
X146777671Y-142656202D01*
X146777664Y-142656206D01*
X146662455Y-142742452D01*
X146662452Y-142742455D01*
X146576206Y-142857664D01*
X146576202Y-142857671D01*
X146527821Y-142987389D01*
X146485950Y-143043323D01*
X146420485Y-143067740D01*
X146352212Y-143052888D01*
X146323958Y-143031737D01*
X141575492Y-138283269D01*
X141575485Y-138283263D01*
X141462312Y-138207644D01*
X141349962Y-138161107D01*
X141295840Y-138117669D01*
X141200045Y-137980858D01*
X141039141Y-137819954D01*
X140852734Y-137689432D01*
X140852728Y-137689429D01*
X140794725Y-137662382D01*
X140742285Y-137616210D01*
X140723133Y-137549017D01*
X140743348Y-137482135D01*
X140794725Y-137437618D01*
X140852734Y-137410568D01*
X141039139Y-137280047D01*
X141200047Y-137119139D01*
X141330568Y-136932734D01*
X141426739Y-136726496D01*
X141485635Y-136506692D01*
X141505468Y-136280000D01*
X141505331Y-136278438D01*
X141494329Y-136152682D01*
X141485635Y-136053308D01*
X141426739Y-135833504D01*
X141330568Y-135627266D01*
X141200047Y-135440861D01*
X141200045Y-135440858D01*
X141039141Y-135279954D01*
X140852734Y-135149432D01*
X140852732Y-135149431D01*
X140646497Y-135053261D01*
X140646488Y-135053258D01*
X140426697Y-134994366D01*
X140426693Y-134994365D01*
X140426692Y-134994365D01*
X140426691Y-134994364D01*
X140426686Y-134994364D01*
X140200002Y-134974532D01*
X140199998Y-134974532D01*
X139973313Y-134994364D01*
X139973302Y-134994366D01*
X139753511Y-135053258D01*
X139753502Y-135053261D01*
X139547267Y-135149431D01*
X139547265Y-135149432D01*
X139360858Y-135279954D01*
X139199954Y-135440858D01*
X139069432Y-135627265D01*
X139069431Y-135627267D01*
X138973261Y-135833502D01*
X138973258Y-135833511D01*
X138914366Y-136053302D01*
X138914364Y-136053313D01*
X138894532Y-136279998D01*
X138894532Y-136280001D01*
X138914364Y-136506686D01*
X138914366Y-136506697D01*
X138973258Y-136726488D01*
X138973261Y-136726497D01*
X139069431Y-136932732D01*
X139069432Y-136932734D01*
X139199954Y-137119141D01*
X139360858Y-137280045D01*
X139360861Y-137280047D01*
X139547266Y-137410568D01*
X139589249Y-137430145D01*
X139605275Y-137437618D01*
X139657714Y-137483791D01*
X139676866Y-137550984D01*
X139656650Y-137617865D01*
X139605275Y-137662382D01*
X139547267Y-137689431D01*
X139547265Y-137689432D01*
X139360858Y-137819954D01*
X139324197Y-137856615D01*
X139262874Y-137890100D01*
X139193182Y-137885114D01*
X139148836Y-137856614D01*
X137035492Y-135743269D01*
X137035485Y-135743263D01*
X136922312Y-135667644D01*
X136922309Y-135667642D01*
X136796561Y-135615556D01*
X136796551Y-135615553D01*
X136663060Y-135589000D01*
X136663058Y-135589000D01*
X135368325Y-135589000D01*
X135301286Y-135569315D01*
X135266750Y-135536123D01*
X135200045Y-135440858D01*
X135039141Y-135279954D01*
X134852734Y-135149432D01*
X134852728Y-135149429D01*
X134794725Y-135122382D01*
X134742285Y-135076210D01*
X134723133Y-135009017D01*
X134743348Y-134942135D01*
X134794725Y-134897618D01*
X134852734Y-134870568D01*
X135039139Y-134740047D01*
X135200047Y-134579139D01*
X135256316Y-134498778D01*
X135266750Y-134483877D01*
X135321327Y-134440252D01*
X135368325Y-134431000D01*
X136303060Y-134431000D01*
X136392870Y-134413134D01*
X136436557Y-134404445D01*
X136562311Y-134352356D01*
X136574049Y-134344513D01*
X136675487Y-134276735D01*
X138977317Y-131974904D01*
X139038638Y-131941421D01*
X139108330Y-131946405D01*
G37*
%TD.AperFunction*%
%TA.AperFunction,Conductor*%
G36*
X184792540Y-136690685D02*
G01*
X184838295Y-136743489D01*
X184849501Y-136795000D01*
X184849501Y-136877876D01*
X184855908Y-136937483D01*
X184906202Y-137072328D01*
X184906206Y-137072335D01*
X184992452Y-137187544D01*
X184992455Y-137187547D01*
X185107664Y-137273793D01*
X185107671Y-137273797D01*
X185239082Y-137322810D01*
X185295016Y-137364681D01*
X185319433Y-137430145D01*
X185304582Y-137498418D01*
X185283431Y-137526673D01*
X185161501Y-137648603D01*
X185072212Y-137776123D01*
X185017635Y-137819748D01*
X184970637Y-137829000D01*
X183811940Y-137829000D01*
X183678448Y-137855553D01*
X183678438Y-137855556D01*
X183552690Y-137907642D01*
X183552687Y-137907644D01*
X183439514Y-137983263D01*
X183439507Y-137983269D01*
X179710097Y-141712681D01*
X179648774Y-141746166D01*
X179622416Y-141749000D01*
X176617584Y-141749000D01*
X176550545Y-141729315D01*
X176529903Y-141712681D01*
X176191423Y-141374201D01*
X176157938Y-141312878D01*
X176162922Y-141243186D01*
X176204794Y-141187253D01*
X176268295Y-141162992D01*
X176466692Y-141145635D01*
X176686496Y-141086739D01*
X176892734Y-140990568D01*
X177079139Y-140860047D01*
X177240047Y-140699139D01*
X177370568Y-140512734D01*
X177397618Y-140454724D01*
X177443790Y-140402285D01*
X177510983Y-140383133D01*
X177577865Y-140403348D01*
X177622382Y-140454725D01*
X177649429Y-140512728D01*
X177649432Y-140512734D01*
X177779954Y-140699141D01*
X177940858Y-140860045D01*
X177940861Y-140860047D01*
X178127266Y-140990568D01*
X178333504Y-141086739D01*
X178553308Y-141145635D01*
X178715230Y-141159801D01*
X178779998Y-141165468D01*
X178780000Y-141165468D01*
X178780002Y-141165468D01*
X178836673Y-141160509D01*
X179006692Y-141145635D01*
X179226496Y-141086739D01*
X179432734Y-140990568D01*
X179619139Y-140860047D01*
X179780047Y-140699139D01*
X179910568Y-140512734D01*
X180006739Y-140306496D01*
X180065635Y-140086692D01*
X180085468Y-139860000D01*
X180065635Y-139633308D01*
X180065632Y-139633298D01*
X180064694Y-139627974D01*
X180067184Y-139627534D01*
X180068491Y-139568363D01*
X180098985Y-139518235D01*
X182909902Y-136707319D01*
X182971225Y-136673834D01*
X182997583Y-136671000D01*
X184725501Y-136671000D01*
X184792540Y-136690685D01*
G37*
%TD.AperFunction*%
%TA.AperFunction,Conductor*%
G36*
X141311815Y-129489884D02*
G01*
X141356163Y-129518385D01*
X144572681Y-132734902D01*
X144606166Y-132796225D01*
X144609000Y-132822583D01*
X144609000Y-137416943D01*
X144609000Y-137553057D01*
X144609000Y-137553059D01*
X144608999Y-137553059D01*
X144635553Y-137686551D01*
X144635556Y-137686561D01*
X144687642Y-137812309D01*
X144687644Y-137812312D01*
X144763263Y-137925485D01*
X144763269Y-137925492D01*
X146194510Y-139356733D01*
X146194513Y-139356735D01*
X146269190Y-139406632D01*
X146307689Y-139432356D01*
X146433443Y-139484445D01*
X146433447Y-139484445D01*
X146433448Y-139484446D01*
X146566939Y-139511000D01*
X146566942Y-139511000D01*
X146566943Y-139511000D01*
X146651675Y-139511000D01*
X146718714Y-139530685D01*
X146753250Y-139563877D01*
X146819954Y-139659141D01*
X146980858Y-139820045D01*
X146980861Y-139820047D01*
X147167266Y-139950568D01*
X147225275Y-139977618D01*
X147277714Y-140023791D01*
X147296866Y-140090984D01*
X147276650Y-140157865D01*
X147225275Y-140202382D01*
X147167267Y-140229431D01*
X147167265Y-140229432D01*
X146980858Y-140359954D01*
X146819954Y-140520858D01*
X146753250Y-140616123D01*
X146698673Y-140659748D01*
X146651675Y-140669000D01*
X146512584Y-140669000D01*
X146445545Y-140649315D01*
X146424903Y-140632681D01*
X143622319Y-137830097D01*
X143588834Y-137768774D01*
X143586000Y-137742416D01*
X143586000Y-132511939D01*
X143559446Y-132378448D01*
X143559445Y-132378447D01*
X143559445Y-132378443D01*
X143543722Y-132340485D01*
X143507359Y-132252695D01*
X143507355Y-132252688D01*
X143503732Y-132247266D01*
X143478164Y-132209000D01*
X143478164Y-132208999D01*
X143431738Y-132139518D01*
X143431732Y-132139510D01*
X141955492Y-130663269D01*
X141955485Y-130663263D01*
X141842312Y-130587644D01*
X141842309Y-130587642D01*
X141716561Y-130535556D01*
X141716549Y-130535553D01*
X141599929Y-130512356D01*
X141599926Y-130512354D01*
X141599926Y-130512355D01*
X141583058Y-130509000D01*
X141583057Y-130509000D01*
X141368325Y-130509000D01*
X141301286Y-130489315D01*
X141266750Y-130456123D01*
X141200045Y-130360858D01*
X141039141Y-130199954D01*
X140852734Y-130069432D01*
X140852728Y-130069429D01*
X140794725Y-130042382D01*
X140742285Y-129996210D01*
X140723133Y-129929017D01*
X140743348Y-129862135D01*
X140794725Y-129817618D01*
X140852734Y-129790568D01*
X141039139Y-129660047D01*
X141180802Y-129518383D01*
X141242123Y-129484900D01*
X141311815Y-129489884D01*
G37*
%TD.AperFunction*%
%TA.AperFunction,Conductor*%
G36*
X185037676Y-139230685D02*
G01*
X185072211Y-139263876D01*
X185094609Y-139295863D01*
X185161501Y-139391396D01*
X185161506Y-139391402D01*
X185328597Y-139558493D01*
X185328603Y-139558498D01*
X185514158Y-139688425D01*
X185557783Y-139743002D01*
X185564977Y-139812500D01*
X185533454Y-139874855D01*
X185514158Y-139891575D01*
X185328597Y-140021505D01*
X185161506Y-140188597D01*
X185161501Y-140188603D01*
X185072212Y-140316123D01*
X185017635Y-140359748D01*
X184970637Y-140369000D01*
X183307584Y-140369000D01*
X183240545Y-140349315D01*
X183194790Y-140296511D01*
X183184846Y-140227353D01*
X183213871Y-140163797D01*
X183219903Y-140157319D01*
X184129903Y-139247319D01*
X184191226Y-139213834D01*
X184217584Y-139211000D01*
X184970637Y-139211000D01*
X185037676Y-139230685D01*
G37*
%TD.AperFunction*%
%TA.AperFunction,Conductor*%
G36*
X151385081Y-115079476D02*
G01*
X151431512Y-115108733D01*
X152163265Y-115840486D01*
X152163266Y-115840487D01*
X152222824Y-115900045D01*
X152259514Y-115936735D01*
X152372682Y-116012352D01*
X152372695Y-116012359D01*
X152498438Y-116064443D01*
X152498443Y-116064445D01*
X152498447Y-116064445D01*
X152498448Y-116064446D01*
X152631939Y-116091000D01*
X152631942Y-116091000D01*
X156608059Y-116091000D01*
X156632419Y-116086154D01*
X156736070Y-116065536D01*
X156805660Y-116071763D01*
X156860838Y-116114625D01*
X156884083Y-116180515D01*
X156868016Y-116248512D01*
X156847942Y-116274834D01*
X153055196Y-120067580D01*
X152993873Y-120101065D01*
X152978323Y-120103427D01*
X152853312Y-120114364D01*
X152853302Y-120114366D01*
X152633511Y-120173258D01*
X152633502Y-120173261D01*
X152427267Y-120269431D01*
X152427265Y-120269432D01*
X152240858Y-120399954D01*
X152079954Y-120560858D01*
X151949432Y-120747265D01*
X151949431Y-120747267D01*
X151922382Y-120805275D01*
X151876209Y-120857714D01*
X151809016Y-120876866D01*
X151742135Y-120856650D01*
X151697618Y-120805275D01*
X151679905Y-120767290D01*
X151670568Y-120747266D01*
X151540047Y-120560861D01*
X151540045Y-120560858D01*
X151379141Y-120399954D01*
X151192734Y-120269432D01*
X151192732Y-120269431D01*
X150986497Y-120173261D01*
X150986488Y-120173258D01*
X150766697Y-120114366D01*
X150766693Y-120114365D01*
X150766692Y-120114365D01*
X150766691Y-120114364D01*
X150766686Y-120114364D01*
X150540002Y-120094532D01*
X150539998Y-120094532D01*
X150313313Y-120114364D01*
X150313302Y-120114366D01*
X150093511Y-120173258D01*
X150093502Y-120173261D01*
X149887267Y-120269431D01*
X149887265Y-120269432D01*
X149700858Y-120399954D01*
X149539954Y-120560858D01*
X149522725Y-120585464D01*
X149468147Y-120629088D01*
X149398648Y-120636280D01*
X149336294Y-120604757D01*
X149300882Y-120544526D01*
X149297861Y-120527591D01*
X149294091Y-120492516D01*
X149243797Y-120357671D01*
X149243793Y-120357664D01*
X149157547Y-120242455D01*
X149157544Y-120242452D01*
X149042335Y-120156206D01*
X149042328Y-120156202D01*
X148907482Y-120105908D01*
X148907483Y-120105908D01*
X148847883Y-120099501D01*
X148847881Y-120099500D01*
X148847873Y-120099500D01*
X148847864Y-120099500D01*
X147152129Y-120099500D01*
X147152123Y-120099501D01*
X147092516Y-120105908D01*
X146957671Y-120156202D01*
X146957664Y-120156206D01*
X146842455Y-120242452D01*
X146842452Y-120242455D01*
X146756206Y-120357664D01*
X146756202Y-120357671D01*
X146705908Y-120492517D01*
X146699501Y-120552116D01*
X146699500Y-120552135D01*
X146699500Y-122247870D01*
X146699501Y-122247876D01*
X146705908Y-122307483D01*
X146756202Y-122442328D01*
X146756206Y-122442335D01*
X146842452Y-122557544D01*
X146842455Y-122557547D01*
X146957664Y-122643793D01*
X146957671Y-122643797D01*
X147092517Y-122694091D01*
X147092516Y-122694091D01*
X147099444Y-122694835D01*
X147152127Y-122700500D01*
X147891915Y-122700499D01*
X147958954Y-122720183D01*
X147979596Y-122736818D01*
X163588576Y-138345798D01*
X163622061Y-138407121D01*
X163617077Y-138476813D01*
X163575205Y-138532746D01*
X163511703Y-138557007D01*
X163313312Y-138574364D01*
X163313302Y-138574366D01*
X163093511Y-138633258D01*
X163093502Y-138633261D01*
X162887267Y-138729431D01*
X162887265Y-138729432D01*
X162700858Y-138859954D01*
X162539954Y-139020858D01*
X162445242Y-139156123D01*
X162390665Y-139199748D01*
X162343667Y-139209000D01*
X160124499Y-139209000D01*
X160057460Y-139189315D01*
X160011705Y-139136511D01*
X160000499Y-139085000D01*
X160000499Y-139052129D01*
X160000498Y-139052123D01*
X160000497Y-139052116D01*
X159994091Y-138992517D01*
X159944648Y-138859954D01*
X159943797Y-138857671D01*
X159943793Y-138857664D01*
X159857547Y-138742455D01*
X159857544Y-138742452D01*
X159742335Y-138656206D01*
X159742328Y-138656202D01*
X159607482Y-138605908D01*
X159607483Y-138605908D01*
X159547883Y-138599501D01*
X159547881Y-138599500D01*
X159547873Y-138599500D01*
X159547865Y-138599500D01*
X159515000Y-138599500D01*
X159447961Y-138579815D01*
X159402206Y-138527011D01*
X159391000Y-138475500D01*
X159391000Y-138331939D01*
X159364446Y-138198448D01*
X159364445Y-138198447D01*
X159364445Y-138198443D01*
X159364443Y-138198438D01*
X159312358Y-138072693D01*
X159312357Y-138072691D01*
X159312356Y-138072689D01*
X159301430Y-138056337D01*
X159236735Y-137959513D01*
X159236733Y-137959510D01*
X159236730Y-137959507D01*
X153144739Y-131867517D01*
X153111254Y-131806194D01*
X153116238Y-131736502D01*
X153158110Y-131680569D01*
X153189083Y-131663656D01*
X153242331Y-131643796D01*
X153357546Y-131557546D01*
X153443796Y-131442331D01*
X153494091Y-131307483D01*
X153500500Y-131247873D01*
X153500499Y-129552128D01*
X153494091Y-129492517D01*
X153484773Y-129467535D01*
X153443797Y-129357671D01*
X153443793Y-129357664D01*
X153357547Y-129242455D01*
X153357544Y-129242452D01*
X153242335Y-129156206D01*
X153242328Y-129156202D01*
X153107482Y-129105908D01*
X153107483Y-129105908D01*
X153047883Y-129099501D01*
X153047881Y-129099500D01*
X153047873Y-129099500D01*
X153047865Y-129099500D01*
X153015000Y-129099500D01*
X152947961Y-129079815D01*
X152902206Y-129027011D01*
X152891000Y-128975500D01*
X152891000Y-128331939D01*
X152864446Y-128198448D01*
X152864445Y-128198447D01*
X152864445Y-128198443D01*
X152849485Y-128162327D01*
X152812359Y-128072695D01*
X152812352Y-128072682D01*
X152736735Y-127959514D01*
X152693344Y-127916123D01*
X152640487Y-127863266D01*
X152140487Y-127363265D01*
X150178723Y-125401501D01*
X148140492Y-123363269D01*
X148140485Y-123363263D01*
X148027312Y-123287644D01*
X148027309Y-123287642D01*
X147901561Y-123235556D01*
X147901549Y-123235553D01*
X147834273Y-123222171D01*
X147834272Y-123222171D01*
X147768060Y-123209000D01*
X147768058Y-123209000D01*
X144934811Y-123209000D01*
X144867772Y-123189315D01*
X144842665Y-123167976D01*
X144805871Y-123127112D01*
X144805867Y-123127109D01*
X144652734Y-123015851D01*
X144652729Y-123015848D01*
X144479807Y-122938857D01*
X144479802Y-122938855D01*
X144334001Y-122907865D01*
X144294646Y-122899500D01*
X144105354Y-122899500D01*
X144105353Y-122899500D01*
X143971758Y-122927896D01*
X143902091Y-122922580D01*
X143846358Y-122880443D01*
X143822253Y-122814863D01*
X143837430Y-122746661D01*
X143858297Y-122718925D01*
X151076730Y-115500492D01*
X151076735Y-115500487D01*
X151152356Y-115387311D01*
X151154503Y-115382129D01*
X151169719Y-115345393D01*
X151204445Y-115261557D01*
X151216999Y-115198443D01*
X151222214Y-115172222D01*
X151254597Y-115110314D01*
X151315311Y-115075738D01*
X151385081Y-115079476D01*
G37*
%TD.AperFunction*%
%TA.AperFunction,Conductor*%
G36*
X143248025Y-123431711D02*
G01*
X143303958Y-123473583D01*
X143328375Y-123539047D01*
X143322622Y-123586211D01*
X143314326Y-123611744D01*
X143294540Y-123800000D01*
X143314326Y-123988256D01*
X143314327Y-123988259D01*
X143372818Y-124168277D01*
X143372821Y-124168284D01*
X143467467Y-124332216D01*
X143594129Y-124472888D01*
X143747265Y-124584148D01*
X143747270Y-124584151D01*
X143920192Y-124661142D01*
X143920197Y-124661144D01*
X144105354Y-124700500D01*
X144105355Y-124700500D01*
X144294644Y-124700500D01*
X144294646Y-124700500D01*
X144479803Y-124661144D01*
X144555774Y-124627319D01*
X144613268Y-124601721D01*
X144663704Y-124591000D01*
X147362416Y-124591000D01*
X147429455Y-124610685D01*
X147450097Y-124627319D01*
X151163265Y-128340487D01*
X151472681Y-128649902D01*
X151506166Y-128711225D01*
X151509000Y-128737583D01*
X151509000Y-128975500D01*
X151489315Y-129042539D01*
X151436511Y-129088294D01*
X151385003Y-129099500D01*
X151352131Y-129099500D01*
X151352123Y-129099501D01*
X151292516Y-129105908D01*
X151157671Y-129156202D01*
X151157664Y-129156206D01*
X151042455Y-129242452D01*
X151042452Y-129242455D01*
X150956206Y-129357664D01*
X150956202Y-129357671D01*
X150905908Y-129492517D01*
X150899501Y-129552116D01*
X150899501Y-129552123D01*
X150899500Y-129552135D01*
X150899500Y-129677609D01*
X150879815Y-129744648D01*
X150837424Y-129783765D01*
X150837754Y-129784259D01*
X150834623Y-129786350D01*
X150833959Y-129786964D01*
X150832692Y-129787641D01*
X150719510Y-129863266D01*
X149334201Y-131248575D01*
X149272878Y-131282060D01*
X149203186Y-131277076D01*
X149147253Y-131235204D01*
X149122992Y-131171701D01*
X149105635Y-130973308D01*
X149046739Y-130753504D01*
X148950568Y-130547266D01*
X148820047Y-130360861D01*
X148820045Y-130360858D01*
X148659141Y-130199954D01*
X148472734Y-130069432D01*
X148472728Y-130069429D01*
X148414725Y-130042382D01*
X148362285Y-129996210D01*
X148343133Y-129929017D01*
X148363348Y-129862135D01*
X148414725Y-129817618D01*
X148472734Y-129790568D01*
X148659139Y-129660047D01*
X148820047Y-129499139D01*
X148950568Y-129312734D01*
X149046739Y-129106496D01*
X149105635Y-128886692D01*
X149125468Y-128660000D01*
X149121475Y-128614365D01*
X149105635Y-128433313D01*
X149105635Y-128433308D01*
X149046739Y-128213504D01*
X148950568Y-128007266D01*
X148820047Y-127820861D01*
X148820045Y-127820858D01*
X148659141Y-127659954D01*
X148472734Y-127529432D01*
X148472732Y-127529431D01*
X148266497Y-127433261D01*
X148266488Y-127433258D01*
X148046697Y-127374366D01*
X148046693Y-127374365D01*
X148046692Y-127374365D01*
X148046691Y-127374364D01*
X148046686Y-127374364D01*
X147820002Y-127354532D01*
X147819998Y-127354532D01*
X147593313Y-127374364D01*
X147593302Y-127374366D01*
X147373511Y-127433258D01*
X147373502Y-127433261D01*
X147167267Y-127529431D01*
X147167265Y-127529432D01*
X146980858Y-127659954D01*
X146819954Y-127820858D01*
X146689432Y-128007265D01*
X146689431Y-128007267D01*
X146593261Y-128213502D01*
X146593258Y-128213511D01*
X146534366Y-128433302D01*
X146534364Y-128433313D01*
X146514532Y-128659998D01*
X146514532Y-128660001D01*
X146534364Y-128886686D01*
X146534366Y-128886697D01*
X146593258Y-129106488D01*
X146593261Y-129106497D01*
X146689431Y-129312732D01*
X146689432Y-129312734D01*
X146819954Y-129499141D01*
X146980858Y-129660045D01*
X146980861Y-129660047D01*
X147167266Y-129790568D01*
X147225275Y-129817618D01*
X147277714Y-129863791D01*
X147296866Y-129930984D01*
X147276650Y-129997865D01*
X147225275Y-130042382D01*
X147167267Y-130069431D01*
X147167265Y-130069432D01*
X146980858Y-130199954D01*
X146819954Y-130360858D01*
X146689432Y-130547265D01*
X146689431Y-130547267D01*
X146593261Y-130753502D01*
X146593258Y-130753511D01*
X146534366Y-130973302D01*
X146534364Y-130973313D01*
X146514532Y-131199998D01*
X146514532Y-131200001D01*
X146534364Y-131426686D01*
X146534366Y-131426697D01*
X146593258Y-131646488D01*
X146593261Y-131646497D01*
X146689431Y-131852732D01*
X146689432Y-131852734D01*
X146819954Y-132039141D01*
X146980858Y-132200045D01*
X146980861Y-132200047D01*
X147167266Y-132330568D01*
X147225275Y-132357618D01*
X147277714Y-132403791D01*
X147296866Y-132470984D01*
X147276650Y-132537865D01*
X147225275Y-132582382D01*
X147167267Y-132609431D01*
X147167265Y-132609432D01*
X146980858Y-132739954D01*
X146819954Y-132900858D01*
X146689432Y-133087265D01*
X146689431Y-133087267D01*
X146593261Y-133293502D01*
X146593258Y-133293511D01*
X146534366Y-133513302D01*
X146534364Y-133513313D01*
X146514532Y-133739998D01*
X146514532Y-133740001D01*
X146534364Y-133966686D01*
X146534366Y-133966697D01*
X146593258Y-134186488D01*
X146593261Y-134186497D01*
X146689431Y-134392732D01*
X146689432Y-134392734D01*
X146819954Y-134579141D01*
X146980858Y-134740045D01*
X146980861Y-134740047D01*
X147167266Y-134870568D01*
X147225275Y-134897618D01*
X147277714Y-134943791D01*
X147296866Y-135010984D01*
X147276650Y-135077865D01*
X147225275Y-135122382D01*
X147167267Y-135149431D01*
X147167265Y-135149432D01*
X146980858Y-135279954D01*
X146819954Y-135440858D01*
X146689432Y-135627265D01*
X146689431Y-135627267D01*
X146593261Y-135833502D01*
X146593258Y-135833511D01*
X146534366Y-136053302D01*
X146534364Y-136053313D01*
X146514532Y-136279998D01*
X146514532Y-136280001D01*
X146534364Y-136506686D01*
X146534366Y-136506697D01*
X146593258Y-136726488D01*
X146593261Y-136726497D01*
X146689431Y-136932732D01*
X146689432Y-136932734D01*
X146819954Y-137119141D01*
X146980858Y-137280045D01*
X146980861Y-137280047D01*
X147167266Y-137410568D01*
X147209249Y-137430145D01*
X147225275Y-137437618D01*
X147277714Y-137483791D01*
X147296866Y-137550984D01*
X147276650Y-137617865D01*
X147225275Y-137662382D01*
X147167267Y-137689431D01*
X147167265Y-137689432D01*
X146980862Y-137819951D01*
X146884198Y-137916615D01*
X146822874Y-137950099D01*
X146753183Y-137945115D01*
X146708836Y-137916614D01*
X146027319Y-137235097D01*
X145993834Y-137173774D01*
X145991000Y-137147416D01*
X145991000Y-132416939D01*
X145964446Y-132283448D01*
X145964445Y-132283447D01*
X145964445Y-132283443D01*
X145964443Y-132283438D01*
X145912357Y-132157690D01*
X145912355Y-132157687D01*
X145874850Y-132101556D01*
X145836738Y-132044518D01*
X145836732Y-132044510D01*
X141915492Y-128123269D01*
X141915485Y-128123263D01*
X141802312Y-128047644D01*
X141802309Y-128047642D01*
X141676561Y-127995556D01*
X141676549Y-127995553D01*
X141595844Y-127979500D01*
X141595843Y-127979499D01*
X141569451Y-127974250D01*
X141543059Y-127969000D01*
X141543058Y-127969000D01*
X141368325Y-127969000D01*
X141301286Y-127949315D01*
X141266750Y-127916123D01*
X141200048Y-127820862D01*
X141136184Y-127756998D01*
X141039139Y-127659953D01*
X140943876Y-127593249D01*
X140900251Y-127538672D01*
X140891000Y-127491674D01*
X140891000Y-125737584D01*
X140910685Y-125670545D01*
X140927319Y-125649903D01*
X143117010Y-123460212D01*
X143178333Y-123426727D01*
X143248025Y-123431711D01*
G37*
%TD.AperFunction*%
%TA.AperFunction,Conductor*%
G36*
X129629455Y-131910685D02*
G01*
X129650097Y-131927319D01*
X130659507Y-132936730D01*
X130659514Y-132936736D01*
X130772687Y-133012355D01*
X130772690Y-133012357D01*
X130861155Y-133049000D01*
X130898443Y-133064445D01*
X130898447Y-133064445D01*
X130898448Y-133064446D01*
X131031939Y-133091000D01*
X131031942Y-133091000D01*
X132873049Y-133091000D01*
X132940088Y-133110685D01*
X132985843Y-133163489D01*
X132995787Y-133232647D01*
X132985432Y-133267404D01*
X132973260Y-133293506D01*
X132973258Y-133293511D01*
X132914366Y-133513302D01*
X132914364Y-133513313D01*
X132894532Y-133739998D01*
X132894532Y-133740001D01*
X132914364Y-133966686D01*
X132914366Y-133966697D01*
X132973258Y-134186488D01*
X132973261Y-134186497D01*
X133069431Y-134392732D01*
X133069432Y-134392734D01*
X133199954Y-134579141D01*
X133360858Y-134740045D01*
X133360861Y-134740047D01*
X133547266Y-134870568D01*
X133605275Y-134897618D01*
X133657714Y-134943791D01*
X133676866Y-135010984D01*
X133656650Y-135077865D01*
X133605275Y-135122382D01*
X133547267Y-135149431D01*
X133547265Y-135149432D01*
X133360858Y-135279954D01*
X133199954Y-135440858D01*
X133133250Y-135536123D01*
X133078673Y-135579748D01*
X133031675Y-135589000D01*
X131417584Y-135589000D01*
X131350545Y-135569315D01*
X131329903Y-135552681D01*
X128980492Y-133203269D01*
X128980485Y-133203263D01*
X128867312Y-133127644D01*
X128867309Y-133127642D01*
X128741561Y-133075556D01*
X128741549Y-133075553D01*
X128685705Y-133064445D01*
X128685704Y-133064445D01*
X128608060Y-133049000D01*
X128608058Y-133049000D01*
X127748325Y-133049000D01*
X127681286Y-133029315D01*
X127646750Y-132996123D01*
X127580045Y-132900858D01*
X127419141Y-132739954D01*
X127232734Y-132609432D01*
X127232728Y-132609429D01*
X127174725Y-132582382D01*
X127122285Y-132536210D01*
X127103133Y-132469017D01*
X127123348Y-132402135D01*
X127174725Y-132357618D01*
X127232734Y-132330568D01*
X127419139Y-132200047D01*
X127580047Y-132039139D01*
X127629819Y-131968057D01*
X127646750Y-131943877D01*
X127701327Y-131900252D01*
X127748325Y-131891000D01*
X129562416Y-131891000D01*
X129629455Y-131910685D01*
G37*
%TD.AperFunction*%
%TA.AperFunction,Conductor*%
G36*
X139428334Y-126251401D02*
G01*
X139484267Y-126293273D01*
X139508684Y-126358737D01*
X139509000Y-126367583D01*
X139509000Y-127491674D01*
X139489315Y-127558713D01*
X139456124Y-127593249D01*
X139360863Y-127659951D01*
X139199951Y-127820862D01*
X139069432Y-128007265D01*
X139069431Y-128007267D01*
X138973261Y-128213502D01*
X138973258Y-128213511D01*
X138914366Y-128433302D01*
X138914364Y-128433313D01*
X138894532Y-128659998D01*
X138894532Y-128660000D01*
X138914364Y-128886686D01*
X138915306Y-128892025D01*
X138912845Y-128892458D01*
X138911460Y-128951787D01*
X138881012Y-129001765D01*
X136210097Y-131672681D01*
X136148774Y-131706166D01*
X136122416Y-131709000D01*
X135571591Y-131709000D01*
X135504552Y-131689315D01*
X135458797Y-131636511D01*
X135448853Y-131567353D01*
X135451816Y-131552907D01*
X135460633Y-131520000D01*
X135485635Y-131426692D01*
X135505468Y-131200000D01*
X135485635Y-130973308D01*
X135485632Y-130973298D01*
X135484694Y-130967974D01*
X135487184Y-130967534D01*
X135488491Y-130908363D01*
X135518985Y-130858235D01*
X138236735Y-128140487D01*
X138312356Y-128027312D01*
X138364445Y-127901558D01*
X138365935Y-127894062D01*
X138368224Y-127882558D01*
X138368224Y-127882554D01*
X138391000Y-127768058D01*
X138391000Y-127237583D01*
X138410685Y-127170544D01*
X138427319Y-127149902D01*
X139297319Y-126279902D01*
X139358642Y-126246417D01*
X139428334Y-126251401D01*
G37*
%TD.AperFunction*%
%TA.AperFunction,Conductor*%
G36*
X146898714Y-114490685D02*
G01*
X146933250Y-114523877D01*
X146999954Y-114619141D01*
X147160858Y-114780045D01*
X147160861Y-114780047D01*
X147347266Y-114910568D01*
X147553504Y-115006739D01*
X147773308Y-115065635D01*
X147931511Y-115079476D01*
X147999998Y-115085468D01*
X148000000Y-115085468D01*
X148000002Y-115085468D01*
X148056673Y-115080509D01*
X148226692Y-115065635D01*
X148231084Y-115064458D01*
X148300931Y-115066115D01*
X148358797Y-115105272D01*
X148386307Y-115169498D01*
X148374726Y-115238401D01*
X148350866Y-115271911D01*
X142728227Y-120894550D01*
X142666904Y-120928035D01*
X142597212Y-120923051D01*
X142541279Y-120881179D01*
X142533154Y-120868860D01*
X142532532Y-120867783D01*
X142442048Y-120767290D01*
X142405871Y-120727112D01*
X142344015Y-120682171D01*
X142252734Y-120615851D01*
X142252729Y-120615848D01*
X142079807Y-120538857D01*
X142079802Y-120538855D01*
X141934001Y-120507865D01*
X141894646Y-120499500D01*
X141894645Y-120499500D01*
X141828083Y-120499500D01*
X141761044Y-120479815D01*
X141740402Y-120463181D01*
X138527319Y-117250097D01*
X138493834Y-117188774D01*
X138491000Y-117162416D01*
X138491000Y-114737583D01*
X138510685Y-114670544D01*
X138527319Y-114649902D01*
X138549902Y-114627319D01*
X138611225Y-114593834D01*
X138637583Y-114591000D01*
X138731942Y-114591000D01*
X138931942Y-114591000D01*
X141775501Y-114591000D01*
X141842540Y-114610685D01*
X141888295Y-114663489D01*
X141899501Y-114715000D01*
X141899501Y-114747876D01*
X141905908Y-114807483D01*
X141956202Y-114942328D01*
X141956206Y-114942335D01*
X142042452Y-115057544D01*
X142042455Y-115057547D01*
X142157664Y-115143793D01*
X142157671Y-115143797D01*
X142292517Y-115194091D01*
X142292516Y-115194091D01*
X142299444Y-115194835D01*
X142352127Y-115200500D01*
X144047872Y-115200499D01*
X144107483Y-115194091D01*
X144242331Y-115143796D01*
X144357546Y-115057546D01*
X144443796Y-114942331D01*
X144494091Y-114807483D01*
X144500500Y-114747873D01*
X144500500Y-114595000D01*
X144520185Y-114527961D01*
X144572989Y-114482206D01*
X144624500Y-114471000D01*
X146831675Y-114471000D01*
X146898714Y-114490685D01*
G37*
%TD.AperFunction*%
%TA.AperFunction,Conductor*%
G36*
X166929455Y-113110685D02*
G01*
X166950097Y-113127319D01*
X169035113Y-115212334D01*
X169067207Y-115267922D01*
X169088258Y-115346488D01*
X169088261Y-115346497D01*
X169184431Y-115552732D01*
X169184432Y-115552734D01*
X169314954Y-115739141D01*
X169475858Y-115900045D01*
X169475861Y-115900047D01*
X169662266Y-116030568D01*
X169868504Y-116126739D01*
X170088308Y-116185635D01*
X170250230Y-116199801D01*
X170314998Y-116205468D01*
X170315000Y-116205468D01*
X170315002Y-116205468D01*
X170346421Y-116202719D01*
X170541692Y-116185635D01*
X170541704Y-116185631D01*
X170547029Y-116184694D01*
X170547464Y-116187166D01*
X170606732Y-116188522D01*
X170656766Y-116218988D01*
X170919184Y-116481406D01*
X170952669Y-116542729D01*
X170947685Y-116612421D01*
X170905813Y-116668354D01*
X170840349Y-116692771D01*
X170779099Y-116681469D01*
X170761502Y-116673263D01*
X170761488Y-116673258D01*
X170541697Y-116614366D01*
X170541693Y-116614365D01*
X170541692Y-116614365D01*
X170541691Y-116614364D01*
X170541686Y-116614364D01*
X170315002Y-116594532D01*
X170314998Y-116594532D01*
X170088313Y-116614364D01*
X170088302Y-116614366D01*
X169868511Y-116673258D01*
X169868502Y-116673261D01*
X169662267Y-116769431D01*
X169662265Y-116769432D01*
X169475858Y-116899954D01*
X169314954Y-117060858D01*
X169184432Y-117247265D01*
X169184431Y-117247267D01*
X169088261Y-117453502D01*
X169088258Y-117453511D01*
X169029366Y-117673302D01*
X169029364Y-117673313D01*
X169009532Y-117899998D01*
X169009532Y-117900001D01*
X169029364Y-118126686D01*
X169029366Y-118126697D01*
X169088258Y-118346488D01*
X169088261Y-118346497D01*
X169184431Y-118552732D01*
X169199418Y-118574136D01*
X169221745Y-118640342D01*
X169204733Y-118708110D01*
X169153784Y-118755922D01*
X169085074Y-118768599D01*
X169020418Y-118742116D01*
X169010161Y-118732939D01*
X164525176Y-114247954D01*
X164491691Y-114186631D01*
X164493082Y-114128179D01*
X164503312Y-114090000D01*
X164525635Y-114006692D01*
X164545468Y-113780000D01*
X164544543Y-113769432D01*
X164530977Y-113614365D01*
X164525635Y-113553308D01*
X164466739Y-113333504D01*
X164435915Y-113267403D01*
X164425424Y-113198328D01*
X164453943Y-113134544D01*
X164512420Y-113096304D01*
X164548298Y-113091000D01*
X166862416Y-113091000D01*
X166929455Y-113110685D01*
G37*
%TD.AperFunction*%
%TA.AperFunction,Conductor*%
G36*
X186002443Y-97400596D02*
G01*
X186450150Y-97418186D01*
X186459845Y-97418948D01*
X186902424Y-97471330D01*
X186912016Y-97472850D01*
X187349096Y-97559792D01*
X187358550Y-97562062D01*
X187787453Y-97683025D01*
X187796706Y-97686031D01*
X188214802Y-97840274D01*
X188223791Y-97843998D01*
X188628504Y-98030573D01*
X188637167Y-98034988D01*
X189025983Y-98252736D01*
X189034285Y-98257823D01*
X189404810Y-98505399D01*
X189412684Y-98511119D01*
X189762655Y-98787016D01*
X189770047Y-98793329D01*
X190097295Y-99095833D01*
X190104173Y-99102711D01*
X190406665Y-99429946D01*
X190412988Y-99437349D01*
X190688877Y-99787312D01*
X190694600Y-99795189D01*
X190942176Y-100165714D01*
X190947263Y-100174016D01*
X191165011Y-100562832D01*
X191169432Y-100571507D01*
X191356000Y-100976205D01*
X191359726Y-100985201D01*
X191513967Y-101403290D01*
X191516975Y-101412549D01*
X191637936Y-101841445D01*
X191640209Y-101850912D01*
X191727146Y-102287968D01*
X191728670Y-102297586D01*
X191781050Y-102740149D01*
X191781813Y-102749855D01*
X191799404Y-103197556D01*
X191799500Y-103202424D01*
X191799500Y-151997575D01*
X191799404Y-152002443D01*
X191781813Y-152450144D01*
X191781050Y-152459850D01*
X191728670Y-152902413D01*
X191727146Y-152912031D01*
X191640209Y-153349087D01*
X191637936Y-153358554D01*
X191516975Y-153787450D01*
X191513967Y-153796709D01*
X191359726Y-154214798D01*
X191356000Y-154223794D01*
X191169432Y-154628492D01*
X191165011Y-154637167D01*
X190947263Y-155025983D01*
X190942176Y-155034285D01*
X190694600Y-155404810D01*
X190688877Y-155412687D01*
X190412988Y-155762650D01*
X190406665Y-155770053D01*
X190104173Y-156097288D01*
X190097288Y-156104173D01*
X189770053Y-156406665D01*
X189762650Y-156412988D01*
X189412687Y-156688877D01*
X189404810Y-156694600D01*
X189034285Y-156942176D01*
X189025983Y-156947263D01*
X188637167Y-157165011D01*
X188628492Y-157169432D01*
X188223794Y-157356000D01*
X188214798Y-157359726D01*
X187796709Y-157513967D01*
X187787450Y-157516975D01*
X187358554Y-157637936D01*
X187349087Y-157640209D01*
X186912031Y-157727146D01*
X186902413Y-157728670D01*
X186459850Y-157781050D01*
X186450144Y-157781813D01*
X186002443Y-157799404D01*
X185997575Y-157799500D01*
X122002425Y-157799500D01*
X121997557Y-157799404D01*
X121549855Y-157781813D01*
X121540149Y-157781050D01*
X121097586Y-157728670D01*
X121087968Y-157727146D01*
X120650912Y-157640209D01*
X120641445Y-157637936D01*
X120212549Y-157516975D01*
X120203290Y-157513967D01*
X119785201Y-157359726D01*
X119776205Y-157356000D01*
X119371507Y-157169432D01*
X119362832Y-157165011D01*
X118974016Y-156947263D01*
X118965714Y-156942176D01*
X118595189Y-156694600D01*
X118587312Y-156688877D01*
X118237349Y-156412988D01*
X118229946Y-156406665D01*
X118209196Y-156387484D01*
X117902704Y-156104166D01*
X117895833Y-156097295D01*
X117593329Y-155770047D01*
X117587011Y-155762650D01*
X117541932Y-155705468D01*
X117311119Y-155412684D01*
X117305399Y-155404810D01*
X117302216Y-155400047D01*
X117213896Y-155267865D01*
X117057823Y-155034285D01*
X117052736Y-155025983D01*
X116834988Y-154637167D01*
X116830573Y-154628504D01*
X116643998Y-154223791D01*
X116640273Y-154214798D01*
X116624968Y-154173313D01*
X116486031Y-153796706D01*
X116483024Y-153787450D01*
X116431830Y-153605931D01*
X116362062Y-153358550D01*
X116359790Y-153349087D01*
X116272850Y-152912016D01*
X116271329Y-152902413D01*
X116270175Y-152892664D01*
X116218948Y-152459845D01*
X116218186Y-152450144D01*
X116216359Y-152403655D01*
X116200596Y-152002443D01*
X116200500Y-151997575D01*
X116200500Y-149052135D01*
X127899500Y-149052135D01*
X127899500Y-150747870D01*
X127899501Y-150747876D01*
X127905908Y-150807483D01*
X127956202Y-150942328D01*
X127956206Y-150942335D01*
X128042452Y-151057544D01*
X128042455Y-151057547D01*
X128157664Y-151143793D01*
X128157671Y-151143797D01*
X128292517Y-151194091D01*
X128292516Y-151194091D01*
X128299444Y-151194835D01*
X128352127Y-151200500D01*
X130047872Y-151200499D01*
X130107483Y-151194091D01*
X130242331Y-151143796D01*
X130357546Y-151057546D01*
X130443796Y-150942331D01*
X130494091Y-150807483D01*
X130500500Y-150747873D01*
X130500499Y-149052128D01*
X130494091Y-148992517D01*
X130450842Y-148876561D01*
X130443797Y-148857671D01*
X130443793Y-148857664D01*
X130357547Y-148742455D01*
X130357544Y-148742452D01*
X130242335Y-148656206D01*
X130242328Y-148656202D01*
X130107482Y-148605908D01*
X130107483Y-148605908D01*
X130047883Y-148599501D01*
X130047881Y-148599500D01*
X130047873Y-148599500D01*
X130047864Y-148599500D01*
X128352129Y-148599500D01*
X128352123Y-148599501D01*
X128292516Y-148605908D01*
X128157671Y-148656202D01*
X128157664Y-148656206D01*
X128042455Y-148742452D01*
X128042452Y-148742455D01*
X127956206Y-148857664D01*
X127956202Y-148857671D01*
X127905908Y-148992517D01*
X127899501Y-149052116D01*
X127899501Y-149052123D01*
X127899500Y-149052135D01*
X116200500Y-149052135D01*
X116200500Y-143899998D01*
X125274532Y-143899998D01*
X125274532Y-143900001D01*
X125294364Y-144126686D01*
X125294366Y-144126697D01*
X125353258Y-144346488D01*
X125353261Y-144346497D01*
X125449431Y-144552732D01*
X125449432Y-144552734D01*
X125579954Y-144739141D01*
X125740858Y-144900045D01*
X125740861Y-144900047D01*
X125927266Y-145030568D01*
X126133504Y-145126739D01*
X126353308Y-145185635D01*
X126515230Y-145199801D01*
X126579998Y-145205468D01*
X126580000Y-145205468D01*
X126580002Y-145205468D01*
X126636807Y-145200498D01*
X126806692Y-145185635D01*
X127026496Y-145126739D01*
X127232734Y-145030568D01*
X127419139Y-144900047D01*
X127580047Y-144739139D01*
X127710568Y-144552734D01*
X127806739Y-144346496D01*
X127865635Y-144126692D01*
X127885468Y-143900000D01*
X127865635Y-143673308D01*
X127806739Y-143453504D01*
X127710568Y-143247266D01*
X127580047Y-143060861D01*
X127580045Y-143060858D01*
X127419141Y-142899954D01*
X127232734Y-142769432D01*
X127232732Y-142769431D01*
X127026497Y-142673261D01*
X127026488Y-142673258D01*
X126806697Y-142614366D01*
X126806693Y-142614365D01*
X126806692Y-142614365D01*
X126806691Y-142614364D01*
X126806686Y-142614364D01*
X126580002Y-142594532D01*
X126579998Y-142594532D01*
X126353313Y-142614364D01*
X126353302Y-142614366D01*
X126133511Y-142673258D01*
X126133502Y-142673261D01*
X125927267Y-142769431D01*
X125927265Y-142769432D01*
X125740858Y-142899954D01*
X125579954Y-143060858D01*
X125449432Y-143247265D01*
X125449431Y-143247267D01*
X125353261Y-143453502D01*
X125353258Y-143453511D01*
X125294366Y-143673302D01*
X125294364Y-143673313D01*
X125274532Y-143899998D01*
X116200500Y-143899998D01*
X116200500Y-128659998D01*
X125274532Y-128659998D01*
X125274532Y-128660001D01*
X125294364Y-128886686D01*
X125294366Y-128886697D01*
X125353258Y-129106488D01*
X125353261Y-129106497D01*
X125449431Y-129312732D01*
X125449432Y-129312734D01*
X125579954Y-129499141D01*
X125740858Y-129660045D01*
X125740861Y-129660047D01*
X125927266Y-129790568D01*
X125985275Y-129817618D01*
X126037714Y-129863791D01*
X126056866Y-129930984D01*
X126036650Y-129997865D01*
X125985275Y-130042382D01*
X125927267Y-130069431D01*
X125927265Y-130069432D01*
X125740858Y-130199954D01*
X125579954Y-130360858D01*
X125449432Y-130547265D01*
X125449431Y-130547267D01*
X125353261Y-130753502D01*
X125353258Y-130753511D01*
X125294366Y-130973302D01*
X125294364Y-130973313D01*
X125274532Y-131199998D01*
X125274532Y-131200001D01*
X125294364Y-131426686D01*
X125294366Y-131426697D01*
X125353258Y-131646488D01*
X125353261Y-131646497D01*
X125449431Y-131852732D01*
X125449432Y-131852734D01*
X125579954Y-132039141D01*
X125740858Y-132200045D01*
X125740861Y-132200047D01*
X125927266Y-132330568D01*
X125985275Y-132357618D01*
X126037714Y-132403791D01*
X126056866Y-132470984D01*
X126036650Y-132537865D01*
X125985275Y-132582382D01*
X125927267Y-132609431D01*
X125927265Y-132609432D01*
X125740858Y-132739954D01*
X125579954Y-132900858D01*
X125449432Y-133087265D01*
X125449431Y-133087267D01*
X125353261Y-133293502D01*
X125353258Y-133293511D01*
X125294366Y-133513302D01*
X125294364Y-133513313D01*
X125274532Y-133739998D01*
X125274532Y-133740001D01*
X125294364Y-133966686D01*
X125294366Y-133966697D01*
X125353258Y-134186488D01*
X125353261Y-134186497D01*
X125449431Y-134392732D01*
X125449432Y-134392734D01*
X125579954Y-134579141D01*
X125740858Y-134740045D01*
X125740861Y-134740047D01*
X125927266Y-134870568D01*
X125985275Y-134897618D01*
X126037714Y-134943791D01*
X126056866Y-135010984D01*
X126036650Y-135077865D01*
X125985275Y-135122382D01*
X125927267Y-135149431D01*
X125927265Y-135149432D01*
X125740858Y-135279954D01*
X125579954Y-135440858D01*
X125449432Y-135627265D01*
X125449431Y-135627267D01*
X125353261Y-135833502D01*
X125353258Y-135833511D01*
X125294366Y-136053302D01*
X125294364Y-136053313D01*
X125274532Y-136279998D01*
X125274532Y-136280001D01*
X125294364Y-136506686D01*
X125294366Y-136506697D01*
X125353258Y-136726488D01*
X125353261Y-136726497D01*
X125449431Y-136932732D01*
X125449432Y-136932734D01*
X125579954Y-137119141D01*
X125740858Y-137280045D01*
X125740861Y-137280047D01*
X125927266Y-137410568D01*
X126133504Y-137506739D01*
X126353308Y-137565635D01*
X126515230Y-137579801D01*
X126579998Y-137585468D01*
X126580000Y-137585468D01*
X126580002Y-137585468D01*
X126636673Y-137580509D01*
X126806692Y-137565635D01*
X127026496Y-137506739D01*
X127232734Y-137410568D01*
X127419139Y-137280047D01*
X127580047Y-137119139D01*
X127710568Y-136932734D01*
X127806739Y-136726496D01*
X127865635Y-136506692D01*
X127885468Y-136280000D01*
X127885331Y-136278438D01*
X127874329Y-136152682D01*
X127865635Y-136053308D01*
X127806739Y-135833504D01*
X127710568Y-135627266D01*
X127580047Y-135440861D01*
X127580045Y-135440858D01*
X127419141Y-135279954D01*
X127232734Y-135149432D01*
X127232728Y-135149429D01*
X127174725Y-135122382D01*
X127122285Y-135076210D01*
X127103133Y-135009017D01*
X127123348Y-134942135D01*
X127174725Y-134897618D01*
X127232734Y-134870568D01*
X127419139Y-134740047D01*
X127580047Y-134579139D01*
X127636316Y-134498778D01*
X127646750Y-134483877D01*
X127701327Y-134440252D01*
X127748325Y-134431000D01*
X128202416Y-134431000D01*
X128269455Y-134450685D01*
X128290097Y-134467319D01*
X130639509Y-136816732D01*
X130639513Y-136816735D01*
X130752681Y-136892352D01*
X130752685Y-136892354D01*
X130752688Y-136892356D01*
X130878442Y-136944445D01*
X130897439Y-136948223D01*
X130953905Y-136959455D01*
X131011941Y-136971000D01*
X131011942Y-136971000D01*
X133031675Y-136971000D01*
X133098714Y-136990685D01*
X133133250Y-137023877D01*
X133199954Y-137119141D01*
X133360858Y-137280045D01*
X133360861Y-137280047D01*
X133547266Y-137410568D01*
X133589249Y-137430145D01*
X133605275Y-137437618D01*
X133657714Y-137483791D01*
X133676866Y-137550984D01*
X133656650Y-137617865D01*
X133605275Y-137662382D01*
X133547267Y-137689431D01*
X133547265Y-137689432D01*
X133360858Y-137819954D01*
X133199954Y-137980858D01*
X133069432Y-138167265D01*
X133069431Y-138167267D01*
X132973261Y-138373502D01*
X132973258Y-138373511D01*
X132914366Y-138593302D01*
X132914364Y-138593313D01*
X132894532Y-138819998D01*
X132894532Y-138820001D01*
X132914364Y-139046686D01*
X132914366Y-139046697D01*
X132973258Y-139266488D01*
X132973261Y-139266497D01*
X133069431Y-139472732D01*
X133069432Y-139472734D01*
X133199954Y-139659141D01*
X133360858Y-139820045D01*
X133360861Y-139820047D01*
X133547266Y-139950568D01*
X133753504Y-140046739D01*
X133973308Y-140105635D01*
X134135230Y-140119801D01*
X134199998Y-140125468D01*
X134200000Y-140125468D01*
X134200002Y-140125468D01*
X134256673Y-140120509D01*
X134426692Y-140105635D01*
X134646496Y-140046739D01*
X134852734Y-139950568D01*
X135039139Y-139820047D01*
X135200047Y-139659139D01*
X135330568Y-139472734D01*
X135426739Y-139266496D01*
X135485635Y-139046692D01*
X135505468Y-138820000D01*
X135485635Y-138593308D01*
X135426739Y-138373504D01*
X135330568Y-138167266D01*
X135200047Y-137980861D01*
X135200045Y-137980858D01*
X135039141Y-137819954D01*
X134852734Y-137689432D01*
X134852728Y-137689429D01*
X134794725Y-137662382D01*
X134742285Y-137616210D01*
X134723133Y-137549017D01*
X134743348Y-137482135D01*
X134794725Y-137437618D01*
X134852734Y-137410568D01*
X135039139Y-137280047D01*
X135200047Y-137119139D01*
X135236379Y-137067249D01*
X135266750Y-137023877D01*
X135321327Y-136980252D01*
X135368325Y-136971000D01*
X136257416Y-136971000D01*
X136324455Y-136990685D01*
X136345097Y-137007319D01*
X138694509Y-139356732D01*
X138694513Y-139356735D01*
X138807681Y-139432352D01*
X138807685Y-139432354D01*
X138807688Y-139432356D01*
X138933442Y-139484445D01*
X138952439Y-139488223D01*
X138952443Y-139488223D01*
X138952444Y-139488224D01*
X139052136Y-139508055D01*
X139114047Y-139540441D01*
X139129519Y-139558549D01*
X139199953Y-139659140D01*
X139360858Y-139820045D01*
X139360861Y-139820047D01*
X139547266Y-139950568D01*
X139605275Y-139977618D01*
X139657714Y-140023791D01*
X139676866Y-140090984D01*
X139656650Y-140157865D01*
X139605275Y-140202382D01*
X139547267Y-140229431D01*
X139547265Y-140229432D01*
X139360858Y-140359954D01*
X139199954Y-140520858D01*
X139069432Y-140707265D01*
X139069431Y-140707267D01*
X138973261Y-140913502D01*
X138973258Y-140913511D01*
X138914366Y-141133302D01*
X138914364Y-141133313D01*
X138894532Y-141359998D01*
X138894532Y-141360001D01*
X138914364Y-141586686D01*
X138914366Y-141586697D01*
X138973258Y-141806488D01*
X138973261Y-141806497D01*
X139069431Y-142012732D01*
X139069432Y-142012734D01*
X139199954Y-142199141D01*
X139360858Y-142360045D01*
X139400914Y-142388092D01*
X139547266Y-142490568D01*
X139570384Y-142501348D01*
X139605275Y-142517618D01*
X139657714Y-142563791D01*
X139676866Y-142630984D01*
X139656650Y-142697865D01*
X139605275Y-142742381D01*
X139605118Y-142742455D01*
X139547267Y-142769431D01*
X139547265Y-142769432D01*
X139360858Y-142899954D01*
X139199954Y-143060858D01*
X139069432Y-143247265D01*
X139069431Y-143247267D01*
X138973261Y-143453502D01*
X138973258Y-143453511D01*
X138914366Y-143673302D01*
X138914364Y-143673313D01*
X138894532Y-143899998D01*
X138894532Y-143900001D01*
X138914364Y-144126686D01*
X138914366Y-144126697D01*
X138973258Y-144346488D01*
X138973261Y-144346497D01*
X139069431Y-144552732D01*
X139069432Y-144552734D01*
X139199954Y-144739141D01*
X139360857Y-144900044D01*
X139360860Y-144900046D01*
X139360861Y-144900047D01*
X139456123Y-144966749D01*
X139499748Y-145021325D01*
X139509000Y-145068324D01*
X139509000Y-146968058D01*
X139523841Y-147042666D01*
X139531492Y-147081131D01*
X139535555Y-147101557D01*
X139535556Y-147101561D01*
X139587642Y-147227309D01*
X139587644Y-147227312D01*
X139663263Y-147340485D01*
X139663269Y-147340492D01*
X144799507Y-152476730D01*
X144799514Y-152476736D01*
X144912687Y-152552355D01*
X144912688Y-152552355D01*
X144912689Y-152552356D01*
X145038442Y-152604445D01*
X145057439Y-152608223D01*
X145105735Y-152617830D01*
X145171941Y-152631000D01*
X145171942Y-152631000D01*
X147470637Y-152631000D01*
X147537676Y-152650685D01*
X147572212Y-152683877D01*
X147661500Y-152811395D01*
X147661505Y-152811401D01*
X147828599Y-152978495D01*
X147898608Y-153027516D01*
X148022165Y-153114032D01*
X148022167Y-153114033D01*
X148022170Y-153114035D01*
X148236337Y-153213903D01*
X148464592Y-153275063D01*
X148652918Y-153291539D01*
X148699999Y-153295659D01*
X148700000Y-153295659D01*
X148700001Y-153295659D01*
X148739234Y-153292226D01*
X148935408Y-153275063D01*
X149163663Y-153213903D01*
X149377830Y-153114035D01*
X149571401Y-152978495D01*
X149738495Y-152811401D01*
X149874035Y-152617830D01*
X149973903Y-152403663D01*
X150035063Y-152175408D01*
X150055659Y-151940000D01*
X150035063Y-151704592D01*
X149973903Y-151476337D01*
X149874035Y-151262171D01*
X149858334Y-151239748D01*
X149738496Y-151068600D01*
X149697413Y-151027517D01*
X149616567Y-150946671D01*
X149583084Y-150885351D01*
X149588068Y-150815659D01*
X149629939Y-150759725D01*
X149660915Y-150742810D01*
X149792331Y-150693796D01*
X149907546Y-150607546D01*
X149993796Y-150492331D01*
X150044091Y-150357483D01*
X150050500Y-150297873D01*
X150050500Y-150215000D01*
X150070185Y-150147961D01*
X150122989Y-150102206D01*
X150174500Y-150091000D01*
X150362416Y-150091000D01*
X150429455Y-150110685D01*
X150450097Y-150127319D01*
X152794509Y-152471732D01*
X152794513Y-152471735D01*
X152907681Y-152547352D01*
X152907685Y-152547354D01*
X152907688Y-152547356D01*
X153033442Y-152599445D01*
X153052439Y-152603223D01*
X153077570Y-152608222D01*
X153166941Y-152626000D01*
X153166942Y-152626000D01*
X161435501Y-152626000D01*
X161502540Y-152645685D01*
X161548295Y-152698489D01*
X161559501Y-152750000D01*
X161559501Y-152782876D01*
X161565908Y-152842483D01*
X161616202Y-152977328D01*
X161616206Y-152977335D01*
X161702452Y-153092544D01*
X161702455Y-153092547D01*
X161817664Y-153178793D01*
X161817671Y-153178797D01*
X161870927Y-153198660D01*
X161952517Y-153229091D01*
X161952527Y-153229092D01*
X161957913Y-153230365D01*
X162018631Y-153264935D01*
X162051021Y-153326843D01*
X162044799Y-153396435D01*
X162017088Y-153438725D01*
X161859951Y-153595862D01*
X161793250Y-153691123D01*
X161738673Y-153734748D01*
X161691675Y-153744000D01*
X158392832Y-153744000D01*
X158325793Y-153724315D01*
X158291257Y-153691123D01*
X158200045Y-153560858D01*
X158039141Y-153399954D01*
X157852734Y-153269432D01*
X157852732Y-153269431D01*
X157646497Y-153173261D01*
X157646488Y-153173258D01*
X157426697Y-153114366D01*
X157426693Y-153114365D01*
X157426692Y-153114365D01*
X157426691Y-153114364D01*
X157426686Y-153114364D01*
X157200002Y-153094532D01*
X157199998Y-153094532D01*
X156973313Y-153114364D01*
X156973302Y-153114366D01*
X156753511Y-153173258D01*
X156753502Y-153173261D01*
X156547267Y-153269431D01*
X156547265Y-153269432D01*
X156360858Y-153399954D01*
X156199954Y-153560858D01*
X156069432Y-153747265D01*
X156069431Y-153747267D01*
X155973261Y-153953502D01*
X155973258Y-153953511D01*
X155914366Y-154173302D01*
X155914364Y-154173313D01*
X155894532Y-154399998D01*
X155894532Y-154400001D01*
X155914364Y-154626686D01*
X155914366Y-154626697D01*
X155973258Y-154846488D01*
X155973263Y-154846502D01*
X155981469Y-154864099D01*
X155991961Y-154933176D01*
X155963441Y-154996960D01*
X155904964Y-155035199D01*
X155835097Y-155035753D01*
X155781406Y-155004184D01*
X155518988Y-154741766D01*
X155485503Y-154680443D01*
X155486669Y-154632377D01*
X155484694Y-154632029D01*
X155485631Y-154626704D01*
X155485635Y-154626692D01*
X155505468Y-154400000D01*
X155485635Y-154173308D01*
X155426739Y-153953504D01*
X155330568Y-153747266D01*
X155200047Y-153560861D01*
X155200045Y-153560858D01*
X155039141Y-153399954D01*
X154852734Y-153269432D01*
X154852732Y-153269431D01*
X154646497Y-153173261D01*
X154646488Y-153173258D01*
X154426697Y-153114366D01*
X154426693Y-153114365D01*
X154426692Y-153114365D01*
X154426691Y-153114364D01*
X154426686Y-153114364D01*
X154200002Y-153094532D01*
X154199998Y-153094532D01*
X153973313Y-153114364D01*
X153973302Y-153114366D01*
X153753511Y-153173258D01*
X153753502Y-153173261D01*
X153547267Y-153269431D01*
X153547265Y-153269432D01*
X153360858Y-153399954D01*
X153199954Y-153560858D01*
X153069432Y-153747265D01*
X153069431Y-153747267D01*
X152973261Y-153953502D01*
X152973258Y-153953511D01*
X152914366Y-154173302D01*
X152914364Y-154173313D01*
X152894532Y-154399998D01*
X152894532Y-154400001D01*
X152914364Y-154626686D01*
X152914366Y-154626697D01*
X152973258Y-154846488D01*
X152973261Y-154846497D01*
X153069431Y-155052732D01*
X153069432Y-155052734D01*
X153199954Y-155239141D01*
X153360858Y-155400045D01*
X153360861Y-155400047D01*
X153547266Y-155530568D01*
X153753504Y-155626739D01*
X153973308Y-155685635D01*
X154135230Y-155699801D01*
X154199998Y-155705468D01*
X154200000Y-155705468D01*
X154200002Y-155705468D01*
X154231421Y-155702719D01*
X154426692Y-155685635D01*
X154426704Y-155685631D01*
X154432029Y-155684694D01*
X154432464Y-155687166D01*
X154491732Y-155688522D01*
X154541766Y-155718988D01*
X155759507Y-156936730D01*
X155759514Y-156936736D01*
X155872687Y-157012355D01*
X155872690Y-157012357D01*
X155998438Y-157064443D01*
X155998443Y-157064445D01*
X155998447Y-157064445D01*
X155998448Y-157064446D01*
X156131939Y-157091000D01*
X156131942Y-157091000D01*
X169115560Y-157091000D01*
X169205370Y-157073134D01*
X169249057Y-157064445D01*
X169374811Y-157012356D01*
X169487987Y-156936735D01*
X170896735Y-155527987D01*
X170972356Y-155414811D01*
X171014923Y-155312046D01*
X171058764Y-155257643D01*
X171125058Y-155235578D01*
X171129484Y-155235499D01*
X171207871Y-155235499D01*
X171207872Y-155235499D01*
X171267483Y-155229091D01*
X171402331Y-155178796D01*
X171517546Y-155092546D01*
X171603796Y-154977331D01*
X171654091Y-154842483D01*
X171660500Y-154782873D01*
X171660499Y-153087128D01*
X171654091Y-153027517D01*
X171635806Y-152978493D01*
X171603797Y-152892671D01*
X171603793Y-152892664D01*
X171517547Y-152777455D01*
X171517544Y-152777452D01*
X171402335Y-152691206D01*
X171402328Y-152691202D01*
X171267483Y-152640908D01*
X171262079Y-152639632D01*
X171201363Y-152605060D01*
X171168976Y-152543149D01*
X171175202Y-152473558D01*
X171202910Y-152431275D01*
X171360047Y-152274139D01*
X171490568Y-152087734D01*
X171586739Y-151881496D01*
X171645635Y-151661692D01*
X171665468Y-151435000D01*
X171645635Y-151208308D01*
X171645632Y-151208298D01*
X171644694Y-151202974D01*
X171647184Y-151202534D01*
X171648491Y-151143363D01*
X171678987Y-151093232D01*
X171696735Y-151075486D01*
X171772356Y-150962311D01*
X171778834Y-150946673D01*
X171804234Y-150885351D01*
X171824445Y-150836557D01*
X171841563Y-150750499D01*
X171851000Y-150703058D01*
X171851000Y-148648324D01*
X171870685Y-148581285D01*
X171903875Y-148546750D01*
X171999139Y-148480047D01*
X172160047Y-148319139D01*
X172290568Y-148132734D01*
X172317618Y-148074724D01*
X172363790Y-148022285D01*
X172430983Y-148003133D01*
X172497865Y-148023348D01*
X172542382Y-148074725D01*
X172569429Y-148132728D01*
X172569432Y-148132734D01*
X172699954Y-148319141D01*
X172860858Y-148480045D01*
X172860861Y-148480047D01*
X173047266Y-148610568D01*
X173253504Y-148706739D01*
X173473308Y-148765635D01*
X173635230Y-148779801D01*
X173699998Y-148785468D01*
X173700000Y-148785468D01*
X173700002Y-148785468D01*
X173756807Y-148780498D01*
X173926692Y-148765635D01*
X174146496Y-148706739D01*
X174352734Y-148610568D01*
X174539139Y-148480047D01*
X174700047Y-148319139D01*
X174830568Y-148132734D01*
X174857618Y-148074724D01*
X174903790Y-148022285D01*
X174970983Y-148003133D01*
X175037865Y-148023348D01*
X175082382Y-148074725D01*
X175109429Y-148132728D01*
X175109432Y-148132734D01*
X175239954Y-148319141D01*
X175400858Y-148480045D01*
X175400861Y-148480047D01*
X175587266Y-148610568D01*
X175793504Y-148706739D01*
X176013308Y-148765635D01*
X176175230Y-148779801D01*
X176239998Y-148785468D01*
X176240000Y-148785468D01*
X176240002Y-148785468D01*
X176296807Y-148780498D01*
X176466692Y-148765635D01*
X176686496Y-148706739D01*
X176892734Y-148610568D01*
X177079139Y-148480047D01*
X177240047Y-148319139D01*
X177370568Y-148132734D01*
X177466739Y-147926496D01*
X177525635Y-147706692D01*
X177542634Y-147512384D01*
X177545468Y-147480001D01*
X177545468Y-147479998D01*
X177530536Y-147309325D01*
X177544303Y-147240825D01*
X177566380Y-147210840D01*
X182989903Y-141787319D01*
X183051226Y-141753834D01*
X183077584Y-141751000D01*
X184970637Y-141751000D01*
X185037676Y-141770685D01*
X185072211Y-141803876D01*
X185094609Y-141835863D01*
X185161500Y-141931395D01*
X185161505Y-141931401D01*
X185328599Y-142098495D01*
X185425384Y-142166265D01*
X185522165Y-142234032D01*
X185522167Y-142234033D01*
X185522170Y-142234035D01*
X185736337Y-142333903D01*
X185964592Y-142395063D01*
X186152918Y-142411539D01*
X186199999Y-142415659D01*
X186200000Y-142415659D01*
X186200001Y-142415659D01*
X186239234Y-142412226D01*
X186435408Y-142395063D01*
X186663663Y-142333903D01*
X186877830Y-142234035D01*
X187071401Y-142098495D01*
X187238495Y-141931401D01*
X187374035Y-141737830D01*
X187473903Y-141523663D01*
X187535063Y-141295408D01*
X187555659Y-141060000D01*
X187535063Y-140824592D01*
X187479205Y-140616123D01*
X187473905Y-140596344D01*
X187473904Y-140596343D01*
X187473903Y-140596337D01*
X187374035Y-140382171D01*
X187358335Y-140359748D01*
X187238494Y-140188597D01*
X187071402Y-140021506D01*
X187071396Y-140021501D01*
X186885842Y-139891575D01*
X186842217Y-139836998D01*
X186835023Y-139767500D01*
X186866546Y-139705145D01*
X186885842Y-139688425D01*
X186972803Y-139627534D01*
X187071401Y-139558495D01*
X187238495Y-139391401D01*
X187374035Y-139197830D01*
X187473903Y-138983663D01*
X187535063Y-138755408D01*
X187555659Y-138520000D01*
X187535063Y-138284592D01*
X187478286Y-138072693D01*
X187473904Y-138056340D01*
X187473903Y-138056339D01*
X187473903Y-138056337D01*
X187374035Y-137842171D01*
X187358476Y-137819951D01*
X187238496Y-137648600D01*
X187183157Y-137593261D01*
X187116567Y-137526671D01*
X187083084Y-137465351D01*
X187088068Y-137395659D01*
X187129939Y-137339725D01*
X187160915Y-137322810D01*
X187292331Y-137273796D01*
X187407546Y-137187546D01*
X187493796Y-137072331D01*
X187544091Y-136937483D01*
X187550500Y-136877873D01*
X187550499Y-135082128D01*
X187544091Y-135022517D01*
X187539789Y-135010984D01*
X187493797Y-134887671D01*
X187493793Y-134887664D01*
X187407547Y-134772455D01*
X187407544Y-134772452D01*
X187292335Y-134686206D01*
X187292328Y-134686202D01*
X187157482Y-134635908D01*
X187157483Y-134635908D01*
X187097883Y-134629501D01*
X187097881Y-134629500D01*
X187097873Y-134629500D01*
X187097864Y-134629500D01*
X185302129Y-134629500D01*
X185302123Y-134629501D01*
X185242516Y-134635908D01*
X185107671Y-134686202D01*
X185107664Y-134686206D01*
X184992455Y-134772452D01*
X184992452Y-134772455D01*
X184906206Y-134887664D01*
X184906202Y-134887671D01*
X184855908Y-135022517D01*
X184850136Y-135076210D01*
X184849501Y-135082123D01*
X184849500Y-135082135D01*
X184849500Y-135165000D01*
X184829815Y-135232039D01*
X184777011Y-135277794D01*
X184725500Y-135289000D01*
X182591940Y-135289000D01*
X182458448Y-135315553D01*
X182458438Y-135315556D01*
X182332695Y-135367640D01*
X182332682Y-135367647D01*
X182219514Y-135443264D01*
X182219510Y-135443267D01*
X179121765Y-138541011D01*
X179060442Y-138574496D01*
X179012363Y-138573383D01*
X179012025Y-138575306D01*
X179006686Y-138574364D01*
X178780001Y-138554532D01*
X178779998Y-138554532D01*
X178553313Y-138574364D01*
X178553302Y-138574366D01*
X178333511Y-138633258D01*
X178333502Y-138633261D01*
X178127267Y-138729431D01*
X178127265Y-138729432D01*
X177940858Y-138859954D01*
X177779954Y-139020858D01*
X177649432Y-139207265D01*
X177649431Y-139207267D01*
X177622382Y-139265275D01*
X177576209Y-139317714D01*
X177509016Y-139336866D01*
X177442135Y-139316650D01*
X177397618Y-139265275D01*
X177389245Y-139247319D01*
X177370568Y-139207266D01*
X177261940Y-139052128D01*
X177240045Y-139020858D01*
X177079141Y-138859954D01*
X176892734Y-138729432D01*
X176892732Y-138729431D01*
X176686497Y-138633261D01*
X176686488Y-138633258D01*
X176466697Y-138574366D01*
X176466693Y-138574365D01*
X176466692Y-138574365D01*
X176466691Y-138574364D01*
X176466686Y-138574364D01*
X176240002Y-138554532D01*
X176239998Y-138554532D01*
X176013313Y-138574364D01*
X176013302Y-138574366D01*
X175793511Y-138633258D01*
X175793502Y-138633261D01*
X175587267Y-138729431D01*
X175587265Y-138729432D01*
X175400858Y-138859954D01*
X175239954Y-139020858D01*
X175109432Y-139207265D01*
X175109431Y-139207267D01*
X175082382Y-139265275D01*
X175036209Y-139317714D01*
X174969016Y-139336866D01*
X174902135Y-139316650D01*
X174857618Y-139265275D01*
X174849245Y-139247319D01*
X174830568Y-139207266D01*
X174721940Y-139052128D01*
X174700045Y-139020858D01*
X174539141Y-138859954D01*
X174352734Y-138729432D01*
X174352732Y-138729431D01*
X174146497Y-138633261D01*
X174146488Y-138633258D01*
X173926697Y-138574366D01*
X173926693Y-138574365D01*
X173926692Y-138574365D01*
X173926691Y-138574364D01*
X173926686Y-138574364D01*
X173700002Y-138554532D01*
X173699998Y-138554532D01*
X173473313Y-138574364D01*
X173473302Y-138574366D01*
X173253511Y-138633258D01*
X173253502Y-138633261D01*
X173047267Y-138729431D01*
X173047265Y-138729432D01*
X172860858Y-138859954D01*
X172699954Y-139020858D01*
X172569432Y-139207265D01*
X172569431Y-139207267D01*
X172542382Y-139265275D01*
X172496209Y-139317714D01*
X172429016Y-139336866D01*
X172362135Y-139316650D01*
X172317618Y-139265275D01*
X172309245Y-139247319D01*
X172290568Y-139207266D01*
X172181940Y-139052128D01*
X172160045Y-139020858D01*
X171999141Y-138859954D01*
X171812734Y-138729432D01*
X171812732Y-138729431D01*
X171606497Y-138633261D01*
X171606488Y-138633258D01*
X171386697Y-138574366D01*
X171386693Y-138574365D01*
X171386692Y-138574365D01*
X171386691Y-138574364D01*
X171386686Y-138574364D01*
X171160002Y-138554532D01*
X171159998Y-138554532D01*
X170933313Y-138574364D01*
X170933302Y-138574366D01*
X170713511Y-138633258D01*
X170713502Y-138633261D01*
X170507267Y-138729431D01*
X170507265Y-138729432D01*
X170320858Y-138859954D01*
X170159954Y-139020858D01*
X170029432Y-139207265D01*
X170029431Y-139207267D01*
X170002382Y-139265275D01*
X169956209Y-139317714D01*
X169889016Y-139336866D01*
X169822135Y-139316650D01*
X169777618Y-139265275D01*
X169769245Y-139247319D01*
X169750568Y-139207266D01*
X169641940Y-139052128D01*
X169620048Y-139020862D01*
X169582841Y-138983655D01*
X169459139Y-138859953D01*
X169363876Y-138793249D01*
X169320251Y-138738672D01*
X169311000Y-138691674D01*
X169311000Y-136817584D01*
X169330685Y-136750545D01*
X169347319Y-136729903D01*
X170851730Y-135225492D01*
X170851735Y-135225487D01*
X170927356Y-135112311D01*
X170979445Y-134986557D01*
X170999116Y-134887664D01*
X171006000Y-134853059D01*
X171006000Y-134068324D01*
X171025685Y-134001285D01*
X171058875Y-133966750D01*
X171154139Y-133900047D01*
X171315047Y-133739139D01*
X171445568Y-133552734D01*
X171541739Y-133346496D01*
X171600635Y-133126692D01*
X171620468Y-132900000D01*
X171618338Y-132875659D01*
X171611186Y-132793903D01*
X171600635Y-132673308D01*
X171541739Y-132453504D01*
X171445568Y-132247266D01*
X171315047Y-132060861D01*
X171315045Y-132060858D01*
X171154141Y-131899954D01*
X170967734Y-131769432D01*
X170967732Y-131769431D01*
X170761497Y-131673261D01*
X170761488Y-131673258D01*
X170541697Y-131614366D01*
X170541693Y-131614365D01*
X170541692Y-131614365D01*
X170541691Y-131614364D01*
X170541686Y-131614364D01*
X170315002Y-131594532D01*
X170314998Y-131594532D01*
X170088313Y-131614364D01*
X170088302Y-131614366D01*
X169868511Y-131673258D01*
X169868502Y-131673261D01*
X169662267Y-131769431D01*
X169662265Y-131769432D01*
X169475858Y-131899954D01*
X169314954Y-132060858D01*
X169184432Y-132247265D01*
X169184431Y-132247267D01*
X169088261Y-132453502D01*
X169088258Y-132453511D01*
X169029366Y-132673302D01*
X169029364Y-132673313D01*
X169009532Y-132899998D01*
X169009532Y-132900001D01*
X169029364Y-133126686D01*
X169029366Y-133126697D01*
X169088258Y-133346488D01*
X169088261Y-133346497D01*
X169184431Y-133552732D01*
X169184432Y-133552734D01*
X169314954Y-133739141D01*
X169475857Y-133900044D01*
X169475860Y-133900046D01*
X169475861Y-133900047D01*
X169571123Y-133966749D01*
X169614748Y-134021325D01*
X169624000Y-134068324D01*
X169624000Y-134447416D01*
X169604315Y-134514455D01*
X169587681Y-134535097D01*
X168083265Y-136039512D01*
X168074052Y-136053302D01*
X168057188Y-136078541D01*
X168007647Y-136152682D01*
X168007640Y-136152695D01*
X167955556Y-136278438D01*
X167955553Y-136278448D01*
X167929000Y-136411939D01*
X167929000Y-138691674D01*
X167909315Y-138758713D01*
X167876124Y-138793249D01*
X167780863Y-138859951D01*
X167619951Y-139020862D01*
X167489432Y-139207265D01*
X167489431Y-139207267D01*
X167462382Y-139265275D01*
X167416209Y-139317714D01*
X167349016Y-139336866D01*
X167282135Y-139316650D01*
X167237618Y-139265275D01*
X167229245Y-139247319D01*
X167210568Y-139207266D01*
X167101940Y-139052128D01*
X167080045Y-139020858D01*
X166919141Y-138859954D01*
X166732734Y-138729432D01*
X166732732Y-138729431D01*
X166526497Y-138633261D01*
X166526488Y-138633258D01*
X166306697Y-138574366D01*
X166306693Y-138574365D01*
X166306692Y-138574365D01*
X166306691Y-138574364D01*
X166306686Y-138574364D01*
X166080002Y-138554532D01*
X166079999Y-138554532D01*
X165853313Y-138574364D01*
X165847975Y-138575306D01*
X165847543Y-138572857D01*
X165788156Y-138571442D01*
X165738234Y-138541012D01*
X150052532Y-122855310D01*
X150019047Y-122793987D01*
X150024031Y-122724295D01*
X150065903Y-122668362D01*
X150131367Y-122643945D01*
X150172306Y-122647854D01*
X150216112Y-122659591D01*
X150313308Y-122685635D01*
X150475230Y-122699801D01*
X150539998Y-122705468D01*
X150540000Y-122705468D01*
X150540002Y-122705468D01*
X150596807Y-122700498D01*
X150766692Y-122685635D01*
X150986496Y-122626739D01*
X151192734Y-122530568D01*
X151379139Y-122400047D01*
X151540047Y-122239139D01*
X151670568Y-122052734D01*
X151697618Y-121994724D01*
X151743790Y-121942285D01*
X151810983Y-121923133D01*
X151877865Y-121943348D01*
X151922381Y-121994724D01*
X151930603Y-122012356D01*
X151949429Y-122052728D01*
X151949432Y-122052734D01*
X152079954Y-122239141D01*
X152240858Y-122400045D01*
X152240861Y-122400047D01*
X152427266Y-122530568D01*
X152633504Y-122626739D01*
X152853308Y-122685635D01*
X153015230Y-122699801D01*
X153079998Y-122705468D01*
X153080000Y-122705468D01*
X153080002Y-122705468D01*
X153136807Y-122700498D01*
X153306692Y-122685635D01*
X153526496Y-122626739D01*
X153732734Y-122530568D01*
X153919139Y-122400047D01*
X154080047Y-122239139D01*
X154210568Y-122052734D01*
X154306739Y-121846496D01*
X154365635Y-121626692D01*
X154385468Y-121400000D01*
X154385468Y-121399998D01*
X159394532Y-121399998D01*
X159394532Y-121400001D01*
X159414364Y-121626686D01*
X159414366Y-121626697D01*
X159473258Y-121846488D01*
X159473261Y-121846497D01*
X159569431Y-122052732D01*
X159569432Y-122052734D01*
X159699954Y-122239141D01*
X159860858Y-122400045D01*
X159860861Y-122400047D01*
X160047266Y-122530568D01*
X160253504Y-122626739D01*
X160473308Y-122685635D01*
X160635230Y-122699801D01*
X160699998Y-122705468D01*
X160700000Y-122705468D01*
X160700002Y-122705468D01*
X160756807Y-122700498D01*
X160926692Y-122685635D01*
X161146496Y-122626739D01*
X161352734Y-122530568D01*
X161539139Y-122400047D01*
X161700047Y-122239139D01*
X161830568Y-122052734D01*
X161926739Y-121846496D01*
X161985635Y-121626692D01*
X162005468Y-121400000D01*
X162001968Y-121360000D01*
X161985635Y-121173313D01*
X161985635Y-121173308D01*
X161926739Y-120953504D01*
X161830568Y-120747266D01*
X161700047Y-120560861D01*
X161700045Y-120560858D01*
X161539141Y-120399954D01*
X161352734Y-120269432D01*
X161352732Y-120269431D01*
X161146497Y-120173261D01*
X161146488Y-120173258D01*
X160926697Y-120114366D01*
X160926693Y-120114365D01*
X160926692Y-120114365D01*
X160926691Y-120114364D01*
X160926686Y-120114364D01*
X160700002Y-120094532D01*
X160699998Y-120094532D01*
X160473313Y-120114364D01*
X160473302Y-120114366D01*
X160253511Y-120173258D01*
X160253502Y-120173261D01*
X160047267Y-120269431D01*
X160047265Y-120269432D01*
X159860858Y-120399954D01*
X159699954Y-120560858D01*
X159569432Y-120747265D01*
X159569431Y-120747267D01*
X159473261Y-120953502D01*
X159473258Y-120953511D01*
X159414366Y-121173302D01*
X159414364Y-121173313D01*
X159394532Y-121399998D01*
X154385468Y-121399998D01*
X154381968Y-121360000D01*
X154365635Y-121173313D01*
X154365635Y-121173308D01*
X154306739Y-120953504D01*
X154285228Y-120907375D01*
X154274737Y-120838298D01*
X154303257Y-120774514D01*
X154309917Y-120767303D01*
X160067292Y-115009928D01*
X160128613Y-114976445D01*
X160198305Y-114981429D01*
X160207375Y-114985228D01*
X160253504Y-115006739D01*
X160473308Y-115065635D01*
X160631511Y-115079476D01*
X160699998Y-115085468D01*
X160700000Y-115085468D01*
X160700002Y-115085468D01*
X160756673Y-115080509D01*
X160926692Y-115065635D01*
X161146496Y-115006739D01*
X161352734Y-114910568D01*
X161539139Y-114780047D01*
X161700047Y-114619139D01*
X161830568Y-114432734D01*
X161857618Y-114374724D01*
X161903790Y-114322285D01*
X161970983Y-114303133D01*
X162037865Y-114323348D01*
X162082382Y-114374725D01*
X162109429Y-114432728D01*
X162109432Y-114432734D01*
X162239954Y-114619141D01*
X162400858Y-114780045D01*
X162400861Y-114780047D01*
X162587266Y-114910568D01*
X162793504Y-115006739D01*
X163013308Y-115065635D01*
X163171511Y-115079476D01*
X163239998Y-115085468D01*
X163239999Y-115085468D01*
X163239999Y-115085467D01*
X163240000Y-115085468D01*
X163337109Y-115076971D01*
X163405606Y-115090737D01*
X163435596Y-115112818D01*
X168985800Y-120663022D01*
X169019285Y-120724345D01*
X169021647Y-120761509D01*
X169009532Y-120899996D01*
X169009532Y-120900001D01*
X169029364Y-121126686D01*
X169029366Y-121126697D01*
X169088258Y-121346488D01*
X169088261Y-121346497D01*
X169184431Y-121552732D01*
X169184432Y-121552734D01*
X169314954Y-121739141D01*
X169475857Y-121900044D01*
X169475860Y-121900046D01*
X169475861Y-121900047D01*
X169571123Y-121966749D01*
X169614748Y-122021325D01*
X169624000Y-122068324D01*
X169624000Y-122731674D01*
X169604315Y-122798713D01*
X169571124Y-122833249D01*
X169475863Y-122899951D01*
X169314951Y-123060862D01*
X169184432Y-123247265D01*
X169184431Y-123247267D01*
X169088261Y-123453502D01*
X169088258Y-123453511D01*
X169029366Y-123673302D01*
X169029364Y-123673313D01*
X169009532Y-123899998D01*
X169009532Y-123900001D01*
X169029364Y-124126686D01*
X169029366Y-124126697D01*
X169088258Y-124346488D01*
X169088261Y-124346497D01*
X169184431Y-124552732D01*
X169184432Y-124552734D01*
X169314954Y-124739141D01*
X169475858Y-124900045D01*
X169475861Y-124900047D01*
X169662266Y-125030568D01*
X169868504Y-125126739D01*
X170088308Y-125185635D01*
X170250230Y-125199801D01*
X170314998Y-125205468D01*
X170315000Y-125205468D01*
X170315002Y-125205468D01*
X170371673Y-125200509D01*
X170541692Y-125185635D01*
X170761496Y-125126739D01*
X170779098Y-125118530D01*
X170848173Y-125108039D01*
X170911958Y-125136558D01*
X170950198Y-125195034D01*
X170950753Y-125264901D01*
X170919183Y-125318594D01*
X170656765Y-125581011D01*
X170595442Y-125614496D01*
X170547363Y-125613383D01*
X170547025Y-125615306D01*
X170541686Y-125614364D01*
X170315001Y-125594532D01*
X170314998Y-125594532D01*
X170088313Y-125614364D01*
X170088302Y-125614366D01*
X169868511Y-125673258D01*
X169868502Y-125673261D01*
X169662267Y-125769431D01*
X169662265Y-125769432D01*
X169475858Y-125899954D01*
X169314954Y-126060858D01*
X169184432Y-126247265D01*
X169184431Y-126247267D01*
X169088261Y-126453502D01*
X169088258Y-126453511D01*
X169029366Y-126673302D01*
X169029364Y-126673313D01*
X169009532Y-126899998D01*
X169009532Y-126900001D01*
X169029364Y-127126686D01*
X169029366Y-127126697D01*
X169088258Y-127346488D01*
X169088261Y-127346497D01*
X169184431Y-127552732D01*
X169184432Y-127552734D01*
X169314954Y-127739141D01*
X169475858Y-127900045D01*
X169475861Y-127900047D01*
X169662266Y-128030568D01*
X169868504Y-128126739D01*
X170088308Y-128185635D01*
X170249620Y-128199748D01*
X170314998Y-128205468D01*
X170315000Y-128205468D01*
X170315002Y-128205468D01*
X170380380Y-128199748D01*
X170541692Y-128185635D01*
X170634885Y-128160664D01*
X170704731Y-128162327D01*
X170762593Y-128201489D01*
X170790098Y-128265717D01*
X170778512Y-128334619D01*
X170754656Y-128368120D01*
X170551976Y-128570800D01*
X170490653Y-128604285D01*
X170453489Y-128606647D01*
X170315003Y-128594532D01*
X170314998Y-128594532D01*
X170088313Y-128614364D01*
X170088302Y-128614366D01*
X169868511Y-128673258D01*
X169868502Y-128673261D01*
X169662267Y-128769431D01*
X169662265Y-128769432D01*
X169475858Y-128899954D01*
X169314954Y-129060858D01*
X169184432Y-129247265D01*
X169184431Y-129247267D01*
X169088261Y-129453502D01*
X169088258Y-129453511D01*
X169029366Y-129673302D01*
X169029364Y-129673313D01*
X169009532Y-129899998D01*
X169009532Y-129900001D01*
X169029364Y-130126686D01*
X169029366Y-130126697D01*
X169088258Y-130346488D01*
X169088261Y-130346497D01*
X169184431Y-130552732D01*
X169184432Y-130552734D01*
X169314954Y-130739141D01*
X169475858Y-130900045D01*
X169488442Y-130908856D01*
X169662266Y-131030568D01*
X169868504Y-131126739D01*
X170088308Y-131185635D01*
X170250230Y-131199801D01*
X170314998Y-131205468D01*
X170315000Y-131205468D01*
X170315002Y-131205468D01*
X170377522Y-131199998D01*
X170541692Y-131185635D01*
X170761496Y-131126739D01*
X170967734Y-131030568D01*
X171154139Y-130900047D01*
X171315047Y-130739139D01*
X171445568Y-130552734D01*
X171541739Y-130346496D01*
X171600635Y-130126692D01*
X171620468Y-129900000D01*
X171600635Y-129673308D01*
X171577591Y-129587306D01*
X171579254Y-129517460D01*
X171609683Y-129467537D01*
X173044735Y-128032486D01*
X173120356Y-127919311D01*
X173172445Y-127793557D01*
X173179219Y-127759500D01*
X173199000Y-127660058D01*
X173199000Y-117024942D01*
X173199000Y-117024939D01*
X173172446Y-116891448D01*
X173172445Y-116891447D01*
X173172445Y-116891443D01*
X173170871Y-116887644D01*
X173120359Y-116765695D01*
X173120355Y-116765688D01*
X173090153Y-116720487D01*
X173044735Y-116652513D01*
X173044733Y-116652511D01*
X173044731Y-116652508D01*
X173044730Y-116652507D01*
X171633988Y-115241766D01*
X171600503Y-115180443D01*
X171601669Y-115132377D01*
X171599694Y-115132029D01*
X171600631Y-115126704D01*
X171600635Y-115126692D01*
X171620468Y-114900000D01*
X171620468Y-114899998D01*
X176629532Y-114899998D01*
X176629532Y-114900001D01*
X176649364Y-115126686D01*
X176649366Y-115126697D01*
X176708258Y-115346488D01*
X176708261Y-115346497D01*
X176804431Y-115552732D01*
X176804432Y-115552734D01*
X176934954Y-115739141D01*
X177095858Y-115900045D01*
X177095861Y-115900047D01*
X177282266Y-116030568D01*
X177488504Y-116126739D01*
X177708308Y-116185635D01*
X177870230Y-116199801D01*
X177934998Y-116205468D01*
X177935000Y-116205468D01*
X177935002Y-116205468D01*
X177991673Y-116200509D01*
X178161692Y-116185635D01*
X178381496Y-116126739D01*
X178587734Y-116030568D01*
X178774139Y-115900047D01*
X178935047Y-115739139D01*
X178971379Y-115687249D01*
X179001750Y-115643877D01*
X179056327Y-115600252D01*
X179103325Y-115591000D01*
X179862416Y-115591000D01*
X179929455Y-115610685D01*
X179950097Y-115627319D01*
X181139510Y-116816732D01*
X181139518Y-116816738D01*
X181245636Y-116887644D01*
X181245638Y-116887644D01*
X181251315Y-116891438D01*
X181252689Y-116892356D01*
X181252695Y-116892359D01*
X181378438Y-116944443D01*
X181378443Y-116944445D01*
X181378447Y-116944445D01*
X181378448Y-116944446D01*
X181511939Y-116971000D01*
X181511942Y-116971000D01*
X181511943Y-116971000D01*
X181648057Y-116971000D01*
X182185501Y-116971000D01*
X182252540Y-116990685D01*
X182298295Y-117043489D01*
X182309501Y-117095000D01*
X182309501Y-117177876D01*
X182315908Y-117237483D01*
X182366202Y-117372328D01*
X182366206Y-117372335D01*
X182452452Y-117487544D01*
X182452455Y-117487547D01*
X182567664Y-117573793D01*
X182567671Y-117573797D01*
X182699082Y-117622810D01*
X182755016Y-117664681D01*
X182779433Y-117730145D01*
X182764582Y-117798418D01*
X182743431Y-117826673D01*
X182621501Y-117948603D01*
X182532212Y-118076123D01*
X182477635Y-118119748D01*
X182430637Y-118129000D01*
X181227584Y-118129000D01*
X181160545Y-118109315D01*
X181139903Y-118092681D01*
X180410492Y-117363269D01*
X180410485Y-117363263D01*
X180297312Y-117287644D01*
X180297309Y-117287642D01*
X180171561Y-117235556D01*
X180171551Y-117235553D01*
X180038060Y-117209000D01*
X180038058Y-117209000D01*
X179103325Y-117209000D01*
X179036286Y-117189315D01*
X179001750Y-117156123D01*
X178935045Y-117060858D01*
X178774141Y-116899954D01*
X178587734Y-116769432D01*
X178587732Y-116769431D01*
X178381497Y-116673261D01*
X178381488Y-116673258D01*
X178161697Y-116614366D01*
X178161693Y-116614365D01*
X178161692Y-116614365D01*
X178161691Y-116614364D01*
X178161686Y-116614364D01*
X177935002Y-116594532D01*
X177934998Y-116594532D01*
X177708313Y-116614364D01*
X177708302Y-116614366D01*
X177488511Y-116673258D01*
X177488502Y-116673261D01*
X177282267Y-116769431D01*
X177282265Y-116769432D01*
X177095858Y-116899954D01*
X176934954Y-117060858D01*
X176804432Y-117247265D01*
X176804431Y-117247267D01*
X176708261Y-117453502D01*
X176708258Y-117453511D01*
X176649366Y-117673302D01*
X176649364Y-117673313D01*
X176629532Y-117899998D01*
X176629532Y-117900001D01*
X176649364Y-118126686D01*
X176649366Y-118126697D01*
X176708258Y-118346488D01*
X176708261Y-118346497D01*
X176804431Y-118552732D01*
X176804432Y-118552734D01*
X176934954Y-118739141D01*
X177095858Y-118900045D01*
X177095861Y-118900047D01*
X177282266Y-119030568D01*
X177488504Y-119126739D01*
X177708308Y-119185635D01*
X177870230Y-119199801D01*
X177934998Y-119205468D01*
X177935000Y-119205468D01*
X177935002Y-119205468D01*
X177991673Y-119200509D01*
X178161692Y-119185635D01*
X178381496Y-119126739D01*
X178587734Y-119030568D01*
X178774139Y-118900047D01*
X178935047Y-118739139D01*
X178971379Y-118687249D01*
X179001750Y-118643877D01*
X179056327Y-118600252D01*
X179103325Y-118591000D01*
X179632416Y-118591000D01*
X179699455Y-118610685D01*
X179720097Y-118627319D01*
X180449509Y-119356732D01*
X180449513Y-119356735D01*
X180562681Y-119432352D01*
X180562685Y-119432354D01*
X180562688Y-119432356D01*
X180688442Y-119484445D01*
X180707439Y-119488223D01*
X180755735Y-119497830D01*
X180821941Y-119511000D01*
X180821942Y-119511000D01*
X182430637Y-119511000D01*
X182497676Y-119530685D01*
X182532212Y-119563877D01*
X182621501Y-119691396D01*
X182621506Y-119691402D01*
X182788597Y-119858493D01*
X182788603Y-119858498D01*
X182974158Y-119988425D01*
X183017783Y-120043002D01*
X183024977Y-120112500D01*
X182993454Y-120174855D01*
X182974158Y-120191575D01*
X182788597Y-120321505D01*
X182621506Y-120488596D01*
X182504204Y-120656123D01*
X182449627Y-120699748D01*
X182402629Y-120709000D01*
X180537583Y-120709000D01*
X180470544Y-120689315D01*
X180449906Y-120672685D01*
X180140487Y-120363265D01*
X180140486Y-120363264D01*
X180140485Y-120363263D01*
X180027312Y-120287644D01*
X180027309Y-120287642D01*
X179901561Y-120235556D01*
X179901551Y-120235553D01*
X179768060Y-120209000D01*
X179768058Y-120209000D01*
X179103325Y-120209000D01*
X179036286Y-120189315D01*
X179001750Y-120156123D01*
X178935045Y-120060858D01*
X178774141Y-119899954D01*
X178587734Y-119769432D01*
X178587732Y-119769431D01*
X178381497Y-119673261D01*
X178381488Y-119673258D01*
X178161697Y-119614366D01*
X178161693Y-119614365D01*
X178161692Y-119614365D01*
X178161691Y-119614364D01*
X178161686Y-119614364D01*
X177935002Y-119594532D01*
X177934998Y-119594532D01*
X177708313Y-119614364D01*
X177708302Y-119614366D01*
X177488511Y-119673258D01*
X177488502Y-119673261D01*
X177282267Y-119769431D01*
X177282265Y-119769432D01*
X177095858Y-119899954D01*
X176934954Y-120060858D01*
X176804432Y-120247265D01*
X176804431Y-120247267D01*
X176708261Y-120453502D01*
X176708258Y-120453511D01*
X176649366Y-120673302D01*
X176649364Y-120673313D01*
X176629532Y-120899998D01*
X176629532Y-120900001D01*
X176649364Y-121126686D01*
X176649366Y-121126697D01*
X176708258Y-121346488D01*
X176708261Y-121346497D01*
X176804431Y-121552732D01*
X176804432Y-121552734D01*
X176934954Y-121739141D01*
X177095858Y-121900045D01*
X177136122Y-121928238D01*
X177282266Y-122030568D01*
X177488504Y-122126739D01*
X177708308Y-122185635D01*
X177870230Y-122199801D01*
X177934998Y-122205468D01*
X177935000Y-122205468D01*
X177935002Y-122205468D01*
X177991673Y-122200509D01*
X178161692Y-122185635D01*
X178381496Y-122126739D01*
X178587734Y-122030568D01*
X178774139Y-121900047D01*
X178935047Y-121739139D01*
X178972926Y-121685042D01*
X179001750Y-121643877D01*
X179056327Y-121600252D01*
X179103325Y-121591000D01*
X179362416Y-121591000D01*
X179429455Y-121610685D01*
X179450097Y-121627319D01*
X179759510Y-121936732D01*
X179759514Y-121936735D01*
X179872682Y-122012352D01*
X179872695Y-122012359D01*
X179970165Y-122052732D01*
X179998443Y-122064445D01*
X179998447Y-122064445D01*
X179998448Y-122064446D01*
X180131939Y-122091000D01*
X180131942Y-122091000D01*
X180131943Y-122091000D01*
X180268057Y-122091000D01*
X182458645Y-122091000D01*
X182525684Y-122110685D01*
X182560217Y-122143873D01*
X182621505Y-122231401D01*
X182621509Y-122231405D01*
X182788597Y-122398493D01*
X182788603Y-122398498D01*
X182974158Y-122528425D01*
X183017783Y-122583002D01*
X183024977Y-122652500D01*
X182993454Y-122714855D01*
X182974158Y-122731575D01*
X182788597Y-122861505D01*
X182621506Y-123028597D01*
X182621501Y-123028603D01*
X182532212Y-123156123D01*
X182477635Y-123199748D01*
X182430637Y-123209000D01*
X179103325Y-123209000D01*
X179036286Y-123189315D01*
X179001750Y-123156123D01*
X178935045Y-123060858D01*
X178774141Y-122899954D01*
X178587734Y-122769432D01*
X178587732Y-122769431D01*
X178381497Y-122673261D01*
X178381488Y-122673258D01*
X178161697Y-122614366D01*
X178161693Y-122614365D01*
X178161692Y-122614365D01*
X178161691Y-122614364D01*
X178161686Y-122614364D01*
X177935002Y-122594532D01*
X177934998Y-122594532D01*
X177708313Y-122614364D01*
X177708302Y-122614366D01*
X177488511Y-122673258D01*
X177488502Y-122673261D01*
X177282267Y-122769431D01*
X177282265Y-122769432D01*
X177095858Y-122899954D01*
X176934954Y-123060858D01*
X176804432Y-123247265D01*
X176804431Y-123247267D01*
X176708261Y-123453502D01*
X176708258Y-123453511D01*
X176649366Y-123673302D01*
X176649364Y-123673313D01*
X176629532Y-123899998D01*
X176629532Y-123900001D01*
X176649364Y-124126686D01*
X176649366Y-124126697D01*
X176708258Y-124346488D01*
X176708261Y-124346497D01*
X176804431Y-124552732D01*
X176804432Y-124552734D01*
X176934954Y-124739141D01*
X177095858Y-124900045D01*
X177095861Y-124900047D01*
X177282266Y-125030568D01*
X177488504Y-125126739D01*
X177708308Y-125185635D01*
X177870230Y-125199801D01*
X177934998Y-125205468D01*
X177935000Y-125205468D01*
X177935002Y-125205468D01*
X177991673Y-125200509D01*
X178161692Y-125185635D01*
X178381496Y-125126739D01*
X178587734Y-125030568D01*
X178774139Y-124900047D01*
X178935047Y-124739139D01*
X178989661Y-124661142D01*
X179001750Y-124643877D01*
X179056327Y-124600252D01*
X179103325Y-124591000D01*
X182430637Y-124591000D01*
X182497676Y-124610685D01*
X182532212Y-124643877D01*
X182621501Y-124771396D01*
X182621506Y-124771402D01*
X182788597Y-124938493D01*
X182788603Y-124938498D01*
X182974158Y-125068425D01*
X183017783Y-125123002D01*
X183024977Y-125192500D01*
X182993454Y-125254855D01*
X182974158Y-125271575D01*
X182788597Y-125401505D01*
X182621505Y-125568597D01*
X182560220Y-125656123D01*
X182505643Y-125699748D01*
X182458645Y-125709000D01*
X180131940Y-125709000D01*
X180039888Y-125727311D01*
X180039887Y-125727311D01*
X179998450Y-125735553D01*
X179998438Y-125735556D01*
X179872695Y-125787640D01*
X179872682Y-125787647D01*
X179759514Y-125863264D01*
X179759510Y-125863267D01*
X179450097Y-126172681D01*
X179388774Y-126206166D01*
X179362416Y-126209000D01*
X179103325Y-126209000D01*
X179036286Y-126189315D01*
X179001750Y-126156123D01*
X178935045Y-126060858D01*
X178774141Y-125899954D01*
X178587734Y-125769432D01*
X178587732Y-125769431D01*
X178381497Y-125673261D01*
X178381488Y-125673258D01*
X178161697Y-125614366D01*
X178161693Y-125614365D01*
X178161692Y-125614365D01*
X178161691Y-125614364D01*
X178161686Y-125614364D01*
X177935002Y-125594532D01*
X177934998Y-125594532D01*
X177708313Y-125614364D01*
X177708302Y-125614366D01*
X177488511Y-125673258D01*
X177488502Y-125673261D01*
X177282267Y-125769431D01*
X177282265Y-125769432D01*
X177095858Y-125899954D01*
X176934954Y-126060858D01*
X176804432Y-126247265D01*
X176804431Y-126247267D01*
X176708261Y-126453502D01*
X176708258Y-126453511D01*
X176649366Y-126673302D01*
X176649364Y-126673313D01*
X176629532Y-126899998D01*
X176629532Y-126900001D01*
X176649364Y-127126686D01*
X176649366Y-127126697D01*
X176708258Y-127346488D01*
X176708261Y-127346497D01*
X176804431Y-127552732D01*
X176804432Y-127552734D01*
X176934954Y-127739141D01*
X177095858Y-127900045D01*
X177095861Y-127900047D01*
X177282266Y-128030568D01*
X177488504Y-128126739D01*
X177708308Y-128185635D01*
X177869620Y-128199748D01*
X177934998Y-128205468D01*
X177935000Y-128205468D01*
X177935002Y-128205468D01*
X178000380Y-128199748D01*
X178161692Y-128185635D01*
X178381496Y-128126739D01*
X178587734Y-128030568D01*
X178774139Y-127900047D01*
X178935047Y-127739139D01*
X178990420Y-127660058D01*
X179001750Y-127643877D01*
X179056327Y-127600252D01*
X179103325Y-127591000D01*
X179768060Y-127591000D01*
X179857870Y-127573134D01*
X179901557Y-127564445D01*
X180027311Y-127512356D01*
X180039793Y-127504015D01*
X180048134Y-127498443D01*
X180109563Y-127457397D01*
X180140487Y-127436735D01*
X180449903Y-127127317D01*
X180511225Y-127093834D01*
X180537583Y-127091000D01*
X182402628Y-127091000D01*
X182469667Y-127110685D01*
X182504203Y-127143877D01*
X182621501Y-127311395D01*
X182621506Y-127311402D01*
X182788597Y-127478493D01*
X182788603Y-127478498D01*
X182974158Y-127608425D01*
X183017783Y-127663002D01*
X183024977Y-127732500D01*
X182993454Y-127794855D01*
X182974158Y-127811575D01*
X182788597Y-127941505D01*
X182621505Y-128108597D01*
X182588228Y-128156123D01*
X182533651Y-128199748D01*
X182486653Y-128209000D01*
X180631940Y-128209000D01*
X180539888Y-128227311D01*
X180539887Y-128227311D01*
X180498450Y-128235553D01*
X180498438Y-128235556D01*
X180372695Y-128287640D01*
X180372682Y-128287647D01*
X180259514Y-128363264D01*
X180259510Y-128363267D01*
X179450097Y-129172681D01*
X179388774Y-129206166D01*
X179362416Y-129209000D01*
X179103325Y-129209000D01*
X179036286Y-129189315D01*
X179001750Y-129156123D01*
X178935045Y-129060858D01*
X178774141Y-128899954D01*
X178587734Y-128769432D01*
X178587732Y-128769431D01*
X178381497Y-128673261D01*
X178381488Y-128673258D01*
X178161697Y-128614366D01*
X178161693Y-128614365D01*
X178161692Y-128614365D01*
X178161691Y-128614364D01*
X178161686Y-128614364D01*
X177935002Y-128594532D01*
X177934998Y-128594532D01*
X177708313Y-128614364D01*
X177708302Y-128614366D01*
X177488511Y-128673258D01*
X177488502Y-128673261D01*
X177282267Y-128769431D01*
X177282265Y-128769432D01*
X177095858Y-128899954D01*
X176934954Y-129060858D01*
X176804432Y-129247265D01*
X176804431Y-129247267D01*
X176708261Y-129453502D01*
X176708258Y-129453511D01*
X176649366Y-129673302D01*
X176649364Y-129673313D01*
X176629532Y-129899998D01*
X176629532Y-129900001D01*
X176649364Y-130126686D01*
X176649366Y-130126697D01*
X176708258Y-130346488D01*
X176708261Y-130346497D01*
X176804431Y-130552732D01*
X176804432Y-130552734D01*
X176934954Y-130739141D01*
X177095858Y-130900045D01*
X177108442Y-130908856D01*
X177282266Y-131030568D01*
X177488504Y-131126739D01*
X177708308Y-131185635D01*
X177870230Y-131199801D01*
X177934998Y-131205468D01*
X177935000Y-131205468D01*
X177935002Y-131205468D01*
X177997522Y-131199998D01*
X178161692Y-131185635D01*
X178381496Y-131126739D01*
X178587734Y-131030568D01*
X178774139Y-130900047D01*
X178935047Y-130739139D01*
X178988174Y-130663265D01*
X179001750Y-130643877D01*
X179056327Y-130600252D01*
X179103325Y-130591000D01*
X179768060Y-130591000D01*
X179857870Y-130573134D01*
X179901557Y-130564445D01*
X180027311Y-130512356D01*
X180045001Y-130500536D01*
X180140487Y-130436735D01*
X180949902Y-129627318D01*
X181011225Y-129593834D01*
X181037583Y-129591000D01*
X182375805Y-129591000D01*
X182442844Y-129610685D01*
X182481085Y-129654399D01*
X182483260Y-129653144D01*
X182485967Y-129657834D01*
X182621501Y-129851395D01*
X182621506Y-129851402D01*
X182788597Y-130018493D01*
X182788603Y-130018498D01*
X182974158Y-130148425D01*
X183017783Y-130203002D01*
X183024977Y-130272500D01*
X182993454Y-130334855D01*
X182974158Y-130351575D01*
X182788597Y-130481505D01*
X182621506Y-130648597D01*
X182621501Y-130648603D01*
X182532212Y-130776123D01*
X182477635Y-130819748D01*
X182430637Y-130829000D01*
X181011940Y-130829000D01*
X180954194Y-130840487D01*
X180954193Y-130840487D01*
X180878450Y-130855553D01*
X180878438Y-130855556D01*
X180752695Y-130907640D01*
X180752682Y-130907647D01*
X180639514Y-130983264D01*
X180639510Y-130983267D01*
X179450097Y-132172681D01*
X179388774Y-132206166D01*
X179362416Y-132209000D01*
X179103325Y-132209000D01*
X179036286Y-132189315D01*
X179001750Y-132156123D01*
X178935045Y-132060858D01*
X178774141Y-131899954D01*
X178587734Y-131769432D01*
X178587732Y-131769431D01*
X178381497Y-131673261D01*
X178381488Y-131673258D01*
X178161697Y-131614366D01*
X178161693Y-131614365D01*
X178161692Y-131614365D01*
X178161691Y-131614364D01*
X178161686Y-131614364D01*
X177935002Y-131594532D01*
X177934998Y-131594532D01*
X177708313Y-131614364D01*
X177708302Y-131614366D01*
X177488511Y-131673258D01*
X177488502Y-131673261D01*
X177282267Y-131769431D01*
X177282265Y-131769432D01*
X177095858Y-131899954D01*
X176934954Y-132060858D01*
X176804432Y-132247265D01*
X176804431Y-132247267D01*
X176708261Y-132453502D01*
X176708258Y-132453511D01*
X176649366Y-132673302D01*
X176649364Y-132673313D01*
X176629532Y-132899998D01*
X176629532Y-132900001D01*
X176649364Y-133126686D01*
X176649366Y-133126697D01*
X176708258Y-133346488D01*
X176708261Y-133346497D01*
X176804431Y-133552732D01*
X176804432Y-133552734D01*
X176934954Y-133739141D01*
X177095858Y-133900045D01*
X177095861Y-133900047D01*
X177282266Y-134030568D01*
X177488504Y-134126739D01*
X177708308Y-134185635D01*
X177870230Y-134199801D01*
X177934998Y-134205468D01*
X177935000Y-134205468D01*
X177935002Y-134205468D01*
X177991673Y-134200509D01*
X178161692Y-134185635D01*
X178381496Y-134126739D01*
X178587734Y-134030568D01*
X178774139Y-133900047D01*
X178935047Y-133739139D01*
X178971379Y-133687249D01*
X179001750Y-133643877D01*
X179056327Y-133600252D01*
X179103325Y-133591000D01*
X179768060Y-133591000D01*
X179857870Y-133573134D01*
X179901557Y-133564445D01*
X180025013Y-133513308D01*
X180027309Y-133512357D01*
X180027312Y-133512355D01*
X180033869Y-133507974D01*
X180140487Y-133436735D01*
X181329902Y-132247318D01*
X181391225Y-132213834D01*
X181417583Y-132211000D01*
X182430637Y-132211000D01*
X182497676Y-132230685D01*
X182532212Y-132263877D01*
X182621500Y-132391395D01*
X182621505Y-132391401D01*
X182788599Y-132558495D01*
X182861340Y-132609429D01*
X182982165Y-132694032D01*
X182982167Y-132694033D01*
X182982170Y-132694035D01*
X183196337Y-132793903D01*
X183424592Y-132855063D01*
X183612918Y-132871539D01*
X183659999Y-132875659D01*
X183660000Y-132875659D01*
X183660001Y-132875659D01*
X183699234Y-132872226D01*
X183895408Y-132855063D01*
X184123663Y-132793903D01*
X184337830Y-132694035D01*
X184531401Y-132558495D01*
X184698495Y-132391401D01*
X184834035Y-132197830D01*
X184933903Y-131983663D01*
X184995063Y-131755408D01*
X185015659Y-131520000D01*
X184995063Y-131284592D01*
X184933903Y-131056337D01*
X184834035Y-130842171D01*
X184818335Y-130819748D01*
X184698494Y-130648597D01*
X184531402Y-130481506D01*
X184531396Y-130481501D01*
X184345842Y-130351575D01*
X184302217Y-130296998D01*
X184295023Y-130227500D01*
X184326546Y-130165145D01*
X184345842Y-130148425D01*
X184458657Y-130069431D01*
X184531401Y-130018495D01*
X184698495Y-129851401D01*
X184834035Y-129657830D01*
X184933903Y-129443663D01*
X184995063Y-129215408D01*
X185015659Y-128980000D01*
X184995063Y-128744592D01*
X184933903Y-128516337D01*
X184834035Y-128302171D01*
X184823866Y-128287647D01*
X184698494Y-128108597D01*
X184531402Y-127941506D01*
X184531396Y-127941501D01*
X184345842Y-127811575D01*
X184302217Y-127756998D01*
X184295023Y-127687500D01*
X184326546Y-127625145D01*
X184345842Y-127608425D01*
X184408652Y-127564445D01*
X184531401Y-127478495D01*
X184698495Y-127311401D01*
X184834035Y-127117830D01*
X184933903Y-126903663D01*
X184995063Y-126675408D01*
X185015659Y-126440000D01*
X184995063Y-126204592D01*
X184933903Y-125976337D01*
X184834035Y-125762171D01*
X184815399Y-125735555D01*
X184698494Y-125568597D01*
X184531402Y-125401506D01*
X184531396Y-125401501D01*
X184345842Y-125271575D01*
X184302217Y-125216998D01*
X184295023Y-125147500D01*
X184326546Y-125085145D01*
X184345842Y-125068425D01*
X184399909Y-125030567D01*
X184531401Y-124938495D01*
X184698495Y-124771401D01*
X184834035Y-124577830D01*
X184933903Y-124363663D01*
X184995063Y-124135408D01*
X185015659Y-123900000D01*
X184995063Y-123664592D01*
X184933903Y-123436337D01*
X184834035Y-123222171D01*
X184818335Y-123199748D01*
X184698494Y-123028597D01*
X184531402Y-122861506D01*
X184531396Y-122861501D01*
X184345842Y-122731575D01*
X184302217Y-122676998D01*
X184295023Y-122607500D01*
X184326546Y-122545145D01*
X184345842Y-122528425D01*
X184468791Y-122442335D01*
X184531401Y-122398495D01*
X184698495Y-122231401D01*
X184834035Y-122037830D01*
X184933903Y-121823663D01*
X184995063Y-121595408D01*
X185015659Y-121360000D01*
X184995063Y-121124592D01*
X184934885Y-120900001D01*
X184933905Y-120896344D01*
X184933904Y-120896343D01*
X184933903Y-120896337D01*
X184834035Y-120682171D01*
X184787598Y-120615851D01*
X184698494Y-120488597D01*
X184531402Y-120321506D01*
X184531396Y-120321501D01*
X184345842Y-120191575D01*
X184302217Y-120136998D01*
X184295023Y-120067500D01*
X184326546Y-120005145D01*
X184345842Y-119988425D01*
X184472191Y-119899954D01*
X184531401Y-119858495D01*
X184698495Y-119691401D01*
X184834035Y-119497830D01*
X184933903Y-119283663D01*
X184995063Y-119055408D01*
X185015659Y-118820000D01*
X184995063Y-118584592D01*
X184933903Y-118356337D01*
X184834035Y-118142171D01*
X184823192Y-118126686D01*
X184698496Y-117948600D01*
X184649894Y-117899998D01*
X184576567Y-117826671D01*
X184543084Y-117765351D01*
X184548068Y-117695659D01*
X184589939Y-117639725D01*
X184620915Y-117622810D01*
X184752331Y-117573796D01*
X184867546Y-117487546D01*
X184953796Y-117372331D01*
X185004091Y-117237483D01*
X185010500Y-117177873D01*
X185010499Y-115382128D01*
X185004091Y-115322517D01*
X184985216Y-115271911D01*
X184953797Y-115187671D01*
X184953793Y-115187664D01*
X184867547Y-115072455D01*
X184867544Y-115072452D01*
X184752335Y-114986206D01*
X184752328Y-114986202D01*
X184617482Y-114935908D01*
X184617483Y-114935908D01*
X184557883Y-114929501D01*
X184557881Y-114929500D01*
X184557873Y-114929500D01*
X184557864Y-114929500D01*
X182762129Y-114929500D01*
X182762123Y-114929501D01*
X182702516Y-114935908D01*
X182567671Y-114986202D01*
X182567664Y-114986206D01*
X182452455Y-115072452D01*
X182452452Y-115072455D01*
X182366206Y-115187664D01*
X182366202Y-115187671D01*
X182315908Y-115322517D01*
X182309501Y-115382116D01*
X182309501Y-115382123D01*
X182309500Y-115382135D01*
X182309500Y-115465000D01*
X182289815Y-115532039D01*
X182237011Y-115577794D01*
X182185500Y-115589000D01*
X181917583Y-115589000D01*
X181850544Y-115569315D01*
X181829902Y-115552681D01*
X180640492Y-114363269D01*
X180640485Y-114363263D01*
X180527312Y-114287644D01*
X180527309Y-114287642D01*
X180401561Y-114235556D01*
X180401549Y-114235553D01*
X180325802Y-114220486D01*
X180325801Y-114220486D01*
X180268060Y-114209000D01*
X180268058Y-114209000D01*
X179103325Y-114209000D01*
X179036286Y-114189315D01*
X179001750Y-114156123D01*
X178935045Y-114060858D01*
X178774141Y-113899954D01*
X178587734Y-113769432D01*
X178587732Y-113769431D01*
X178381497Y-113673261D01*
X178381488Y-113673258D01*
X178161697Y-113614366D01*
X178161693Y-113614365D01*
X178161692Y-113614365D01*
X178161691Y-113614364D01*
X178161686Y-113614364D01*
X177935002Y-113594532D01*
X177934998Y-113594532D01*
X177708313Y-113614364D01*
X177708302Y-113614366D01*
X177488511Y-113673258D01*
X177488502Y-113673261D01*
X177282267Y-113769431D01*
X177282265Y-113769432D01*
X177095858Y-113899954D01*
X176934954Y-114060858D01*
X176804432Y-114247265D01*
X176804431Y-114247267D01*
X176708261Y-114453502D01*
X176708258Y-114453511D01*
X176649366Y-114673302D01*
X176649364Y-114673313D01*
X176629532Y-114899998D01*
X171620468Y-114899998D01*
X171600635Y-114673308D01*
X171541739Y-114453504D01*
X171445568Y-114247266D01*
X171325374Y-114075609D01*
X171315045Y-114060858D01*
X171154141Y-113899954D01*
X170967734Y-113769432D01*
X170967732Y-113769431D01*
X170761497Y-113673261D01*
X170761488Y-113673258D01*
X170541697Y-113614366D01*
X170541693Y-113614365D01*
X170541692Y-113614365D01*
X170541691Y-113614364D01*
X170541686Y-113614364D01*
X170315002Y-113594532D01*
X170314998Y-113594532D01*
X170088313Y-113614364D01*
X170088302Y-113614366D01*
X169868511Y-113673258D01*
X169868502Y-113673262D01*
X169662110Y-113769504D01*
X169593032Y-113779996D01*
X169529248Y-113751476D01*
X169522024Y-113744803D01*
X167640492Y-111863269D01*
X167640485Y-111863263D01*
X167527312Y-111787644D01*
X167527309Y-111787642D01*
X167401560Y-111735556D01*
X167401550Y-111735553D01*
X167400638Y-111735372D01*
X167400638Y-111735371D01*
X167268060Y-111709000D01*
X167268058Y-111709000D01*
X156931942Y-111709000D01*
X156931939Y-111709000D01*
X156799361Y-111735371D01*
X156799362Y-111735372D01*
X156798449Y-111735553D01*
X156798439Y-111735556D01*
X156672695Y-111787640D01*
X156672682Y-111787647D01*
X156559514Y-111863264D01*
X156559510Y-111863267D01*
X155961765Y-112461011D01*
X155900442Y-112494496D01*
X155852363Y-112493383D01*
X155852025Y-112495306D01*
X155846686Y-112494364D01*
X155620001Y-112474532D01*
X155619998Y-112474532D01*
X155393313Y-112494364D01*
X155393302Y-112494366D01*
X155173511Y-112553258D01*
X155173502Y-112553261D01*
X154967267Y-112649431D01*
X154967265Y-112649432D01*
X154780858Y-112779954D01*
X154619954Y-112940858D01*
X154489432Y-113127265D01*
X154489431Y-113127267D01*
X154462382Y-113185275D01*
X154416209Y-113237714D01*
X154349016Y-113256866D01*
X154282135Y-113236650D01*
X154237618Y-113185275D01*
X154210568Y-113127266D01*
X154080047Y-112940861D01*
X154080045Y-112940858D01*
X153919141Y-112779954D01*
X153732734Y-112649432D01*
X153732732Y-112649431D01*
X153526497Y-112553261D01*
X153526488Y-112553258D01*
X153306697Y-112494366D01*
X153306693Y-112494365D01*
X153306692Y-112494365D01*
X153306691Y-112494364D01*
X153306686Y-112494364D01*
X153080002Y-112474532D01*
X153079999Y-112474532D01*
X152853313Y-112494364D01*
X152847975Y-112495306D01*
X152847550Y-112492899D01*
X152787948Y-112491375D01*
X152738234Y-112461011D01*
X152140492Y-111863269D01*
X152140485Y-111863263D01*
X152027312Y-111787644D01*
X152027309Y-111787642D01*
X151901560Y-111735556D01*
X151901550Y-111735553D01*
X151900638Y-111735372D01*
X151900638Y-111735371D01*
X151768060Y-111709000D01*
X151768058Y-111709000D01*
X149701750Y-111709000D01*
X149701747Y-111709000D01*
X149569169Y-111735371D01*
X149569170Y-111735372D01*
X149568257Y-111735553D01*
X149568247Y-111735556D01*
X149442498Y-111787642D01*
X149442495Y-111787644D01*
X149329322Y-111863263D01*
X149329315Y-111863269D01*
X148663269Y-112529315D01*
X148663264Y-112529321D01*
X148658671Y-112536196D01*
X148605058Y-112581001D01*
X148535733Y-112589707D01*
X148503166Y-112579686D01*
X148446502Y-112553263D01*
X148446488Y-112553258D01*
X148226697Y-112494366D01*
X148226693Y-112494365D01*
X148226692Y-112494365D01*
X148226691Y-112494364D01*
X148226686Y-112494364D01*
X148000002Y-112474532D01*
X147999998Y-112474532D01*
X147773313Y-112494364D01*
X147773302Y-112494366D01*
X147553511Y-112553258D01*
X147553502Y-112553261D01*
X147347267Y-112649431D01*
X147347265Y-112649432D01*
X147160858Y-112779954D01*
X146999954Y-112940858D01*
X146933250Y-113036123D01*
X146878673Y-113079748D01*
X146831675Y-113089000D01*
X144615004Y-113089000D01*
X144547965Y-113069315D01*
X144502210Y-113016511D01*
X144494328Y-112993517D01*
X144494092Y-112992520D01*
X144443797Y-112857671D01*
X144443793Y-112857664D01*
X144357547Y-112742455D01*
X144357544Y-112742452D01*
X144242335Y-112656206D01*
X144242328Y-112656202D01*
X144107482Y-112605908D01*
X144107483Y-112605908D01*
X144047883Y-112599501D01*
X144047881Y-112599500D01*
X144047873Y-112599500D01*
X144047864Y-112599500D01*
X142352129Y-112599500D01*
X142352123Y-112599501D01*
X142292516Y-112605908D01*
X142157671Y-112656202D01*
X142157664Y-112656206D01*
X142042455Y-112742452D01*
X142042452Y-112742455D01*
X141956206Y-112857664D01*
X141956202Y-112857671D01*
X141905908Y-112992517D01*
X141899501Y-113052116D01*
X141899500Y-113052135D01*
X141899500Y-113085000D01*
X141879815Y-113152039D01*
X141827011Y-113197794D01*
X141775500Y-113209000D01*
X138637584Y-113209000D01*
X138570545Y-113189315D01*
X138549901Y-113172679D01*
X138527317Y-113150094D01*
X138493833Y-113088770D01*
X138491000Y-113062415D01*
X138491000Y-112719386D01*
X138510685Y-112652347D01*
X138563489Y-112606592D01*
X138615000Y-112595386D01*
X138647871Y-112595386D01*
X138647872Y-112595386D01*
X138707483Y-112588978D01*
X138842331Y-112538683D01*
X138957546Y-112452433D01*
X139043796Y-112337218D01*
X139094091Y-112202370D01*
X139100500Y-112142760D01*
X139100499Y-111022969D01*
X139120184Y-110955931D01*
X139136813Y-110935294D01*
X141158251Y-108913856D01*
X141219572Y-108880373D01*
X141289264Y-108885357D01*
X141345197Y-108927229D01*
X141346248Y-108928653D01*
X141412051Y-109019222D01*
X141439101Y-109056453D01*
X141600821Y-109218173D01*
X141785849Y-109352604D01*
X141989629Y-109456435D01*
X141989631Y-109456436D01*
X142207138Y-109527108D01*
X142207139Y-109527108D01*
X142207142Y-109527109D01*
X142433033Y-109562887D01*
X142433034Y-109562887D01*
X142756740Y-109562887D01*
X142756741Y-109562887D01*
X142982632Y-109527109D01*
X142982635Y-109527108D01*
X142982636Y-109527108D01*
X143200142Y-109456436D01*
X143200142Y-109456435D01*
X143200145Y-109456435D01*
X143403925Y-109352604D01*
X143588953Y-109218173D01*
X143750673Y-109056453D01*
X143885104Y-108871425D01*
X143988935Y-108667645D01*
X144059609Y-108450132D01*
X144095387Y-108224241D01*
X144095387Y-107995533D01*
X144059609Y-107769642D01*
X144059608Y-107769638D01*
X144059608Y-107769637D01*
X143988936Y-107552131D01*
X143921045Y-107418887D01*
X143885104Y-107348349D01*
X143750673Y-107163321D01*
X143588953Y-107001601D01*
X143403925Y-106867170D01*
X143200142Y-106763337D01*
X142982635Y-106692665D01*
X142813213Y-106665831D01*
X142756741Y-106656887D01*
X142433033Y-106656887D01*
X142357736Y-106668813D01*
X142207140Y-106692665D01*
X142207137Y-106692665D01*
X141989631Y-106763337D01*
X141785848Y-106867170D01*
X141681696Y-106942842D01*
X141600821Y-107001601D01*
X141600819Y-107001603D01*
X141600818Y-107001603D01*
X141439103Y-107163318D01*
X141439103Y-107163319D01*
X141439101Y-107163321D01*
X141402341Y-107213916D01*
X141304670Y-107348347D01*
X141303229Y-107351178D01*
X141302393Y-107352062D01*
X141302125Y-107352501D01*
X141302032Y-107352444D01*
X141255256Y-107401975D01*
X141192742Y-107418887D01*
X140916940Y-107418887D01*
X140783448Y-107445440D01*
X140783438Y-107445443D01*
X140657690Y-107497529D01*
X140657687Y-107497531D01*
X140544514Y-107573150D01*
X140544507Y-107573156D01*
X138159595Y-109958068D01*
X138098272Y-109991553D01*
X138071914Y-109994387D01*
X136952129Y-109994387D01*
X136952123Y-109994388D01*
X136892516Y-110000795D01*
X136757671Y-110051089D01*
X136757664Y-110051093D01*
X136642455Y-110137339D01*
X136642452Y-110137342D01*
X136556206Y-110252551D01*
X136556202Y-110252558D01*
X136505908Y-110387404D01*
X136499501Y-110447003D01*
X136499500Y-110447022D01*
X136499500Y-112142757D01*
X136499501Y-112142763D01*
X136505908Y-112202370D01*
X136556202Y-112337215D01*
X136556206Y-112337222D01*
X136642452Y-112452431D01*
X136642455Y-112452434D01*
X136757664Y-112538680D01*
X136757671Y-112538684D01*
X136796747Y-112553258D01*
X136892517Y-112588978D01*
X136952127Y-112595387D01*
X136984999Y-112595386D01*
X137052037Y-112615069D01*
X137097793Y-112667871D01*
X137109000Y-112719386D01*
X137109000Y-117568059D01*
X137115210Y-117599279D01*
X137121421Y-117630500D01*
X137135555Y-117701557D01*
X137135556Y-117701559D01*
X137135556Y-117701561D01*
X137187642Y-117827309D01*
X137187644Y-117827312D01*
X137263263Y-117940485D01*
X137263269Y-117940492D01*
X140894859Y-121572080D01*
X140925109Y-121621443D01*
X140972818Y-121768277D01*
X140972821Y-121768284D01*
X141067467Y-121932216D01*
X141139622Y-122012352D01*
X141190019Y-122068324D01*
X141194129Y-122072888D01*
X141282727Y-122137258D01*
X141325391Y-122192585D01*
X141331370Y-122262198D01*
X141298765Y-122323994D01*
X141297521Y-122325255D01*
X137163268Y-126459508D01*
X137110462Y-126538540D01*
X137110460Y-126538542D01*
X137087648Y-126572680D01*
X137087640Y-126572695D01*
X137035556Y-126698438D01*
X137035553Y-126698448D01*
X137009000Y-126831939D01*
X137009000Y-127362415D01*
X136989315Y-127429454D01*
X136972681Y-127450096D01*
X134541765Y-129881011D01*
X134480442Y-129914496D01*
X134432363Y-129913383D01*
X134432025Y-129915306D01*
X134426686Y-129914364D01*
X134200001Y-129894532D01*
X134199998Y-129894532D01*
X133973313Y-129914364D01*
X133973302Y-129914366D01*
X133753511Y-129973258D01*
X133753502Y-129973261D01*
X133547267Y-130069431D01*
X133547265Y-130069432D01*
X133360858Y-130199954D01*
X133199954Y-130360858D01*
X133069432Y-130547265D01*
X133069431Y-130547267D01*
X132973261Y-130753502D01*
X132973258Y-130753511D01*
X132914366Y-130973302D01*
X132914364Y-130973313D01*
X132894532Y-131199998D01*
X132894532Y-131200001D01*
X132914364Y-131426686D01*
X132914366Y-131426697D01*
X132948184Y-131552907D01*
X132946521Y-131622757D01*
X132907358Y-131680619D01*
X132843130Y-131708123D01*
X132828409Y-131709000D01*
X131437584Y-131709000D01*
X131370545Y-131689315D01*
X131349903Y-131672681D01*
X130340492Y-130663269D01*
X130340485Y-130663263D01*
X130227312Y-130587644D01*
X130227309Y-130587642D01*
X130101561Y-130535556D01*
X130101549Y-130535553D01*
X129984929Y-130512356D01*
X129984926Y-130512354D01*
X129984926Y-130512355D01*
X129968058Y-130509000D01*
X129968057Y-130509000D01*
X127748325Y-130509000D01*
X127681286Y-130489315D01*
X127646750Y-130456123D01*
X127580045Y-130360858D01*
X127419141Y-130199954D01*
X127232734Y-130069432D01*
X127232728Y-130069429D01*
X127174725Y-130042382D01*
X127122285Y-129996210D01*
X127103133Y-129929017D01*
X127123348Y-129862135D01*
X127174725Y-129817618D01*
X127232734Y-129790568D01*
X127419139Y-129660047D01*
X127580047Y-129499139D01*
X127710568Y-129312734D01*
X127806739Y-129106496D01*
X127865635Y-128886692D01*
X127885468Y-128660000D01*
X127881475Y-128614365D01*
X127865635Y-128433313D01*
X127865635Y-128433308D01*
X127806739Y-128213504D01*
X127710568Y-128007266D01*
X127580047Y-127820861D01*
X127580045Y-127820858D01*
X127419141Y-127659954D01*
X127232734Y-127529432D01*
X127232732Y-127529431D01*
X127026497Y-127433261D01*
X127026488Y-127433258D01*
X126806697Y-127374366D01*
X126806693Y-127374365D01*
X126806692Y-127374365D01*
X126806691Y-127374364D01*
X126806686Y-127374364D01*
X126580002Y-127354532D01*
X126579998Y-127354532D01*
X126353313Y-127374364D01*
X126353302Y-127374366D01*
X126133511Y-127433258D01*
X126133502Y-127433261D01*
X125927267Y-127529431D01*
X125927265Y-127529432D01*
X125740858Y-127659954D01*
X125579954Y-127820858D01*
X125449432Y-128007265D01*
X125449431Y-128007267D01*
X125353261Y-128213502D01*
X125353258Y-128213511D01*
X125294366Y-128433302D01*
X125294364Y-128433313D01*
X125274532Y-128659998D01*
X116200500Y-128659998D01*
X116200500Y-112377135D01*
X123349500Y-112377135D01*
X123349500Y-114172870D01*
X123349501Y-114172876D01*
X123355908Y-114232483D01*
X123406202Y-114367328D01*
X123406206Y-114367335D01*
X123492452Y-114482544D01*
X123492455Y-114482547D01*
X123607664Y-114568793D01*
X123607671Y-114568797D01*
X123742517Y-114619091D01*
X123742516Y-114619091D01*
X123749444Y-114619835D01*
X123802127Y-114625500D01*
X125597872Y-114625499D01*
X125657483Y-114619091D01*
X125792331Y-114568796D01*
X125907546Y-114482546D01*
X125993796Y-114367331D01*
X126044091Y-114232483D01*
X126050500Y-114172873D01*
X126050500Y-114090000D01*
X126070185Y-114022961D01*
X126122989Y-113977206D01*
X126174500Y-113966000D01*
X127623935Y-113966000D01*
X127690974Y-113985685D01*
X127729662Y-114025210D01*
X127796047Y-114133540D01*
X127796048Y-114133543D01*
X127829639Y-114172873D01*
X127959663Y-114325111D01*
X128017754Y-114374725D01*
X128151230Y-114488725D01*
X128151233Y-114488726D01*
X128366027Y-114620353D01*
X128493873Y-114673308D01*
X128598776Y-114716760D01*
X128843739Y-114775570D01*
X129094887Y-114795336D01*
X129346035Y-114775570D01*
X129590998Y-114716760D01*
X129823746Y-114620353D01*
X130038546Y-114488723D01*
X130230111Y-114325111D01*
X130393723Y-114133546D01*
X130525353Y-113918746D01*
X130621760Y-113685998D01*
X130680570Y-113441035D01*
X130700336Y-113189887D01*
X130680570Y-112938739D01*
X130621760Y-112693776D01*
X130589159Y-112615069D01*
X130525353Y-112461027D01*
X130393726Y-112246233D01*
X130393725Y-112246230D01*
X130339434Y-112182664D01*
X130230111Y-112054663D01*
X130077710Y-111924500D01*
X130038543Y-111891048D01*
X130038540Y-111891047D01*
X129823746Y-111759420D01*
X129590997Y-111663013D01*
X129346038Y-111604204D01*
X129094887Y-111584438D01*
X128843735Y-111604204D01*
X128598776Y-111663013D01*
X128366027Y-111759420D01*
X128151233Y-111891047D01*
X128151230Y-111891048D01*
X127959663Y-112054663D01*
X127796048Y-112246230D01*
X127796047Y-112246233D01*
X127664420Y-112461028D01*
X127664418Y-112461031D01*
X127645191Y-112507452D01*
X127601350Y-112561856D01*
X127535056Y-112583921D01*
X127530630Y-112584000D01*
X126174499Y-112584000D01*
X126107460Y-112564315D01*
X126061705Y-112511511D01*
X126050499Y-112460000D01*
X126050499Y-112377129D01*
X126050498Y-112377123D01*
X126050497Y-112377116D01*
X126044091Y-112317517D01*
X125993796Y-112182669D01*
X125993795Y-112182668D01*
X125993793Y-112182664D01*
X125907547Y-112067455D01*
X125907544Y-112067452D01*
X125792335Y-111981206D01*
X125792328Y-111981202D01*
X125657482Y-111930908D01*
X125657483Y-111930908D01*
X125597883Y-111924501D01*
X125597881Y-111924500D01*
X125597873Y-111924500D01*
X125597864Y-111924500D01*
X123802129Y-111924500D01*
X123802123Y-111924501D01*
X123742516Y-111930908D01*
X123607671Y-111981202D01*
X123607664Y-111981206D01*
X123492455Y-112067452D01*
X123492452Y-112067455D01*
X123406206Y-112182664D01*
X123406202Y-112182671D01*
X123355908Y-112317517D01*
X123353790Y-112337222D01*
X123349501Y-112377123D01*
X123349500Y-112377135D01*
X116200500Y-112377135D01*
X116200500Y-105569879D01*
X156999558Y-105569879D01*
X156999558Y-105569894D01*
X157018851Y-105864250D01*
X157018852Y-105864260D01*
X157018853Y-105864267D01*
X157018855Y-105864277D01*
X157076405Y-106153603D01*
X157076408Y-106153617D01*
X157171236Y-106432967D01*
X157301712Y-106697547D01*
X157301716Y-106697554D01*
X157465612Y-106942842D01*
X157660128Y-107164645D01*
X157881931Y-107359161D01*
X158089014Y-107497529D01*
X158127222Y-107523059D01*
X158391810Y-107653539D01*
X158671165Y-107748368D01*
X158960507Y-107805921D01*
X158988775Y-107807773D01*
X159254880Y-107825216D01*
X159254887Y-107825216D01*
X159254894Y-107825216D01*
X159490562Y-107809768D01*
X159549267Y-107805921D01*
X159838609Y-107748368D01*
X160117964Y-107653539D01*
X160382552Y-107523059D01*
X160627844Y-107359160D01*
X160849645Y-107164645D01*
X161044160Y-106942844D01*
X161208059Y-106697552D01*
X161338539Y-106432964D01*
X161433368Y-106153609D01*
X161490921Y-105864267D01*
X161510216Y-105569887D01*
X161510216Y-105569879D01*
X161490922Y-105275523D01*
X161490921Y-105275507D01*
X161433368Y-104986165D01*
X161338539Y-104706810D01*
X161208059Y-104442223D01*
X161197341Y-104426183D01*
X161095445Y-104273684D01*
X161044160Y-104196930D01*
X160934790Y-104072218D01*
X160849645Y-103975128D01*
X160627842Y-103780612D01*
X160382554Y-103616716D01*
X160382547Y-103616712D01*
X160117967Y-103486236D01*
X159838617Y-103391408D01*
X159838611Y-103391406D01*
X159838609Y-103391406D01*
X159549267Y-103333853D01*
X159549260Y-103333852D01*
X159549250Y-103333851D01*
X159254894Y-103314558D01*
X159254880Y-103314558D01*
X158960523Y-103333851D01*
X158960511Y-103333852D01*
X158960507Y-103333853D01*
X158960499Y-103333854D01*
X158960496Y-103333855D01*
X158671170Y-103391405D01*
X158671156Y-103391408D01*
X158391806Y-103486236D01*
X158127221Y-103616715D01*
X157881928Y-103780615D01*
X157660128Y-103975128D01*
X157465615Y-104196928D01*
X157301715Y-104442221D01*
X157171236Y-104706806D01*
X157076408Y-104986156D01*
X157076405Y-104986170D01*
X157018855Y-105275496D01*
X157018851Y-105275523D01*
X156999558Y-105569879D01*
X116200500Y-105569879D01*
X116200500Y-103202424D01*
X116200596Y-103197556D01*
X116202067Y-103160118D01*
X116218186Y-102749847D01*
X116218949Y-102740149D01*
X116271331Y-102297571D01*
X116272849Y-102287987D01*
X116353602Y-101882022D01*
X127494387Y-101882022D01*
X127494387Y-104177757D01*
X127494388Y-104177763D01*
X127500795Y-104237370D01*
X127551089Y-104372215D01*
X127551093Y-104372222D01*
X127637339Y-104487431D01*
X127637342Y-104487434D01*
X127752551Y-104573680D01*
X127752558Y-104573684D01*
X127887404Y-104623978D01*
X127887403Y-104623978D01*
X127894331Y-104624722D01*
X127947014Y-104630387D01*
X130242759Y-104630386D01*
X130302370Y-104623978D01*
X130437218Y-104573683D01*
X130552433Y-104487433D01*
X130638683Y-104372218D01*
X130688978Y-104237370D01*
X130695387Y-104177760D01*
X130695387Y-103844887D01*
X130715072Y-103777848D01*
X130767876Y-103732093D01*
X130819387Y-103720887D01*
X135170388Y-103720887D01*
X135237427Y-103740572D01*
X135283182Y-103793376D01*
X135294388Y-103844887D01*
X135294388Y-103877763D01*
X135300795Y-103937370D01*
X135351089Y-104072215D01*
X135351093Y-104072222D01*
X135437339Y-104187431D01*
X135437342Y-104187434D01*
X135552551Y-104273680D01*
X135552558Y-104273684D01*
X135687404Y-104323978D01*
X135687403Y-104323978D01*
X135694331Y-104324722D01*
X135747014Y-104330387D01*
X137442759Y-104330386D01*
X137502370Y-104323978D01*
X137637218Y-104273683D01*
X137752433Y-104187433D01*
X137838683Y-104072218D01*
X137888978Y-103937370D01*
X137895387Y-103877760D01*
X137895387Y-103844887D01*
X137915072Y-103777848D01*
X137967876Y-103732093D01*
X138019387Y-103720887D01*
X140970388Y-103720887D01*
X141037427Y-103740572D01*
X141083182Y-103793376D01*
X141094388Y-103844887D01*
X141094388Y-104030263D01*
X141100795Y-104089870D01*
X141151089Y-104224715D01*
X141151093Y-104224722D01*
X141237339Y-104339931D01*
X141237342Y-104339934D01*
X141352551Y-104426180D01*
X141352558Y-104426184D01*
X141487404Y-104476478D01*
X141487403Y-104476478D01*
X141494331Y-104477222D01*
X141547014Y-104482887D01*
X143642759Y-104482886D01*
X143702370Y-104476478D01*
X143837218Y-104426183D01*
X143952433Y-104339933D01*
X144038683Y-104224718D01*
X144088978Y-104089870D01*
X144095387Y-104030260D01*
X144095386Y-102029515D01*
X144088978Y-101969904D01*
X144052589Y-101872341D01*
X144038684Y-101835058D01*
X144038680Y-101835051D01*
X143952434Y-101719842D01*
X143952431Y-101719839D01*
X143837222Y-101633593D01*
X143837215Y-101633589D01*
X143702369Y-101583295D01*
X143702370Y-101583295D01*
X143642770Y-101576888D01*
X143642768Y-101576887D01*
X143642760Y-101576887D01*
X143642751Y-101576887D01*
X141547016Y-101576887D01*
X141547010Y-101576888D01*
X141487403Y-101583295D01*
X141352558Y-101633589D01*
X141352551Y-101633593D01*
X141237342Y-101719839D01*
X141237339Y-101719842D01*
X141151093Y-101835051D01*
X141151089Y-101835058D01*
X141100795Y-101969904D01*
X141094388Y-102029503D01*
X141094388Y-102029510D01*
X141094387Y-102029522D01*
X141094387Y-102214887D01*
X141074702Y-102281926D01*
X141021898Y-102327681D01*
X140970387Y-102338887D01*
X138019386Y-102338887D01*
X137952347Y-102319202D01*
X137906592Y-102266398D01*
X137895386Y-102214887D01*
X137895386Y-102182016D01*
X137895385Y-102182010D01*
X137895384Y-102182003D01*
X137888978Y-102122404D01*
X137860648Y-102046448D01*
X137838684Y-101987558D01*
X137838680Y-101987551D01*
X137752434Y-101872342D01*
X137752431Y-101872339D01*
X137637222Y-101786093D01*
X137637215Y-101786089D01*
X137502369Y-101735795D01*
X137502370Y-101735795D01*
X137442770Y-101729388D01*
X137442768Y-101729387D01*
X137442760Y-101729387D01*
X137442751Y-101729387D01*
X135747016Y-101729387D01*
X135747010Y-101729388D01*
X135687403Y-101735795D01*
X135552558Y-101786089D01*
X135552551Y-101786093D01*
X135437342Y-101872339D01*
X135437339Y-101872342D01*
X135351093Y-101987551D01*
X135351089Y-101987558D01*
X135300795Y-102122404D01*
X135294388Y-102182003D01*
X135294388Y-102182010D01*
X135294387Y-102182022D01*
X135294387Y-102214887D01*
X135274702Y-102281926D01*
X135221898Y-102327681D01*
X135170387Y-102338887D01*
X130819386Y-102338887D01*
X130752347Y-102319202D01*
X130706592Y-102266398D01*
X130695386Y-102214887D01*
X130695386Y-101882016D01*
X130695385Y-101882010D01*
X130695384Y-101882003D01*
X130688978Y-101822404D01*
X130675433Y-101786089D01*
X130638684Y-101687558D01*
X130638680Y-101687551D01*
X130552434Y-101572342D01*
X130552431Y-101572339D01*
X130437222Y-101486093D01*
X130437215Y-101486089D01*
X130302369Y-101435795D01*
X130302370Y-101435795D01*
X130242770Y-101429388D01*
X130242768Y-101429387D01*
X130242760Y-101429387D01*
X130242751Y-101429387D01*
X127947016Y-101429387D01*
X127947010Y-101429388D01*
X127887403Y-101435795D01*
X127752558Y-101486089D01*
X127752551Y-101486093D01*
X127637342Y-101572339D01*
X127637339Y-101572342D01*
X127551093Y-101687551D01*
X127551089Y-101687558D01*
X127500795Y-101822404D01*
X127495427Y-101872339D01*
X127494388Y-101882010D01*
X127494387Y-101882022D01*
X116353602Y-101882022D01*
X116359793Y-101850897D01*
X116362063Y-101841445D01*
X116483027Y-101412538D01*
X116486032Y-101403290D01*
X116579228Y-101150672D01*
X116640278Y-100985188D01*
X116643993Y-100976217D01*
X116830577Y-100571485D01*
X116834988Y-100562832D01*
X117052736Y-100174016D01*
X117057823Y-100165714D01*
X117236151Y-99898827D01*
X117305409Y-99795173D01*
X117311110Y-99787327D01*
X117587026Y-99437331D01*
X117593318Y-99429964D01*
X117895845Y-99102691D01*
X117902691Y-99095845D01*
X118229964Y-98793318D01*
X118237331Y-98787026D01*
X118587327Y-98511110D01*
X118595173Y-98505409D01*
X118965716Y-98257821D01*
X118974016Y-98252736D01*
X119362832Y-98034988D01*
X119371485Y-98030577D01*
X119776217Y-97843993D01*
X119785188Y-97840278D01*
X120203301Y-97686028D01*
X120212538Y-97683027D01*
X120641455Y-97562060D01*
X120650897Y-97559793D01*
X121087987Y-97472849D01*
X121097571Y-97471331D01*
X121540156Y-97418948D01*
X121549847Y-97418186D01*
X121997557Y-97400596D01*
X122002425Y-97400500D01*
X122039882Y-97400500D01*
X185960118Y-97400500D01*
X185997575Y-97400500D01*
X186002443Y-97400596D01*
G37*
%TD.AperFunction*%
%TD*%
M02*
