%TF.GenerationSoftware,KiCad,Pcbnew,8.0.3*%
%TF.CreationDate,2024-10-06T22:02:56-03:00*%
%TF.ProjectId,digital_dice,64696769-7461-46c5-9f64-6963652e6b69,rev?*%
%TF.SameCoordinates,Original*%
%TF.FileFunction,Legend,Top*%
%TF.FilePolarity,Positive*%
%FSLAX46Y46*%
G04 Gerber Fmt 4.6, Leading zero omitted, Abs format (unit mm)*
G04 Created by KiCad (PCBNEW 8.0.3) date 2024-10-06 22:02:56*
%MOMM*%
%LPD*%
G01*
G04 APERTURE LIST*
%ADD10C,0.150000*%
%ADD11C,1.060000*%
%ADD12C,0.120000*%
G04 APERTURE END LIST*
D10*
X173465350Y-106703152D02*
X173465350Y-107512676D01*
X173465350Y-107512676D02*
X173417731Y-107607914D01*
X173417731Y-107607914D02*
X173370112Y-107655533D01*
X173370112Y-107655533D02*
X173274874Y-107703152D01*
X173274874Y-107703152D02*
X173132017Y-107703152D01*
X173132017Y-107703152D02*
X173036779Y-107655533D01*
X173465350Y-107322200D02*
X173370112Y-107369819D01*
X173370112Y-107369819D02*
X173179636Y-107369819D01*
X173179636Y-107369819D02*
X173084398Y-107322200D01*
X173084398Y-107322200D02*
X173036779Y-107274580D01*
X173036779Y-107274580D02*
X172989160Y-107179342D01*
X172989160Y-107179342D02*
X172989160Y-106893628D01*
X172989160Y-106893628D02*
X173036779Y-106798390D01*
X173036779Y-106798390D02*
X173084398Y-106750771D01*
X173084398Y-106750771D02*
X173179636Y-106703152D01*
X173179636Y-106703152D02*
X173370112Y-106703152D01*
X173370112Y-106703152D02*
X173465350Y-106750771D01*
X177793922Y-108103152D02*
X178174874Y-108103152D01*
X177936779Y-108769819D02*
X177936779Y-107912676D01*
X177936779Y-107912676D02*
X177984398Y-107817438D01*
X177984398Y-107817438D02*
X178079636Y-107769819D01*
X178079636Y-107769819D02*
X178174874Y-107769819D01*
X178417731Y-105722200D02*
X178322493Y-105769819D01*
X178322493Y-105769819D02*
X178132017Y-105769819D01*
X178132017Y-105769819D02*
X178036779Y-105722200D01*
X178036779Y-105722200D02*
X177989160Y-105626961D01*
X177989160Y-105626961D02*
X177989160Y-105246009D01*
X177989160Y-105246009D02*
X178036779Y-105150771D01*
X178036779Y-105150771D02*
X178132017Y-105103152D01*
X178132017Y-105103152D02*
X178322493Y-105103152D01*
X178322493Y-105103152D02*
X178417731Y-105150771D01*
X178417731Y-105150771D02*
X178465350Y-105246009D01*
X178465350Y-105246009D02*
X178465350Y-105341247D01*
X178465350Y-105341247D02*
X177989160Y-105436485D01*
X178365350Y-102769819D02*
X178365350Y-101769819D01*
X178365350Y-102722200D02*
X178270112Y-102769819D01*
X178270112Y-102769819D02*
X178079636Y-102769819D01*
X178079636Y-102769819D02*
X177984398Y-102722200D01*
X177984398Y-102722200D02*
X177936779Y-102674580D01*
X177936779Y-102674580D02*
X177889160Y-102579342D01*
X177889160Y-102579342D02*
X177889160Y-102293628D01*
X177889160Y-102293628D02*
X177936779Y-102198390D01*
X177936779Y-102198390D02*
X177984398Y-102150771D01*
X177984398Y-102150771D02*
X178079636Y-102103152D01*
X178079636Y-102103152D02*
X178270112Y-102103152D01*
X178270112Y-102103152D02*
X178365350Y-102150771D01*
X168565350Y-108622200D02*
X168470112Y-108669819D01*
X168470112Y-108669819D02*
X168279636Y-108669819D01*
X168279636Y-108669819D02*
X168184398Y-108622200D01*
X168184398Y-108622200D02*
X168136779Y-108574580D01*
X168136779Y-108574580D02*
X168089160Y-108479342D01*
X168089160Y-108479342D02*
X168089160Y-108193628D01*
X168089160Y-108193628D02*
X168136779Y-108098390D01*
X168136779Y-108098390D02*
X168184398Y-108050771D01*
X168184398Y-108050771D02*
X168279636Y-108003152D01*
X168279636Y-108003152D02*
X168470112Y-108003152D01*
X168470112Y-108003152D02*
X168565350Y-108050771D01*
X168136779Y-105769819D02*
X168136779Y-104769819D01*
X168136779Y-105150771D02*
X168232017Y-105103152D01*
X168232017Y-105103152D02*
X168422493Y-105103152D01*
X168422493Y-105103152D02*
X168517731Y-105150771D01*
X168517731Y-105150771D02*
X168565350Y-105198390D01*
X168565350Y-105198390D02*
X168612969Y-105293628D01*
X168612969Y-105293628D02*
X168612969Y-105579342D01*
X168612969Y-105579342D02*
X168565350Y-105674580D01*
X168565350Y-105674580D02*
X168517731Y-105722200D01*
X168517731Y-105722200D02*
X168422493Y-105769819D01*
X168422493Y-105769819D02*
X168232017Y-105769819D01*
X168232017Y-105769819D02*
X168136779Y-105722200D01*
X168565350Y-102669819D02*
X168565350Y-102146009D01*
X168565350Y-102146009D02*
X168517731Y-102050771D01*
X168517731Y-102050771D02*
X168422493Y-102003152D01*
X168422493Y-102003152D02*
X168232017Y-102003152D01*
X168232017Y-102003152D02*
X168136779Y-102050771D01*
X168565350Y-102622200D02*
X168470112Y-102669819D01*
X168470112Y-102669819D02*
X168232017Y-102669819D01*
X168232017Y-102669819D02*
X168136779Y-102622200D01*
X168136779Y-102622200D02*
X168089160Y-102526961D01*
X168089160Y-102526961D02*
X168089160Y-102431723D01*
X168089160Y-102431723D02*
X168136779Y-102336485D01*
X168136779Y-102336485D02*
X168232017Y-102288866D01*
X168232017Y-102288866D02*
X168470112Y-102288866D01*
X168470112Y-102288866D02*
X168565350Y-102241247D01*
D11*
X176730000Y-108400000D02*
G75*
G02*
X175670000Y-108400000I-530000J0D01*
G01*
X175670000Y-108400000D02*
G75*
G02*
X176730000Y-108400000I530000J0D01*
G01*
X176730000Y-105400000D02*
G75*
G02*
X175670000Y-105400000I-530000J0D01*
G01*
X175670000Y-105400000D02*
G75*
G02*
X176730000Y-105400000I530000J0D01*
G01*
X176730000Y-102400000D02*
G75*
G02*
X175670000Y-102400000I-530000J0D01*
G01*
X175670000Y-102400000D02*
G75*
G02*
X176730000Y-102400000I530000J0D01*
G01*
X173730000Y-105400000D02*
G75*
G02*
X172670000Y-105400000I-530000J0D01*
G01*
X172670000Y-105400000D02*
G75*
G02*
X173730000Y-105400000I530000J0D01*
G01*
X170730000Y-108400000D02*
G75*
G02*
X169670000Y-108400000I-530000J0D01*
G01*
X169670000Y-108400000D02*
G75*
G02*
X170730000Y-108400000I530000J0D01*
G01*
X170730000Y-105400000D02*
G75*
G02*
X169670000Y-105400000I-530000J0D01*
G01*
X169670000Y-105400000D02*
G75*
G02*
X170730000Y-105400000I530000J0D01*
G01*
X170730000Y-102400000D02*
G75*
G02*
X169670000Y-102400000I-530000J0D01*
G01*
X169670000Y-102400000D02*
G75*
G02*
X170730000Y-102400000I530000J0D01*
G01*
D10*
X123533333Y-120189819D02*
X123533333Y-119189819D01*
X123533333Y-119189819D02*
X123771428Y-119189819D01*
X123771428Y-119189819D02*
X123914285Y-119237438D01*
X123914285Y-119237438D02*
X124009523Y-119332676D01*
X124009523Y-119332676D02*
X124057142Y-119427914D01*
X124057142Y-119427914D02*
X124104761Y-119618390D01*
X124104761Y-119618390D02*
X124104761Y-119761247D01*
X124104761Y-119761247D02*
X124057142Y-119951723D01*
X124057142Y-119951723D02*
X124009523Y-120046961D01*
X124009523Y-120046961D02*
X123914285Y-120142200D01*
X123914285Y-120142200D02*
X123771428Y-120189819D01*
X123771428Y-120189819D02*
X123533333Y-120189819D01*
X124533333Y-120189819D02*
X124533333Y-119523152D01*
X124533333Y-119189819D02*
X124485714Y-119237438D01*
X124485714Y-119237438D02*
X124533333Y-119285057D01*
X124533333Y-119285057D02*
X124580952Y-119237438D01*
X124580952Y-119237438D02*
X124533333Y-119189819D01*
X124533333Y-119189819D02*
X124533333Y-119285057D01*
X125438094Y-119523152D02*
X125438094Y-120332676D01*
X125438094Y-120332676D02*
X125390475Y-120427914D01*
X125390475Y-120427914D02*
X125342856Y-120475533D01*
X125342856Y-120475533D02*
X125247618Y-120523152D01*
X125247618Y-120523152D02*
X125104761Y-120523152D01*
X125104761Y-120523152D02*
X125009523Y-120475533D01*
X125438094Y-120142200D02*
X125342856Y-120189819D01*
X125342856Y-120189819D02*
X125152380Y-120189819D01*
X125152380Y-120189819D02*
X125057142Y-120142200D01*
X125057142Y-120142200D02*
X125009523Y-120094580D01*
X125009523Y-120094580D02*
X124961904Y-119999342D01*
X124961904Y-119999342D02*
X124961904Y-119713628D01*
X124961904Y-119713628D02*
X125009523Y-119618390D01*
X125009523Y-119618390D02*
X125057142Y-119570771D01*
X125057142Y-119570771D02*
X125152380Y-119523152D01*
X125152380Y-119523152D02*
X125342856Y-119523152D01*
X125342856Y-119523152D02*
X125438094Y-119570771D01*
X125914285Y-120189819D02*
X125914285Y-119523152D01*
X125914285Y-119189819D02*
X125866666Y-119237438D01*
X125866666Y-119237438D02*
X125914285Y-119285057D01*
X125914285Y-119285057D02*
X125961904Y-119237438D01*
X125961904Y-119237438D02*
X125914285Y-119189819D01*
X125914285Y-119189819D02*
X125914285Y-119285057D01*
X126247618Y-119523152D02*
X126628570Y-119523152D01*
X126390475Y-119189819D02*
X126390475Y-120046961D01*
X126390475Y-120046961D02*
X126438094Y-120142200D01*
X126438094Y-120142200D02*
X126533332Y-120189819D01*
X126533332Y-120189819D02*
X126628570Y-120189819D01*
X127390475Y-120189819D02*
X127390475Y-119666009D01*
X127390475Y-119666009D02*
X127342856Y-119570771D01*
X127342856Y-119570771D02*
X127247618Y-119523152D01*
X127247618Y-119523152D02*
X127057142Y-119523152D01*
X127057142Y-119523152D02*
X126961904Y-119570771D01*
X127390475Y-120142200D02*
X127295237Y-120189819D01*
X127295237Y-120189819D02*
X127057142Y-120189819D01*
X127057142Y-120189819D02*
X126961904Y-120142200D01*
X126961904Y-120142200D02*
X126914285Y-120046961D01*
X126914285Y-120046961D02*
X126914285Y-119951723D01*
X126914285Y-119951723D02*
X126961904Y-119856485D01*
X126961904Y-119856485D02*
X127057142Y-119808866D01*
X127057142Y-119808866D02*
X127295237Y-119808866D01*
X127295237Y-119808866D02*
X127390475Y-119761247D01*
X128009523Y-120189819D02*
X127914285Y-120142200D01*
X127914285Y-120142200D02*
X127866666Y-120046961D01*
X127866666Y-120046961D02*
X127866666Y-119189819D01*
X129152381Y-120189819D02*
X129152381Y-119189819D01*
X129152381Y-119189819D02*
X129390476Y-119189819D01*
X129390476Y-119189819D02*
X129533333Y-119237438D01*
X129533333Y-119237438D02*
X129628571Y-119332676D01*
X129628571Y-119332676D02*
X129676190Y-119427914D01*
X129676190Y-119427914D02*
X129723809Y-119618390D01*
X129723809Y-119618390D02*
X129723809Y-119761247D01*
X129723809Y-119761247D02*
X129676190Y-119951723D01*
X129676190Y-119951723D02*
X129628571Y-120046961D01*
X129628571Y-120046961D02*
X129533333Y-120142200D01*
X129533333Y-120142200D02*
X129390476Y-120189819D01*
X129390476Y-120189819D02*
X129152381Y-120189819D01*
X130152381Y-120189819D02*
X130152381Y-119523152D01*
X130152381Y-119189819D02*
X130104762Y-119237438D01*
X130104762Y-119237438D02*
X130152381Y-119285057D01*
X130152381Y-119285057D02*
X130200000Y-119237438D01*
X130200000Y-119237438D02*
X130152381Y-119189819D01*
X130152381Y-119189819D02*
X130152381Y-119285057D01*
X131057142Y-120142200D02*
X130961904Y-120189819D01*
X130961904Y-120189819D02*
X130771428Y-120189819D01*
X130771428Y-120189819D02*
X130676190Y-120142200D01*
X130676190Y-120142200D02*
X130628571Y-120094580D01*
X130628571Y-120094580D02*
X130580952Y-119999342D01*
X130580952Y-119999342D02*
X130580952Y-119713628D01*
X130580952Y-119713628D02*
X130628571Y-119618390D01*
X130628571Y-119618390D02*
X130676190Y-119570771D01*
X130676190Y-119570771D02*
X130771428Y-119523152D01*
X130771428Y-119523152D02*
X130961904Y-119523152D01*
X130961904Y-119523152D02*
X131057142Y-119570771D01*
X131866666Y-120142200D02*
X131771428Y-120189819D01*
X131771428Y-120189819D02*
X131580952Y-120189819D01*
X131580952Y-120189819D02*
X131485714Y-120142200D01*
X131485714Y-120142200D02*
X131438095Y-120046961D01*
X131438095Y-120046961D02*
X131438095Y-119666009D01*
X131438095Y-119666009D02*
X131485714Y-119570771D01*
X131485714Y-119570771D02*
X131580952Y-119523152D01*
X131580952Y-119523152D02*
X131771428Y-119523152D01*
X131771428Y-119523152D02*
X131866666Y-119570771D01*
X131866666Y-119570771D02*
X131914285Y-119666009D01*
X131914285Y-119666009D02*
X131914285Y-119761247D01*
X131914285Y-119761247D02*
X131438095Y-119856485D01*
X121366666Y-121799763D02*
X121366666Y-120799763D01*
X121366666Y-120799763D02*
X121699999Y-121514048D01*
X121699999Y-121514048D02*
X122033332Y-120799763D01*
X122033332Y-120799763D02*
X122033332Y-121799763D01*
X122938094Y-121799763D02*
X122938094Y-121275953D01*
X122938094Y-121275953D02*
X122890475Y-121180715D01*
X122890475Y-121180715D02*
X122795237Y-121133096D01*
X122795237Y-121133096D02*
X122604761Y-121133096D01*
X122604761Y-121133096D02*
X122509523Y-121180715D01*
X122938094Y-121752144D02*
X122842856Y-121799763D01*
X122842856Y-121799763D02*
X122604761Y-121799763D01*
X122604761Y-121799763D02*
X122509523Y-121752144D01*
X122509523Y-121752144D02*
X122461904Y-121656905D01*
X122461904Y-121656905D02*
X122461904Y-121561667D01*
X122461904Y-121561667D02*
X122509523Y-121466429D01*
X122509523Y-121466429D02*
X122604761Y-121418810D01*
X122604761Y-121418810D02*
X122842856Y-121418810D01*
X122842856Y-121418810D02*
X122938094Y-121371191D01*
X123414285Y-121799763D02*
X123414285Y-121133096D01*
X123414285Y-121323572D02*
X123461904Y-121228334D01*
X123461904Y-121228334D02*
X123509523Y-121180715D01*
X123509523Y-121180715D02*
X123604761Y-121133096D01*
X123604761Y-121133096D02*
X123699999Y-121133096D01*
X124461904Y-121752144D02*
X124366666Y-121799763D01*
X124366666Y-121799763D02*
X124176190Y-121799763D01*
X124176190Y-121799763D02*
X124080952Y-121752144D01*
X124080952Y-121752144D02*
X124033333Y-121704524D01*
X124033333Y-121704524D02*
X123985714Y-121609286D01*
X123985714Y-121609286D02*
X123985714Y-121323572D01*
X123985714Y-121323572D02*
X124033333Y-121228334D01*
X124033333Y-121228334D02*
X124080952Y-121180715D01*
X124080952Y-121180715D02*
X124176190Y-121133096D01*
X124176190Y-121133096D02*
X124366666Y-121133096D01*
X124366666Y-121133096D02*
X124461904Y-121180715D01*
X125033333Y-121799763D02*
X124938095Y-121752144D01*
X124938095Y-121752144D02*
X124890476Y-121704524D01*
X124890476Y-121704524D02*
X124842857Y-121609286D01*
X124842857Y-121609286D02*
X124842857Y-121323572D01*
X124842857Y-121323572D02*
X124890476Y-121228334D01*
X124890476Y-121228334D02*
X124938095Y-121180715D01*
X124938095Y-121180715D02*
X125033333Y-121133096D01*
X125033333Y-121133096D02*
X125176190Y-121133096D01*
X125176190Y-121133096D02*
X125271428Y-121180715D01*
X125271428Y-121180715D02*
X125319047Y-121228334D01*
X125319047Y-121228334D02*
X125366666Y-121323572D01*
X125366666Y-121323572D02*
X125366666Y-121609286D01*
X125366666Y-121609286D02*
X125319047Y-121704524D01*
X125319047Y-121704524D02*
X125271428Y-121752144D01*
X125271428Y-121752144D02*
X125176190Y-121799763D01*
X125176190Y-121799763D02*
X125033333Y-121799763D01*
X125747619Y-121752144D02*
X125842857Y-121799763D01*
X125842857Y-121799763D02*
X126033333Y-121799763D01*
X126033333Y-121799763D02*
X126128571Y-121752144D01*
X126128571Y-121752144D02*
X126176190Y-121656905D01*
X126176190Y-121656905D02*
X126176190Y-121609286D01*
X126176190Y-121609286D02*
X126128571Y-121514048D01*
X126128571Y-121514048D02*
X126033333Y-121466429D01*
X126033333Y-121466429D02*
X125890476Y-121466429D01*
X125890476Y-121466429D02*
X125795238Y-121418810D01*
X125795238Y-121418810D02*
X125747619Y-121323572D01*
X125747619Y-121323572D02*
X125747619Y-121275953D01*
X125747619Y-121275953D02*
X125795238Y-121180715D01*
X125795238Y-121180715D02*
X125890476Y-121133096D01*
X125890476Y-121133096D02*
X126033333Y-121133096D01*
X126033333Y-121133096D02*
X126128571Y-121180715D01*
X127557143Y-121323572D02*
X127557143Y-121799763D01*
X127223810Y-120799763D02*
X127557143Y-121323572D01*
X127557143Y-121323572D02*
X127890476Y-120799763D01*
X128366667Y-121799763D02*
X128271429Y-121752144D01*
X128271429Y-121752144D02*
X128223810Y-121704524D01*
X128223810Y-121704524D02*
X128176191Y-121609286D01*
X128176191Y-121609286D02*
X128176191Y-121323572D01*
X128176191Y-121323572D02*
X128223810Y-121228334D01*
X128223810Y-121228334D02*
X128271429Y-121180715D01*
X128271429Y-121180715D02*
X128366667Y-121133096D01*
X128366667Y-121133096D02*
X128509524Y-121133096D01*
X128509524Y-121133096D02*
X128604762Y-121180715D01*
X128604762Y-121180715D02*
X128652381Y-121228334D01*
X128652381Y-121228334D02*
X128700000Y-121323572D01*
X128700000Y-121323572D02*
X128700000Y-121609286D01*
X128700000Y-121609286D02*
X128652381Y-121704524D01*
X128652381Y-121704524D02*
X128604762Y-121752144D01*
X128604762Y-121752144D02*
X128509524Y-121799763D01*
X128509524Y-121799763D02*
X128366667Y-121799763D01*
X129128572Y-121133096D02*
X129128572Y-121799763D01*
X129128572Y-121228334D02*
X129176191Y-121180715D01*
X129176191Y-121180715D02*
X129271429Y-121133096D01*
X129271429Y-121133096D02*
X129414286Y-121133096D01*
X129414286Y-121133096D02*
X129509524Y-121180715D01*
X129509524Y-121180715D02*
X129557143Y-121275953D01*
X129557143Y-121275953D02*
X129557143Y-121799763D01*
X130461905Y-121799763D02*
X130461905Y-121275953D01*
X130461905Y-121275953D02*
X130414286Y-121180715D01*
X130414286Y-121180715D02*
X130319048Y-121133096D01*
X130319048Y-121133096D02*
X130128572Y-121133096D01*
X130128572Y-121133096D02*
X130033334Y-121180715D01*
X130461905Y-121752144D02*
X130366667Y-121799763D01*
X130366667Y-121799763D02*
X130128572Y-121799763D01*
X130128572Y-121799763D02*
X130033334Y-121752144D01*
X130033334Y-121752144D02*
X129985715Y-121656905D01*
X129985715Y-121656905D02*
X129985715Y-121561667D01*
X129985715Y-121561667D02*
X130033334Y-121466429D01*
X130033334Y-121466429D02*
X130128572Y-121418810D01*
X130128572Y-121418810D02*
X130366667Y-121418810D01*
X130366667Y-121418810D02*
X130461905Y-121371191D01*
X130938096Y-121799763D02*
X130938096Y-121133096D01*
X130938096Y-121228334D02*
X130985715Y-121180715D01*
X130985715Y-121180715D02*
X131080953Y-121133096D01*
X131080953Y-121133096D02*
X131223810Y-121133096D01*
X131223810Y-121133096D02*
X131319048Y-121180715D01*
X131319048Y-121180715D02*
X131366667Y-121275953D01*
X131366667Y-121275953D02*
X131366667Y-121799763D01*
X131366667Y-121275953D02*
X131414286Y-121180715D01*
X131414286Y-121180715D02*
X131509524Y-121133096D01*
X131509524Y-121133096D02*
X131652381Y-121133096D01*
X131652381Y-121133096D02*
X131747620Y-121180715D01*
X131747620Y-121180715D02*
X131795239Y-121275953D01*
X131795239Y-121275953D02*
X131795239Y-121799763D01*
X132271429Y-121799763D02*
X132271429Y-121133096D01*
X132271429Y-120799763D02*
X132223810Y-120847382D01*
X132223810Y-120847382D02*
X132271429Y-120895001D01*
X132271429Y-120895001D02*
X132319048Y-120847382D01*
X132319048Y-120847382D02*
X132271429Y-120799763D01*
X132271429Y-120799763D02*
X132271429Y-120895001D01*
X132747619Y-121133096D02*
X132747619Y-121799763D01*
X132747619Y-121228334D02*
X132795238Y-121180715D01*
X132795238Y-121180715D02*
X132890476Y-121133096D01*
X132890476Y-121133096D02*
X133033333Y-121133096D01*
X133033333Y-121133096D02*
X133128571Y-121180715D01*
X133128571Y-121180715D02*
X133176190Y-121275953D01*
X133176190Y-121275953D02*
X133176190Y-121799763D01*
X134033333Y-121752144D02*
X133938095Y-121799763D01*
X133938095Y-121799763D02*
X133747619Y-121799763D01*
X133747619Y-121799763D02*
X133652381Y-121752144D01*
X133652381Y-121752144D02*
X133604762Y-121656905D01*
X133604762Y-121656905D02*
X133604762Y-121275953D01*
X133604762Y-121275953D02*
X133652381Y-121180715D01*
X133652381Y-121180715D02*
X133747619Y-121133096D01*
X133747619Y-121133096D02*
X133938095Y-121133096D01*
X133938095Y-121133096D02*
X134033333Y-121180715D01*
X134033333Y-121180715D02*
X134080952Y-121275953D01*
X134080952Y-121275953D02*
X134080952Y-121371191D01*
X134080952Y-121371191D02*
X133604762Y-121466429D01*
X125080952Y-123409707D02*
X124509524Y-123409707D01*
X124795238Y-123409707D02*
X124795238Y-122409707D01*
X124795238Y-122409707D02*
X124700000Y-122552564D01*
X124700000Y-122552564D02*
X124604762Y-122647802D01*
X124604762Y-122647802D02*
X124509524Y-122695421D01*
X125700000Y-122409707D02*
X125795238Y-122409707D01*
X125795238Y-122409707D02*
X125890476Y-122457326D01*
X125890476Y-122457326D02*
X125938095Y-122504945D01*
X125938095Y-122504945D02*
X125985714Y-122600183D01*
X125985714Y-122600183D02*
X126033333Y-122790659D01*
X126033333Y-122790659D02*
X126033333Y-123028754D01*
X126033333Y-123028754D02*
X125985714Y-123219230D01*
X125985714Y-123219230D02*
X125938095Y-123314468D01*
X125938095Y-123314468D02*
X125890476Y-123362088D01*
X125890476Y-123362088D02*
X125795238Y-123409707D01*
X125795238Y-123409707D02*
X125700000Y-123409707D01*
X125700000Y-123409707D02*
X125604762Y-123362088D01*
X125604762Y-123362088D02*
X125557143Y-123314468D01*
X125557143Y-123314468D02*
X125509524Y-123219230D01*
X125509524Y-123219230D02*
X125461905Y-123028754D01*
X125461905Y-123028754D02*
X125461905Y-122790659D01*
X125461905Y-122790659D02*
X125509524Y-122600183D01*
X125509524Y-122600183D02*
X125557143Y-122504945D01*
X125557143Y-122504945D02*
X125604762Y-122457326D01*
X125604762Y-122457326D02*
X125700000Y-122409707D01*
X127176190Y-122362088D02*
X126319048Y-123647802D01*
X127461905Y-122504945D02*
X127509524Y-122457326D01*
X127509524Y-122457326D02*
X127604762Y-122409707D01*
X127604762Y-122409707D02*
X127842857Y-122409707D01*
X127842857Y-122409707D02*
X127938095Y-122457326D01*
X127938095Y-122457326D02*
X127985714Y-122504945D01*
X127985714Y-122504945D02*
X128033333Y-122600183D01*
X128033333Y-122600183D02*
X128033333Y-122695421D01*
X128033333Y-122695421D02*
X127985714Y-122838278D01*
X127985714Y-122838278D02*
X127414286Y-123409707D01*
X127414286Y-123409707D02*
X128033333Y-123409707D01*
X128652381Y-122409707D02*
X128747619Y-122409707D01*
X128747619Y-122409707D02*
X128842857Y-122457326D01*
X128842857Y-122457326D02*
X128890476Y-122504945D01*
X128890476Y-122504945D02*
X128938095Y-122600183D01*
X128938095Y-122600183D02*
X128985714Y-122790659D01*
X128985714Y-122790659D02*
X128985714Y-123028754D01*
X128985714Y-123028754D02*
X128938095Y-123219230D01*
X128938095Y-123219230D02*
X128890476Y-123314468D01*
X128890476Y-123314468D02*
X128842857Y-123362088D01*
X128842857Y-123362088D02*
X128747619Y-123409707D01*
X128747619Y-123409707D02*
X128652381Y-123409707D01*
X128652381Y-123409707D02*
X128557143Y-123362088D01*
X128557143Y-123362088D02*
X128509524Y-123314468D01*
X128509524Y-123314468D02*
X128461905Y-123219230D01*
X128461905Y-123219230D02*
X128414286Y-123028754D01*
X128414286Y-123028754D02*
X128414286Y-122790659D01*
X128414286Y-122790659D02*
X128461905Y-122600183D01*
X128461905Y-122600183D02*
X128509524Y-122504945D01*
X128509524Y-122504945D02*
X128557143Y-122457326D01*
X128557143Y-122457326D02*
X128652381Y-122409707D01*
X129366667Y-122504945D02*
X129414286Y-122457326D01*
X129414286Y-122457326D02*
X129509524Y-122409707D01*
X129509524Y-122409707D02*
X129747619Y-122409707D01*
X129747619Y-122409707D02*
X129842857Y-122457326D01*
X129842857Y-122457326D02*
X129890476Y-122504945D01*
X129890476Y-122504945D02*
X129938095Y-122600183D01*
X129938095Y-122600183D02*
X129938095Y-122695421D01*
X129938095Y-122695421D02*
X129890476Y-122838278D01*
X129890476Y-122838278D02*
X129319048Y-123409707D01*
X129319048Y-123409707D02*
X129938095Y-123409707D01*
X130795238Y-122743040D02*
X130795238Y-123409707D01*
X130557143Y-122362088D02*
X130319048Y-123076373D01*
X130319048Y-123076373D02*
X130938095Y-123076373D01*
X182755826Y-142051485D02*
X182612969Y-141980057D01*
X182612969Y-141980057D02*
X182470112Y-141837200D01*
X182470112Y-141837200D02*
X182255826Y-141622914D01*
X182255826Y-141622914D02*
X182112969Y-141551485D01*
X182112969Y-141551485D02*
X181970112Y-141551485D01*
X182041541Y-141908628D02*
X181898684Y-141837200D01*
X181898684Y-141837200D02*
X181755826Y-141694342D01*
X181755826Y-141694342D02*
X181684398Y-141408628D01*
X181684398Y-141408628D02*
X181684398Y-140908628D01*
X181684398Y-140908628D02*
X181755826Y-140622914D01*
X181755826Y-140622914D02*
X181898684Y-140480057D01*
X181898684Y-140480057D02*
X182041541Y-140408628D01*
X182041541Y-140408628D02*
X182327255Y-140408628D01*
X182327255Y-140408628D02*
X182470112Y-140480057D01*
X182470112Y-140480057D02*
X182612969Y-140622914D01*
X182612969Y-140622914D02*
X182684398Y-140908628D01*
X182684398Y-140908628D02*
X182684398Y-141408628D01*
X182684398Y-141408628D02*
X182612969Y-141694342D01*
X182612969Y-141694342D02*
X182470112Y-141837200D01*
X182470112Y-141837200D02*
X182327255Y-141908628D01*
X182327255Y-141908628D02*
X182041541Y-141908628D01*
X183255827Y-140551485D02*
X183327255Y-140480057D01*
X183327255Y-140480057D02*
X183470113Y-140408628D01*
X183470113Y-140408628D02*
X183827255Y-140408628D01*
X183827255Y-140408628D02*
X183970113Y-140480057D01*
X183970113Y-140480057D02*
X184041541Y-140551485D01*
X184041541Y-140551485D02*
X184112970Y-140694342D01*
X184112970Y-140694342D02*
X184112970Y-140837200D01*
X184112970Y-140837200D02*
X184041541Y-141051485D01*
X184041541Y-141051485D02*
X183184398Y-141908628D01*
X183184398Y-141908628D02*
X184112970Y-141908628D01*
X181548684Y-139992200D02*
X184248684Y-139992200D01*
X182755826Y-139351485D02*
X182612969Y-139280057D01*
X182612969Y-139280057D02*
X182470112Y-139137200D01*
X182470112Y-139137200D02*
X182255826Y-138922914D01*
X182255826Y-138922914D02*
X182112969Y-138851485D01*
X182112969Y-138851485D02*
X181970112Y-138851485D01*
X182041541Y-139208628D02*
X181898684Y-139137200D01*
X181898684Y-139137200D02*
X181755826Y-138994342D01*
X181755826Y-138994342D02*
X181684398Y-138708628D01*
X181684398Y-138708628D02*
X181684398Y-138208628D01*
X181684398Y-138208628D02*
X181755826Y-137922914D01*
X181755826Y-137922914D02*
X181898684Y-137780057D01*
X181898684Y-137780057D02*
X182041541Y-137708628D01*
X182041541Y-137708628D02*
X182327255Y-137708628D01*
X182327255Y-137708628D02*
X182470112Y-137780057D01*
X182470112Y-137780057D02*
X182612969Y-137922914D01*
X182612969Y-137922914D02*
X182684398Y-138208628D01*
X182684398Y-138208628D02*
X182684398Y-138708628D01*
X182684398Y-138708628D02*
X182612969Y-138994342D01*
X182612969Y-138994342D02*
X182470112Y-139137200D01*
X182470112Y-139137200D02*
X182327255Y-139208628D01*
X182327255Y-139208628D02*
X182041541Y-139208628D01*
X184112970Y-139208628D02*
X183255827Y-139208628D01*
X183684398Y-139208628D02*
X183684398Y-137708628D01*
X183684398Y-137708628D02*
X183541541Y-137922914D01*
X183541541Y-137922914D02*
X183398684Y-138065771D01*
X183398684Y-138065771D02*
X183255827Y-138137200D01*
X181548684Y-137292200D02*
X184248684Y-137292200D01*
X181332017Y-124547438D02*
X181332017Y-122547438D01*
X181332017Y-124452200D02*
X181141541Y-124547438D01*
X181141541Y-124547438D02*
X180760588Y-124547438D01*
X180760588Y-124547438D02*
X180570112Y-124452200D01*
X180570112Y-124452200D02*
X180474874Y-124356961D01*
X180474874Y-124356961D02*
X180379636Y-124166485D01*
X180379636Y-124166485D02*
X180379636Y-123595057D01*
X180379636Y-123595057D02*
X180474874Y-123404580D01*
X180474874Y-123404580D02*
X180570112Y-123309342D01*
X180570112Y-123309342D02*
X180760588Y-123214104D01*
X180760588Y-123214104D02*
X181141541Y-123214104D01*
X181141541Y-123214104D02*
X181332017Y-123309342D01*
X181589160Y-142980057D02*
X181465350Y-142908628D01*
X181465350Y-142908628D02*
X181279636Y-142908628D01*
X181279636Y-142908628D02*
X181093922Y-142980057D01*
X181093922Y-142980057D02*
X180970112Y-143122914D01*
X180970112Y-143122914D02*
X180908207Y-143265771D01*
X180908207Y-143265771D02*
X180846303Y-143551485D01*
X180846303Y-143551485D02*
X180846303Y-143765771D01*
X180846303Y-143765771D02*
X180908207Y-144051485D01*
X180908207Y-144051485D02*
X180970112Y-144194342D01*
X180970112Y-144194342D02*
X181093922Y-144337200D01*
X181093922Y-144337200D02*
X181279636Y-144408628D01*
X181279636Y-144408628D02*
X181403445Y-144408628D01*
X181403445Y-144408628D02*
X181589160Y-144337200D01*
X181589160Y-144337200D02*
X181651064Y-144265771D01*
X181651064Y-144265771D02*
X181651064Y-143765771D01*
X181651064Y-143765771D02*
X181403445Y-143765771D01*
X182208207Y-144408628D02*
X182208207Y-142908628D01*
X182208207Y-142908628D02*
X182951064Y-144408628D01*
X182951064Y-144408628D02*
X182951064Y-142908628D01*
X183570112Y-144408628D02*
X183570112Y-142908628D01*
X183570112Y-142908628D02*
X183879636Y-142908628D01*
X183879636Y-142908628D02*
X184065350Y-142980057D01*
X184065350Y-142980057D02*
X184189160Y-143122914D01*
X184189160Y-143122914D02*
X184251065Y-143265771D01*
X184251065Y-143265771D02*
X184312969Y-143551485D01*
X184312969Y-143551485D02*
X184312969Y-143765771D01*
X184312969Y-143765771D02*
X184251065Y-144051485D01*
X184251065Y-144051485D02*
X184189160Y-144194342D01*
X184189160Y-144194342D02*
X184065350Y-144337200D01*
X184065350Y-144337200D02*
X183879636Y-144408628D01*
X183879636Y-144408628D02*
X183570112Y-144408628D01*
X181236779Y-127152200D02*
X181046303Y-127247438D01*
X181046303Y-127247438D02*
X180665350Y-127247438D01*
X180665350Y-127247438D02*
X180474874Y-127152200D01*
X180474874Y-127152200D02*
X180379636Y-126961723D01*
X180379636Y-126961723D02*
X180379636Y-126199819D01*
X180379636Y-126199819D02*
X180474874Y-126009342D01*
X180474874Y-126009342D02*
X180665350Y-125914104D01*
X180665350Y-125914104D02*
X181046303Y-125914104D01*
X181046303Y-125914104D02*
X181236779Y-126009342D01*
X181236779Y-126009342D02*
X181332017Y-126199819D01*
X181332017Y-126199819D02*
X181332017Y-126390295D01*
X181332017Y-126390295D02*
X180379636Y-126580771D01*
X182755826Y-136751485D02*
X182612969Y-136680057D01*
X182612969Y-136680057D02*
X182470112Y-136537200D01*
X182470112Y-136537200D02*
X182255826Y-136322914D01*
X182255826Y-136322914D02*
X182112969Y-136251485D01*
X182112969Y-136251485D02*
X181970112Y-136251485D01*
X182041541Y-136608628D02*
X181898684Y-136537200D01*
X181898684Y-136537200D02*
X181755826Y-136394342D01*
X181755826Y-136394342D02*
X181684398Y-136108628D01*
X181684398Y-136108628D02*
X181684398Y-135608628D01*
X181684398Y-135608628D02*
X181755826Y-135322914D01*
X181755826Y-135322914D02*
X181898684Y-135180057D01*
X181898684Y-135180057D02*
X182041541Y-135108628D01*
X182041541Y-135108628D02*
X182327255Y-135108628D01*
X182327255Y-135108628D02*
X182470112Y-135180057D01*
X182470112Y-135180057D02*
X182612969Y-135322914D01*
X182612969Y-135322914D02*
X182684398Y-135608628D01*
X182684398Y-135608628D02*
X182684398Y-136108628D01*
X182684398Y-136108628D02*
X182612969Y-136394342D01*
X182612969Y-136394342D02*
X182470112Y-136537200D01*
X182470112Y-136537200D02*
X182327255Y-136608628D01*
X182327255Y-136608628D02*
X182041541Y-136608628D01*
X183612970Y-135108628D02*
X183755827Y-135108628D01*
X183755827Y-135108628D02*
X183898684Y-135180057D01*
X183898684Y-135180057D02*
X183970113Y-135251485D01*
X183970113Y-135251485D02*
X184041541Y-135394342D01*
X184041541Y-135394342D02*
X184112970Y-135680057D01*
X184112970Y-135680057D02*
X184112970Y-136037200D01*
X184112970Y-136037200D02*
X184041541Y-136322914D01*
X184041541Y-136322914D02*
X183970113Y-136465771D01*
X183970113Y-136465771D02*
X183898684Y-136537200D01*
X183898684Y-136537200D02*
X183755827Y-136608628D01*
X183755827Y-136608628D02*
X183612970Y-136608628D01*
X183612970Y-136608628D02*
X183470113Y-136537200D01*
X183470113Y-136537200D02*
X183398684Y-136465771D01*
X183398684Y-136465771D02*
X183327255Y-136322914D01*
X183327255Y-136322914D02*
X183255827Y-136037200D01*
X183255827Y-136037200D02*
X183255827Y-135680057D01*
X183255827Y-135680057D02*
X183327255Y-135394342D01*
X183327255Y-135394342D02*
X183398684Y-135251485D01*
X183398684Y-135251485D02*
X183470113Y-135180057D01*
X183470113Y-135180057D02*
X183612970Y-135108628D01*
X181548684Y-134692200D02*
X184248684Y-134692200D01*
X180289160Y-128514104D02*
X181051064Y-128514104D01*
X180574874Y-129847438D02*
X180574874Y-128133152D01*
X180574874Y-128133152D02*
X180670112Y-127942676D01*
X180670112Y-127942676D02*
X180860588Y-127847438D01*
X180860588Y-127847438D02*
X181051064Y-127847438D01*
X181332017Y-121952200D02*
X181141541Y-122047438D01*
X181141541Y-122047438D02*
X180760588Y-122047438D01*
X180760588Y-122047438D02*
X180570112Y-121952200D01*
X180570112Y-121952200D02*
X180474874Y-121856961D01*
X180474874Y-121856961D02*
X180379636Y-121666485D01*
X180379636Y-121666485D02*
X180379636Y-121095057D01*
X180379636Y-121095057D02*
X180474874Y-120904580D01*
X180474874Y-120904580D02*
X180570112Y-120809342D01*
X180570112Y-120809342D02*
X180760588Y-120714104D01*
X180760588Y-120714104D02*
X181141541Y-120714104D01*
X181141541Y-120714104D02*
X181332017Y-120809342D01*
X181232017Y-130614104D02*
X181232017Y-132233152D01*
X181232017Y-132233152D02*
X181136779Y-132423628D01*
X181136779Y-132423628D02*
X181041541Y-132518866D01*
X181041541Y-132518866D02*
X180851064Y-132614104D01*
X180851064Y-132614104D02*
X180565350Y-132614104D01*
X180565350Y-132614104D02*
X180374874Y-132518866D01*
X181232017Y-131852200D02*
X181041541Y-131947438D01*
X181041541Y-131947438D02*
X180660588Y-131947438D01*
X180660588Y-131947438D02*
X180470112Y-131852200D01*
X180470112Y-131852200D02*
X180374874Y-131756961D01*
X180374874Y-131756961D02*
X180279636Y-131566485D01*
X180279636Y-131566485D02*
X180279636Y-130995057D01*
X180279636Y-130995057D02*
X180374874Y-130804580D01*
X180374874Y-130804580D02*
X180470112Y-130709342D01*
X180470112Y-130709342D02*
X180660588Y-130614104D01*
X180660588Y-130614104D02*
X181041541Y-130614104D01*
X181041541Y-130614104D02*
X181232017Y-130709342D01*
X180474874Y-119547438D02*
X180474874Y-117547438D01*
X180474874Y-118309342D02*
X180665350Y-118214104D01*
X180665350Y-118214104D02*
X181046303Y-118214104D01*
X181046303Y-118214104D02*
X181236779Y-118309342D01*
X181236779Y-118309342D02*
X181332017Y-118404580D01*
X181332017Y-118404580D02*
X181427255Y-118595057D01*
X181427255Y-118595057D02*
X181427255Y-119166485D01*
X181427255Y-119166485D02*
X181332017Y-119356961D01*
X181332017Y-119356961D02*
X181236779Y-119452200D01*
X181236779Y-119452200D02*
X181046303Y-119547438D01*
X181046303Y-119547438D02*
X180665350Y-119547438D01*
X180665350Y-119547438D02*
X180474874Y-119452200D01*
X181232017Y-116847438D02*
X181232017Y-115799819D01*
X181232017Y-115799819D02*
X181136779Y-115609342D01*
X181136779Y-115609342D02*
X180946303Y-115514104D01*
X180946303Y-115514104D02*
X180565350Y-115514104D01*
X180565350Y-115514104D02*
X180374874Y-115609342D01*
X181232017Y-116752200D02*
X181041541Y-116847438D01*
X181041541Y-116847438D02*
X180565350Y-116847438D01*
X180565350Y-116847438D02*
X180374874Y-116752200D01*
X180374874Y-116752200D02*
X180279636Y-116561723D01*
X180279636Y-116561723D02*
X180279636Y-116371247D01*
X180279636Y-116371247D02*
X180374874Y-116180771D01*
X180374874Y-116180771D02*
X180565350Y-116085533D01*
X180565350Y-116085533D02*
X181041541Y-116085533D01*
X181041541Y-116085533D02*
X181232017Y-115990295D01*
X140059580Y-115271779D02*
X140107200Y-115319398D01*
X140107200Y-115319398D02*
X140154819Y-115462255D01*
X140154819Y-115462255D02*
X140154819Y-115557493D01*
X140154819Y-115557493D02*
X140107200Y-115700350D01*
X140107200Y-115700350D02*
X140011961Y-115795588D01*
X140011961Y-115795588D02*
X139916723Y-115843207D01*
X139916723Y-115843207D02*
X139726247Y-115890826D01*
X139726247Y-115890826D02*
X139583390Y-115890826D01*
X139583390Y-115890826D02*
X139392914Y-115843207D01*
X139392914Y-115843207D02*
X139297676Y-115795588D01*
X139297676Y-115795588D02*
X139202438Y-115700350D01*
X139202438Y-115700350D02*
X139154819Y-115557493D01*
X139154819Y-115557493D02*
X139154819Y-115462255D01*
X139154819Y-115462255D02*
X139202438Y-115319398D01*
X139202438Y-115319398D02*
X139250057Y-115271779D01*
X139154819Y-114367017D02*
X139154819Y-114843207D01*
X139154819Y-114843207D02*
X139631009Y-114890826D01*
X139631009Y-114890826D02*
X139583390Y-114843207D01*
X139583390Y-114843207D02*
X139535771Y-114747969D01*
X139535771Y-114747969D02*
X139535771Y-114509874D01*
X139535771Y-114509874D02*
X139583390Y-114414636D01*
X139583390Y-114414636D02*
X139631009Y-114367017D01*
X139631009Y-114367017D02*
X139726247Y-114319398D01*
X139726247Y-114319398D02*
X139964342Y-114319398D01*
X139964342Y-114319398D02*
X140059580Y-114367017D01*
X140059580Y-114367017D02*
X140107200Y-114414636D01*
X140107200Y-114414636D02*
X140154819Y-114509874D01*
X140154819Y-114509874D02*
X140154819Y-114747969D01*
X140154819Y-114747969D02*
X140107200Y-114843207D01*
X140107200Y-114843207D02*
X140059580Y-114890826D01*
X153238445Y-134759580D02*
X153190826Y-134807200D01*
X153190826Y-134807200D02*
X153047969Y-134854819D01*
X153047969Y-134854819D02*
X152952731Y-134854819D01*
X152952731Y-134854819D02*
X152809874Y-134807200D01*
X152809874Y-134807200D02*
X152714636Y-134711961D01*
X152714636Y-134711961D02*
X152667017Y-134616723D01*
X152667017Y-134616723D02*
X152619398Y-134426247D01*
X152619398Y-134426247D02*
X152619398Y-134283390D01*
X152619398Y-134283390D02*
X152667017Y-134092914D01*
X152667017Y-134092914D02*
X152714636Y-133997676D01*
X152714636Y-133997676D02*
X152809874Y-133902438D01*
X152809874Y-133902438D02*
X152952731Y-133854819D01*
X152952731Y-133854819D02*
X153047969Y-133854819D01*
X153047969Y-133854819D02*
X153190826Y-133902438D01*
X153190826Y-133902438D02*
X153238445Y-133950057D01*
X153809874Y-134283390D02*
X153714636Y-134235771D01*
X153714636Y-134235771D02*
X153667017Y-134188152D01*
X153667017Y-134188152D02*
X153619398Y-134092914D01*
X153619398Y-134092914D02*
X153619398Y-134045295D01*
X153619398Y-134045295D02*
X153667017Y-133950057D01*
X153667017Y-133950057D02*
X153714636Y-133902438D01*
X153714636Y-133902438D02*
X153809874Y-133854819D01*
X153809874Y-133854819D02*
X154000350Y-133854819D01*
X154000350Y-133854819D02*
X154095588Y-133902438D01*
X154095588Y-133902438D02*
X154143207Y-133950057D01*
X154143207Y-133950057D02*
X154190826Y-134045295D01*
X154190826Y-134045295D02*
X154190826Y-134092914D01*
X154190826Y-134092914D02*
X154143207Y-134188152D01*
X154143207Y-134188152D02*
X154095588Y-134235771D01*
X154095588Y-134235771D02*
X154000350Y-134283390D01*
X154000350Y-134283390D02*
X153809874Y-134283390D01*
X153809874Y-134283390D02*
X153714636Y-134331009D01*
X153714636Y-134331009D02*
X153667017Y-134378628D01*
X153667017Y-134378628D02*
X153619398Y-134473866D01*
X153619398Y-134473866D02*
X153619398Y-134664342D01*
X153619398Y-134664342D02*
X153667017Y-134759580D01*
X153667017Y-134759580D02*
X153714636Y-134807200D01*
X153714636Y-134807200D02*
X153809874Y-134854819D01*
X153809874Y-134854819D02*
X154000350Y-134854819D01*
X154000350Y-134854819D02*
X154095588Y-134807200D01*
X154095588Y-134807200D02*
X154143207Y-134759580D01*
X154143207Y-134759580D02*
X154190826Y-134664342D01*
X154190826Y-134664342D02*
X154190826Y-134473866D01*
X154190826Y-134473866D02*
X154143207Y-134378628D01*
X154143207Y-134378628D02*
X154095588Y-134331009D01*
X154095588Y-134331009D02*
X154000350Y-134283390D01*
X167958333Y-133354819D02*
X167625000Y-132878628D01*
X167386905Y-133354819D02*
X167386905Y-132354819D01*
X167386905Y-132354819D02*
X167767857Y-132354819D01*
X167767857Y-132354819D02*
X167863095Y-132402438D01*
X167863095Y-132402438D02*
X167910714Y-132450057D01*
X167910714Y-132450057D02*
X167958333Y-132545295D01*
X167958333Y-132545295D02*
X167958333Y-132688152D01*
X167958333Y-132688152D02*
X167910714Y-132783390D01*
X167910714Y-132783390D02*
X167863095Y-132831009D01*
X167863095Y-132831009D02*
X167767857Y-132878628D01*
X167767857Y-132878628D02*
X167386905Y-132878628D01*
X168434524Y-133354819D02*
X168625000Y-133354819D01*
X168625000Y-133354819D02*
X168720238Y-133307200D01*
X168720238Y-133307200D02*
X168767857Y-133259580D01*
X168767857Y-133259580D02*
X168863095Y-133116723D01*
X168863095Y-133116723D02*
X168910714Y-132926247D01*
X168910714Y-132926247D02*
X168910714Y-132545295D01*
X168910714Y-132545295D02*
X168863095Y-132450057D01*
X168863095Y-132450057D02*
X168815476Y-132402438D01*
X168815476Y-132402438D02*
X168720238Y-132354819D01*
X168720238Y-132354819D02*
X168529762Y-132354819D01*
X168529762Y-132354819D02*
X168434524Y-132402438D01*
X168434524Y-132402438D02*
X168386905Y-132450057D01*
X168386905Y-132450057D02*
X168339286Y-132545295D01*
X168339286Y-132545295D02*
X168339286Y-132783390D01*
X168339286Y-132783390D02*
X168386905Y-132878628D01*
X168386905Y-132878628D02*
X168434524Y-132926247D01*
X168434524Y-132926247D02*
X168529762Y-132973866D01*
X168529762Y-132973866D02*
X168720238Y-132973866D01*
X168720238Y-132973866D02*
X168815476Y-132926247D01*
X168815476Y-132926247D02*
X168863095Y-132878628D01*
X168863095Y-132878628D02*
X168910714Y-132783390D01*
X130283333Y-154054468D02*
X130235714Y-154102088D01*
X130235714Y-154102088D02*
X130092857Y-154149707D01*
X130092857Y-154149707D02*
X129997619Y-154149707D01*
X129997619Y-154149707D02*
X129854762Y-154102088D01*
X129854762Y-154102088D02*
X129759524Y-154006849D01*
X129759524Y-154006849D02*
X129711905Y-153911611D01*
X129711905Y-153911611D02*
X129664286Y-153721135D01*
X129664286Y-153721135D02*
X129664286Y-153578278D01*
X129664286Y-153578278D02*
X129711905Y-153387802D01*
X129711905Y-153387802D02*
X129759524Y-153292564D01*
X129759524Y-153292564D02*
X129854762Y-153197326D01*
X129854762Y-153197326D02*
X129997619Y-153149707D01*
X129997619Y-153149707D02*
X130092857Y-153149707D01*
X130092857Y-153149707D02*
X130235714Y-153197326D01*
X130235714Y-153197326D02*
X130283333Y-153244945D01*
X131140476Y-153483040D02*
X131140476Y-154149707D01*
X130902381Y-153102088D02*
X130664286Y-153816373D01*
X130664286Y-153816373D02*
X131283333Y-153816373D01*
X145204819Y-120061904D02*
X146014342Y-120061904D01*
X146014342Y-120061904D02*
X146109580Y-120014285D01*
X146109580Y-120014285D02*
X146157200Y-119966666D01*
X146157200Y-119966666D02*
X146204819Y-119871428D01*
X146204819Y-119871428D02*
X146204819Y-119680952D01*
X146204819Y-119680952D02*
X146157200Y-119585714D01*
X146157200Y-119585714D02*
X146109580Y-119538095D01*
X146109580Y-119538095D02*
X146014342Y-119490476D01*
X146014342Y-119490476D02*
X145204819Y-119490476D01*
X145538152Y-118585714D02*
X146204819Y-118585714D01*
X145157200Y-118823809D02*
X145871485Y-119061904D01*
X145871485Y-119061904D02*
X145871485Y-118442857D01*
X167958333Y-118354819D02*
X167625000Y-117878628D01*
X167386905Y-118354819D02*
X167386905Y-117354819D01*
X167386905Y-117354819D02*
X167767857Y-117354819D01*
X167767857Y-117354819D02*
X167863095Y-117402438D01*
X167863095Y-117402438D02*
X167910714Y-117450057D01*
X167910714Y-117450057D02*
X167958333Y-117545295D01*
X167958333Y-117545295D02*
X167958333Y-117688152D01*
X167958333Y-117688152D02*
X167910714Y-117783390D01*
X167910714Y-117783390D02*
X167863095Y-117831009D01*
X167863095Y-117831009D02*
X167767857Y-117878628D01*
X167767857Y-117878628D02*
X167386905Y-117878628D01*
X168815476Y-117688152D02*
X168815476Y-118354819D01*
X168577381Y-117307200D02*
X168339286Y-118021485D01*
X168339286Y-118021485D02*
X168958333Y-118021485D01*
X140704467Y-104446553D02*
X140752087Y-104494172D01*
X140752087Y-104494172D02*
X140799706Y-104637029D01*
X140799706Y-104637029D02*
X140799706Y-104732267D01*
X140799706Y-104732267D02*
X140752087Y-104875124D01*
X140752087Y-104875124D02*
X140656848Y-104970362D01*
X140656848Y-104970362D02*
X140561610Y-105017981D01*
X140561610Y-105017981D02*
X140371134Y-105065600D01*
X140371134Y-105065600D02*
X140228277Y-105065600D01*
X140228277Y-105065600D02*
X140037801Y-105017981D01*
X140037801Y-105017981D02*
X139942563Y-104970362D01*
X139942563Y-104970362D02*
X139847325Y-104875124D01*
X139847325Y-104875124D02*
X139799706Y-104732267D01*
X139799706Y-104732267D02*
X139799706Y-104637029D01*
X139799706Y-104637029D02*
X139847325Y-104494172D01*
X139847325Y-104494172D02*
X139894944Y-104446553D01*
X140799706Y-103494172D02*
X140799706Y-104065600D01*
X140799706Y-103779886D02*
X139799706Y-103779886D01*
X139799706Y-103779886D02*
X139942563Y-103875124D01*
X139942563Y-103875124D02*
X140037801Y-103970362D01*
X140037801Y-103970362D02*
X140085420Y-104065600D01*
X160664819Y-144431904D02*
X161474342Y-144431904D01*
X161474342Y-144431904D02*
X161569580Y-144384285D01*
X161569580Y-144384285D02*
X161617200Y-144336666D01*
X161617200Y-144336666D02*
X161664819Y-144241428D01*
X161664819Y-144241428D02*
X161664819Y-144050952D01*
X161664819Y-144050952D02*
X161617200Y-143955714D01*
X161617200Y-143955714D02*
X161569580Y-143908095D01*
X161569580Y-143908095D02*
X161474342Y-143860476D01*
X161474342Y-143860476D02*
X160664819Y-143860476D01*
X160760057Y-143431904D02*
X160712438Y-143384285D01*
X160712438Y-143384285D02*
X160664819Y-143289047D01*
X160664819Y-143289047D02*
X160664819Y-143050952D01*
X160664819Y-143050952D02*
X160712438Y-142955714D01*
X160712438Y-142955714D02*
X160760057Y-142908095D01*
X160760057Y-142908095D02*
X160855295Y-142860476D01*
X160855295Y-142860476D02*
X160950533Y-142860476D01*
X160950533Y-142860476D02*
X161093390Y-142908095D01*
X161093390Y-142908095D02*
X161664819Y-143479523D01*
X161664819Y-143479523D02*
X161664819Y-142860476D01*
X147366667Y-147477200D02*
X147509524Y-147524819D01*
X147509524Y-147524819D02*
X147747619Y-147524819D01*
X147747619Y-147524819D02*
X147842857Y-147477200D01*
X147842857Y-147477200D02*
X147890476Y-147429580D01*
X147890476Y-147429580D02*
X147938095Y-147334342D01*
X147938095Y-147334342D02*
X147938095Y-147239104D01*
X147938095Y-147239104D02*
X147890476Y-147143866D01*
X147890476Y-147143866D02*
X147842857Y-147096247D01*
X147842857Y-147096247D02*
X147747619Y-147048628D01*
X147747619Y-147048628D02*
X147557143Y-147001009D01*
X147557143Y-147001009D02*
X147461905Y-146953390D01*
X147461905Y-146953390D02*
X147414286Y-146905771D01*
X147414286Y-146905771D02*
X147366667Y-146810533D01*
X147366667Y-146810533D02*
X147366667Y-146715295D01*
X147366667Y-146715295D02*
X147414286Y-146620057D01*
X147414286Y-146620057D02*
X147461905Y-146572438D01*
X147461905Y-146572438D02*
X147557143Y-146524819D01*
X147557143Y-146524819D02*
X147795238Y-146524819D01*
X147795238Y-146524819D02*
X147938095Y-146572438D01*
X148271429Y-146524819D02*
X148509524Y-147524819D01*
X148509524Y-147524819D02*
X148700000Y-146810533D01*
X148700000Y-146810533D02*
X148890476Y-147524819D01*
X148890476Y-147524819D02*
X149128572Y-146524819D01*
X150033333Y-147524819D02*
X149461905Y-147524819D01*
X149747619Y-147524819D02*
X149747619Y-146524819D01*
X149747619Y-146524819D02*
X149652381Y-146667676D01*
X149652381Y-146667676D02*
X149557143Y-146762914D01*
X149557143Y-146762914D02*
X149461905Y-146810533D01*
X143248095Y-145684819D02*
X143248095Y-146494342D01*
X143248095Y-146494342D02*
X143295714Y-146589580D01*
X143295714Y-146589580D02*
X143343333Y-146637200D01*
X143343333Y-146637200D02*
X143438571Y-146684819D01*
X143438571Y-146684819D02*
X143629047Y-146684819D01*
X143629047Y-146684819D02*
X143724285Y-146637200D01*
X143724285Y-146637200D02*
X143771904Y-146589580D01*
X143771904Y-146589580D02*
X143819523Y-146494342D01*
X143819523Y-146494342D02*
X143819523Y-145684819D01*
X144771904Y-145684819D02*
X144295714Y-145684819D01*
X144295714Y-145684819D02*
X144248095Y-146161009D01*
X144248095Y-146161009D02*
X144295714Y-146113390D01*
X144295714Y-146113390D02*
X144390952Y-146065771D01*
X144390952Y-146065771D02*
X144629047Y-146065771D01*
X144629047Y-146065771D02*
X144724285Y-146113390D01*
X144724285Y-146113390D02*
X144771904Y-146161009D01*
X144771904Y-146161009D02*
X144819523Y-146256247D01*
X144819523Y-146256247D02*
X144819523Y-146494342D01*
X144819523Y-146494342D02*
X144771904Y-146589580D01*
X144771904Y-146589580D02*
X144724285Y-146637200D01*
X144724285Y-146637200D02*
X144629047Y-146684819D01*
X144629047Y-146684819D02*
X144390952Y-146684819D01*
X144390952Y-146684819D02*
X144295714Y-146637200D01*
X144295714Y-146637200D02*
X144248095Y-146589580D01*
X123104761Y-115536009D02*
X123247618Y-115583628D01*
X123247618Y-115583628D02*
X123295237Y-115631247D01*
X123295237Y-115631247D02*
X123342856Y-115726485D01*
X123342856Y-115726485D02*
X123342856Y-115869342D01*
X123342856Y-115869342D02*
X123295237Y-115964580D01*
X123295237Y-115964580D02*
X123247618Y-116012200D01*
X123247618Y-116012200D02*
X123152380Y-116059819D01*
X123152380Y-116059819D02*
X122771428Y-116059819D01*
X122771428Y-116059819D02*
X122771428Y-115059819D01*
X122771428Y-115059819D02*
X123104761Y-115059819D01*
X123104761Y-115059819D02*
X123199999Y-115107438D01*
X123199999Y-115107438D02*
X123247618Y-115155057D01*
X123247618Y-115155057D02*
X123295237Y-115250295D01*
X123295237Y-115250295D02*
X123295237Y-115345533D01*
X123295237Y-115345533D02*
X123247618Y-115440771D01*
X123247618Y-115440771D02*
X123199999Y-115488390D01*
X123199999Y-115488390D02*
X123104761Y-115536009D01*
X123104761Y-115536009D02*
X122771428Y-115536009D01*
X123723809Y-115774104D02*
X124199999Y-115774104D01*
X123628571Y-116059819D02*
X123961904Y-115059819D01*
X123961904Y-115059819D02*
X124295237Y-116059819D01*
X124485714Y-115059819D02*
X125057142Y-115059819D01*
X124771428Y-116059819D02*
X124771428Y-115059819D01*
X125247619Y-115059819D02*
X125819047Y-115059819D01*
X125533333Y-116059819D02*
X125533333Y-115059819D01*
X126676190Y-116059819D02*
X126104762Y-116059819D01*
X126390476Y-116059819D02*
X126390476Y-115059819D01*
X126390476Y-115059819D02*
X126295238Y-115202676D01*
X126295238Y-115202676D02*
X126200000Y-115297914D01*
X126200000Y-115297914D02*
X126104762Y-115345533D01*
X129628095Y-145684819D02*
X129628095Y-146494342D01*
X129628095Y-146494342D02*
X129675714Y-146589580D01*
X129675714Y-146589580D02*
X129723333Y-146637200D01*
X129723333Y-146637200D02*
X129818571Y-146684819D01*
X129818571Y-146684819D02*
X130009047Y-146684819D01*
X130009047Y-146684819D02*
X130104285Y-146637200D01*
X130104285Y-146637200D02*
X130151904Y-146589580D01*
X130151904Y-146589580D02*
X130199523Y-146494342D01*
X130199523Y-146494342D02*
X130199523Y-145684819D01*
X130580476Y-145684819D02*
X131199523Y-145684819D01*
X131199523Y-145684819D02*
X130866190Y-146065771D01*
X130866190Y-146065771D02*
X131009047Y-146065771D01*
X131009047Y-146065771D02*
X131104285Y-146113390D01*
X131104285Y-146113390D02*
X131151904Y-146161009D01*
X131151904Y-146161009D02*
X131199523Y-146256247D01*
X131199523Y-146256247D02*
X131199523Y-146494342D01*
X131199523Y-146494342D02*
X131151904Y-146589580D01*
X131151904Y-146589580D02*
X131104285Y-146637200D01*
X131104285Y-146637200D02*
X131009047Y-146684819D01*
X131009047Y-146684819D02*
X130723333Y-146684819D01*
X130723333Y-146684819D02*
X130628095Y-146637200D01*
X130628095Y-146637200D02*
X130580476Y-146589580D01*
X166969580Y-153351666D02*
X167017200Y-153399285D01*
X167017200Y-153399285D02*
X167064819Y-153542142D01*
X167064819Y-153542142D02*
X167064819Y-153637380D01*
X167064819Y-153637380D02*
X167017200Y-153780237D01*
X167017200Y-153780237D02*
X166921961Y-153875475D01*
X166921961Y-153875475D02*
X166826723Y-153923094D01*
X166826723Y-153923094D02*
X166636247Y-153970713D01*
X166636247Y-153970713D02*
X166493390Y-153970713D01*
X166493390Y-153970713D02*
X166302914Y-153923094D01*
X166302914Y-153923094D02*
X166207676Y-153875475D01*
X166207676Y-153875475D02*
X166112438Y-153780237D01*
X166112438Y-153780237D02*
X166064819Y-153637380D01*
X166064819Y-153637380D02*
X166064819Y-153542142D01*
X166064819Y-153542142D02*
X166112438Y-153399285D01*
X166112438Y-153399285D02*
X166160057Y-153351666D01*
X166064819Y-152494523D02*
X166064819Y-152684999D01*
X166064819Y-152684999D02*
X166112438Y-152780237D01*
X166112438Y-152780237D02*
X166160057Y-152827856D01*
X166160057Y-152827856D02*
X166302914Y-152923094D01*
X166302914Y-152923094D02*
X166493390Y-152970713D01*
X166493390Y-152970713D02*
X166874342Y-152970713D01*
X166874342Y-152970713D02*
X166969580Y-152923094D01*
X166969580Y-152923094D02*
X167017200Y-152875475D01*
X167017200Y-152875475D02*
X167064819Y-152780237D01*
X167064819Y-152780237D02*
X167064819Y-152589761D01*
X167064819Y-152589761D02*
X167017200Y-152494523D01*
X167017200Y-152494523D02*
X166969580Y-152446904D01*
X166969580Y-152446904D02*
X166874342Y-152399285D01*
X166874342Y-152399285D02*
X166636247Y-152399285D01*
X166636247Y-152399285D02*
X166541009Y-152446904D01*
X166541009Y-152446904D02*
X166493390Y-152494523D01*
X166493390Y-152494523D02*
X166445771Y-152589761D01*
X166445771Y-152589761D02*
X166445771Y-152780237D01*
X166445771Y-152780237D02*
X166493390Y-152875475D01*
X166493390Y-152875475D02*
X166541009Y-152923094D01*
X166541009Y-152923094D02*
X166636247Y-152970713D01*
X136383333Y-115404467D02*
X136335714Y-115452087D01*
X136335714Y-115452087D02*
X136192857Y-115499706D01*
X136192857Y-115499706D02*
X136097619Y-115499706D01*
X136097619Y-115499706D02*
X135954762Y-115452087D01*
X135954762Y-115452087D02*
X135859524Y-115356848D01*
X135859524Y-115356848D02*
X135811905Y-115261610D01*
X135811905Y-115261610D02*
X135764286Y-115071134D01*
X135764286Y-115071134D02*
X135764286Y-114928277D01*
X135764286Y-114928277D02*
X135811905Y-114737801D01*
X135811905Y-114737801D02*
X135859524Y-114642563D01*
X135859524Y-114642563D02*
X135954762Y-114547325D01*
X135954762Y-114547325D02*
X136097619Y-114499706D01*
X136097619Y-114499706D02*
X136192857Y-114499706D01*
X136192857Y-114499706D02*
X136335714Y-114547325D01*
X136335714Y-114547325D02*
X136383333Y-114594944D01*
X136764286Y-114594944D02*
X136811905Y-114547325D01*
X136811905Y-114547325D02*
X136907143Y-114499706D01*
X136907143Y-114499706D02*
X137145238Y-114499706D01*
X137145238Y-114499706D02*
X137240476Y-114547325D01*
X137240476Y-114547325D02*
X137288095Y-114594944D01*
X137288095Y-114594944D02*
X137335714Y-114690182D01*
X137335714Y-114690182D02*
X137335714Y-114785420D01*
X137335714Y-114785420D02*
X137288095Y-114928277D01*
X137288095Y-114928277D02*
X136716667Y-115499706D01*
X136716667Y-115499706D02*
X137335714Y-115499706D01*
X167958333Y-130354819D02*
X167625000Y-129878628D01*
X167386905Y-130354819D02*
X167386905Y-129354819D01*
X167386905Y-129354819D02*
X167767857Y-129354819D01*
X167767857Y-129354819D02*
X167863095Y-129402438D01*
X167863095Y-129402438D02*
X167910714Y-129450057D01*
X167910714Y-129450057D02*
X167958333Y-129545295D01*
X167958333Y-129545295D02*
X167958333Y-129688152D01*
X167958333Y-129688152D02*
X167910714Y-129783390D01*
X167910714Y-129783390D02*
X167863095Y-129831009D01*
X167863095Y-129831009D02*
X167767857Y-129878628D01*
X167767857Y-129878628D02*
X167386905Y-129878628D01*
X168529762Y-129783390D02*
X168434524Y-129735771D01*
X168434524Y-129735771D02*
X168386905Y-129688152D01*
X168386905Y-129688152D02*
X168339286Y-129592914D01*
X168339286Y-129592914D02*
X168339286Y-129545295D01*
X168339286Y-129545295D02*
X168386905Y-129450057D01*
X168386905Y-129450057D02*
X168434524Y-129402438D01*
X168434524Y-129402438D02*
X168529762Y-129354819D01*
X168529762Y-129354819D02*
X168720238Y-129354819D01*
X168720238Y-129354819D02*
X168815476Y-129402438D01*
X168815476Y-129402438D02*
X168863095Y-129450057D01*
X168863095Y-129450057D02*
X168910714Y-129545295D01*
X168910714Y-129545295D02*
X168910714Y-129592914D01*
X168910714Y-129592914D02*
X168863095Y-129688152D01*
X168863095Y-129688152D02*
X168815476Y-129735771D01*
X168815476Y-129735771D02*
X168720238Y-129783390D01*
X168720238Y-129783390D02*
X168529762Y-129783390D01*
X168529762Y-129783390D02*
X168434524Y-129831009D01*
X168434524Y-129831009D02*
X168386905Y-129878628D01*
X168386905Y-129878628D02*
X168339286Y-129973866D01*
X168339286Y-129973866D02*
X168339286Y-130164342D01*
X168339286Y-130164342D02*
X168386905Y-130259580D01*
X168386905Y-130259580D02*
X168434524Y-130307200D01*
X168434524Y-130307200D02*
X168529762Y-130354819D01*
X168529762Y-130354819D02*
X168720238Y-130354819D01*
X168720238Y-130354819D02*
X168815476Y-130307200D01*
X168815476Y-130307200D02*
X168863095Y-130259580D01*
X168863095Y-130259580D02*
X168910714Y-130164342D01*
X168910714Y-130164342D02*
X168910714Y-129973866D01*
X168910714Y-129973866D02*
X168863095Y-129878628D01*
X168863095Y-129878628D02*
X168815476Y-129831009D01*
X168815476Y-129831009D02*
X168720238Y-129783390D01*
X185866666Y-133104819D02*
X185866666Y-133819104D01*
X185866666Y-133819104D02*
X185819047Y-133961961D01*
X185819047Y-133961961D02*
X185723809Y-134057200D01*
X185723809Y-134057200D02*
X185580952Y-134104819D01*
X185580952Y-134104819D02*
X185485714Y-134104819D01*
X186866666Y-134104819D02*
X186295238Y-134104819D01*
X186580952Y-134104819D02*
X186580952Y-133104819D01*
X186580952Y-133104819D02*
X186485714Y-133247676D01*
X186485714Y-133247676D02*
X186390476Y-133342914D01*
X186390476Y-133342914D02*
X186295238Y-133390533D01*
X167958333Y-115354819D02*
X167625000Y-114878628D01*
X167386905Y-115354819D02*
X167386905Y-114354819D01*
X167386905Y-114354819D02*
X167767857Y-114354819D01*
X167767857Y-114354819D02*
X167863095Y-114402438D01*
X167863095Y-114402438D02*
X167910714Y-114450057D01*
X167910714Y-114450057D02*
X167958333Y-114545295D01*
X167958333Y-114545295D02*
X167958333Y-114688152D01*
X167958333Y-114688152D02*
X167910714Y-114783390D01*
X167910714Y-114783390D02*
X167863095Y-114831009D01*
X167863095Y-114831009D02*
X167767857Y-114878628D01*
X167767857Y-114878628D02*
X167386905Y-114878628D01*
X168291667Y-114354819D02*
X168910714Y-114354819D01*
X168910714Y-114354819D02*
X168577381Y-114735771D01*
X168577381Y-114735771D02*
X168720238Y-114735771D01*
X168720238Y-114735771D02*
X168815476Y-114783390D01*
X168815476Y-114783390D02*
X168863095Y-114831009D01*
X168863095Y-114831009D02*
X168910714Y-114926247D01*
X168910714Y-114926247D02*
X168910714Y-115164342D01*
X168910714Y-115164342D02*
X168863095Y-115259580D01*
X168863095Y-115259580D02*
X168815476Y-115307200D01*
X168815476Y-115307200D02*
X168720238Y-115354819D01*
X168720238Y-115354819D02*
X168434524Y-115354819D01*
X168434524Y-115354819D02*
X168339286Y-115307200D01*
X168339286Y-115307200D02*
X168291667Y-115259580D01*
X174219580Y-152851666D02*
X174267200Y-152899285D01*
X174267200Y-152899285D02*
X174314819Y-153042142D01*
X174314819Y-153042142D02*
X174314819Y-153137380D01*
X174314819Y-153137380D02*
X174267200Y-153280237D01*
X174267200Y-153280237D02*
X174171961Y-153375475D01*
X174171961Y-153375475D02*
X174076723Y-153423094D01*
X174076723Y-153423094D02*
X173886247Y-153470713D01*
X173886247Y-153470713D02*
X173743390Y-153470713D01*
X173743390Y-153470713D02*
X173552914Y-153423094D01*
X173552914Y-153423094D02*
X173457676Y-153375475D01*
X173457676Y-153375475D02*
X173362438Y-153280237D01*
X173362438Y-153280237D02*
X173314819Y-153137380D01*
X173314819Y-153137380D02*
X173314819Y-153042142D01*
X173314819Y-153042142D02*
X173362438Y-152899285D01*
X173362438Y-152899285D02*
X173410057Y-152851666D01*
X173314819Y-152518332D02*
X173314819Y-151851666D01*
X173314819Y-151851666D02*
X174314819Y-152280237D01*
X167958333Y-124354819D02*
X167625000Y-123878628D01*
X167386905Y-124354819D02*
X167386905Y-123354819D01*
X167386905Y-123354819D02*
X167767857Y-123354819D01*
X167767857Y-123354819D02*
X167863095Y-123402438D01*
X167863095Y-123402438D02*
X167910714Y-123450057D01*
X167910714Y-123450057D02*
X167958333Y-123545295D01*
X167958333Y-123545295D02*
X167958333Y-123688152D01*
X167958333Y-123688152D02*
X167910714Y-123783390D01*
X167910714Y-123783390D02*
X167863095Y-123831009D01*
X167863095Y-123831009D02*
X167767857Y-123878628D01*
X167767857Y-123878628D02*
X167386905Y-123878628D01*
X168815476Y-123354819D02*
X168625000Y-123354819D01*
X168625000Y-123354819D02*
X168529762Y-123402438D01*
X168529762Y-123402438D02*
X168482143Y-123450057D01*
X168482143Y-123450057D02*
X168386905Y-123592914D01*
X168386905Y-123592914D02*
X168339286Y-123783390D01*
X168339286Y-123783390D02*
X168339286Y-124164342D01*
X168339286Y-124164342D02*
X168386905Y-124259580D01*
X168386905Y-124259580D02*
X168434524Y-124307200D01*
X168434524Y-124307200D02*
X168529762Y-124354819D01*
X168529762Y-124354819D02*
X168720238Y-124354819D01*
X168720238Y-124354819D02*
X168815476Y-124307200D01*
X168815476Y-124307200D02*
X168863095Y-124259580D01*
X168863095Y-124259580D02*
X168910714Y-124164342D01*
X168910714Y-124164342D02*
X168910714Y-123926247D01*
X168910714Y-123926247D02*
X168863095Y-123831009D01*
X168863095Y-123831009D02*
X168815476Y-123783390D01*
X168815476Y-123783390D02*
X168720238Y-123735771D01*
X168720238Y-123735771D02*
X168529762Y-123735771D01*
X168529762Y-123735771D02*
X168434524Y-123783390D01*
X168434524Y-123783390D02*
X168386905Y-123831009D01*
X168386905Y-123831009D02*
X168339286Y-123926247D01*
X184596666Y-113404819D02*
X184596666Y-114119104D01*
X184596666Y-114119104D02*
X184549047Y-114261961D01*
X184549047Y-114261961D02*
X184453809Y-114357200D01*
X184453809Y-114357200D02*
X184310952Y-114404819D01*
X184310952Y-114404819D02*
X184215714Y-114404819D01*
X185025238Y-113500057D02*
X185072857Y-113452438D01*
X185072857Y-113452438D02*
X185168095Y-113404819D01*
X185168095Y-113404819D02*
X185406190Y-113404819D01*
X185406190Y-113404819D02*
X185501428Y-113452438D01*
X185501428Y-113452438D02*
X185549047Y-113500057D01*
X185549047Y-113500057D02*
X185596666Y-113595295D01*
X185596666Y-113595295D02*
X185596666Y-113690533D01*
X185596666Y-113690533D02*
X185549047Y-113833390D01*
X185549047Y-113833390D02*
X184977619Y-114404819D01*
X184977619Y-114404819D02*
X185596666Y-114404819D01*
X167958333Y-121354819D02*
X167625000Y-120878628D01*
X167386905Y-121354819D02*
X167386905Y-120354819D01*
X167386905Y-120354819D02*
X167767857Y-120354819D01*
X167767857Y-120354819D02*
X167863095Y-120402438D01*
X167863095Y-120402438D02*
X167910714Y-120450057D01*
X167910714Y-120450057D02*
X167958333Y-120545295D01*
X167958333Y-120545295D02*
X167958333Y-120688152D01*
X167958333Y-120688152D02*
X167910714Y-120783390D01*
X167910714Y-120783390D02*
X167863095Y-120831009D01*
X167863095Y-120831009D02*
X167767857Y-120878628D01*
X167767857Y-120878628D02*
X167386905Y-120878628D01*
X168863095Y-120354819D02*
X168386905Y-120354819D01*
X168386905Y-120354819D02*
X168339286Y-120831009D01*
X168339286Y-120831009D02*
X168386905Y-120783390D01*
X168386905Y-120783390D02*
X168482143Y-120735771D01*
X168482143Y-120735771D02*
X168720238Y-120735771D01*
X168720238Y-120735771D02*
X168815476Y-120783390D01*
X168815476Y-120783390D02*
X168863095Y-120831009D01*
X168863095Y-120831009D02*
X168910714Y-120926247D01*
X168910714Y-120926247D02*
X168910714Y-121164342D01*
X168910714Y-121164342D02*
X168863095Y-121259580D01*
X168863095Y-121259580D02*
X168815476Y-121307200D01*
X168815476Y-121307200D02*
X168720238Y-121354819D01*
X168720238Y-121354819D02*
X168482143Y-121354819D01*
X168482143Y-121354819D02*
X168386905Y-121307200D01*
X168386905Y-121307200D02*
X168339286Y-121259580D01*
X152204819Y-150566666D02*
X151728628Y-150899999D01*
X152204819Y-151138094D02*
X151204819Y-151138094D01*
X151204819Y-151138094D02*
X151204819Y-150757142D01*
X151204819Y-150757142D02*
X151252438Y-150661904D01*
X151252438Y-150661904D02*
X151300057Y-150614285D01*
X151300057Y-150614285D02*
X151395295Y-150566666D01*
X151395295Y-150566666D02*
X151538152Y-150566666D01*
X151538152Y-150566666D02*
X151633390Y-150614285D01*
X151633390Y-150614285D02*
X151681009Y-150661904D01*
X151681009Y-150661904D02*
X151728628Y-150757142D01*
X151728628Y-150757142D02*
X151728628Y-151138094D01*
X151300057Y-150185713D02*
X151252438Y-150138094D01*
X151252438Y-150138094D02*
X151204819Y-150042856D01*
X151204819Y-150042856D02*
X151204819Y-149804761D01*
X151204819Y-149804761D02*
X151252438Y-149709523D01*
X151252438Y-149709523D02*
X151300057Y-149661904D01*
X151300057Y-149661904D02*
X151395295Y-149614285D01*
X151395295Y-149614285D02*
X151490533Y-149614285D01*
X151490533Y-149614285D02*
X151633390Y-149661904D01*
X151633390Y-149661904D02*
X152204819Y-150233332D01*
X152204819Y-150233332D02*
X152204819Y-149614285D01*
X157283333Y-136259580D02*
X157235714Y-136307200D01*
X157235714Y-136307200D02*
X157092857Y-136354819D01*
X157092857Y-136354819D02*
X156997619Y-136354819D01*
X156997619Y-136354819D02*
X156854762Y-136307200D01*
X156854762Y-136307200D02*
X156759524Y-136211961D01*
X156759524Y-136211961D02*
X156711905Y-136116723D01*
X156711905Y-136116723D02*
X156664286Y-135926247D01*
X156664286Y-135926247D02*
X156664286Y-135783390D01*
X156664286Y-135783390D02*
X156711905Y-135592914D01*
X156711905Y-135592914D02*
X156759524Y-135497676D01*
X156759524Y-135497676D02*
X156854762Y-135402438D01*
X156854762Y-135402438D02*
X156997619Y-135354819D01*
X156997619Y-135354819D02*
X157092857Y-135354819D01*
X157092857Y-135354819D02*
X157235714Y-135402438D01*
X157235714Y-135402438D02*
X157283333Y-135450057D01*
X157616667Y-135354819D02*
X158235714Y-135354819D01*
X158235714Y-135354819D02*
X157902381Y-135735771D01*
X157902381Y-135735771D02*
X158045238Y-135735771D01*
X158045238Y-135735771D02*
X158140476Y-135783390D01*
X158140476Y-135783390D02*
X158188095Y-135831009D01*
X158188095Y-135831009D02*
X158235714Y-135926247D01*
X158235714Y-135926247D02*
X158235714Y-136164342D01*
X158235714Y-136164342D02*
X158188095Y-136259580D01*
X158188095Y-136259580D02*
X158140476Y-136307200D01*
X158140476Y-136307200D02*
X158045238Y-136354819D01*
X158045238Y-136354819D02*
X157759524Y-136354819D01*
X157759524Y-136354819D02*
X157664286Y-136307200D01*
X157664286Y-136307200D02*
X157616667Y-136259580D01*
X167958333Y-127354819D02*
X167625000Y-126878628D01*
X167386905Y-127354819D02*
X167386905Y-126354819D01*
X167386905Y-126354819D02*
X167767857Y-126354819D01*
X167767857Y-126354819D02*
X167863095Y-126402438D01*
X167863095Y-126402438D02*
X167910714Y-126450057D01*
X167910714Y-126450057D02*
X167958333Y-126545295D01*
X167958333Y-126545295D02*
X167958333Y-126688152D01*
X167958333Y-126688152D02*
X167910714Y-126783390D01*
X167910714Y-126783390D02*
X167863095Y-126831009D01*
X167863095Y-126831009D02*
X167767857Y-126878628D01*
X167767857Y-126878628D02*
X167386905Y-126878628D01*
X168291667Y-126354819D02*
X168958333Y-126354819D01*
X168958333Y-126354819D02*
X168529762Y-127354819D01*
X132019706Y-108847981D02*
X131019706Y-108847981D01*
X131019706Y-108847981D02*
X131019706Y-108609886D01*
X131019706Y-108609886D02*
X131067325Y-108467029D01*
X131067325Y-108467029D02*
X131162563Y-108371791D01*
X131162563Y-108371791D02*
X131257801Y-108324172D01*
X131257801Y-108324172D02*
X131448277Y-108276553D01*
X131448277Y-108276553D02*
X131591134Y-108276553D01*
X131591134Y-108276553D02*
X131781610Y-108324172D01*
X131781610Y-108324172D02*
X131876848Y-108371791D01*
X131876848Y-108371791D02*
X131972087Y-108467029D01*
X131972087Y-108467029D02*
X132019706Y-108609886D01*
X132019706Y-108609886D02*
X132019706Y-108847981D01*
X132019706Y-107324172D02*
X132019706Y-107895600D01*
X132019706Y-107609886D02*
X131019706Y-107609886D01*
X131019706Y-107609886D02*
X131162563Y-107705124D01*
X131162563Y-107705124D02*
X131257801Y-107800362D01*
X131257801Y-107800362D02*
X131305420Y-107895600D01*
X131649706Y-103291791D02*
X130649706Y-103291791D01*
X131649706Y-102720363D02*
X131078277Y-103148934D01*
X130649706Y-102720363D02*
X131221134Y-103291791D01*
X160024819Y-150566666D02*
X159548628Y-150899999D01*
X160024819Y-151138094D02*
X159024819Y-151138094D01*
X159024819Y-151138094D02*
X159024819Y-150757142D01*
X159024819Y-150757142D02*
X159072438Y-150661904D01*
X159072438Y-150661904D02*
X159120057Y-150614285D01*
X159120057Y-150614285D02*
X159215295Y-150566666D01*
X159215295Y-150566666D02*
X159358152Y-150566666D01*
X159358152Y-150566666D02*
X159453390Y-150614285D01*
X159453390Y-150614285D02*
X159501009Y-150661904D01*
X159501009Y-150661904D02*
X159548628Y-150757142D01*
X159548628Y-150757142D02*
X159548628Y-151138094D01*
X160024819Y-149614285D02*
X160024819Y-150185713D01*
X160024819Y-149899999D02*
X159024819Y-149899999D01*
X159024819Y-149899999D02*
X159167676Y-149995237D01*
X159167676Y-149995237D02*
X159262914Y-150090475D01*
X159262914Y-150090475D02*
X159310533Y-150185713D01*
X162629706Y-106331791D02*
X163439229Y-106331791D01*
X163439229Y-106331791D02*
X163534467Y-106284172D01*
X163534467Y-106284172D02*
X163582087Y-106236553D01*
X163582087Y-106236553D02*
X163629706Y-106141315D01*
X163629706Y-106141315D02*
X163629706Y-105950839D01*
X163629706Y-105950839D02*
X163582087Y-105855601D01*
X163582087Y-105855601D02*
X163534467Y-105807982D01*
X163534467Y-105807982D02*
X163439229Y-105760363D01*
X163439229Y-105760363D02*
X162629706Y-105760363D01*
X163629706Y-104760363D02*
X163629706Y-105331791D01*
X163629706Y-105046077D02*
X162629706Y-105046077D01*
X162629706Y-105046077D02*
X162772563Y-105141315D01*
X162772563Y-105141315D02*
X162867801Y-105236553D01*
X162867801Y-105236553D02*
X162915420Y-105331791D01*
D12*
%TO.C,C5*%
X142160000Y-115390000D02*
X140631000Y-115390000D01*
X142160000Y-115430000D02*
X140635000Y-115430000D01*
X142160000Y-115470000D02*
X140639000Y-115470000D01*
X142160000Y-115510000D02*
X140644000Y-115510000D01*
X142160000Y-115550000D02*
X140650000Y-115550000D01*
X142160000Y-115590000D02*
X140657000Y-115590000D01*
X142160000Y-115630000D02*
X140664000Y-115630000D01*
X142160000Y-115670000D02*
X140672000Y-115670000D01*
X142160000Y-115710000D02*
X140680000Y-115710000D01*
X142160000Y-115750000D02*
X140689000Y-115750000D01*
X142160000Y-115790000D02*
X140699000Y-115790000D01*
X142160000Y-115830000D02*
X140709000Y-115830000D01*
X142160000Y-115871000D02*
X140720000Y-115871000D01*
X142160000Y-115911000D02*
X140732000Y-115911000D01*
X142160000Y-115951000D02*
X140745000Y-115951000D01*
X142160000Y-115991000D02*
X140758000Y-115991000D01*
X142160000Y-116031000D02*
X140772000Y-116031000D01*
X142160000Y-116071000D02*
X140786000Y-116071000D01*
X142160000Y-116111000D02*
X140802000Y-116111000D01*
X142160000Y-116151000D02*
X140818000Y-116151000D01*
X142160000Y-116191000D02*
X140835000Y-116191000D01*
X142160000Y-116231000D02*
X140852000Y-116231000D01*
X142160000Y-116271000D02*
X140871000Y-116271000D01*
X142160000Y-116311000D02*
X140890000Y-116311000D01*
X142160000Y-116351000D02*
X140910000Y-116351000D01*
X142160000Y-116391000D02*
X140932000Y-116391000D01*
X142160000Y-116431000D02*
X140953000Y-116431000D01*
X142160000Y-116471000D02*
X140976000Y-116471000D01*
X142160000Y-116511000D02*
X141000000Y-116511000D01*
X142160000Y-116551000D02*
X141025000Y-116551000D01*
X142160000Y-116591000D02*
X141051000Y-116591000D01*
X142160000Y-116631000D02*
X141078000Y-116631000D01*
X142160000Y-116671000D02*
X141105000Y-116671000D01*
X142160000Y-116711000D02*
X141135000Y-116711000D01*
X142160000Y-116751000D02*
X141165000Y-116751000D01*
X142160000Y-116791000D02*
X141196000Y-116791000D01*
X142160000Y-116831000D02*
X141229000Y-116831000D01*
X142160000Y-116871000D02*
X141263000Y-116871000D01*
X142160000Y-116911000D02*
X141299000Y-116911000D01*
X142160000Y-116951000D02*
X141336000Y-116951000D01*
X142160000Y-116991000D02*
X141374000Y-116991000D01*
X142160000Y-117031000D02*
X141415000Y-117031000D01*
X142160000Y-117071000D02*
X141457000Y-117071000D01*
X142160000Y-117111000D02*
X141501000Y-117111000D01*
X142160000Y-117151000D02*
X141547000Y-117151000D01*
X142160000Y-117191000D02*
X141595000Y-117191000D01*
X142160000Y-117231000D02*
X141646000Y-117231000D01*
X142160000Y-117271000D02*
X141700000Y-117271000D01*
X142160000Y-117311000D02*
X141757000Y-117311000D01*
X142160000Y-117351000D02*
X141817000Y-117351000D01*
X142160000Y-117391000D02*
X141881000Y-117391000D01*
X142160000Y-117431000D02*
X141949000Y-117431000D01*
X143484000Y-117751000D02*
X142916000Y-117751000D01*
X143718000Y-117711000D02*
X142682000Y-117711000D01*
X143877000Y-117671000D02*
X142523000Y-117671000D01*
X144005000Y-117631000D02*
X142395000Y-117631000D01*
X144115000Y-117591000D02*
X142285000Y-117591000D01*
X144211000Y-117551000D02*
X142189000Y-117551000D01*
X144298000Y-117511000D02*
X142102000Y-117511000D01*
X144378000Y-117471000D02*
X142022000Y-117471000D01*
X144451000Y-117431000D02*
X144240000Y-117431000D01*
X144519000Y-117391000D02*
X144240000Y-117391000D01*
X144583000Y-117351000D02*
X144240000Y-117351000D01*
X144643000Y-117311000D02*
X144240000Y-117311000D01*
X144675000Y-112345225D02*
X144675000Y-112845225D01*
X144700000Y-117271000D02*
X144240000Y-117271000D01*
X144754000Y-117231000D02*
X144240000Y-117231000D01*
X144805000Y-117191000D02*
X144240000Y-117191000D01*
X144853000Y-117151000D02*
X144240000Y-117151000D01*
X144899000Y-117111000D02*
X144240000Y-117111000D01*
X144925000Y-112595225D02*
X144425000Y-112595225D01*
X144943000Y-117071000D02*
X144240000Y-117071000D01*
X144985000Y-117031000D02*
X144240000Y-117031000D01*
X145026000Y-116991000D02*
X144240000Y-116991000D01*
X145064000Y-116951000D02*
X144240000Y-116951000D01*
X145101000Y-116911000D02*
X144240000Y-116911000D01*
X145137000Y-116871000D02*
X144240000Y-116871000D01*
X145171000Y-116831000D02*
X144240000Y-116831000D01*
X145204000Y-116791000D02*
X144240000Y-116791000D01*
X145235000Y-116751000D02*
X144240000Y-116751000D01*
X145265000Y-116711000D02*
X144240000Y-116711000D01*
X145295000Y-116671000D02*
X144240000Y-116671000D01*
X145322000Y-116631000D02*
X144240000Y-116631000D01*
X145349000Y-116591000D02*
X144240000Y-116591000D01*
X145375000Y-116551000D02*
X144240000Y-116551000D01*
X145400000Y-116511000D02*
X144240000Y-116511000D01*
X145424000Y-116471000D02*
X144240000Y-116471000D01*
X145447000Y-116431000D02*
X144240000Y-116431000D01*
X145468000Y-116391000D02*
X144240000Y-116391000D01*
X145490000Y-116351000D02*
X144240000Y-116351000D01*
X145510000Y-116311000D02*
X144240000Y-116311000D01*
X145529000Y-116271000D02*
X144240000Y-116271000D01*
X145548000Y-116231000D02*
X144240000Y-116231000D01*
X145565000Y-116191000D02*
X144240000Y-116191000D01*
X145582000Y-116151000D02*
X144240000Y-116151000D01*
X145598000Y-116111000D02*
X144240000Y-116111000D01*
X145614000Y-116071000D02*
X144240000Y-116071000D01*
X145628000Y-116031000D02*
X144240000Y-116031000D01*
X145642000Y-115991000D02*
X144240000Y-115991000D01*
X145655000Y-115951000D02*
X144240000Y-115951000D01*
X145668000Y-115911000D02*
X144240000Y-115911000D01*
X145680000Y-115871000D02*
X144240000Y-115871000D01*
X145691000Y-115830000D02*
X144240000Y-115830000D01*
X145701000Y-115790000D02*
X144240000Y-115790000D01*
X145711000Y-115750000D02*
X144240000Y-115750000D01*
X145720000Y-115710000D02*
X144240000Y-115710000D01*
X145728000Y-115670000D02*
X144240000Y-115670000D01*
X145736000Y-115630000D02*
X144240000Y-115630000D01*
X145743000Y-115590000D02*
X144240000Y-115590000D01*
X145750000Y-115550000D02*
X144240000Y-115550000D01*
X145756000Y-115510000D02*
X144240000Y-115510000D01*
X145761000Y-115470000D02*
X144240000Y-115470000D01*
X145765000Y-115430000D02*
X144240000Y-115430000D01*
X145769000Y-115390000D02*
X144240000Y-115390000D01*
X145773000Y-115350000D02*
X140627000Y-115350000D01*
X145776000Y-115310000D02*
X140624000Y-115310000D01*
X145778000Y-115270000D02*
X140622000Y-115270000D01*
X145779000Y-115230000D02*
X140621000Y-115230000D01*
X145780000Y-115150000D02*
X140620000Y-115150000D01*
X145780000Y-115190000D02*
X140620000Y-115190000D01*
X145820000Y-115150000D02*
G75*
G02*
X140580000Y-115150000I-2620000J0D01*
G01*
X140580000Y-115150000D02*
G75*
G02*
X145820000Y-115150000I2620000J0D01*
G01*
%TO.C,C8*%
X150645225Y-128925000D02*
X151145225Y-128925000D01*
X150895225Y-128675000D02*
X150895225Y-129175000D01*
X153450000Y-127820000D02*
X153450000Y-132980000D01*
X153490000Y-127820000D02*
X153490000Y-132980000D01*
X153530000Y-127821000D02*
X153530000Y-132979000D01*
X153570000Y-127822000D02*
X153570000Y-132978000D01*
X153610000Y-127824000D02*
X153610000Y-132976000D01*
X153650000Y-127827000D02*
X153650000Y-132973000D01*
X153690000Y-127831000D02*
X153690000Y-129360000D01*
X153690000Y-131440000D02*
X153690000Y-132969000D01*
X153730000Y-127835000D02*
X153730000Y-129360000D01*
X153730000Y-131440000D02*
X153730000Y-132965000D01*
X153770000Y-127839000D02*
X153770000Y-129360000D01*
X153770000Y-131440000D02*
X153770000Y-132961000D01*
X153810000Y-127844000D02*
X153810000Y-129360000D01*
X153810000Y-131440000D02*
X153810000Y-132956000D01*
X153850000Y-127850000D02*
X153850000Y-129360000D01*
X153850000Y-131440000D02*
X153850000Y-132950000D01*
X153890000Y-127857000D02*
X153890000Y-129360000D01*
X153890000Y-131440000D02*
X153890000Y-132943000D01*
X153930000Y-127864000D02*
X153930000Y-129360000D01*
X153930000Y-131440000D02*
X153930000Y-132936000D01*
X153970000Y-127872000D02*
X153970000Y-129360000D01*
X153970000Y-131440000D02*
X153970000Y-132928000D01*
X154010000Y-127880000D02*
X154010000Y-129360000D01*
X154010000Y-131440000D02*
X154010000Y-132920000D01*
X154050000Y-127889000D02*
X154050000Y-129360000D01*
X154050000Y-131440000D02*
X154050000Y-132911000D01*
X154090000Y-127899000D02*
X154090000Y-129360000D01*
X154090000Y-131440000D02*
X154090000Y-132901000D01*
X154130000Y-127909000D02*
X154130000Y-129360000D01*
X154130000Y-131440000D02*
X154130000Y-132891000D01*
X154171000Y-127920000D02*
X154171000Y-129360000D01*
X154171000Y-131440000D02*
X154171000Y-132880000D01*
X154211000Y-127932000D02*
X154211000Y-129360000D01*
X154211000Y-131440000D02*
X154211000Y-132868000D01*
X154251000Y-127945000D02*
X154251000Y-129360000D01*
X154251000Y-131440000D02*
X154251000Y-132855000D01*
X154291000Y-127958000D02*
X154291000Y-129360000D01*
X154291000Y-131440000D02*
X154291000Y-132842000D01*
X154331000Y-127972000D02*
X154331000Y-129360000D01*
X154331000Y-131440000D02*
X154331000Y-132828000D01*
X154371000Y-127986000D02*
X154371000Y-129360000D01*
X154371000Y-131440000D02*
X154371000Y-132814000D01*
X154411000Y-128002000D02*
X154411000Y-129360000D01*
X154411000Y-131440000D02*
X154411000Y-132798000D01*
X154451000Y-128018000D02*
X154451000Y-129360000D01*
X154451000Y-131440000D02*
X154451000Y-132782000D01*
X154491000Y-128035000D02*
X154491000Y-129360000D01*
X154491000Y-131440000D02*
X154491000Y-132765000D01*
X154531000Y-128052000D02*
X154531000Y-129360000D01*
X154531000Y-131440000D02*
X154531000Y-132748000D01*
X154571000Y-128071000D02*
X154571000Y-129360000D01*
X154571000Y-131440000D02*
X154571000Y-132729000D01*
X154611000Y-128090000D02*
X154611000Y-129360000D01*
X154611000Y-131440000D02*
X154611000Y-132710000D01*
X154651000Y-128110000D02*
X154651000Y-129360000D01*
X154651000Y-131440000D02*
X154651000Y-132690000D01*
X154691000Y-128132000D02*
X154691000Y-129360000D01*
X154691000Y-131440000D02*
X154691000Y-132668000D01*
X154731000Y-128153000D02*
X154731000Y-129360000D01*
X154731000Y-131440000D02*
X154731000Y-132647000D01*
X154771000Y-128176000D02*
X154771000Y-129360000D01*
X154771000Y-131440000D02*
X154771000Y-132624000D01*
X154811000Y-128200000D02*
X154811000Y-129360000D01*
X154811000Y-131440000D02*
X154811000Y-132600000D01*
X154851000Y-128225000D02*
X154851000Y-129360000D01*
X154851000Y-131440000D02*
X154851000Y-132575000D01*
X154891000Y-128251000D02*
X154891000Y-129360000D01*
X154891000Y-131440000D02*
X154891000Y-132549000D01*
X154931000Y-128278000D02*
X154931000Y-129360000D01*
X154931000Y-131440000D02*
X154931000Y-132522000D01*
X154971000Y-128305000D02*
X154971000Y-129360000D01*
X154971000Y-131440000D02*
X154971000Y-132495000D01*
X155011000Y-128335000D02*
X155011000Y-129360000D01*
X155011000Y-131440000D02*
X155011000Y-132465000D01*
X155051000Y-128365000D02*
X155051000Y-129360000D01*
X155051000Y-131440000D02*
X155051000Y-132435000D01*
X155091000Y-128396000D02*
X155091000Y-129360000D01*
X155091000Y-131440000D02*
X155091000Y-132404000D01*
X155131000Y-128429000D02*
X155131000Y-129360000D01*
X155131000Y-131440000D02*
X155131000Y-132371000D01*
X155171000Y-128463000D02*
X155171000Y-129360000D01*
X155171000Y-131440000D02*
X155171000Y-132337000D01*
X155211000Y-128499000D02*
X155211000Y-129360000D01*
X155211000Y-131440000D02*
X155211000Y-132301000D01*
X155251000Y-128536000D02*
X155251000Y-129360000D01*
X155251000Y-131440000D02*
X155251000Y-132264000D01*
X155291000Y-128574000D02*
X155291000Y-129360000D01*
X155291000Y-131440000D02*
X155291000Y-132226000D01*
X155331000Y-128615000D02*
X155331000Y-129360000D01*
X155331000Y-131440000D02*
X155331000Y-132185000D01*
X155371000Y-128657000D02*
X155371000Y-129360000D01*
X155371000Y-131440000D02*
X155371000Y-132143000D01*
X155411000Y-128701000D02*
X155411000Y-129360000D01*
X155411000Y-131440000D02*
X155411000Y-132099000D01*
X155451000Y-128747000D02*
X155451000Y-129360000D01*
X155451000Y-131440000D02*
X155451000Y-132053000D01*
X155491000Y-128795000D02*
X155491000Y-129360000D01*
X155491000Y-131440000D02*
X155491000Y-132005000D01*
X155531000Y-128846000D02*
X155531000Y-129360000D01*
X155531000Y-131440000D02*
X155531000Y-131954000D01*
X155571000Y-128900000D02*
X155571000Y-129360000D01*
X155571000Y-131440000D02*
X155571000Y-131900000D01*
X155611000Y-128957000D02*
X155611000Y-129360000D01*
X155611000Y-131440000D02*
X155611000Y-131843000D01*
X155651000Y-129017000D02*
X155651000Y-129360000D01*
X155651000Y-131440000D02*
X155651000Y-131783000D01*
X155691000Y-129081000D02*
X155691000Y-129360000D01*
X155691000Y-131440000D02*
X155691000Y-131719000D01*
X155731000Y-129149000D02*
X155731000Y-129360000D01*
X155731000Y-131440000D02*
X155731000Y-131651000D01*
X155771000Y-129222000D02*
X155771000Y-131578000D01*
X155811000Y-129302000D02*
X155811000Y-131498000D01*
X155851000Y-129389000D02*
X155851000Y-131411000D01*
X155891000Y-129485000D02*
X155891000Y-131315000D01*
X155931000Y-129595000D02*
X155931000Y-131205000D01*
X155971000Y-129723000D02*
X155971000Y-131077000D01*
X156011000Y-129882000D02*
X156011000Y-130918000D01*
X156051000Y-130116000D02*
X156051000Y-130684000D01*
X156070000Y-130400000D02*
G75*
G02*
X150830000Y-130400000I-2620000J0D01*
G01*
X150830000Y-130400000D02*
G75*
G02*
X156070000Y-130400000I2620000J0D01*
G01*
%TO.C,R9*%
X170855000Y-131530000D02*
X177395000Y-131530000D01*
X170855000Y-131860000D02*
X170855000Y-131530000D01*
X170855000Y-133940000D02*
X170855000Y-134270000D01*
X170855000Y-134270000D02*
X177395000Y-134270000D01*
X177395000Y-131530000D02*
X177395000Y-131860000D01*
X177395000Y-134270000D02*
X177395000Y-133940000D01*
%TO.C,C4*%
X127645225Y-148425000D02*
X128145225Y-148425000D01*
X127895225Y-148175000D02*
X127895225Y-148675000D01*
X130450000Y-147320000D02*
X130450000Y-152480000D01*
X130490000Y-147320000D02*
X130490000Y-152480000D01*
X130530000Y-147321000D02*
X130530000Y-152479000D01*
X130570000Y-147322000D02*
X130570000Y-152478000D01*
X130610000Y-147324000D02*
X130610000Y-152476000D01*
X130650000Y-147327000D02*
X130650000Y-152473000D01*
X130690000Y-147331000D02*
X130690000Y-148860000D01*
X130690000Y-150940000D02*
X130690000Y-152469000D01*
X130730000Y-147335000D02*
X130730000Y-148860000D01*
X130730000Y-150940000D02*
X130730000Y-152465000D01*
X130770000Y-147339000D02*
X130770000Y-148860000D01*
X130770000Y-150940000D02*
X130770000Y-152461000D01*
X130810000Y-147344000D02*
X130810000Y-148860000D01*
X130810000Y-150940000D02*
X130810000Y-152456000D01*
X130850000Y-147350000D02*
X130850000Y-148860000D01*
X130850000Y-150940000D02*
X130850000Y-152450000D01*
X130890000Y-147357000D02*
X130890000Y-148860000D01*
X130890000Y-150940000D02*
X130890000Y-152443000D01*
X130930000Y-147364000D02*
X130930000Y-148860000D01*
X130930000Y-150940000D02*
X130930000Y-152436000D01*
X130970000Y-147372000D02*
X130970000Y-148860000D01*
X130970000Y-150940000D02*
X130970000Y-152428000D01*
X131010000Y-147380000D02*
X131010000Y-148860000D01*
X131010000Y-150940000D02*
X131010000Y-152420000D01*
X131050000Y-147389000D02*
X131050000Y-148860000D01*
X131050000Y-150940000D02*
X131050000Y-152411000D01*
X131090000Y-147399000D02*
X131090000Y-148860000D01*
X131090000Y-150940000D02*
X131090000Y-152401000D01*
X131130000Y-147409000D02*
X131130000Y-148860000D01*
X131130000Y-150940000D02*
X131130000Y-152391000D01*
X131171000Y-147420000D02*
X131171000Y-148860000D01*
X131171000Y-150940000D02*
X131171000Y-152380000D01*
X131211000Y-147432000D02*
X131211000Y-148860000D01*
X131211000Y-150940000D02*
X131211000Y-152368000D01*
X131251000Y-147445000D02*
X131251000Y-148860000D01*
X131251000Y-150940000D02*
X131251000Y-152355000D01*
X131291000Y-147458000D02*
X131291000Y-148860000D01*
X131291000Y-150940000D02*
X131291000Y-152342000D01*
X131331000Y-147472000D02*
X131331000Y-148860000D01*
X131331000Y-150940000D02*
X131331000Y-152328000D01*
X131371000Y-147486000D02*
X131371000Y-148860000D01*
X131371000Y-150940000D02*
X131371000Y-152314000D01*
X131411000Y-147502000D02*
X131411000Y-148860000D01*
X131411000Y-150940000D02*
X131411000Y-152298000D01*
X131451000Y-147518000D02*
X131451000Y-148860000D01*
X131451000Y-150940000D02*
X131451000Y-152282000D01*
X131491000Y-147535000D02*
X131491000Y-148860000D01*
X131491000Y-150940000D02*
X131491000Y-152265000D01*
X131531000Y-147552000D02*
X131531000Y-148860000D01*
X131531000Y-150940000D02*
X131531000Y-152248000D01*
X131571000Y-147571000D02*
X131571000Y-148860000D01*
X131571000Y-150940000D02*
X131571000Y-152229000D01*
X131611000Y-147590000D02*
X131611000Y-148860000D01*
X131611000Y-150940000D02*
X131611000Y-152210000D01*
X131651000Y-147610000D02*
X131651000Y-148860000D01*
X131651000Y-150940000D02*
X131651000Y-152190000D01*
X131691000Y-147632000D02*
X131691000Y-148860000D01*
X131691000Y-150940000D02*
X131691000Y-152168000D01*
X131731000Y-147653000D02*
X131731000Y-148860000D01*
X131731000Y-150940000D02*
X131731000Y-152147000D01*
X131771000Y-147676000D02*
X131771000Y-148860000D01*
X131771000Y-150940000D02*
X131771000Y-152124000D01*
X131811000Y-147700000D02*
X131811000Y-148860000D01*
X131811000Y-150940000D02*
X131811000Y-152100000D01*
X131851000Y-147725000D02*
X131851000Y-148860000D01*
X131851000Y-150940000D02*
X131851000Y-152075000D01*
X131891000Y-147751000D02*
X131891000Y-148860000D01*
X131891000Y-150940000D02*
X131891000Y-152049000D01*
X131931000Y-147778000D02*
X131931000Y-148860000D01*
X131931000Y-150940000D02*
X131931000Y-152022000D01*
X131971000Y-147805000D02*
X131971000Y-148860000D01*
X131971000Y-150940000D02*
X131971000Y-151995000D01*
X132011000Y-147835000D02*
X132011000Y-148860000D01*
X132011000Y-150940000D02*
X132011000Y-151965000D01*
X132051000Y-147865000D02*
X132051000Y-148860000D01*
X132051000Y-150940000D02*
X132051000Y-151935000D01*
X132091000Y-147896000D02*
X132091000Y-148860000D01*
X132091000Y-150940000D02*
X132091000Y-151904000D01*
X132131000Y-147929000D02*
X132131000Y-148860000D01*
X132131000Y-150940000D02*
X132131000Y-151871000D01*
X132171000Y-147963000D02*
X132171000Y-148860000D01*
X132171000Y-150940000D02*
X132171000Y-151837000D01*
X132211000Y-147999000D02*
X132211000Y-148860000D01*
X132211000Y-150940000D02*
X132211000Y-151801000D01*
X132251000Y-148036000D02*
X132251000Y-148860000D01*
X132251000Y-150940000D02*
X132251000Y-151764000D01*
X132291000Y-148074000D02*
X132291000Y-148860000D01*
X132291000Y-150940000D02*
X132291000Y-151726000D01*
X132331000Y-148115000D02*
X132331000Y-148860000D01*
X132331000Y-150940000D02*
X132331000Y-151685000D01*
X132371000Y-148157000D02*
X132371000Y-148860000D01*
X132371000Y-150940000D02*
X132371000Y-151643000D01*
X132411000Y-148201000D02*
X132411000Y-148860000D01*
X132411000Y-150940000D02*
X132411000Y-151599000D01*
X132451000Y-148247000D02*
X132451000Y-148860000D01*
X132451000Y-150940000D02*
X132451000Y-151553000D01*
X132491000Y-148295000D02*
X132491000Y-148860000D01*
X132491000Y-150940000D02*
X132491000Y-151505000D01*
X132531000Y-148346000D02*
X132531000Y-148860000D01*
X132531000Y-150940000D02*
X132531000Y-151454000D01*
X132571000Y-148400000D02*
X132571000Y-148860000D01*
X132571000Y-150940000D02*
X132571000Y-151400000D01*
X132611000Y-148457000D02*
X132611000Y-148860000D01*
X132611000Y-150940000D02*
X132611000Y-151343000D01*
X132651000Y-148517000D02*
X132651000Y-148860000D01*
X132651000Y-150940000D02*
X132651000Y-151283000D01*
X132691000Y-148581000D02*
X132691000Y-148860000D01*
X132691000Y-150940000D02*
X132691000Y-151219000D01*
X132731000Y-148649000D02*
X132731000Y-148860000D01*
X132731000Y-150940000D02*
X132731000Y-151151000D01*
X132771000Y-148722000D02*
X132771000Y-151078000D01*
X132811000Y-148802000D02*
X132811000Y-150998000D01*
X132851000Y-148889000D02*
X132851000Y-150911000D01*
X132891000Y-148985000D02*
X132891000Y-150815000D01*
X132931000Y-149095000D02*
X132931000Y-150705000D01*
X132971000Y-149223000D02*
X132971000Y-150577000D01*
X133011000Y-149382000D02*
X133011000Y-150418000D01*
X133051000Y-149616000D02*
X133051000Y-150184000D01*
X133070000Y-149900000D02*
G75*
G02*
X127830000Y-149900000I-2620000J0D01*
G01*
X127830000Y-149900000D02*
G75*
G02*
X133070000Y-149900000I2620000J0D01*
G01*
%TO.C,U4*%
X146670000Y-114940000D02*
X146670000Y-116590000D01*
X146670000Y-118590000D02*
X146670000Y-120240000D01*
X146670000Y-120240000D02*
X164570000Y-120240000D01*
X164570000Y-114940000D02*
X146670000Y-114940000D01*
X164570000Y-120240000D02*
X164570000Y-114940000D01*
X146670000Y-116590000D02*
G75*
G02*
X146670000Y-118590000I0J-1000000D01*
G01*
%TO.C,R4*%
X170855000Y-116530000D02*
X177395000Y-116530000D01*
X170855000Y-116860000D02*
X170855000Y-116530000D01*
X170855000Y-118940000D02*
X170855000Y-119270000D01*
X170855000Y-119270000D02*
X177395000Y-119270000D01*
X177395000Y-116530000D02*
X177395000Y-116860000D01*
X177395000Y-119270000D02*
X177395000Y-118940000D01*
%TO.C,C1*%
X135554887Y-104519887D02*
X134025887Y-104519887D01*
X135554887Y-104559887D02*
X134029887Y-104559887D01*
X135554887Y-104599887D02*
X134033887Y-104599887D01*
X135554887Y-104639887D02*
X134038887Y-104639887D01*
X135554887Y-104679887D02*
X134044887Y-104679887D01*
X135554887Y-104719887D02*
X134051887Y-104719887D01*
X135554887Y-104759887D02*
X134058887Y-104759887D01*
X135554887Y-104799887D02*
X134066887Y-104799887D01*
X135554887Y-104839887D02*
X134074887Y-104839887D01*
X135554887Y-104879887D02*
X134083887Y-104879887D01*
X135554887Y-104919887D02*
X134093887Y-104919887D01*
X135554887Y-104959887D02*
X134103887Y-104959887D01*
X135554887Y-105000887D02*
X134114887Y-105000887D01*
X135554887Y-105040887D02*
X134126887Y-105040887D01*
X135554887Y-105080887D02*
X134139887Y-105080887D01*
X135554887Y-105120887D02*
X134152887Y-105120887D01*
X135554887Y-105160887D02*
X134166887Y-105160887D01*
X135554887Y-105200887D02*
X134180887Y-105200887D01*
X135554887Y-105240887D02*
X134196887Y-105240887D01*
X135554887Y-105280887D02*
X134212887Y-105280887D01*
X135554887Y-105320887D02*
X134229887Y-105320887D01*
X135554887Y-105360887D02*
X134246887Y-105360887D01*
X135554887Y-105400887D02*
X134265887Y-105400887D01*
X135554887Y-105440887D02*
X134284887Y-105440887D01*
X135554887Y-105480887D02*
X134304887Y-105480887D01*
X135554887Y-105520887D02*
X134326887Y-105520887D01*
X135554887Y-105560887D02*
X134347887Y-105560887D01*
X135554887Y-105600887D02*
X134370887Y-105600887D01*
X135554887Y-105640887D02*
X134394887Y-105640887D01*
X135554887Y-105680887D02*
X134419887Y-105680887D01*
X135554887Y-105720887D02*
X134445887Y-105720887D01*
X135554887Y-105760887D02*
X134472887Y-105760887D01*
X135554887Y-105800887D02*
X134499887Y-105800887D01*
X135554887Y-105840887D02*
X134529887Y-105840887D01*
X135554887Y-105880887D02*
X134559887Y-105880887D01*
X135554887Y-105920887D02*
X134590887Y-105920887D01*
X135554887Y-105960887D02*
X134623887Y-105960887D01*
X135554887Y-106000887D02*
X134657887Y-106000887D01*
X135554887Y-106040887D02*
X134693887Y-106040887D01*
X135554887Y-106080887D02*
X134730887Y-106080887D01*
X135554887Y-106120887D02*
X134768887Y-106120887D01*
X135554887Y-106160887D02*
X134809887Y-106160887D01*
X135554887Y-106200887D02*
X134851887Y-106200887D01*
X135554887Y-106240887D02*
X134895887Y-106240887D01*
X135554887Y-106280887D02*
X134941887Y-106280887D01*
X135554887Y-106320887D02*
X134989887Y-106320887D01*
X135554887Y-106360887D02*
X135040887Y-106360887D01*
X135554887Y-106400887D02*
X135094887Y-106400887D01*
X135554887Y-106440887D02*
X135151887Y-106440887D01*
X135554887Y-106480887D02*
X135211887Y-106480887D01*
X135554887Y-106520887D02*
X135275887Y-106520887D01*
X135554887Y-106560887D02*
X135343887Y-106560887D01*
X136878887Y-106880887D02*
X136310887Y-106880887D01*
X137112887Y-106840887D02*
X136076887Y-106840887D01*
X137271887Y-106800887D02*
X135917887Y-106800887D01*
X137399887Y-106760887D02*
X135789887Y-106760887D01*
X137509887Y-106720887D02*
X135679887Y-106720887D01*
X137605887Y-106680887D02*
X135583887Y-106680887D01*
X137692887Y-106640887D02*
X135496887Y-106640887D01*
X137772887Y-106600887D02*
X135416887Y-106600887D01*
X137845887Y-106560887D02*
X137634887Y-106560887D01*
X137913887Y-106520887D02*
X137634887Y-106520887D01*
X137977887Y-106480887D02*
X137634887Y-106480887D01*
X138037887Y-106440887D02*
X137634887Y-106440887D01*
X138069887Y-101475112D02*
X138069887Y-101975112D01*
X138094887Y-106400887D02*
X137634887Y-106400887D01*
X138148887Y-106360887D02*
X137634887Y-106360887D01*
X138199887Y-106320887D02*
X137634887Y-106320887D01*
X138247887Y-106280887D02*
X137634887Y-106280887D01*
X138293887Y-106240887D02*
X137634887Y-106240887D01*
X138319887Y-101725112D02*
X137819887Y-101725112D01*
X138337887Y-106200887D02*
X137634887Y-106200887D01*
X138379887Y-106160887D02*
X137634887Y-106160887D01*
X138420887Y-106120887D02*
X137634887Y-106120887D01*
X138458887Y-106080887D02*
X137634887Y-106080887D01*
X138495887Y-106040887D02*
X137634887Y-106040887D01*
X138531887Y-106000887D02*
X137634887Y-106000887D01*
X138565887Y-105960887D02*
X137634887Y-105960887D01*
X138598887Y-105920887D02*
X137634887Y-105920887D01*
X138629887Y-105880887D02*
X137634887Y-105880887D01*
X138659887Y-105840887D02*
X137634887Y-105840887D01*
X138689887Y-105800887D02*
X137634887Y-105800887D01*
X138716887Y-105760887D02*
X137634887Y-105760887D01*
X138743887Y-105720887D02*
X137634887Y-105720887D01*
X138769887Y-105680887D02*
X137634887Y-105680887D01*
X138794887Y-105640887D02*
X137634887Y-105640887D01*
X138818887Y-105600887D02*
X137634887Y-105600887D01*
X138841887Y-105560887D02*
X137634887Y-105560887D01*
X138862887Y-105520887D02*
X137634887Y-105520887D01*
X138884887Y-105480887D02*
X137634887Y-105480887D01*
X138904887Y-105440887D02*
X137634887Y-105440887D01*
X138923887Y-105400887D02*
X137634887Y-105400887D01*
X138942887Y-105360887D02*
X137634887Y-105360887D01*
X138959887Y-105320887D02*
X137634887Y-105320887D01*
X138976887Y-105280887D02*
X137634887Y-105280887D01*
X138992887Y-105240887D02*
X137634887Y-105240887D01*
X139008887Y-105200887D02*
X137634887Y-105200887D01*
X139022887Y-105160887D02*
X137634887Y-105160887D01*
X139036887Y-105120887D02*
X137634887Y-105120887D01*
X139049887Y-105080887D02*
X137634887Y-105080887D01*
X139062887Y-105040887D02*
X137634887Y-105040887D01*
X139074887Y-105000887D02*
X137634887Y-105000887D01*
X139085887Y-104959887D02*
X137634887Y-104959887D01*
X139095887Y-104919887D02*
X137634887Y-104919887D01*
X139105887Y-104879887D02*
X137634887Y-104879887D01*
X139114887Y-104839887D02*
X137634887Y-104839887D01*
X139122887Y-104799887D02*
X137634887Y-104799887D01*
X139130887Y-104759887D02*
X137634887Y-104759887D01*
X139137887Y-104719887D02*
X137634887Y-104719887D01*
X139144887Y-104679887D02*
X137634887Y-104679887D01*
X139150887Y-104639887D02*
X137634887Y-104639887D01*
X139155887Y-104599887D02*
X137634887Y-104599887D01*
X139159887Y-104559887D02*
X137634887Y-104559887D01*
X139163887Y-104519887D02*
X137634887Y-104519887D01*
X139167887Y-104479887D02*
X134021887Y-104479887D01*
X139170887Y-104439887D02*
X134018887Y-104439887D01*
X139172887Y-104399887D02*
X134016887Y-104399887D01*
X139173887Y-104359887D02*
X134015887Y-104359887D01*
X139174887Y-104279887D02*
X134014887Y-104279887D01*
X139174887Y-104319887D02*
X134014887Y-104319887D01*
X139214887Y-104279887D02*
G75*
G02*
X133974887Y-104279887I-2620000J0D01*
G01*
X133974887Y-104279887D02*
G75*
G02*
X139214887Y-104279887I2620000J0D01*
G01*
%TO.C,U2*%
X162210000Y-141020000D02*
X162210000Y-142670000D01*
X162210000Y-144670000D02*
X162210000Y-146320000D01*
X162210000Y-146320000D02*
X180110000Y-146320000D01*
X180110000Y-141020000D02*
X162210000Y-141020000D01*
X180110000Y-146320000D02*
X180110000Y-141020000D01*
X162210000Y-142670000D02*
G75*
G02*
X162210000Y-144670000I0J-1000000D01*
G01*
%TO.C,SW1*%
X147370000Y-148070000D02*
X148700000Y-148070000D01*
X147370000Y-149400000D02*
X147370000Y-148070000D01*
X147370000Y-150670000D02*
X147370000Y-153270000D01*
X147370000Y-150670000D02*
X150030000Y-150670000D01*
X147370000Y-153270000D02*
X150030000Y-153270000D01*
X150030000Y-150670000D02*
X150030000Y-153270000D01*
%TO.C,U5*%
X141360000Y-127330000D02*
X141360000Y-145230000D01*
X141360000Y-145230000D02*
X143010000Y-145230000D01*
X145010000Y-145230000D02*
X146660000Y-145230000D01*
X146660000Y-127330000D02*
X141360000Y-127330000D01*
X146660000Y-145230000D02*
X146660000Y-127330000D01*
X143010000Y-145230000D02*
G75*
G02*
X145010000Y-145230000I1000000J0D01*
G01*
%TO.C,BATT1*%
X123370000Y-112005000D02*
X123370000Y-109405000D01*
X126030000Y-109405000D02*
X123370000Y-109405000D01*
X126030000Y-112005000D02*
X123370000Y-112005000D01*
X126030000Y-112005000D02*
X126030000Y-109405000D01*
X126030000Y-113275000D02*
X126030000Y-114605000D01*
X126030000Y-114605000D02*
X124700000Y-114605000D01*
%TO.C,U3*%
X127740000Y-127330000D02*
X127740000Y-145230000D01*
X127740000Y-145230000D02*
X129390000Y-145230000D01*
X131390000Y-145230000D02*
X133040000Y-145230000D01*
X133040000Y-127330000D02*
X127740000Y-127330000D01*
X133040000Y-145230000D02*
X133040000Y-127330000D01*
X129390000Y-145230000D02*
G75*
G02*
X131390000Y-145230000I1000000J0D01*
G01*
%TO.C,C6*%
X161820000Y-153425000D02*
X160291000Y-153425000D01*
X161820000Y-153465000D02*
X160295000Y-153465000D01*
X161820000Y-153505000D02*
X160299000Y-153505000D01*
X161820000Y-153545000D02*
X160304000Y-153545000D01*
X161820000Y-153585000D02*
X160310000Y-153585000D01*
X161820000Y-153625000D02*
X160317000Y-153625000D01*
X161820000Y-153665000D02*
X160324000Y-153665000D01*
X161820000Y-153705000D02*
X160332000Y-153705000D01*
X161820000Y-153745000D02*
X160340000Y-153745000D01*
X161820000Y-153785000D02*
X160349000Y-153785000D01*
X161820000Y-153825000D02*
X160359000Y-153825000D01*
X161820000Y-153865000D02*
X160369000Y-153865000D01*
X161820000Y-153906000D02*
X160380000Y-153906000D01*
X161820000Y-153946000D02*
X160392000Y-153946000D01*
X161820000Y-153986000D02*
X160405000Y-153986000D01*
X161820000Y-154026000D02*
X160418000Y-154026000D01*
X161820000Y-154066000D02*
X160432000Y-154066000D01*
X161820000Y-154106000D02*
X160446000Y-154106000D01*
X161820000Y-154146000D02*
X160462000Y-154146000D01*
X161820000Y-154186000D02*
X160478000Y-154186000D01*
X161820000Y-154226000D02*
X160495000Y-154226000D01*
X161820000Y-154266000D02*
X160512000Y-154266000D01*
X161820000Y-154306000D02*
X160531000Y-154306000D01*
X161820000Y-154346000D02*
X160550000Y-154346000D01*
X161820000Y-154386000D02*
X160570000Y-154386000D01*
X161820000Y-154426000D02*
X160592000Y-154426000D01*
X161820000Y-154466000D02*
X160613000Y-154466000D01*
X161820000Y-154506000D02*
X160636000Y-154506000D01*
X161820000Y-154546000D02*
X160660000Y-154546000D01*
X161820000Y-154586000D02*
X160685000Y-154586000D01*
X161820000Y-154626000D02*
X160711000Y-154626000D01*
X161820000Y-154666000D02*
X160738000Y-154666000D01*
X161820000Y-154706000D02*
X160765000Y-154706000D01*
X161820000Y-154746000D02*
X160795000Y-154746000D01*
X161820000Y-154786000D02*
X160825000Y-154786000D01*
X161820000Y-154826000D02*
X160856000Y-154826000D01*
X161820000Y-154866000D02*
X160889000Y-154866000D01*
X161820000Y-154906000D02*
X160923000Y-154906000D01*
X161820000Y-154946000D02*
X160959000Y-154946000D01*
X161820000Y-154986000D02*
X160996000Y-154986000D01*
X161820000Y-155026000D02*
X161034000Y-155026000D01*
X161820000Y-155066000D02*
X161075000Y-155066000D01*
X161820000Y-155106000D02*
X161117000Y-155106000D01*
X161820000Y-155146000D02*
X161161000Y-155146000D01*
X161820000Y-155186000D02*
X161207000Y-155186000D01*
X161820000Y-155226000D02*
X161255000Y-155226000D01*
X161820000Y-155266000D02*
X161306000Y-155266000D01*
X161820000Y-155306000D02*
X161360000Y-155306000D01*
X161820000Y-155346000D02*
X161417000Y-155346000D01*
X161820000Y-155386000D02*
X161477000Y-155386000D01*
X161820000Y-155426000D02*
X161541000Y-155426000D01*
X161820000Y-155466000D02*
X161609000Y-155466000D01*
X163144000Y-155786000D02*
X162576000Y-155786000D01*
X163378000Y-155746000D02*
X162342000Y-155746000D01*
X163537000Y-155706000D02*
X162183000Y-155706000D01*
X163665000Y-155666000D02*
X162055000Y-155666000D01*
X163775000Y-155626000D02*
X161945000Y-155626000D01*
X163871000Y-155586000D02*
X161849000Y-155586000D01*
X163958000Y-155546000D02*
X161762000Y-155546000D01*
X164038000Y-155506000D02*
X161682000Y-155506000D01*
X164111000Y-155466000D02*
X163900000Y-155466000D01*
X164179000Y-155426000D02*
X163900000Y-155426000D01*
X164243000Y-155386000D02*
X163900000Y-155386000D01*
X164303000Y-155346000D02*
X163900000Y-155346000D01*
X164335000Y-150380225D02*
X164335000Y-150880225D01*
X164360000Y-155306000D02*
X163900000Y-155306000D01*
X164414000Y-155266000D02*
X163900000Y-155266000D01*
X164465000Y-155226000D02*
X163900000Y-155226000D01*
X164513000Y-155186000D02*
X163900000Y-155186000D01*
X164559000Y-155146000D02*
X163900000Y-155146000D01*
X164585000Y-150630225D02*
X164085000Y-150630225D01*
X164603000Y-155106000D02*
X163900000Y-155106000D01*
X164645000Y-155066000D02*
X163900000Y-155066000D01*
X164686000Y-155026000D02*
X163900000Y-155026000D01*
X164724000Y-154986000D02*
X163900000Y-154986000D01*
X164761000Y-154946000D02*
X163900000Y-154946000D01*
X164797000Y-154906000D02*
X163900000Y-154906000D01*
X164831000Y-154866000D02*
X163900000Y-154866000D01*
X164864000Y-154826000D02*
X163900000Y-154826000D01*
X164895000Y-154786000D02*
X163900000Y-154786000D01*
X164925000Y-154746000D02*
X163900000Y-154746000D01*
X164955000Y-154706000D02*
X163900000Y-154706000D01*
X164982000Y-154666000D02*
X163900000Y-154666000D01*
X165009000Y-154626000D02*
X163900000Y-154626000D01*
X165035000Y-154586000D02*
X163900000Y-154586000D01*
X165060000Y-154546000D02*
X163900000Y-154546000D01*
X165084000Y-154506000D02*
X163900000Y-154506000D01*
X165107000Y-154466000D02*
X163900000Y-154466000D01*
X165128000Y-154426000D02*
X163900000Y-154426000D01*
X165150000Y-154386000D02*
X163900000Y-154386000D01*
X165170000Y-154346000D02*
X163900000Y-154346000D01*
X165189000Y-154306000D02*
X163900000Y-154306000D01*
X165208000Y-154266000D02*
X163900000Y-154266000D01*
X165225000Y-154226000D02*
X163900000Y-154226000D01*
X165242000Y-154186000D02*
X163900000Y-154186000D01*
X165258000Y-154146000D02*
X163900000Y-154146000D01*
X165274000Y-154106000D02*
X163900000Y-154106000D01*
X165288000Y-154066000D02*
X163900000Y-154066000D01*
X165302000Y-154026000D02*
X163900000Y-154026000D01*
X165315000Y-153986000D02*
X163900000Y-153986000D01*
X165328000Y-153946000D02*
X163900000Y-153946000D01*
X165340000Y-153906000D02*
X163900000Y-153906000D01*
X165351000Y-153865000D02*
X163900000Y-153865000D01*
X165361000Y-153825000D02*
X163900000Y-153825000D01*
X165371000Y-153785000D02*
X163900000Y-153785000D01*
X165380000Y-153745000D02*
X163900000Y-153745000D01*
X165388000Y-153705000D02*
X163900000Y-153705000D01*
X165396000Y-153665000D02*
X163900000Y-153665000D01*
X165403000Y-153625000D02*
X163900000Y-153625000D01*
X165410000Y-153585000D02*
X163900000Y-153585000D01*
X165416000Y-153545000D02*
X163900000Y-153545000D01*
X165421000Y-153505000D02*
X163900000Y-153505000D01*
X165425000Y-153465000D02*
X163900000Y-153465000D01*
X165429000Y-153425000D02*
X163900000Y-153425000D01*
X165433000Y-153385000D02*
X160287000Y-153385000D01*
X165436000Y-153345000D02*
X160284000Y-153345000D01*
X165438000Y-153305000D02*
X160282000Y-153305000D01*
X165439000Y-153265000D02*
X160281000Y-153265000D01*
X165440000Y-153185000D02*
X160280000Y-153185000D01*
X165440000Y-153225000D02*
X160280000Y-153225000D01*
X165480000Y-153185000D02*
G75*
G02*
X160240000Y-153185000I-2620000J0D01*
G01*
X160240000Y-153185000D02*
G75*
G02*
X165480000Y-153185000I2620000J0D01*
G01*
%TO.C,C2*%
X133949000Y-111578887D02*
X133949000Y-111010887D01*
X133989000Y-111812887D02*
X133989000Y-110776887D01*
X134029000Y-111971887D02*
X134029000Y-110617887D01*
X134069000Y-112099887D02*
X134069000Y-110489887D01*
X134109000Y-112209887D02*
X134109000Y-110379887D01*
X134149000Y-112305887D02*
X134149000Y-110283887D01*
X134189000Y-112392887D02*
X134189000Y-110196887D01*
X134229000Y-112472887D02*
X134229000Y-110116887D01*
X134269000Y-110254887D02*
X134269000Y-110043887D01*
X134269000Y-112545887D02*
X134269000Y-112334887D01*
X134309000Y-110254887D02*
X134309000Y-109975887D01*
X134309000Y-112613887D02*
X134309000Y-112334887D01*
X134349000Y-110254887D02*
X134349000Y-109911887D01*
X134349000Y-112677887D02*
X134349000Y-112334887D01*
X134389000Y-110254887D02*
X134389000Y-109851887D01*
X134389000Y-112737887D02*
X134389000Y-112334887D01*
X134429000Y-110254887D02*
X134429000Y-109794887D01*
X134429000Y-112794887D02*
X134429000Y-112334887D01*
X134469000Y-110254887D02*
X134469000Y-109740887D01*
X134469000Y-112848887D02*
X134469000Y-112334887D01*
X134509000Y-110254887D02*
X134509000Y-109689887D01*
X134509000Y-112899887D02*
X134509000Y-112334887D01*
X134549000Y-110254887D02*
X134549000Y-109641887D01*
X134549000Y-112947887D02*
X134549000Y-112334887D01*
X134589000Y-110254887D02*
X134589000Y-109595887D01*
X134589000Y-112993887D02*
X134589000Y-112334887D01*
X134629000Y-110254887D02*
X134629000Y-109551887D01*
X134629000Y-113037887D02*
X134629000Y-112334887D01*
X134669000Y-110254887D02*
X134669000Y-109509887D01*
X134669000Y-113079887D02*
X134669000Y-112334887D01*
X134709000Y-110254887D02*
X134709000Y-109468887D01*
X134709000Y-113120887D02*
X134709000Y-112334887D01*
X134749000Y-110254887D02*
X134749000Y-109430887D01*
X134749000Y-113158887D02*
X134749000Y-112334887D01*
X134789000Y-110254887D02*
X134789000Y-109393887D01*
X134789000Y-113195887D02*
X134789000Y-112334887D01*
X134829000Y-110254887D02*
X134829000Y-109357887D01*
X134829000Y-113231887D02*
X134829000Y-112334887D01*
X134869000Y-110254887D02*
X134869000Y-109323887D01*
X134869000Y-113265887D02*
X134869000Y-112334887D01*
X134909000Y-110254887D02*
X134909000Y-109290887D01*
X134909000Y-113298887D02*
X134909000Y-112334887D01*
X134949000Y-110254887D02*
X134949000Y-109259887D01*
X134949000Y-113329887D02*
X134949000Y-112334887D01*
X134989000Y-110254887D02*
X134989000Y-109229887D01*
X134989000Y-113359887D02*
X134989000Y-112334887D01*
X135029000Y-110254887D02*
X135029000Y-109199887D01*
X135029000Y-113389887D02*
X135029000Y-112334887D01*
X135069000Y-110254887D02*
X135069000Y-109172887D01*
X135069000Y-113416887D02*
X135069000Y-112334887D01*
X135109000Y-110254887D02*
X135109000Y-109145887D01*
X135109000Y-113443887D02*
X135109000Y-112334887D01*
X135149000Y-110254887D02*
X135149000Y-109119887D01*
X135149000Y-113469887D02*
X135149000Y-112334887D01*
X135189000Y-110254887D02*
X135189000Y-109094887D01*
X135189000Y-113494887D02*
X135189000Y-112334887D01*
X135229000Y-110254887D02*
X135229000Y-109070887D01*
X135229000Y-113518887D02*
X135229000Y-112334887D01*
X135269000Y-110254887D02*
X135269000Y-109047887D01*
X135269000Y-113541887D02*
X135269000Y-112334887D01*
X135309000Y-110254887D02*
X135309000Y-109026887D01*
X135309000Y-113562887D02*
X135309000Y-112334887D01*
X135349000Y-110254887D02*
X135349000Y-109004887D01*
X135349000Y-113584887D02*
X135349000Y-112334887D01*
X135389000Y-110254887D02*
X135389000Y-108984887D01*
X135389000Y-113604887D02*
X135389000Y-112334887D01*
X135429000Y-110254887D02*
X135429000Y-108965887D01*
X135429000Y-113623887D02*
X135429000Y-112334887D01*
X135469000Y-110254887D02*
X135469000Y-108946887D01*
X135469000Y-113642887D02*
X135469000Y-112334887D01*
X135509000Y-110254887D02*
X135509000Y-108929887D01*
X135509000Y-113659887D02*
X135509000Y-112334887D01*
X135549000Y-110254887D02*
X135549000Y-108912887D01*
X135549000Y-113676887D02*
X135549000Y-112334887D01*
X135589000Y-110254887D02*
X135589000Y-108896887D01*
X135589000Y-113692887D02*
X135589000Y-112334887D01*
X135629000Y-110254887D02*
X135629000Y-108880887D01*
X135629000Y-113708887D02*
X135629000Y-112334887D01*
X135669000Y-110254887D02*
X135669000Y-108866887D01*
X135669000Y-113722887D02*
X135669000Y-112334887D01*
X135709000Y-110254887D02*
X135709000Y-108852887D01*
X135709000Y-113736887D02*
X135709000Y-112334887D01*
X135749000Y-110254887D02*
X135749000Y-108839887D01*
X135749000Y-113749887D02*
X135749000Y-112334887D01*
X135789000Y-110254887D02*
X135789000Y-108826887D01*
X135789000Y-113762887D02*
X135789000Y-112334887D01*
X135829000Y-110254887D02*
X135829000Y-108814887D01*
X135829000Y-113774887D02*
X135829000Y-112334887D01*
X135870000Y-110254887D02*
X135870000Y-108803887D01*
X135870000Y-113785887D02*
X135870000Y-112334887D01*
X135910000Y-110254887D02*
X135910000Y-108793887D01*
X135910000Y-113795887D02*
X135910000Y-112334887D01*
X135950000Y-110254887D02*
X135950000Y-108783887D01*
X135950000Y-113805887D02*
X135950000Y-112334887D01*
X135990000Y-110254887D02*
X135990000Y-108774887D01*
X135990000Y-113814887D02*
X135990000Y-112334887D01*
X136030000Y-110254887D02*
X136030000Y-108766887D01*
X136030000Y-113822887D02*
X136030000Y-112334887D01*
X136070000Y-110254887D02*
X136070000Y-108758887D01*
X136070000Y-113830887D02*
X136070000Y-112334887D01*
X136110000Y-110254887D02*
X136110000Y-108751887D01*
X136110000Y-113837887D02*
X136110000Y-112334887D01*
X136150000Y-110254887D02*
X136150000Y-108744887D01*
X136150000Y-113844887D02*
X136150000Y-112334887D01*
X136190000Y-110254887D02*
X136190000Y-108738887D01*
X136190000Y-113850887D02*
X136190000Y-112334887D01*
X136230000Y-110254887D02*
X136230000Y-108733887D01*
X136230000Y-113855887D02*
X136230000Y-112334887D01*
X136270000Y-110254887D02*
X136270000Y-108729887D01*
X136270000Y-113859887D02*
X136270000Y-112334887D01*
X136310000Y-110254887D02*
X136310000Y-108725887D01*
X136310000Y-113863887D02*
X136310000Y-112334887D01*
X136350000Y-113867887D02*
X136350000Y-108721887D01*
X136390000Y-113870887D02*
X136390000Y-108718887D01*
X136430000Y-113872887D02*
X136430000Y-108716887D01*
X136470000Y-113873887D02*
X136470000Y-108715887D01*
X136510000Y-113874887D02*
X136510000Y-108714887D01*
X136550000Y-113874887D02*
X136550000Y-108714887D01*
X139104775Y-113019887D02*
X139104775Y-112519887D01*
X139354775Y-112769887D02*
X138854775Y-112769887D01*
X139170000Y-111294887D02*
G75*
G02*
X133930000Y-111294887I-2620000J0D01*
G01*
X133930000Y-111294887D02*
G75*
G02*
X139170000Y-111294887I2620000J0D01*
G01*
%TO.C,R8*%
X170855000Y-128530000D02*
X177395000Y-128530000D01*
X170855000Y-128860000D02*
X170855000Y-128530000D01*
X170855000Y-130940000D02*
X170855000Y-131270000D01*
X170855000Y-131270000D02*
X177395000Y-131270000D01*
X177395000Y-128530000D02*
X177395000Y-128860000D01*
X177395000Y-131270000D02*
X177395000Y-130940000D01*
%TO.C,J1*%
X184870000Y-134650000D02*
X186200000Y-134650000D01*
X184870000Y-135980000D02*
X184870000Y-134650000D01*
X184870000Y-137250000D02*
X184870000Y-144930000D01*
X184870000Y-137250000D02*
X187530000Y-137250000D01*
X184870000Y-144930000D02*
X187530000Y-144930000D01*
X187530000Y-137250000D02*
X187530000Y-144930000D01*
%TO.C,R3*%
X170855000Y-113530000D02*
X177395000Y-113530000D01*
X170855000Y-113860000D02*
X170855000Y-113530000D01*
X170855000Y-115940000D02*
X170855000Y-116270000D01*
X170855000Y-116270000D02*
X177395000Y-116270000D01*
X177395000Y-113530000D02*
X177395000Y-113860000D01*
X177395000Y-116270000D02*
X177395000Y-115940000D01*
%TO.C,C7*%
X167780000Y-152645000D02*
X172940000Y-152645000D01*
X167780000Y-152685000D02*
X172940000Y-152685000D01*
X167781000Y-152605000D02*
X172939000Y-152605000D01*
X167782000Y-152565000D02*
X172938000Y-152565000D01*
X167784000Y-152525000D02*
X172936000Y-152525000D01*
X167787000Y-152485000D02*
X172933000Y-152485000D01*
X167791000Y-152445000D02*
X169320000Y-152445000D01*
X167795000Y-152405000D02*
X169320000Y-152405000D01*
X167799000Y-152365000D02*
X169320000Y-152365000D01*
X167804000Y-152325000D02*
X169320000Y-152325000D01*
X167810000Y-152285000D02*
X169320000Y-152285000D01*
X167817000Y-152245000D02*
X169320000Y-152245000D01*
X167824000Y-152205000D02*
X169320000Y-152205000D01*
X167832000Y-152165000D02*
X169320000Y-152165000D01*
X167840000Y-152125000D02*
X169320000Y-152125000D01*
X167849000Y-152085000D02*
X169320000Y-152085000D01*
X167859000Y-152045000D02*
X169320000Y-152045000D01*
X167869000Y-152005000D02*
X169320000Y-152005000D01*
X167880000Y-151964000D02*
X169320000Y-151964000D01*
X167892000Y-151924000D02*
X169320000Y-151924000D01*
X167905000Y-151884000D02*
X169320000Y-151884000D01*
X167918000Y-151844000D02*
X169320000Y-151844000D01*
X167932000Y-151804000D02*
X169320000Y-151804000D01*
X167946000Y-151764000D02*
X169320000Y-151764000D01*
X167962000Y-151724000D02*
X169320000Y-151724000D01*
X167978000Y-151684000D02*
X169320000Y-151684000D01*
X167995000Y-151644000D02*
X169320000Y-151644000D01*
X168012000Y-151604000D02*
X169320000Y-151604000D01*
X168031000Y-151564000D02*
X169320000Y-151564000D01*
X168050000Y-151524000D02*
X169320000Y-151524000D01*
X168070000Y-151484000D02*
X169320000Y-151484000D01*
X168092000Y-151444000D02*
X169320000Y-151444000D01*
X168113000Y-151404000D02*
X169320000Y-151404000D01*
X168136000Y-151364000D02*
X169320000Y-151364000D01*
X168160000Y-151324000D02*
X169320000Y-151324000D01*
X168185000Y-151284000D02*
X169320000Y-151284000D01*
X168211000Y-151244000D02*
X169320000Y-151244000D01*
X168238000Y-151204000D02*
X169320000Y-151204000D01*
X168265000Y-151164000D02*
X169320000Y-151164000D01*
X168295000Y-151124000D02*
X169320000Y-151124000D01*
X168325000Y-151084000D02*
X169320000Y-151084000D01*
X168356000Y-151044000D02*
X169320000Y-151044000D01*
X168389000Y-151004000D02*
X169320000Y-151004000D01*
X168423000Y-150964000D02*
X169320000Y-150964000D01*
X168459000Y-150924000D02*
X169320000Y-150924000D01*
X168496000Y-150884000D02*
X169320000Y-150884000D01*
X168534000Y-150844000D02*
X169320000Y-150844000D01*
X168575000Y-150804000D02*
X169320000Y-150804000D01*
X168617000Y-150764000D02*
X169320000Y-150764000D01*
X168635000Y-155239775D02*
X169135000Y-155239775D01*
X168661000Y-150724000D02*
X169320000Y-150724000D01*
X168707000Y-150684000D02*
X169320000Y-150684000D01*
X168755000Y-150644000D02*
X169320000Y-150644000D01*
X168806000Y-150604000D02*
X169320000Y-150604000D01*
X168860000Y-150564000D02*
X169320000Y-150564000D01*
X168885000Y-155489775D02*
X168885000Y-154989775D01*
X168917000Y-150524000D02*
X169320000Y-150524000D01*
X168977000Y-150484000D02*
X169320000Y-150484000D01*
X169041000Y-150444000D02*
X169320000Y-150444000D01*
X169109000Y-150404000D02*
X169320000Y-150404000D01*
X169182000Y-150364000D02*
X171538000Y-150364000D01*
X169262000Y-150324000D02*
X171458000Y-150324000D01*
X169349000Y-150284000D02*
X171371000Y-150284000D01*
X169445000Y-150244000D02*
X171275000Y-150244000D01*
X169555000Y-150204000D02*
X171165000Y-150204000D01*
X169683000Y-150164000D02*
X171037000Y-150164000D01*
X169842000Y-150124000D02*
X170878000Y-150124000D01*
X170076000Y-150084000D02*
X170644000Y-150084000D01*
X171400000Y-150404000D02*
X171611000Y-150404000D01*
X171400000Y-150444000D02*
X171679000Y-150444000D01*
X171400000Y-150484000D02*
X171743000Y-150484000D01*
X171400000Y-150524000D02*
X171803000Y-150524000D01*
X171400000Y-150564000D02*
X171860000Y-150564000D01*
X171400000Y-150604000D02*
X171914000Y-150604000D01*
X171400000Y-150644000D02*
X171965000Y-150644000D01*
X171400000Y-150684000D02*
X172013000Y-150684000D01*
X171400000Y-150724000D02*
X172059000Y-150724000D01*
X171400000Y-150764000D02*
X172103000Y-150764000D01*
X171400000Y-150804000D02*
X172145000Y-150804000D01*
X171400000Y-150844000D02*
X172186000Y-150844000D01*
X171400000Y-150884000D02*
X172224000Y-150884000D01*
X171400000Y-150924000D02*
X172261000Y-150924000D01*
X171400000Y-150964000D02*
X172297000Y-150964000D01*
X171400000Y-151004000D02*
X172331000Y-151004000D01*
X171400000Y-151044000D02*
X172364000Y-151044000D01*
X171400000Y-151084000D02*
X172395000Y-151084000D01*
X171400000Y-151124000D02*
X172425000Y-151124000D01*
X171400000Y-151164000D02*
X172455000Y-151164000D01*
X171400000Y-151204000D02*
X172482000Y-151204000D01*
X171400000Y-151244000D02*
X172509000Y-151244000D01*
X171400000Y-151284000D02*
X172535000Y-151284000D01*
X171400000Y-151324000D02*
X172560000Y-151324000D01*
X171400000Y-151364000D02*
X172584000Y-151364000D01*
X171400000Y-151404000D02*
X172607000Y-151404000D01*
X171400000Y-151444000D02*
X172628000Y-151444000D01*
X171400000Y-151484000D02*
X172650000Y-151484000D01*
X171400000Y-151524000D02*
X172670000Y-151524000D01*
X171400000Y-151564000D02*
X172689000Y-151564000D01*
X171400000Y-151604000D02*
X172708000Y-151604000D01*
X171400000Y-151644000D02*
X172725000Y-151644000D01*
X171400000Y-151684000D02*
X172742000Y-151684000D01*
X171400000Y-151724000D02*
X172758000Y-151724000D01*
X171400000Y-151764000D02*
X172774000Y-151764000D01*
X171400000Y-151804000D02*
X172788000Y-151804000D01*
X171400000Y-151844000D02*
X172802000Y-151844000D01*
X171400000Y-151884000D02*
X172815000Y-151884000D01*
X171400000Y-151924000D02*
X172828000Y-151924000D01*
X171400000Y-151964000D02*
X172840000Y-151964000D01*
X171400000Y-152005000D02*
X172851000Y-152005000D01*
X171400000Y-152045000D02*
X172861000Y-152045000D01*
X171400000Y-152085000D02*
X172871000Y-152085000D01*
X171400000Y-152125000D02*
X172880000Y-152125000D01*
X171400000Y-152165000D02*
X172888000Y-152165000D01*
X171400000Y-152205000D02*
X172896000Y-152205000D01*
X171400000Y-152245000D02*
X172903000Y-152245000D01*
X171400000Y-152285000D02*
X172910000Y-152285000D01*
X171400000Y-152325000D02*
X172916000Y-152325000D01*
X171400000Y-152365000D02*
X172921000Y-152365000D01*
X171400000Y-152405000D02*
X172925000Y-152405000D01*
X171400000Y-152445000D02*
X172929000Y-152445000D01*
X172980000Y-152685000D02*
G75*
G02*
X167740000Y-152685000I-2620000J0D01*
G01*
X167740000Y-152685000D02*
G75*
G02*
X172980000Y-152685000I2620000J0D01*
G01*
%TO.C,R6*%
X170855000Y-122530000D02*
X177395000Y-122530000D01*
X170855000Y-122860000D02*
X170855000Y-122530000D01*
X170855000Y-124940000D02*
X170855000Y-125270000D01*
X170855000Y-125270000D02*
X177395000Y-125270000D01*
X177395000Y-122530000D02*
X177395000Y-122860000D01*
X177395000Y-125270000D02*
X177395000Y-124940000D01*
%TO.C,J2*%
X182330000Y-114950000D02*
X183660000Y-114950000D01*
X182330000Y-116280000D02*
X182330000Y-114950000D01*
X182330000Y-117550000D02*
X182330000Y-132850000D01*
X182330000Y-117550000D02*
X184930000Y-117550000D01*
X182330000Y-132850000D02*
X187530000Y-132850000D01*
X184930000Y-114950000D02*
X187530000Y-114950000D01*
X184930000Y-117550000D02*
X184930000Y-114950000D01*
X187530000Y-114950000D02*
X187530000Y-132850000D01*
%TO.C,R5*%
X170855000Y-119530000D02*
X177395000Y-119530000D01*
X170855000Y-119860000D02*
X170855000Y-119530000D01*
X170855000Y-121940000D02*
X170855000Y-122270000D01*
X170855000Y-122270000D02*
X177395000Y-122270000D01*
X177395000Y-119530000D02*
X177395000Y-119860000D01*
X177395000Y-122270000D02*
X177395000Y-121940000D01*
%TO.C,R2*%
X152830000Y-147320000D02*
X152830000Y-153860000D01*
X152830000Y-153860000D02*
X153160000Y-153860000D01*
X153160000Y-147320000D02*
X152830000Y-147320000D01*
X155240000Y-147320000D02*
X155570000Y-147320000D01*
X155570000Y-147320000D02*
X155570000Y-153860000D01*
X155570000Y-153860000D02*
X155240000Y-153860000D01*
%TO.C,C3*%
X154849000Y-140184000D02*
X154849000Y-139616000D01*
X154889000Y-140418000D02*
X154889000Y-139382000D01*
X154929000Y-140577000D02*
X154929000Y-139223000D01*
X154969000Y-140705000D02*
X154969000Y-139095000D01*
X155009000Y-140815000D02*
X155009000Y-138985000D01*
X155049000Y-140911000D02*
X155049000Y-138889000D01*
X155089000Y-140998000D02*
X155089000Y-138802000D01*
X155129000Y-141078000D02*
X155129000Y-138722000D01*
X155169000Y-138860000D02*
X155169000Y-138649000D01*
X155169000Y-141151000D02*
X155169000Y-140940000D01*
X155209000Y-138860000D02*
X155209000Y-138581000D01*
X155209000Y-141219000D02*
X155209000Y-140940000D01*
X155249000Y-138860000D02*
X155249000Y-138517000D01*
X155249000Y-141283000D02*
X155249000Y-140940000D01*
X155289000Y-138860000D02*
X155289000Y-138457000D01*
X155289000Y-141343000D02*
X155289000Y-140940000D01*
X155329000Y-138860000D02*
X155329000Y-138400000D01*
X155329000Y-141400000D02*
X155329000Y-140940000D01*
X155369000Y-138860000D02*
X155369000Y-138346000D01*
X155369000Y-141454000D02*
X155369000Y-140940000D01*
X155409000Y-138860000D02*
X155409000Y-138295000D01*
X155409000Y-141505000D02*
X155409000Y-140940000D01*
X155449000Y-138860000D02*
X155449000Y-138247000D01*
X155449000Y-141553000D02*
X155449000Y-140940000D01*
X155489000Y-138860000D02*
X155489000Y-138201000D01*
X155489000Y-141599000D02*
X155489000Y-140940000D01*
X155529000Y-138860000D02*
X155529000Y-138157000D01*
X155529000Y-141643000D02*
X155529000Y-140940000D01*
X155569000Y-138860000D02*
X155569000Y-138115000D01*
X155569000Y-141685000D02*
X155569000Y-140940000D01*
X155609000Y-138860000D02*
X155609000Y-138074000D01*
X155609000Y-141726000D02*
X155609000Y-140940000D01*
X155649000Y-138860000D02*
X155649000Y-138036000D01*
X155649000Y-141764000D02*
X155649000Y-140940000D01*
X155689000Y-138860000D02*
X155689000Y-137999000D01*
X155689000Y-141801000D02*
X155689000Y-140940000D01*
X155729000Y-138860000D02*
X155729000Y-137963000D01*
X155729000Y-141837000D02*
X155729000Y-140940000D01*
X155769000Y-138860000D02*
X155769000Y-137929000D01*
X155769000Y-141871000D02*
X155769000Y-140940000D01*
X155809000Y-138860000D02*
X155809000Y-137896000D01*
X155809000Y-141904000D02*
X155809000Y-140940000D01*
X155849000Y-138860000D02*
X155849000Y-137865000D01*
X155849000Y-141935000D02*
X155849000Y-140940000D01*
X155889000Y-138860000D02*
X155889000Y-137835000D01*
X155889000Y-141965000D02*
X155889000Y-140940000D01*
X155929000Y-138860000D02*
X155929000Y-137805000D01*
X155929000Y-141995000D02*
X155929000Y-140940000D01*
X155969000Y-138860000D02*
X155969000Y-137778000D01*
X155969000Y-142022000D02*
X155969000Y-140940000D01*
X156009000Y-138860000D02*
X156009000Y-137751000D01*
X156009000Y-142049000D02*
X156009000Y-140940000D01*
X156049000Y-138860000D02*
X156049000Y-137725000D01*
X156049000Y-142075000D02*
X156049000Y-140940000D01*
X156089000Y-138860000D02*
X156089000Y-137700000D01*
X156089000Y-142100000D02*
X156089000Y-140940000D01*
X156129000Y-138860000D02*
X156129000Y-137676000D01*
X156129000Y-142124000D02*
X156129000Y-140940000D01*
X156169000Y-138860000D02*
X156169000Y-137653000D01*
X156169000Y-142147000D02*
X156169000Y-140940000D01*
X156209000Y-138860000D02*
X156209000Y-137632000D01*
X156209000Y-142168000D02*
X156209000Y-140940000D01*
X156249000Y-138860000D02*
X156249000Y-137610000D01*
X156249000Y-142190000D02*
X156249000Y-140940000D01*
X156289000Y-138860000D02*
X156289000Y-137590000D01*
X156289000Y-142210000D02*
X156289000Y-140940000D01*
X156329000Y-138860000D02*
X156329000Y-137571000D01*
X156329000Y-142229000D02*
X156329000Y-140940000D01*
X156369000Y-138860000D02*
X156369000Y-137552000D01*
X156369000Y-142248000D02*
X156369000Y-140940000D01*
X156409000Y-138860000D02*
X156409000Y-137535000D01*
X156409000Y-142265000D02*
X156409000Y-140940000D01*
X156449000Y-138860000D02*
X156449000Y-137518000D01*
X156449000Y-142282000D02*
X156449000Y-140940000D01*
X156489000Y-138860000D02*
X156489000Y-137502000D01*
X156489000Y-142298000D02*
X156489000Y-140940000D01*
X156529000Y-138860000D02*
X156529000Y-137486000D01*
X156529000Y-142314000D02*
X156529000Y-140940000D01*
X156569000Y-138860000D02*
X156569000Y-137472000D01*
X156569000Y-142328000D02*
X156569000Y-140940000D01*
X156609000Y-138860000D02*
X156609000Y-137458000D01*
X156609000Y-142342000D02*
X156609000Y-140940000D01*
X156649000Y-138860000D02*
X156649000Y-137445000D01*
X156649000Y-142355000D02*
X156649000Y-140940000D01*
X156689000Y-138860000D02*
X156689000Y-137432000D01*
X156689000Y-142368000D02*
X156689000Y-140940000D01*
X156729000Y-138860000D02*
X156729000Y-137420000D01*
X156729000Y-142380000D02*
X156729000Y-140940000D01*
X156770000Y-138860000D02*
X156770000Y-137409000D01*
X156770000Y-142391000D02*
X156770000Y-140940000D01*
X156810000Y-138860000D02*
X156810000Y-137399000D01*
X156810000Y-142401000D02*
X156810000Y-140940000D01*
X156850000Y-138860000D02*
X156850000Y-137389000D01*
X156850000Y-142411000D02*
X156850000Y-140940000D01*
X156890000Y-138860000D02*
X156890000Y-137380000D01*
X156890000Y-142420000D02*
X156890000Y-140940000D01*
X156930000Y-138860000D02*
X156930000Y-137372000D01*
X156930000Y-142428000D02*
X156930000Y-140940000D01*
X156970000Y-138860000D02*
X156970000Y-137364000D01*
X156970000Y-142436000D02*
X156970000Y-140940000D01*
X157010000Y-138860000D02*
X157010000Y-137357000D01*
X157010000Y-142443000D02*
X157010000Y-140940000D01*
X157050000Y-138860000D02*
X157050000Y-137350000D01*
X157050000Y-142450000D02*
X157050000Y-140940000D01*
X157090000Y-138860000D02*
X157090000Y-137344000D01*
X157090000Y-142456000D02*
X157090000Y-140940000D01*
X157130000Y-138860000D02*
X157130000Y-137339000D01*
X157130000Y-142461000D02*
X157130000Y-140940000D01*
X157170000Y-138860000D02*
X157170000Y-137335000D01*
X157170000Y-142465000D02*
X157170000Y-140940000D01*
X157210000Y-138860000D02*
X157210000Y-137331000D01*
X157210000Y-142469000D02*
X157210000Y-140940000D01*
X157250000Y-142473000D02*
X157250000Y-137327000D01*
X157290000Y-142476000D02*
X157290000Y-137324000D01*
X157330000Y-142478000D02*
X157330000Y-137322000D01*
X157370000Y-142479000D02*
X157370000Y-137321000D01*
X157410000Y-142480000D02*
X157410000Y-137320000D01*
X157450000Y-142480000D02*
X157450000Y-137320000D01*
X160004775Y-141625000D02*
X160004775Y-141125000D01*
X160254775Y-141375000D02*
X159754775Y-141375000D01*
X160070000Y-139900000D02*
G75*
G02*
X154830000Y-139900000I-2620000J0D01*
G01*
X154830000Y-139900000D02*
G75*
G02*
X160070000Y-139900000I2620000J0D01*
G01*
%TO.C,R7*%
X170855000Y-125530000D02*
X177395000Y-125530000D01*
X170855000Y-125860000D02*
X170855000Y-125530000D01*
X170855000Y-127940000D02*
X170855000Y-128270000D01*
X170855000Y-128270000D02*
X177395000Y-128270000D01*
X177395000Y-125530000D02*
X177395000Y-125860000D01*
X177395000Y-128270000D02*
X177395000Y-127940000D01*
%TO.C,D1*%
X127624887Y-105389887D02*
X127624887Y-110829887D01*
X127624887Y-110829887D02*
X130564887Y-110829887D01*
X129094887Y-104369887D02*
X129094887Y-105389887D01*
X129094887Y-111849887D02*
X129094887Y-110829887D01*
X130564887Y-105389887D02*
X127624887Y-105389887D01*
X130564887Y-106169887D02*
X127624887Y-106169887D01*
X130564887Y-106289887D02*
X127624887Y-106289887D01*
X130564887Y-106409887D02*
X127624887Y-106409887D01*
X130564887Y-110829887D02*
X130564887Y-105389887D01*
%TO.C,R1*%
X155830000Y-147320000D02*
X155830000Y-153860000D01*
X155830000Y-153860000D02*
X156160000Y-153860000D01*
X156160000Y-147320000D02*
X155830000Y-147320000D01*
X158240000Y-147320000D02*
X158570000Y-147320000D01*
X158570000Y-147320000D02*
X158570000Y-153860000D01*
X158570000Y-153860000D02*
X158240000Y-153860000D01*
%TO.C,U1*%
X146284887Y-100449887D02*
X146284887Y-110689887D01*
X146284887Y-103029887D02*
X143744887Y-103029887D01*
X146284887Y-105569887D02*
X143744887Y-105569887D01*
X146284887Y-108109887D02*
X143744887Y-108109887D01*
X162174887Y-100449887D02*
X146284887Y-100449887D01*
X162174887Y-100449887D02*
X162174887Y-110689887D01*
X162174887Y-110689887D02*
X146284887Y-110689887D01*
%TD*%
M02*
