%TF.GenerationSoftware,KiCad,Pcbnew,8.0.3*%
%TF.CreationDate,2024-10-06T22:02:56-03:00*%
%TF.ProjectId,digital_dice,64696769-7461-46c5-9f64-6963652e6b69,rev?*%
%TF.SameCoordinates,Original*%
%TF.FileFunction,Soldermask,Top*%
%TF.FilePolarity,Negative*%
%FSLAX46Y46*%
G04 Gerber Fmt 4.6, Leading zero omitted, Abs format (unit mm)*
G04 Created by KiCad (PCBNEW 8.0.3) date 2024-10-06 22:02:56*
%MOMM*%
%LPD*%
G01*
G04 APERTURE LIST*
%ADD10R,1.600000X1.600000*%
%ADD11C,1.600000*%
%ADD12O,1.600000X1.600000*%
%ADD13C,0.900000*%
%ADD14C,8.600000*%
%ADD15R,1.700000X1.700000*%
%ADD16O,1.700000X1.700000*%
%ADD17R,2.200000X2.200000*%
%ADD18O,2.200000X2.200000*%
%ADD19O,3.500000X3.500000*%
%ADD20R,2.000000X1.905000*%
%ADD21O,2.000000X1.905000*%
G04 APERTURE END LIST*
D10*
%TO.C,C5*%
X143200000Y-113900000D03*
D11*
X143200000Y-116400000D03*
%TD*%
D10*
%TO.C,C8*%
X152200000Y-130400000D03*
D11*
X154700000Y-130400000D03*
%TD*%
%TO.C,R9*%
X170315000Y-132900000D03*
D12*
X177935000Y-132900000D03*
%TD*%
D10*
%TO.C,C4*%
X129200000Y-149900000D03*
D11*
X131700000Y-149900000D03*
%TD*%
D10*
%TO.C,U4*%
X148000000Y-121400000D03*
D12*
X150540000Y-121400000D03*
X153080000Y-121400000D03*
X155620000Y-121400000D03*
X158160000Y-121400000D03*
X160700000Y-121400000D03*
X163240000Y-121400000D03*
X163240000Y-113780000D03*
X160700000Y-113780000D03*
X158160000Y-113780000D03*
X155620000Y-113780000D03*
X153080000Y-113780000D03*
X150540000Y-113780000D03*
X148000000Y-113780000D03*
%TD*%
D11*
%TO.C,R4*%
X170315000Y-117900000D03*
D12*
X177935000Y-117900000D03*
%TD*%
D10*
%TO.C,C1*%
X136594887Y-103029887D03*
D11*
X136594887Y-105529887D03*
%TD*%
D10*
%TO.C,U2*%
X163540000Y-147480000D03*
D12*
X166080000Y-147480000D03*
X168620000Y-147480000D03*
X171160000Y-147480000D03*
X173700000Y-147480000D03*
X176240000Y-147480000D03*
X178780000Y-147480000D03*
X178780000Y-139860000D03*
X176240000Y-139860000D03*
X173700000Y-139860000D03*
X171160000Y-139860000D03*
X168620000Y-139860000D03*
X166080000Y-139860000D03*
X163540000Y-139860000D03*
%TD*%
D13*
%TO.C,H4*%
X182775000Y-152000000D03*
X183719581Y-149719581D03*
X183719581Y-154280419D03*
X186000000Y-148775000D03*
D14*
X186000000Y-152000000D03*
D13*
X186000000Y-155225000D03*
X188280419Y-149719581D03*
X188280419Y-154280419D03*
X189225000Y-152000000D03*
%TD*%
D15*
%TO.C,SW1*%
X148700000Y-149400000D03*
D16*
X148700000Y-151940000D03*
%TD*%
D10*
%TO.C,U5*%
X147820000Y-143900000D03*
D12*
X147820000Y-141360000D03*
X147820000Y-138820000D03*
X147820000Y-136280000D03*
X147820000Y-133740000D03*
X147820000Y-131200000D03*
X147820000Y-128660000D03*
X140200000Y-128660000D03*
X140200000Y-131200000D03*
X140200000Y-133740000D03*
X140200000Y-136280000D03*
X140200000Y-138820000D03*
X140200000Y-141360000D03*
X140200000Y-143900000D03*
%TD*%
D15*
%TO.C,BATT1*%
X124700000Y-113275000D03*
D16*
X124700000Y-110735000D03*
%TD*%
D10*
%TO.C,U3*%
X134200000Y-143900000D03*
D12*
X134200000Y-141360000D03*
X134200000Y-138820000D03*
X134200000Y-136280000D03*
X134200000Y-133740000D03*
X134200000Y-131200000D03*
X134200000Y-128660000D03*
X126580000Y-128660000D03*
X126580000Y-131200000D03*
X126580000Y-133740000D03*
X126580000Y-136280000D03*
X126580000Y-138820000D03*
X126580000Y-141360000D03*
X126580000Y-143900000D03*
%TD*%
D13*
%TO.C,H2*%
X182775000Y-103200000D03*
X183719581Y-100919581D03*
X183719581Y-105480419D03*
X186000000Y-99975000D03*
D14*
X186000000Y-103200000D03*
D13*
X186000000Y-106425000D03*
X188280419Y-100919581D03*
X188280419Y-105480419D03*
X189225000Y-103200000D03*
%TD*%
D10*
%TO.C,C6*%
X162860000Y-151935000D03*
D11*
X162860000Y-154435000D03*
%TD*%
D10*
%TO.C,C2*%
X137800000Y-111294887D03*
D11*
X135300000Y-111294887D03*
%TD*%
%TO.C,R8*%
X170315000Y-129900000D03*
D12*
X177935000Y-129900000D03*
%TD*%
D15*
%TO.C,J1*%
X186200000Y-135980000D03*
D16*
X186200000Y-138520000D03*
X186200000Y-141060000D03*
X186200000Y-143600000D03*
%TD*%
D11*
%TO.C,R3*%
X170315000Y-114900000D03*
D12*
X177935000Y-114900000D03*
%TD*%
D10*
%TO.C,C7*%
X170360000Y-153935000D03*
D11*
X170360000Y-151435000D03*
%TD*%
%TO.C,R6*%
X170315000Y-123900000D03*
D12*
X177935000Y-123900000D03*
%TD*%
D15*
%TO.C,J2*%
X183660000Y-116280000D03*
D16*
X186200000Y-116280000D03*
X183660000Y-118820000D03*
X186200000Y-118820000D03*
X183660000Y-121360000D03*
X186200000Y-121360000D03*
X183660000Y-123900000D03*
X186200000Y-123900000D03*
X183660000Y-126440000D03*
X186200000Y-126440000D03*
X183660000Y-128980000D03*
X186200000Y-128980000D03*
X183660000Y-131520000D03*
X186200000Y-131520000D03*
%TD*%
D11*
%TO.C,R5*%
X170315000Y-120900000D03*
D12*
X177935000Y-120900000D03*
%TD*%
D11*
%TO.C,R2*%
X154200000Y-146780000D03*
D12*
X154200000Y-154400000D03*
%TD*%
D13*
%TO.C,H1*%
X118775000Y-103200000D03*
X119719581Y-100919581D03*
X119719581Y-105480419D03*
X122000000Y-99975000D03*
D14*
X122000000Y-103200000D03*
D13*
X122000000Y-106425000D03*
X124280419Y-100919581D03*
X124280419Y-105480419D03*
X125225000Y-103200000D03*
%TD*%
D10*
%TO.C,C3*%
X158700000Y-139900000D03*
D11*
X156200000Y-139900000D03*
%TD*%
%TO.C,R7*%
X170315000Y-126900000D03*
D12*
X177935000Y-126900000D03*
%TD*%
D17*
%TO.C,D1*%
X129094887Y-103029887D03*
D18*
X129094887Y-113189887D03*
%TD*%
D11*
%TO.C,R1*%
X157200000Y-146780000D03*
D12*
X157200000Y-154400000D03*
%TD*%
D19*
%TO.C,U1*%
X159254887Y-105569887D03*
D20*
X142594887Y-103029887D03*
D21*
X142594887Y-105569887D03*
X142594887Y-108109887D03*
%TD*%
D13*
%TO.C,H3*%
X118775000Y-152000000D03*
X119719581Y-149719581D03*
X119719581Y-154280419D03*
X122000000Y-148775000D03*
D14*
X122000000Y-152000000D03*
D13*
X122000000Y-155225000D03*
X124280419Y-149719581D03*
X124280419Y-154280419D03*
X125225000Y-152000000D03*
%TD*%
M02*
