%TF.GenerationSoftware,KiCad,Pcbnew,8.0.3*%
%TF.CreationDate,2024-10-06T22:02:56-03:00*%
%TF.ProjectId,digital_dice,64696769-7461-46c5-9f64-6963652e6b69,rev?*%
%TF.SameCoordinates,Original*%
%TF.FileFunction,Copper,L2,Bot*%
%TF.FilePolarity,Positive*%
%FSLAX46Y46*%
G04 Gerber Fmt 4.6, Leading zero omitted, Abs format (unit mm)*
G04 Created by KiCad (PCBNEW 8.0.3) date 2024-10-06 22:02:56*
%MOMM*%
%LPD*%
G01*
G04 APERTURE LIST*
%TA.AperFunction,ComponentPad*%
%ADD10R,1.600000X1.600000*%
%TD*%
%TA.AperFunction,ComponentPad*%
%ADD11C,1.600000*%
%TD*%
%TA.AperFunction,ComponentPad*%
%ADD12O,1.600000X1.600000*%
%TD*%
%TA.AperFunction,ComponentPad*%
%ADD13C,0.900000*%
%TD*%
%TA.AperFunction,ComponentPad*%
%ADD14C,8.600000*%
%TD*%
%TA.AperFunction,ComponentPad*%
%ADD15R,1.700000X1.700000*%
%TD*%
%TA.AperFunction,ComponentPad*%
%ADD16O,1.700000X1.700000*%
%TD*%
%TA.AperFunction,ComponentPad*%
%ADD17R,2.200000X2.200000*%
%TD*%
%TA.AperFunction,ComponentPad*%
%ADD18O,2.200000X2.200000*%
%TD*%
%TA.AperFunction,ComponentPad*%
%ADD19R,2.000000X1.905000*%
%TD*%
%TA.AperFunction,ComponentPad*%
%ADD20O,2.000000X1.905000*%
%TD*%
%TA.AperFunction,ViaPad*%
%ADD21C,0.800000*%
%TD*%
%TA.AperFunction,Conductor*%
%ADD22C,0.381000*%
%TD*%
G04 APERTURE END LIST*
D10*
%TO.P,C5,1*%
%TO.N,VCC*%
X143200000Y-113900000D03*
D11*
%TO.P,C5,2*%
%TO.N,GND*%
X143200000Y-116400000D03*
%TD*%
D10*
%TO.P,C8,1*%
%TO.N,VCC*%
X152200000Y-130400000D03*
D11*
%TO.P,C8,2*%
%TO.N,GND*%
X154700000Y-130400000D03*
%TD*%
%TO.P,R9,1*%
%TO.N,g*%
X170315000Y-132900000D03*
D12*
%TO.P,R9,2*%
%TO.N,LED7*%
X177935000Y-132900000D03*
%TD*%
D10*
%TO.P,C4,1*%
%TO.N,VCC*%
X129200000Y-149900000D03*
D11*
%TO.P,C4,2*%
%TO.N,GND*%
X131700000Y-149900000D03*
%TD*%
D10*
%TO.P,U4,1*%
%TO.N,Q0*%
X148000000Y-121400000D03*
D12*
%TO.P,U4,2*%
%TO.N,Q1*%
X150540000Y-121400000D03*
%TO.P,U4,3*%
%TO.N,Net-(U4-Pad3)*%
X153080000Y-121400000D03*
%TO.P,U4,4*%
%TO.N,GND*%
X155620000Y-121400000D03*
%TO.P,U4,5*%
X158160000Y-121400000D03*
%TO.P,U4,6*%
%TO.N,unconnected-(U4-Pad6)*%
X160700000Y-121400000D03*
%TO.P,U4,7,GND*%
%TO.N,GND*%
X163240000Y-121400000D03*
%TO.P,U4,8*%
%TO.N,c*%
X163240000Y-113780000D03*
%TO.P,U4,9*%
%TO.N,Net-(U4-Pad3)*%
X160700000Y-113780000D03*
%TO.P,U4,10*%
%TO.N,Q2*%
X158160000Y-113780000D03*
%TO.P,U4,11*%
%TO.N,a*%
X155620000Y-113780000D03*
%TO.P,U4,12*%
%TO.N,Net-(U3-Pad6)*%
X153080000Y-113780000D03*
%TO.P,U4,13*%
%TO.N,Q2*%
X150540000Y-113780000D03*
%TO.P,U4,14,VCC*%
%TO.N,VCC*%
X148000000Y-113780000D03*
%TD*%
D11*
%TO.P,R4,1*%
%TO.N,b*%
X170315000Y-117900000D03*
D12*
%TO.P,R4,2*%
%TO.N,LED2*%
X177935000Y-117900000D03*
%TD*%
D10*
%TO.P,C1,1*%
%TO.N,VBAT*%
X136594887Y-103029887D03*
D11*
%TO.P,C1,2*%
%TO.N,GND*%
X136594887Y-105529887D03*
%TD*%
D10*
%TO.P,U2,1*%
%TO.N,Net-(C7-Pad1)*%
X163540000Y-147480000D03*
D12*
%TO.P,U2,2*%
%TO.N,Net-(SW1-Pin_1)*%
X166080000Y-147480000D03*
%TO.P,U2,3*%
%TO.N,Net-(C6-Pad2)*%
X168620000Y-147480000D03*
%TO.P,U2,4*%
%TO.N,Net-(C7-Pad2)*%
X171160000Y-147480000D03*
%TO.P,U2,5*%
%TO.N,Q2*%
X173700000Y-147480000D03*
%TO.P,U2,6*%
%TO.N,~{Q2}*%
X176240000Y-147480000D03*
%TO.P,U2,7,GND*%
%TO.N,GND*%
X178780000Y-147480000D03*
%TO.P,U2,8*%
%TO.N,~{Q0}*%
X178780000Y-139860000D03*
%TO.P,U2,9*%
%TO.N,Q0*%
X176240000Y-139860000D03*
%TO.P,U2,10*%
%TO.N,~{Q1}*%
X173700000Y-139860000D03*
%TO.P,U2,11*%
%TO.N,Q1*%
X171160000Y-139860000D03*
%TO.P,U2,12*%
%TO.N,g*%
X168620000Y-139860000D03*
%TO.P,U2,13*%
%TO.N,Q0*%
X166080000Y-139860000D03*
%TO.P,U2,14,VCC*%
%TO.N,VCC*%
X163540000Y-139860000D03*
%TD*%
D13*
%TO.P,H4,1,1*%
%TO.N,GND*%
X182775000Y-152000000D03*
X183719581Y-149719581D03*
X183719581Y-154280419D03*
X186000000Y-148775000D03*
D14*
X186000000Y-152000000D03*
D13*
X186000000Y-155225000D03*
X188280419Y-149719581D03*
X188280419Y-154280419D03*
X189225000Y-152000000D03*
%TD*%
D15*
%TO.P,SW1,1,Pin_1*%
%TO.N,Net-(SW1-Pin_1)*%
X148700000Y-149400000D03*
D16*
%TO.P,SW1,2,Pin_2*%
%TO.N,Unstable_Clock*%
X148700000Y-151940000D03*
%TD*%
D10*
%TO.P,U5,1,CP1..3*%
%TO.N,Q0*%
X147820000Y-143900000D03*
D12*
%TO.P,U5,2,R0(1)*%
%TO.N,Q1*%
X147820000Y-141360000D03*
%TO.P,U5,3,R0(2)*%
%TO.N,Q2*%
X147820000Y-138820000D03*
%TO.P,U5,4*%
%TO.N,N/C*%
X147820000Y-136280000D03*
%TO.P,U5,5,VCC*%
%TO.N,VCC*%
X147820000Y-133740000D03*
%TO.P,U5,6*%
%TO.N,N/C*%
X147820000Y-131200000D03*
%TO.P,U5,7*%
X147820000Y-128660000D03*
%TO.P,U5,8,Q2*%
%TO.N,Q2*%
X140200000Y-128660000D03*
%TO.P,U5,9,Q1*%
%TO.N,Q1*%
X140200000Y-131200000D03*
%TO.P,U5,10,GND*%
%TO.N,GND*%
X140200000Y-133740000D03*
%TO.P,U5,11,Q3*%
%TO.N,unconnected-(U5-Q3-Pad11)*%
X140200000Y-136280000D03*
%TO.P,U5,12,Q0*%
%TO.N,Q0*%
X140200000Y-138820000D03*
%TO.P,U5,13*%
%TO.N,N/C*%
X140200000Y-141360000D03*
%TO.P,U5,14,CP0*%
%TO.N,Unstable_Clock*%
X140200000Y-143900000D03*
%TD*%
D15*
%TO.P,BATT1,1,Pin_1*%
%TO.N,Net-(BATT1-Pin_1)*%
X124700000Y-113275000D03*
D16*
%TO.P,BATT1,2,Pin_2*%
%TO.N,GND*%
X124700000Y-110735000D03*
%TD*%
D10*
%TO.P,U3,1*%
%TO.N,GND*%
X134200000Y-143900000D03*
D12*
%TO.P,U3,2*%
X134200000Y-141360000D03*
%TO.P,U3,3*%
%TO.N,unconnected-(U3-Pad3)*%
X134200000Y-138820000D03*
%TO.P,U3,4*%
%TO.N,Q0*%
X134200000Y-136280000D03*
%TO.P,U3,5*%
%TO.N,Q1*%
X134200000Y-133740000D03*
%TO.P,U3,6*%
%TO.N,Net-(U3-Pad6)*%
X134200000Y-131200000D03*
%TO.P,U3,7,GND*%
%TO.N,GND*%
X134200000Y-128660000D03*
%TO.P,U3,8*%
%TO.N,b*%
X126580000Y-128660000D03*
%TO.P,U3,9*%
%TO.N,Q2*%
X126580000Y-131200000D03*
%TO.P,U3,10*%
%TO.N,Q0*%
X126580000Y-133740000D03*
%TO.P,U3,11*%
%TO.N,unconnected-(U3-Pad11)*%
X126580000Y-136280000D03*
%TO.P,U3,12*%
%TO.N,GND*%
X126580000Y-138820000D03*
%TO.P,U3,13*%
X126580000Y-141360000D03*
%TO.P,U3,14,VCC*%
%TO.N,VCC*%
X126580000Y-143900000D03*
%TD*%
D13*
%TO.P,H2,1,1*%
%TO.N,GND*%
X182775000Y-103200000D03*
X183719581Y-100919581D03*
X183719581Y-105480419D03*
X186000000Y-99975000D03*
D14*
X186000000Y-103200000D03*
D13*
X186000000Y-106425000D03*
X188280419Y-100919581D03*
X188280419Y-105480419D03*
X189225000Y-103200000D03*
%TD*%
D10*
%TO.P,C6,1*%
%TO.N,Net-(SW1-Pin_1)*%
X162860000Y-151935000D03*
D11*
%TO.P,C6,2*%
%TO.N,Net-(C6-Pad2)*%
X162860000Y-154435000D03*
%TD*%
D10*
%TO.P,C2,1*%
%TO.N,VCC*%
X137800000Y-111294887D03*
D11*
%TO.P,C2,2*%
%TO.N,GND*%
X135300000Y-111294887D03*
%TD*%
%TO.P,R8,1*%
%TO.N,a*%
X170315000Y-129900000D03*
D12*
%TO.P,R8,2*%
%TO.N,LED6*%
X177935000Y-129900000D03*
%TD*%
D15*
%TO.P,J1,1,Pin_1*%
%TO.N,~{Q0}*%
X186200000Y-135980000D03*
D16*
%TO.P,J1,2,Pin_2*%
%TO.N,~{Q1}*%
X186200000Y-138520000D03*
%TO.P,J1,3,Pin_3*%
%TO.N,~{Q2}*%
X186200000Y-141060000D03*
%TO.P,J1,4,Pin_4*%
%TO.N,GND*%
X186200000Y-143600000D03*
%TD*%
D11*
%TO.P,R3,1*%
%TO.N,a*%
X170315000Y-114900000D03*
D12*
%TO.P,R3,2*%
%TO.N,LED1*%
X177935000Y-114900000D03*
%TD*%
D10*
%TO.P,C7,1*%
%TO.N,Net-(C7-Pad1)*%
X170360000Y-153935000D03*
D11*
%TO.P,C7,2*%
%TO.N,Net-(C7-Pad2)*%
X170360000Y-151435000D03*
%TD*%
%TO.P,R6,1*%
%TO.N,c*%
X170315000Y-123900000D03*
D12*
%TO.P,R6,2*%
%TO.N,LED4*%
X177935000Y-123900000D03*
%TD*%
D15*
%TO.P,J2,1,Pin_1*%
%TO.N,LED1*%
X183660000Y-116280000D03*
D16*
%TO.P,J2,2,Pin_2*%
%TO.N,GND*%
X186200000Y-116280000D03*
%TO.P,J2,3,Pin_3*%
%TO.N,LED2*%
X183660000Y-118820000D03*
%TO.P,J2,4,Pin_4*%
%TO.N,GND*%
X186200000Y-118820000D03*
%TO.P,J2,5,Pin_5*%
%TO.N,LED3*%
X183660000Y-121360000D03*
%TO.P,J2,6,Pin_6*%
%TO.N,GND*%
X186200000Y-121360000D03*
%TO.P,J2,7,Pin_7*%
%TO.N,LED4*%
X183660000Y-123900000D03*
%TO.P,J2,8,Pin_8*%
%TO.N,GND*%
X186200000Y-123900000D03*
%TO.P,J2,9,Pin_9*%
%TO.N,LED5*%
X183660000Y-126440000D03*
%TO.P,J2,10,Pin_10*%
%TO.N,GND*%
X186200000Y-126440000D03*
%TO.P,J2,11,Pin_11*%
%TO.N,LED6*%
X183660000Y-128980000D03*
%TO.P,J2,12,Pin_12*%
%TO.N,GND*%
X186200000Y-128980000D03*
%TO.P,J2,13,Pin_13*%
%TO.N,LED7*%
X183660000Y-131520000D03*
%TO.P,J2,14,Pin_14*%
%TO.N,GND*%
X186200000Y-131520000D03*
%TD*%
D11*
%TO.P,R5,1*%
%TO.N,c*%
X170315000Y-120900000D03*
D12*
%TO.P,R5,2*%
%TO.N,LED3*%
X177935000Y-120900000D03*
%TD*%
D11*
%TO.P,R2,1*%
%TO.N,VCC*%
X154200000Y-146780000D03*
D12*
%TO.P,R2,2*%
%TO.N,Net-(C7-Pad1)*%
X154200000Y-154400000D03*
%TD*%
D13*
%TO.P,H1,1,1*%
%TO.N,GND*%
X118775000Y-103200000D03*
X119719581Y-100919581D03*
X119719581Y-105480419D03*
X122000000Y-99975000D03*
D14*
X122000000Y-103200000D03*
D13*
X122000000Y-106425000D03*
X124280419Y-100919581D03*
X124280419Y-105480419D03*
X125225000Y-103200000D03*
%TD*%
D10*
%TO.P,C3,1*%
%TO.N,VCC*%
X158700000Y-139900000D03*
D11*
%TO.P,C3,2*%
%TO.N,GND*%
X156200000Y-139900000D03*
%TD*%
%TO.P,R7,1*%
%TO.N,b*%
X170315000Y-126900000D03*
D12*
%TO.P,R7,2*%
%TO.N,LED5*%
X177935000Y-126900000D03*
%TD*%
D17*
%TO.P,D1,1,K*%
%TO.N,VBAT*%
X129094887Y-103029887D03*
D18*
%TO.P,D1,2,A*%
%TO.N,Net-(BATT1-Pin_1)*%
X129094887Y-113189887D03*
%TD*%
D11*
%TO.P,R1,1*%
%TO.N,VCC*%
X157200000Y-146780000D03*
D12*
%TO.P,R1,2*%
%TO.N,Net-(C6-Pad2)*%
X157200000Y-154400000D03*
%TD*%
D19*
%TO.P,U1,1,VI*%
%TO.N,VBAT*%
X142594887Y-103029887D03*
D20*
%TO.P,U1,2,GND*%
%TO.N,GND*%
X142594887Y-105569887D03*
%TO.P,U1,3,VO*%
%TO.N,VCC*%
X142594887Y-108109887D03*
%TD*%
D13*
%TO.P,H3,1,1*%
%TO.N,GND*%
X118775000Y-152000000D03*
X119719581Y-149719581D03*
X119719581Y-154280419D03*
X122000000Y-148775000D03*
D14*
X122000000Y-152000000D03*
D13*
X122000000Y-155225000D03*
X124280419Y-149719581D03*
X124280419Y-154280419D03*
X125225000Y-152000000D03*
%TD*%
D21*
%TO.N,VCC*%
X141800000Y-121400000D03*
X144200000Y-123800000D03*
%TO.N,GND*%
X172975000Y-115175000D03*
X127975000Y-118175000D03*
X145975000Y-103175000D03*
X127975000Y-109175000D03*
X159900000Y-155400000D03*
X145975000Y-106175000D03*
X163975000Y-100175000D03*
X190975000Y-148175000D03*
X164000000Y-119400000D03*
X133975000Y-154175000D03*
X163975000Y-133175000D03*
X121975000Y-136175000D03*
X169975000Y-112175000D03*
X133975000Y-148175000D03*
X124975000Y-115175000D03*
X124975000Y-124175000D03*
X130975000Y-100175000D03*
X169975000Y-100175000D03*
X145975000Y-148175000D03*
X178975000Y-136175000D03*
X157960000Y-109480000D03*
X190975000Y-112175000D03*
X124975000Y-127175000D03*
X155420000Y-101860000D03*
X190975000Y-136175000D03*
X130975000Y-124175000D03*
X175975000Y-133175000D03*
X166975000Y-130175000D03*
X175975000Y-103175000D03*
X147800000Y-101860000D03*
X190975000Y-109175000D03*
X133975000Y-121175000D03*
X142975000Y-100175000D03*
X172975000Y-133175000D03*
X151975000Y-154175000D03*
X118975000Y-109175000D03*
X163975000Y-130175000D03*
X145975000Y-154175000D03*
X166975000Y-103175000D03*
X121975000Y-133175000D03*
X118975000Y-136175000D03*
X118975000Y-124175000D03*
X133975000Y-124175000D03*
X121975000Y-127175000D03*
X187975000Y-118175000D03*
X118975000Y-112175000D03*
X139975000Y-106175000D03*
X166200000Y-143200000D03*
X163975000Y-109175000D03*
X187975000Y-130175000D03*
X187975000Y-127175000D03*
X172975000Y-103175000D03*
X148975000Y-154175000D03*
X121975000Y-121175000D03*
X145975000Y-109175000D03*
X139975000Y-112175000D03*
X143200000Y-125800000D03*
X118975000Y-142175000D03*
X151975000Y-142175000D03*
X172975000Y-154175000D03*
X175975000Y-130175000D03*
X161000000Y-116400000D03*
X159300000Y-153200000D03*
X175975000Y-151175000D03*
X166975000Y-127175000D03*
X155420000Y-109480000D03*
X158000000Y-119400000D03*
X167000000Y-115100000D03*
X151975000Y-136175000D03*
X118975000Y-130175000D03*
X187975000Y-124175000D03*
X190975000Y-124175000D03*
X163975000Y-127175000D03*
X169975000Y-109175000D03*
X139975000Y-154175000D03*
X130975000Y-154175000D03*
X155420000Y-106940000D03*
X145800000Y-122200000D03*
X145975000Y-112175000D03*
X175975000Y-136175000D03*
X175975000Y-106175000D03*
X187975000Y-115175000D03*
X175975000Y-127175000D03*
X130975000Y-145175000D03*
X118975000Y-115175000D03*
X133975000Y-100175000D03*
X178975000Y-103175000D03*
X160500000Y-109480000D03*
X172975000Y-100175000D03*
X130975000Y-148175000D03*
X121975000Y-112175000D03*
X172975000Y-112175000D03*
X121975000Y-145175000D03*
X133975000Y-106175000D03*
X187975000Y-136175000D03*
X187975000Y-142175000D03*
X152880000Y-109480000D03*
X178975000Y-100175000D03*
X161000000Y-119400000D03*
X160975000Y-142175000D03*
X124975000Y-145175000D03*
X160975000Y-124175000D03*
X178975000Y-154175000D03*
X150340000Y-104400000D03*
X166975000Y-124175000D03*
X184975000Y-112175000D03*
X136975000Y-148175000D03*
X130975000Y-118175000D03*
X150340000Y-109480000D03*
X178975000Y-106175000D03*
X187975000Y-121175000D03*
X152880000Y-104400000D03*
X163975000Y-106175000D03*
X169975000Y-103175000D03*
X190975000Y-118175000D03*
X190975000Y-115175000D03*
X187975000Y-109175000D03*
X175975000Y-109175000D03*
X142975000Y-145175000D03*
X130975000Y-115175000D03*
X133975000Y-109175000D03*
X172975000Y-109175000D03*
X121975000Y-142175000D03*
X118975000Y-118175000D03*
X181975000Y-145175000D03*
X121975000Y-124175000D03*
X158000000Y-134800000D03*
X139975000Y-100175000D03*
X127975000Y-115175000D03*
X152000000Y-119400000D03*
X142975000Y-154175000D03*
X130975000Y-142175000D03*
X175975000Y-112175000D03*
X160975000Y-127175000D03*
X169975000Y-106175000D03*
X152880000Y-101860000D03*
X160600000Y-149200000D03*
X124975000Y-121175000D03*
X187975000Y-133175000D03*
X166975000Y-133175000D03*
X145975000Y-100175000D03*
X133975000Y-115175000D03*
X166975000Y-136175000D03*
X163975000Y-124175000D03*
X130975000Y-106175000D03*
X142975000Y-112175000D03*
X172975000Y-130175000D03*
X145975000Y-130175000D03*
X136975000Y-100175000D03*
X147800000Y-104400000D03*
X136975000Y-154175000D03*
X178975000Y-112175000D03*
X136975000Y-142175000D03*
X136975000Y-121175000D03*
X181975000Y-112175000D03*
X190975000Y-121175000D03*
X157960000Y-101860000D03*
X182000000Y-138400000D03*
X190975000Y-127175000D03*
X169800000Y-149400000D03*
X166975000Y-121175000D03*
X139975000Y-115175000D03*
X127975000Y-121175000D03*
X121975000Y-115175000D03*
X190975000Y-130175000D03*
X166975000Y-109175000D03*
X190975000Y-142175000D03*
X150340000Y-106940000D03*
X150340000Y-101860000D03*
X118975000Y-127175000D03*
X152880000Y-106940000D03*
X136975000Y-145175000D03*
X118975000Y-133175000D03*
X181975000Y-133175000D03*
X172975000Y-106175000D03*
X190975000Y-133175000D03*
X178975000Y-109175000D03*
X144200000Y-136200000D03*
X190975000Y-145175000D03*
X142400000Y-119400000D03*
X166975000Y-100175000D03*
X127975000Y-100175000D03*
X157975000Y-127175000D03*
X147800000Y-109480000D03*
X166975000Y-106175000D03*
X184975000Y-109175000D03*
X163975000Y-103175000D03*
X157975000Y-124175000D03*
X118975000Y-121175000D03*
X155000000Y-116400000D03*
X121975000Y-139175000D03*
X152000000Y-116400000D03*
X136975000Y-109175000D03*
X130975000Y-139175000D03*
X118975000Y-139175000D03*
X172975000Y-136175000D03*
X187975000Y-145175000D03*
X153600000Y-150000000D03*
X131000000Y-134200000D03*
X190975000Y-139175000D03*
X164000000Y-116400000D03*
X145975000Y-145175000D03*
X175975000Y-154175000D03*
X172975000Y-151175000D03*
X136975000Y-124175000D03*
X154975000Y-142175000D03*
X160500000Y-101860000D03*
X175975000Y-100175000D03*
X130975000Y-109175000D03*
X175975000Y-145175000D03*
X147800000Y-106940000D03*
X187975000Y-112175000D03*
X166800000Y-155000000D03*
X130975000Y-127175000D03*
X136975000Y-139175000D03*
X175975000Y-118175000D03*
X137500000Y-129800000D03*
X121975000Y-109175000D03*
X121975000Y-130175000D03*
X138000000Y-134800000D03*
X154975000Y-124175000D03*
X190975000Y-106175000D03*
X181975000Y-109175000D03*
X121975000Y-118175000D03*
X187975000Y-139175000D03*
X160975000Y-130175000D03*
X124975000Y-118175000D03*
X155400000Y-104400000D03*
X127975000Y-154175000D03*
X127975000Y-106175000D03*
X118975000Y-145175000D03*
X145975000Y-115175000D03*
X175975000Y-115175000D03*
X151975000Y-145175000D03*
X178975000Y-151175000D03*
X184200000Y-139800000D03*
%TD*%
D22*
%TO.N,VCC*%
X141800000Y-121400000D02*
X141700000Y-121400000D01*
X144200000Y-123800000D02*
X141800000Y-121400000D01*
X141700000Y-121400000D02*
X141700000Y-121400000D01*
X126580000Y-147280000D02*
X129200000Y-149900000D01*
X138200000Y-152200000D02*
X131500000Y-152200000D01*
X144200000Y-123900000D02*
X144200000Y-123900000D01*
X131500000Y-152200000D02*
X129200000Y-149900000D01*
X144200000Y-123900000D02*
X144200000Y-123800000D01*
X143620000Y-146780000D02*
X138200000Y-152200000D01*
X154200000Y-146780000D02*
X143620000Y-146780000D01*
X126580000Y-143900000D02*
X126580000Y-147280000D01*
%TO.N,b*%
X133700000Y-117900000D02*
X170315000Y-117900000D01*
X126580000Y-125020000D02*
X133700000Y-117900000D01*
X126580000Y-128660000D02*
X126580000Y-125020000D01*
%TO.N,Q0*%
X162040000Y-143900000D02*
X166080000Y-139860000D01*
X168200000Y-141980000D02*
X166080000Y-139860000D01*
X174120000Y-141980000D02*
X168200000Y-141980000D01*
X147820000Y-143900000D02*
X162040000Y-143900000D01*
X176240000Y-139860000D02*
X174120000Y-141980000D01*
%TO.N,Q1*%
X151780000Y-137400000D02*
X147820000Y-141360000D01*
X169700000Y-137400000D02*
X151780000Y-137400000D01*
X171160000Y-139860000D02*
X171160000Y-138860000D01*
X171160000Y-138860000D02*
X169700000Y-137400000D01*
X140740000Y-131200000D02*
X150540000Y-121400000D01*
X140200000Y-131200000D02*
X140740000Y-131200000D01*
%TO.N,Net-(C7-Pad1)*%
X168860000Y-153935000D02*
X170360000Y-153935000D01*
X163540000Y-148615000D02*
X168860000Y-153935000D01*
X163540000Y-147480000D02*
X163540000Y-148615000D01*
%TD*%
%TA.AperFunction,Conductor*%
%TO.N,GND*%
G36*
X169429455Y-138110685D02*
G01*
X169450097Y-138127319D01*
X170164114Y-138841336D01*
X170197599Y-138902659D01*
X170192615Y-138972351D01*
X170164120Y-139016693D01*
X170159952Y-139020860D01*
X170029432Y-139207265D01*
X170029431Y-139207267D01*
X170002382Y-139265275D01*
X169956209Y-139317714D01*
X169889016Y-139336866D01*
X169822135Y-139316650D01*
X169777618Y-139265275D01*
X169750568Y-139207267D01*
X169750567Y-139207265D01*
X169743963Y-139197834D01*
X169641940Y-139052128D01*
X169620045Y-139020858D01*
X169459141Y-138859954D01*
X169272734Y-138729432D01*
X169272732Y-138729431D01*
X169066497Y-138633261D01*
X169066488Y-138633258D01*
X168846697Y-138574366D01*
X168846693Y-138574365D01*
X168846692Y-138574365D01*
X168846691Y-138574364D01*
X168846686Y-138574364D01*
X168620002Y-138554532D01*
X168619998Y-138554532D01*
X168393313Y-138574364D01*
X168393302Y-138574366D01*
X168173511Y-138633258D01*
X168173502Y-138633261D01*
X167967267Y-138729431D01*
X167967265Y-138729432D01*
X167780858Y-138859954D01*
X167619954Y-139020858D01*
X167489432Y-139207265D01*
X167489431Y-139207267D01*
X167462382Y-139265275D01*
X167416209Y-139317714D01*
X167349016Y-139336866D01*
X167282135Y-139316650D01*
X167237618Y-139265275D01*
X167210568Y-139207267D01*
X167210567Y-139207265D01*
X167203963Y-139197834D01*
X167101940Y-139052128D01*
X167080045Y-139020858D01*
X166919141Y-138859954D01*
X166732734Y-138729432D01*
X166732732Y-138729431D01*
X166526497Y-138633261D01*
X166526488Y-138633258D01*
X166306697Y-138574366D01*
X166306693Y-138574365D01*
X166306692Y-138574365D01*
X166306691Y-138574364D01*
X166306686Y-138574364D01*
X166080002Y-138554532D01*
X166079998Y-138554532D01*
X165853313Y-138574364D01*
X165853302Y-138574366D01*
X165633511Y-138633258D01*
X165633502Y-138633261D01*
X165427267Y-138729431D01*
X165427265Y-138729432D01*
X165240858Y-138859954D01*
X165079954Y-139020858D01*
X164949432Y-139207265D01*
X164949431Y-139207267D01*
X164922382Y-139265275D01*
X164876209Y-139317714D01*
X164809016Y-139336866D01*
X164742135Y-139316650D01*
X164697618Y-139265275D01*
X164670568Y-139207267D01*
X164670567Y-139207265D01*
X164663963Y-139197834D01*
X164561940Y-139052128D01*
X164540045Y-139020858D01*
X164379141Y-138859954D01*
X164192734Y-138729432D01*
X164192732Y-138729431D01*
X163986497Y-138633261D01*
X163986488Y-138633258D01*
X163766697Y-138574366D01*
X163766693Y-138574365D01*
X163766692Y-138574365D01*
X163766691Y-138574364D01*
X163766686Y-138574364D01*
X163540002Y-138554532D01*
X163539998Y-138554532D01*
X163313313Y-138574364D01*
X163313302Y-138574366D01*
X163093511Y-138633258D01*
X163093502Y-138633261D01*
X162887267Y-138729431D01*
X162887265Y-138729432D01*
X162700858Y-138859954D01*
X162539954Y-139020858D01*
X162409432Y-139207265D01*
X162409431Y-139207267D01*
X162313261Y-139413502D01*
X162313258Y-139413511D01*
X162254366Y-139633302D01*
X162254364Y-139633313D01*
X162234532Y-139859998D01*
X162234532Y-139860001D01*
X162254364Y-140086686D01*
X162254366Y-140086697D01*
X162313258Y-140306488D01*
X162313261Y-140306497D01*
X162409431Y-140512732D01*
X162409432Y-140512734D01*
X162539954Y-140699141D01*
X162700858Y-140860045D01*
X162700861Y-140860047D01*
X162887266Y-140990568D01*
X163093504Y-141086739D01*
X163313308Y-141145635D01*
X163511701Y-141162992D01*
X163576770Y-141188444D01*
X163617749Y-141245035D01*
X163621627Y-141314797D01*
X163588575Y-141374201D01*
X161790097Y-143172681D01*
X161728774Y-143206166D01*
X161702416Y-143209000D01*
X149244499Y-143209000D01*
X149177460Y-143189315D01*
X149131705Y-143136511D01*
X149120499Y-143085000D01*
X149120499Y-143052129D01*
X149120498Y-143052123D01*
X149120497Y-143052116D01*
X149114091Y-142992517D01*
X149079567Y-142899954D01*
X149063797Y-142857671D01*
X149063793Y-142857664D01*
X148977547Y-142742455D01*
X148977544Y-142742452D01*
X148862335Y-142656206D01*
X148862328Y-142656202D01*
X148727482Y-142605908D01*
X148727483Y-142605908D01*
X148692404Y-142602137D01*
X148627853Y-142575399D01*
X148588005Y-142518006D01*
X148585512Y-142448181D01*
X148621165Y-142388092D01*
X148634539Y-142377272D01*
X148659140Y-142360046D01*
X148820045Y-142199141D01*
X148820047Y-142199139D01*
X148950568Y-142012734D01*
X149046739Y-141806496D01*
X149105635Y-141586692D01*
X149125468Y-141360000D01*
X149105635Y-141133308D01*
X149105632Y-141133298D01*
X149104694Y-141127974D01*
X149107184Y-141127534D01*
X149108491Y-141068363D01*
X149138985Y-141018235D01*
X151105086Y-139052135D01*
X157399500Y-139052135D01*
X157399500Y-140747870D01*
X157399501Y-140747876D01*
X157405908Y-140807483D01*
X157456202Y-140942328D01*
X157456206Y-140942335D01*
X157542452Y-141057544D01*
X157542455Y-141057547D01*
X157657664Y-141143793D01*
X157657671Y-141143797D01*
X157792517Y-141194091D01*
X157792516Y-141194091D01*
X157799444Y-141194835D01*
X157852127Y-141200500D01*
X159547872Y-141200499D01*
X159607483Y-141194091D01*
X159742331Y-141143796D01*
X159857546Y-141057546D01*
X159943796Y-140942331D01*
X159994091Y-140807483D01*
X160000500Y-140747873D01*
X160000499Y-139052128D01*
X159994091Y-138992517D01*
X159944648Y-138859954D01*
X159943797Y-138857671D01*
X159943793Y-138857664D01*
X159857547Y-138742455D01*
X159857544Y-138742452D01*
X159742335Y-138656206D01*
X159742328Y-138656202D01*
X159607482Y-138605908D01*
X159607483Y-138605908D01*
X159547883Y-138599501D01*
X159547881Y-138599500D01*
X159547873Y-138599500D01*
X159547864Y-138599500D01*
X157852129Y-138599500D01*
X157852123Y-138599501D01*
X157792516Y-138605908D01*
X157657671Y-138656202D01*
X157657664Y-138656206D01*
X157542455Y-138742452D01*
X157542452Y-138742455D01*
X157456206Y-138857664D01*
X157456202Y-138857671D01*
X157405908Y-138992517D01*
X157400085Y-139046686D01*
X157399501Y-139052123D01*
X157399500Y-139052135D01*
X151105086Y-139052135D01*
X152029902Y-138127319D01*
X152091225Y-138093834D01*
X152117583Y-138091000D01*
X169362416Y-138091000D01*
X169429455Y-138110685D01*
G37*
%TD.AperFunction*%
%TA.AperFunction,Conductor*%
G36*
X186002443Y-97400596D02*
G01*
X186450150Y-97418186D01*
X186459845Y-97418948D01*
X186902424Y-97471330D01*
X186912016Y-97472850D01*
X187349096Y-97559792D01*
X187358550Y-97562062D01*
X187787453Y-97683025D01*
X187796706Y-97686031D01*
X188214802Y-97840274D01*
X188223791Y-97843998D01*
X188628504Y-98030573D01*
X188637167Y-98034988D01*
X189025983Y-98252736D01*
X189034285Y-98257823D01*
X189404810Y-98505399D01*
X189412684Y-98511119D01*
X189762655Y-98787016D01*
X189770047Y-98793329D01*
X190097295Y-99095833D01*
X190104173Y-99102711D01*
X190406665Y-99429946D01*
X190412988Y-99437349D01*
X190688877Y-99787312D01*
X190694600Y-99795189D01*
X190942176Y-100165714D01*
X190947263Y-100174016D01*
X191165011Y-100562832D01*
X191169432Y-100571507D01*
X191356000Y-100976205D01*
X191359726Y-100985201D01*
X191513967Y-101403290D01*
X191516975Y-101412549D01*
X191637936Y-101841445D01*
X191640209Y-101850912D01*
X191727146Y-102287968D01*
X191728670Y-102297586D01*
X191781050Y-102740149D01*
X191781813Y-102749855D01*
X191799404Y-103197556D01*
X191799500Y-103202424D01*
X191799500Y-151997575D01*
X191799404Y-152002443D01*
X191781813Y-152450144D01*
X191781050Y-152459850D01*
X191728670Y-152902413D01*
X191727146Y-152912031D01*
X191640209Y-153349087D01*
X191637936Y-153358554D01*
X191516975Y-153787450D01*
X191513967Y-153796709D01*
X191359726Y-154214798D01*
X191356000Y-154223794D01*
X191169432Y-154628492D01*
X191165011Y-154637167D01*
X190947263Y-155025983D01*
X190942176Y-155034285D01*
X190694600Y-155404810D01*
X190688877Y-155412687D01*
X190412988Y-155762650D01*
X190406665Y-155770053D01*
X190104173Y-156097288D01*
X190097288Y-156104173D01*
X189770053Y-156406665D01*
X189762650Y-156412988D01*
X189412687Y-156688877D01*
X189404810Y-156694600D01*
X189034285Y-156942176D01*
X189025983Y-156947263D01*
X188637167Y-157165011D01*
X188628492Y-157169432D01*
X188223794Y-157356000D01*
X188214798Y-157359726D01*
X187796709Y-157513967D01*
X187787450Y-157516975D01*
X187358554Y-157637936D01*
X187349087Y-157640209D01*
X186912031Y-157727146D01*
X186902413Y-157728670D01*
X186459850Y-157781050D01*
X186450144Y-157781813D01*
X186002443Y-157799404D01*
X185997575Y-157799500D01*
X122002425Y-157799500D01*
X121997557Y-157799404D01*
X121549855Y-157781813D01*
X121540149Y-157781050D01*
X121097586Y-157728670D01*
X121087968Y-157727146D01*
X120650912Y-157640209D01*
X120641445Y-157637936D01*
X120212549Y-157516975D01*
X120203290Y-157513967D01*
X119785201Y-157359726D01*
X119776205Y-157356000D01*
X119371507Y-157169432D01*
X119362832Y-157165011D01*
X118974016Y-156947263D01*
X118965714Y-156942176D01*
X118595189Y-156694600D01*
X118587312Y-156688877D01*
X118237349Y-156412988D01*
X118229946Y-156406665D01*
X118209196Y-156387484D01*
X117902704Y-156104166D01*
X117895833Y-156097295D01*
X117593329Y-155770047D01*
X117587011Y-155762650D01*
X117553887Y-155720633D01*
X117311119Y-155412684D01*
X117305399Y-155404810D01*
X117302216Y-155400047D01*
X117194703Y-155239141D01*
X117057823Y-155034285D01*
X117052736Y-155025983D01*
X116834988Y-154637167D01*
X116830573Y-154628504D01*
X116725230Y-154399998D01*
X152894532Y-154399998D01*
X152894532Y-154400001D01*
X152914364Y-154626686D01*
X152914366Y-154626697D01*
X152973258Y-154846488D01*
X152973261Y-154846497D01*
X153069431Y-155052732D01*
X153069432Y-155052734D01*
X153199954Y-155239141D01*
X153360858Y-155400045D01*
X153360861Y-155400047D01*
X153547266Y-155530568D01*
X153753504Y-155626739D01*
X153973308Y-155685635D01*
X154135230Y-155699801D01*
X154199998Y-155705468D01*
X154200000Y-155705468D01*
X154200002Y-155705468D01*
X154256673Y-155700509D01*
X154426692Y-155685635D01*
X154646496Y-155626739D01*
X154852734Y-155530568D01*
X155039139Y-155400047D01*
X155200047Y-155239139D01*
X155330568Y-155052734D01*
X155426739Y-154846496D01*
X155485635Y-154626692D01*
X155505468Y-154400000D01*
X155505468Y-154399998D01*
X155894532Y-154399998D01*
X155894532Y-154400001D01*
X155914364Y-154626686D01*
X155914366Y-154626697D01*
X155973258Y-154846488D01*
X155973261Y-154846497D01*
X156069431Y-155052732D01*
X156069432Y-155052734D01*
X156199954Y-155239141D01*
X156360858Y-155400045D01*
X156360861Y-155400047D01*
X156547266Y-155530568D01*
X156753504Y-155626739D01*
X156973308Y-155685635D01*
X157135230Y-155699801D01*
X157199998Y-155705468D01*
X157200000Y-155705468D01*
X157200002Y-155705468D01*
X157256673Y-155700509D01*
X157426692Y-155685635D01*
X157646496Y-155626739D01*
X157852734Y-155530568D01*
X158039139Y-155400047D01*
X158200047Y-155239139D01*
X158330568Y-155052734D01*
X158426739Y-154846496D01*
X158485635Y-154626692D01*
X158502406Y-154434998D01*
X161554532Y-154434998D01*
X161554532Y-154435001D01*
X161574364Y-154661686D01*
X161574366Y-154661697D01*
X161633258Y-154881488D01*
X161633261Y-154881497D01*
X161729431Y-155087732D01*
X161729432Y-155087734D01*
X161859954Y-155274141D01*
X162020858Y-155435045D01*
X162020861Y-155435047D01*
X162207266Y-155565568D01*
X162413504Y-155661739D01*
X162633308Y-155720635D01*
X162795230Y-155734801D01*
X162859998Y-155740468D01*
X162860000Y-155740468D01*
X162860002Y-155740468D01*
X162916673Y-155735509D01*
X163086692Y-155720635D01*
X163306496Y-155661739D01*
X163512734Y-155565568D01*
X163699139Y-155435047D01*
X163860047Y-155274139D01*
X163990568Y-155087734D01*
X164086739Y-154881496D01*
X164145635Y-154661692D01*
X164165468Y-154435000D01*
X164145635Y-154208308D01*
X164086739Y-153988504D01*
X163990568Y-153782266D01*
X163860047Y-153595861D01*
X163860045Y-153595858D01*
X163702913Y-153438726D01*
X163669428Y-153377403D01*
X163674412Y-153307711D01*
X163716284Y-153251778D01*
X163762078Y-153230368D01*
X163767480Y-153229091D01*
X163767483Y-153229091D01*
X163902331Y-153178796D01*
X164017546Y-153092546D01*
X164103796Y-152977331D01*
X164154091Y-152842483D01*
X164160500Y-152782873D01*
X164160499Y-151087128D01*
X164154091Y-151027517D01*
X164139539Y-150988502D01*
X164103797Y-150892671D01*
X164103793Y-150892664D01*
X164017547Y-150777455D01*
X164017544Y-150777452D01*
X163902335Y-150691206D01*
X163902328Y-150691202D01*
X163767482Y-150640908D01*
X163767483Y-150640908D01*
X163707883Y-150634501D01*
X163707881Y-150634500D01*
X163707873Y-150634500D01*
X163707864Y-150634500D01*
X162012129Y-150634500D01*
X162012123Y-150634501D01*
X161952516Y-150640908D01*
X161817671Y-150691202D01*
X161817664Y-150691206D01*
X161702455Y-150777452D01*
X161702452Y-150777455D01*
X161616206Y-150892664D01*
X161616202Y-150892671D01*
X161565908Y-151027517D01*
X161562680Y-151057546D01*
X161559501Y-151087123D01*
X161559500Y-151087135D01*
X161559500Y-152782870D01*
X161559501Y-152782876D01*
X161565908Y-152842483D01*
X161616202Y-152977328D01*
X161616206Y-152977335D01*
X161702452Y-153092544D01*
X161702455Y-153092547D01*
X161817664Y-153178793D01*
X161817671Y-153178797D01*
X161870927Y-153198660D01*
X161952517Y-153229091D01*
X161952527Y-153229092D01*
X161957913Y-153230365D01*
X162018631Y-153264935D01*
X162051021Y-153326843D01*
X162044799Y-153396435D01*
X162017088Y-153438725D01*
X161859951Y-153595862D01*
X161729432Y-153782265D01*
X161729431Y-153782267D01*
X161633261Y-153988502D01*
X161633258Y-153988511D01*
X161574366Y-154208302D01*
X161574364Y-154208313D01*
X161554532Y-154434998D01*
X158502406Y-154434998D01*
X158505468Y-154400000D01*
X158485635Y-154173308D01*
X158426739Y-153953504D01*
X158330568Y-153747266D01*
X158200047Y-153560861D01*
X158200045Y-153560858D01*
X158039141Y-153399954D01*
X157852734Y-153269432D01*
X157852732Y-153269431D01*
X157646497Y-153173261D01*
X157646488Y-153173258D01*
X157426697Y-153114366D01*
X157426693Y-153114365D01*
X157426692Y-153114365D01*
X157426691Y-153114364D01*
X157426686Y-153114364D01*
X157200002Y-153094532D01*
X157199998Y-153094532D01*
X156973313Y-153114364D01*
X156973302Y-153114366D01*
X156753511Y-153173258D01*
X156753502Y-153173261D01*
X156547267Y-153269431D01*
X156547265Y-153269432D01*
X156360858Y-153399954D01*
X156199954Y-153560858D01*
X156069432Y-153747265D01*
X156069431Y-153747267D01*
X155973261Y-153953502D01*
X155973258Y-153953511D01*
X155914366Y-154173302D01*
X155914364Y-154173313D01*
X155894532Y-154399998D01*
X155505468Y-154399998D01*
X155485635Y-154173308D01*
X155426739Y-153953504D01*
X155330568Y-153747266D01*
X155200047Y-153560861D01*
X155200045Y-153560858D01*
X155039141Y-153399954D01*
X154852734Y-153269432D01*
X154852732Y-153269431D01*
X154646497Y-153173261D01*
X154646488Y-153173258D01*
X154426697Y-153114366D01*
X154426693Y-153114365D01*
X154426692Y-153114365D01*
X154426691Y-153114364D01*
X154426686Y-153114364D01*
X154200002Y-153094532D01*
X154199998Y-153094532D01*
X153973313Y-153114364D01*
X153973302Y-153114366D01*
X153753511Y-153173258D01*
X153753502Y-153173261D01*
X153547267Y-153269431D01*
X153547265Y-153269432D01*
X153360858Y-153399954D01*
X153199954Y-153560858D01*
X153069432Y-153747265D01*
X153069431Y-153747267D01*
X152973261Y-153953502D01*
X152973258Y-153953511D01*
X152914366Y-154173302D01*
X152914364Y-154173313D01*
X152894532Y-154399998D01*
X116725230Y-154399998D01*
X116643998Y-154223791D01*
X116640273Y-154214798D01*
X116624968Y-154173313D01*
X116486031Y-153796706D01*
X116483024Y-153787450D01*
X116431830Y-153605931D01*
X116362062Y-153358550D01*
X116359790Y-153349087D01*
X116272850Y-152912016D01*
X116271329Y-152902413D01*
X116270175Y-152892664D01*
X116218948Y-152459845D01*
X116218186Y-152450144D01*
X116216359Y-152403655D01*
X116200596Y-152002443D01*
X116200500Y-151997575D01*
X116200500Y-143899998D01*
X125274532Y-143899998D01*
X125274532Y-143900001D01*
X125294364Y-144126686D01*
X125294366Y-144126697D01*
X125353258Y-144346488D01*
X125353261Y-144346497D01*
X125449431Y-144552732D01*
X125449432Y-144552734D01*
X125579954Y-144739141D01*
X125740857Y-144900044D01*
X125740860Y-144900046D01*
X125740861Y-144900047D01*
X125836123Y-144966749D01*
X125879748Y-145021325D01*
X125889000Y-145068324D01*
X125889000Y-147211943D01*
X125889000Y-147348057D01*
X125889000Y-147348059D01*
X125888999Y-147348059D01*
X125915553Y-147481551D01*
X125915556Y-147481561D01*
X125967642Y-147607309D01*
X125967644Y-147607312D01*
X126043263Y-147720485D01*
X126043269Y-147720492D01*
X127863181Y-149540402D01*
X127896666Y-149601725D01*
X127899500Y-149628083D01*
X127899500Y-150747870D01*
X127899501Y-150747876D01*
X127905908Y-150807483D01*
X127956202Y-150942328D01*
X127956206Y-150942335D01*
X128042452Y-151057544D01*
X128042455Y-151057547D01*
X128157664Y-151143793D01*
X128157671Y-151143797D01*
X128292517Y-151194091D01*
X128292516Y-151194091D01*
X128299444Y-151194835D01*
X128352127Y-151200500D01*
X129471915Y-151200499D01*
X129538954Y-151220184D01*
X129559596Y-151236818D01*
X131059507Y-152736730D01*
X131059510Y-152736733D01*
X131155533Y-152800893D01*
X131155534Y-152800893D01*
X131155535Y-152800894D01*
X131172689Y-152812356D01*
X131298443Y-152864445D01*
X131298447Y-152864445D01*
X131298448Y-152864446D01*
X131431939Y-152891000D01*
X131431942Y-152891000D01*
X138268060Y-152891000D01*
X138357870Y-152873134D01*
X138401557Y-152864445D01*
X138527311Y-152812356D01*
X138544465Y-152800894D01*
X138640487Y-152736735D01*
X139437223Y-151939999D01*
X147344341Y-151939999D01*
X147344341Y-151940000D01*
X147364936Y-152175403D01*
X147364938Y-152175413D01*
X147426094Y-152403655D01*
X147426096Y-152403659D01*
X147426097Y-152403663D01*
X147491141Y-152543149D01*
X147525965Y-152617830D01*
X147525967Y-152617834D01*
X147577342Y-152691204D01*
X147661505Y-152811401D01*
X147828599Y-152978495D01*
X147861948Y-153001846D01*
X148022165Y-153114032D01*
X148022167Y-153114033D01*
X148022170Y-153114035D01*
X148236337Y-153213903D01*
X148464592Y-153275063D01*
X148652918Y-153291539D01*
X148699999Y-153295659D01*
X148700000Y-153295659D01*
X148700001Y-153295659D01*
X148739234Y-153292226D01*
X148935408Y-153275063D01*
X149163663Y-153213903D01*
X149377830Y-153114035D01*
X149571401Y-152978495D01*
X149738495Y-152811401D01*
X149874035Y-152617830D01*
X149973903Y-152403663D01*
X150035063Y-152175408D01*
X150055659Y-151940000D01*
X150035063Y-151704592D01*
X149973903Y-151476337D01*
X149874035Y-151262171D01*
X149836323Y-151208313D01*
X149738496Y-151068600D01*
X149697412Y-151027516D01*
X149616567Y-150946671D01*
X149583084Y-150885351D01*
X149588068Y-150815659D01*
X149629939Y-150759725D01*
X149660915Y-150742810D01*
X149792331Y-150693796D01*
X149907546Y-150607546D01*
X149993796Y-150492331D01*
X150044091Y-150357483D01*
X150050500Y-150297873D01*
X150050499Y-148502128D01*
X150044091Y-148442517D01*
X150001330Y-148327870D01*
X149993797Y-148307671D01*
X149993793Y-148307664D01*
X149907547Y-148192455D01*
X149907544Y-148192452D01*
X149792335Y-148106206D01*
X149792328Y-148106202D01*
X149657482Y-148055908D01*
X149657483Y-148055908D01*
X149597883Y-148049501D01*
X149597881Y-148049500D01*
X149597873Y-148049500D01*
X149597864Y-148049500D01*
X147802129Y-148049500D01*
X147802123Y-148049501D01*
X147742516Y-148055908D01*
X147607671Y-148106202D01*
X147607664Y-148106206D01*
X147492455Y-148192452D01*
X147492452Y-148192455D01*
X147406206Y-148307664D01*
X147406202Y-148307671D01*
X147355908Y-148442517D01*
X147349501Y-148502116D01*
X147349501Y-148502123D01*
X147349500Y-148502135D01*
X147349500Y-150297870D01*
X147349501Y-150297876D01*
X147355908Y-150357483D01*
X147406202Y-150492328D01*
X147406206Y-150492335D01*
X147492452Y-150607544D01*
X147492455Y-150607547D01*
X147607664Y-150693793D01*
X147607671Y-150693797D01*
X147739081Y-150742810D01*
X147795015Y-150784681D01*
X147819432Y-150850145D01*
X147804580Y-150918418D01*
X147783430Y-150946673D01*
X147661503Y-151068600D01*
X147525965Y-151262169D01*
X147525964Y-151262171D01*
X147426098Y-151476335D01*
X147426094Y-151476344D01*
X147364938Y-151704586D01*
X147364936Y-151704596D01*
X147344341Y-151939999D01*
X139437223Y-151939999D01*
X143869902Y-147507318D01*
X143931225Y-147473834D01*
X143957583Y-147471000D01*
X153031675Y-147471000D01*
X153098714Y-147490685D01*
X153133250Y-147523877D01*
X153199954Y-147619141D01*
X153360858Y-147780045D01*
X153360861Y-147780047D01*
X153547266Y-147910568D01*
X153753504Y-148006739D01*
X153973308Y-148065635D01*
X154135230Y-148079801D01*
X154199998Y-148085468D01*
X154200000Y-148085468D01*
X154200002Y-148085468D01*
X154256673Y-148080509D01*
X154426692Y-148065635D01*
X154646496Y-148006739D01*
X154852734Y-147910568D01*
X155039139Y-147780047D01*
X155200047Y-147619139D01*
X155330568Y-147432734D01*
X155426739Y-147226496D01*
X155485635Y-147006692D01*
X155505468Y-146780000D01*
X155505468Y-146779998D01*
X155894532Y-146779998D01*
X155894532Y-146780001D01*
X155914364Y-147006686D01*
X155914366Y-147006697D01*
X155973258Y-147226488D01*
X155973261Y-147226497D01*
X156069431Y-147432732D01*
X156069432Y-147432734D01*
X156199954Y-147619141D01*
X156360858Y-147780045D01*
X156360861Y-147780047D01*
X156547266Y-147910568D01*
X156753504Y-148006739D01*
X156973308Y-148065635D01*
X157135230Y-148079801D01*
X157199998Y-148085468D01*
X157200000Y-148085468D01*
X157200002Y-148085468D01*
X157256673Y-148080509D01*
X157426692Y-148065635D01*
X157646496Y-148006739D01*
X157852734Y-147910568D01*
X158039139Y-147780047D01*
X158200047Y-147619139D01*
X158330568Y-147432734D01*
X158426739Y-147226496D01*
X158485635Y-147006692D01*
X158505468Y-146780000D01*
X158492531Y-146632135D01*
X162239500Y-146632135D01*
X162239500Y-148327870D01*
X162239501Y-148327876D01*
X162245908Y-148387483D01*
X162296202Y-148522328D01*
X162296206Y-148522335D01*
X162382452Y-148637544D01*
X162382455Y-148637547D01*
X162497664Y-148723793D01*
X162497671Y-148723797D01*
X162542618Y-148740561D01*
X162632517Y-148774091D01*
X162692127Y-148780500D01*
X162777765Y-148780499D01*
X162844803Y-148800183D01*
X162890559Y-148852986D01*
X162892326Y-148857046D01*
X162927644Y-148942312D01*
X163003263Y-149055485D01*
X163003269Y-149055492D01*
X168419507Y-154471730D01*
X168419514Y-154471736D01*
X168532687Y-154547355D01*
X168532690Y-154547357D01*
X168658438Y-154599443D01*
X168658443Y-154599445D01*
X168658447Y-154599445D01*
X168658448Y-154599446D01*
X168791939Y-154626000D01*
X168791942Y-154626000D01*
X168935501Y-154626000D01*
X169002540Y-154645685D01*
X169048295Y-154698489D01*
X169059501Y-154750000D01*
X169059501Y-154782876D01*
X169065908Y-154842483D01*
X169116202Y-154977328D01*
X169116206Y-154977335D01*
X169202452Y-155092544D01*
X169202455Y-155092547D01*
X169317664Y-155178793D01*
X169317671Y-155178797D01*
X169452517Y-155229091D01*
X169452516Y-155229091D01*
X169459444Y-155229835D01*
X169512127Y-155235500D01*
X171207872Y-155235499D01*
X171267483Y-155229091D01*
X171402331Y-155178796D01*
X171517546Y-155092546D01*
X171603796Y-154977331D01*
X171654091Y-154842483D01*
X171660500Y-154782873D01*
X171660499Y-153087128D01*
X171654091Y-153027517D01*
X171653623Y-153026263D01*
X171603797Y-152892671D01*
X171603793Y-152892664D01*
X171517547Y-152777455D01*
X171517544Y-152777452D01*
X171402335Y-152691206D01*
X171402328Y-152691202D01*
X171267483Y-152640908D01*
X171262079Y-152639632D01*
X171201363Y-152605060D01*
X171168976Y-152543149D01*
X171175202Y-152473558D01*
X171202910Y-152431275D01*
X171360047Y-152274139D01*
X171490568Y-152087734D01*
X171586739Y-151881496D01*
X171645635Y-151661692D01*
X171665468Y-151435000D01*
X171645635Y-151208308D01*
X171586739Y-150988504D01*
X171490568Y-150782266D01*
X171368229Y-150607546D01*
X171360045Y-150595858D01*
X171199141Y-150434954D01*
X171012734Y-150304432D01*
X171012732Y-150304431D01*
X170806497Y-150208261D01*
X170806488Y-150208258D01*
X170586697Y-150149366D01*
X170586693Y-150149365D01*
X170586692Y-150149365D01*
X170586691Y-150149364D01*
X170586686Y-150149364D01*
X170360002Y-150129532D01*
X170359998Y-150129532D01*
X170133313Y-150149364D01*
X170133302Y-150149366D01*
X169913511Y-150208258D01*
X169913502Y-150208261D01*
X169707267Y-150304431D01*
X169707265Y-150304432D01*
X169520858Y-150434954D01*
X169359954Y-150595858D01*
X169229432Y-150782265D01*
X169229431Y-150782267D01*
X169133261Y-150988502D01*
X169133258Y-150988511D01*
X169074366Y-151208302D01*
X169074364Y-151208313D01*
X169054532Y-151434998D01*
X169054532Y-151435001D01*
X169074364Y-151661686D01*
X169074366Y-151661697D01*
X169133258Y-151881488D01*
X169133261Y-151881497D01*
X169229431Y-152087732D01*
X169229432Y-152087734D01*
X169359954Y-152274141D01*
X169517086Y-152431273D01*
X169550571Y-152492596D01*
X169545587Y-152562288D01*
X169503715Y-152618221D01*
X169457932Y-152639628D01*
X169452522Y-152640906D01*
X169317671Y-152691202D01*
X169317664Y-152691206D01*
X169202455Y-152777452D01*
X169202452Y-152777455D01*
X169116206Y-152892664D01*
X169116202Y-152892671D01*
X169096345Y-152945912D01*
X169054474Y-153001846D01*
X168989009Y-153026263D01*
X168920736Y-153011411D01*
X168892482Y-152990260D01*
X164705975Y-148803753D01*
X164672490Y-148742430D01*
X164677474Y-148672738D01*
X164694390Y-148641760D01*
X164697542Y-148637548D01*
X164697546Y-148637546D01*
X164783796Y-148522331D01*
X164834091Y-148387483D01*
X164837862Y-148352401D01*
X164864599Y-148287855D01*
X164921990Y-148248006D01*
X164991816Y-148245511D01*
X165051905Y-148281163D01*
X165062726Y-148294536D01*
X165079956Y-148319143D01*
X165240858Y-148480045D01*
X165240861Y-148480047D01*
X165427266Y-148610568D01*
X165633504Y-148706739D01*
X165853308Y-148765635D01*
X166015230Y-148779801D01*
X166079998Y-148785468D01*
X166080000Y-148785468D01*
X166080002Y-148785468D01*
X166136796Y-148780499D01*
X166306692Y-148765635D01*
X166526496Y-148706739D01*
X166732734Y-148610568D01*
X166919139Y-148480047D01*
X167080047Y-148319139D01*
X167210568Y-148132734D01*
X167237618Y-148074724D01*
X167283790Y-148022285D01*
X167350983Y-148003133D01*
X167417865Y-148023348D01*
X167462382Y-148074725D01*
X167489429Y-148132728D01*
X167489432Y-148132734D01*
X167619954Y-148319141D01*
X167780858Y-148480045D01*
X167780861Y-148480047D01*
X167967266Y-148610568D01*
X168173504Y-148706739D01*
X168393308Y-148765635D01*
X168555230Y-148779801D01*
X168619998Y-148785468D01*
X168620000Y-148785468D01*
X168620002Y-148785468D01*
X168676796Y-148780499D01*
X168846692Y-148765635D01*
X169066496Y-148706739D01*
X169272734Y-148610568D01*
X169459139Y-148480047D01*
X169620047Y-148319139D01*
X169750568Y-148132734D01*
X169777618Y-148074724D01*
X169823790Y-148022285D01*
X169890983Y-148003133D01*
X169957865Y-148023348D01*
X170002382Y-148074725D01*
X170029429Y-148132728D01*
X170029432Y-148132734D01*
X170159954Y-148319141D01*
X170320858Y-148480045D01*
X170320861Y-148480047D01*
X170507266Y-148610568D01*
X170713504Y-148706739D01*
X170933308Y-148765635D01*
X171095230Y-148779801D01*
X171159998Y-148785468D01*
X171160000Y-148785468D01*
X171160002Y-148785468D01*
X171216796Y-148780499D01*
X171386692Y-148765635D01*
X171606496Y-148706739D01*
X171812734Y-148610568D01*
X171999139Y-148480047D01*
X172160047Y-148319139D01*
X172290568Y-148132734D01*
X172317618Y-148074724D01*
X172363790Y-148022285D01*
X172430983Y-148003133D01*
X172497865Y-148023348D01*
X172542382Y-148074725D01*
X172569429Y-148132728D01*
X172569432Y-148132734D01*
X172699954Y-148319141D01*
X172860858Y-148480045D01*
X172860861Y-148480047D01*
X173047266Y-148610568D01*
X173253504Y-148706739D01*
X173473308Y-148765635D01*
X173635230Y-148779801D01*
X173699998Y-148785468D01*
X173700000Y-148785468D01*
X173700002Y-148785468D01*
X173756796Y-148780499D01*
X173926692Y-148765635D01*
X174146496Y-148706739D01*
X174352734Y-148610568D01*
X174539139Y-148480047D01*
X174700047Y-148319139D01*
X174830568Y-148132734D01*
X174857618Y-148074724D01*
X174903790Y-148022285D01*
X174970983Y-148003133D01*
X175037865Y-148023348D01*
X175082382Y-148074725D01*
X175109429Y-148132728D01*
X175109432Y-148132734D01*
X175239954Y-148319141D01*
X175400858Y-148480045D01*
X175400861Y-148480047D01*
X175587266Y-148610568D01*
X175793504Y-148706739D01*
X176013308Y-148765635D01*
X176175230Y-148779801D01*
X176239998Y-148785468D01*
X176240000Y-148785468D01*
X176240002Y-148785468D01*
X176296796Y-148780499D01*
X176466692Y-148765635D01*
X176686496Y-148706739D01*
X176892734Y-148610568D01*
X177079139Y-148480047D01*
X177240047Y-148319139D01*
X177370568Y-148132734D01*
X177466739Y-147926496D01*
X177525635Y-147706692D01*
X177544533Y-147490685D01*
X177545468Y-147480001D01*
X177545468Y-147479998D01*
X177539801Y-147415230D01*
X177525635Y-147253308D01*
X177466739Y-147033504D01*
X177370568Y-146827266D01*
X177240047Y-146640861D01*
X177240045Y-146640858D01*
X177079141Y-146479954D01*
X176892734Y-146349432D01*
X176892732Y-146349431D01*
X176686497Y-146253261D01*
X176686488Y-146253258D01*
X176466697Y-146194366D01*
X176466693Y-146194365D01*
X176466692Y-146194365D01*
X176466691Y-146194364D01*
X176466686Y-146194364D01*
X176240002Y-146174532D01*
X176239998Y-146174532D01*
X176013313Y-146194364D01*
X176013302Y-146194366D01*
X175793511Y-146253258D01*
X175793502Y-146253261D01*
X175587267Y-146349431D01*
X175587265Y-146349432D01*
X175400858Y-146479954D01*
X175239954Y-146640858D01*
X175109432Y-146827265D01*
X175109431Y-146827267D01*
X175082382Y-146885275D01*
X175036209Y-146937714D01*
X174969016Y-146956866D01*
X174902135Y-146936650D01*
X174857618Y-146885275D01*
X174830568Y-146827267D01*
X174830567Y-146827265D01*
X174700045Y-146640858D01*
X174539141Y-146479954D01*
X174352734Y-146349432D01*
X174352732Y-146349431D01*
X174146497Y-146253261D01*
X174146488Y-146253258D01*
X173926697Y-146194366D01*
X173926693Y-146194365D01*
X173926692Y-146194365D01*
X173926691Y-146194364D01*
X173926686Y-146194364D01*
X173700002Y-146174532D01*
X173699998Y-146174532D01*
X173473313Y-146194364D01*
X173473302Y-146194366D01*
X173253511Y-146253258D01*
X173253502Y-146253261D01*
X173047267Y-146349431D01*
X173047265Y-146349432D01*
X172860858Y-146479954D01*
X172699954Y-146640858D01*
X172569432Y-146827265D01*
X172569431Y-146827267D01*
X172542382Y-146885275D01*
X172496209Y-146937714D01*
X172429016Y-146956866D01*
X172362135Y-146936650D01*
X172317618Y-146885275D01*
X172290568Y-146827267D01*
X172290567Y-146827265D01*
X172160045Y-146640858D01*
X171999141Y-146479954D01*
X171812734Y-146349432D01*
X171812732Y-146349431D01*
X171606497Y-146253261D01*
X171606488Y-146253258D01*
X171386697Y-146194366D01*
X171386693Y-146194365D01*
X171386692Y-146194365D01*
X171386691Y-146194364D01*
X171386686Y-146194364D01*
X171160002Y-146174532D01*
X171159998Y-146174532D01*
X170933313Y-146194364D01*
X170933302Y-146194366D01*
X170713511Y-146253258D01*
X170713502Y-146253261D01*
X170507267Y-146349431D01*
X170507265Y-146349432D01*
X170320858Y-146479954D01*
X170159954Y-146640858D01*
X170029432Y-146827265D01*
X170029431Y-146827267D01*
X170002382Y-146885275D01*
X169956209Y-146937714D01*
X169889016Y-146956866D01*
X169822135Y-146936650D01*
X169777618Y-146885275D01*
X169750568Y-146827267D01*
X169750567Y-146827265D01*
X169620045Y-146640858D01*
X169459141Y-146479954D01*
X169272734Y-146349432D01*
X169272732Y-146349431D01*
X169066497Y-146253261D01*
X169066488Y-146253258D01*
X168846697Y-146194366D01*
X168846693Y-146194365D01*
X168846692Y-146194365D01*
X168846691Y-146194364D01*
X168846686Y-146194364D01*
X168620002Y-146174532D01*
X168619998Y-146174532D01*
X168393313Y-146194364D01*
X168393302Y-146194366D01*
X168173511Y-146253258D01*
X168173502Y-146253261D01*
X167967267Y-146349431D01*
X167967265Y-146349432D01*
X167780858Y-146479954D01*
X167619954Y-146640858D01*
X167489432Y-146827265D01*
X167489431Y-146827267D01*
X167462382Y-146885275D01*
X167416209Y-146937714D01*
X167349016Y-146956866D01*
X167282135Y-146936650D01*
X167237618Y-146885275D01*
X167210568Y-146827267D01*
X167210567Y-146827265D01*
X167080045Y-146640858D01*
X166919141Y-146479954D01*
X166732734Y-146349432D01*
X166732732Y-146349431D01*
X166526497Y-146253261D01*
X166526488Y-146253258D01*
X166306697Y-146194366D01*
X166306693Y-146194365D01*
X166306692Y-146194365D01*
X166306691Y-146194364D01*
X166306686Y-146194364D01*
X166080002Y-146174532D01*
X166079998Y-146174532D01*
X165853313Y-146194364D01*
X165853302Y-146194366D01*
X165633511Y-146253258D01*
X165633502Y-146253261D01*
X165427267Y-146349431D01*
X165427265Y-146349432D01*
X165240858Y-146479954D01*
X165079954Y-146640858D01*
X165062725Y-146665464D01*
X165008147Y-146709088D01*
X164938648Y-146716280D01*
X164876294Y-146684757D01*
X164840882Y-146624526D01*
X164837861Y-146607591D01*
X164834091Y-146572516D01*
X164783797Y-146437671D01*
X164783793Y-146437664D01*
X164697547Y-146322455D01*
X164697544Y-146322452D01*
X164582335Y-146236206D01*
X164582328Y-146236202D01*
X164447482Y-146185908D01*
X164447483Y-146185908D01*
X164387883Y-146179501D01*
X164387881Y-146179500D01*
X164387873Y-146179500D01*
X164387864Y-146179500D01*
X162692129Y-146179500D01*
X162692123Y-146179501D01*
X162632516Y-146185908D01*
X162497671Y-146236202D01*
X162497664Y-146236206D01*
X162382455Y-146322452D01*
X162382452Y-146322455D01*
X162296206Y-146437664D01*
X162296202Y-146437671D01*
X162245908Y-146572517D01*
X162239501Y-146632116D01*
X162239500Y-146632135D01*
X158492531Y-146632135D01*
X158485635Y-146553308D01*
X158426739Y-146333504D01*
X158330568Y-146127266D01*
X158200047Y-145940861D01*
X158200045Y-145940858D01*
X158039141Y-145779954D01*
X157852734Y-145649432D01*
X157852732Y-145649431D01*
X157646497Y-145553261D01*
X157646488Y-145553258D01*
X157426697Y-145494366D01*
X157426693Y-145494365D01*
X157426692Y-145494365D01*
X157426691Y-145494364D01*
X157426686Y-145494364D01*
X157200002Y-145474532D01*
X157199998Y-145474532D01*
X156973313Y-145494364D01*
X156973302Y-145494366D01*
X156753511Y-145553258D01*
X156753502Y-145553261D01*
X156547267Y-145649431D01*
X156547265Y-145649432D01*
X156360858Y-145779954D01*
X156199954Y-145940858D01*
X156069432Y-146127265D01*
X156069431Y-146127267D01*
X155973261Y-146333502D01*
X155973258Y-146333511D01*
X155914366Y-146553302D01*
X155914364Y-146553313D01*
X155894532Y-146779998D01*
X155505468Y-146779998D01*
X155485635Y-146553308D01*
X155426739Y-146333504D01*
X155330568Y-146127266D01*
X155200047Y-145940861D01*
X155200045Y-145940858D01*
X155039141Y-145779954D01*
X154852734Y-145649432D01*
X154852732Y-145649431D01*
X154646497Y-145553261D01*
X154646488Y-145553258D01*
X154426697Y-145494366D01*
X154426693Y-145494365D01*
X154426692Y-145494365D01*
X154426691Y-145494364D01*
X154426686Y-145494364D01*
X154200002Y-145474532D01*
X154199998Y-145474532D01*
X153973313Y-145494364D01*
X153973302Y-145494366D01*
X153753511Y-145553258D01*
X153753502Y-145553261D01*
X153547267Y-145649431D01*
X153547265Y-145649432D01*
X153360858Y-145779954D01*
X153199954Y-145940858D01*
X153133250Y-146036123D01*
X153078673Y-146079748D01*
X153031675Y-146089000D01*
X143551940Y-146089000D01*
X143418448Y-146115553D01*
X143418438Y-146115556D01*
X143292695Y-146167640D01*
X143292682Y-146167647D01*
X143179514Y-146243264D01*
X143179510Y-146243267D01*
X137950097Y-151472681D01*
X137888774Y-151506166D01*
X137862416Y-151509000D01*
X131837584Y-151509000D01*
X131770545Y-151489315D01*
X131749903Y-151472681D01*
X130536818Y-150259596D01*
X130503333Y-150198273D01*
X130500499Y-150171915D01*
X130500499Y-149052129D01*
X130500498Y-149052123D01*
X130494091Y-148992516D01*
X130443797Y-148857671D01*
X130443793Y-148857664D01*
X130357547Y-148742455D01*
X130357544Y-148742452D01*
X130242335Y-148656206D01*
X130242328Y-148656202D01*
X130107482Y-148605908D01*
X130107483Y-148605908D01*
X130047883Y-148599501D01*
X130047881Y-148599500D01*
X130047873Y-148599500D01*
X130047865Y-148599500D01*
X128928084Y-148599500D01*
X128861045Y-148579815D01*
X128840403Y-148563181D01*
X127307319Y-147030097D01*
X127273834Y-146968774D01*
X127271000Y-146942416D01*
X127271000Y-145068324D01*
X127290685Y-145001285D01*
X127323875Y-144966750D01*
X127419139Y-144900047D01*
X127580047Y-144739139D01*
X127710568Y-144552734D01*
X127806739Y-144346496D01*
X127865635Y-144126692D01*
X127885468Y-143900000D01*
X127865635Y-143673308D01*
X127806739Y-143453504D01*
X127710568Y-143247266D01*
X127580047Y-143060861D01*
X127580045Y-143060858D01*
X127419141Y-142899954D01*
X127232734Y-142769432D01*
X127232732Y-142769431D01*
X127026497Y-142673261D01*
X127026488Y-142673258D01*
X126806697Y-142614366D01*
X126806693Y-142614365D01*
X126806692Y-142614365D01*
X126806691Y-142614364D01*
X126806686Y-142614364D01*
X126580002Y-142594532D01*
X126579998Y-142594532D01*
X126353313Y-142614364D01*
X126353302Y-142614366D01*
X126133511Y-142673258D01*
X126133502Y-142673261D01*
X125927267Y-142769431D01*
X125927265Y-142769432D01*
X125740858Y-142899954D01*
X125579954Y-143060858D01*
X125449432Y-143247265D01*
X125449431Y-143247267D01*
X125353261Y-143453502D01*
X125353258Y-143453511D01*
X125294366Y-143673302D01*
X125294364Y-143673313D01*
X125274532Y-143899998D01*
X116200500Y-143899998D01*
X116200500Y-128659998D01*
X125274532Y-128659998D01*
X125274532Y-128660001D01*
X125294364Y-128886686D01*
X125294366Y-128886697D01*
X125353258Y-129106488D01*
X125353261Y-129106497D01*
X125449431Y-129312732D01*
X125449432Y-129312734D01*
X125579954Y-129499141D01*
X125740858Y-129660045D01*
X125740861Y-129660047D01*
X125927266Y-129790568D01*
X125985275Y-129817618D01*
X126037714Y-129863791D01*
X126056866Y-129930984D01*
X126036650Y-129997865D01*
X125985275Y-130042382D01*
X125927267Y-130069431D01*
X125927265Y-130069432D01*
X125740858Y-130199954D01*
X125579954Y-130360858D01*
X125449432Y-130547265D01*
X125449431Y-130547267D01*
X125353261Y-130753502D01*
X125353258Y-130753511D01*
X125294366Y-130973302D01*
X125294364Y-130973313D01*
X125274532Y-131199998D01*
X125274532Y-131200001D01*
X125294364Y-131426686D01*
X125294366Y-131426697D01*
X125353258Y-131646488D01*
X125353261Y-131646497D01*
X125449431Y-131852732D01*
X125449432Y-131852734D01*
X125579954Y-132039141D01*
X125740858Y-132200045D01*
X125740861Y-132200047D01*
X125927266Y-132330568D01*
X125985275Y-132357618D01*
X126037714Y-132403791D01*
X126056866Y-132470984D01*
X126036650Y-132537865D01*
X125985275Y-132582382D01*
X125927267Y-132609431D01*
X125927265Y-132609432D01*
X125740858Y-132739954D01*
X125579954Y-132900858D01*
X125449432Y-133087265D01*
X125449431Y-133087267D01*
X125353261Y-133293502D01*
X125353258Y-133293511D01*
X125294366Y-133513302D01*
X125294364Y-133513313D01*
X125274532Y-133739998D01*
X125274532Y-133740001D01*
X125294364Y-133966686D01*
X125294366Y-133966697D01*
X125353258Y-134186488D01*
X125353261Y-134186497D01*
X125449431Y-134392732D01*
X125449432Y-134392734D01*
X125579954Y-134579141D01*
X125740858Y-134740045D01*
X125740861Y-134740047D01*
X125927266Y-134870568D01*
X125985275Y-134897618D01*
X126037714Y-134943791D01*
X126056866Y-135010984D01*
X126036650Y-135077865D01*
X125985275Y-135122382D01*
X125927267Y-135149431D01*
X125927265Y-135149432D01*
X125740858Y-135279954D01*
X125579954Y-135440858D01*
X125449432Y-135627265D01*
X125449431Y-135627267D01*
X125353261Y-135833502D01*
X125353258Y-135833511D01*
X125294366Y-136053302D01*
X125294364Y-136053313D01*
X125274532Y-136279998D01*
X125274532Y-136280001D01*
X125294364Y-136506686D01*
X125294366Y-136506697D01*
X125353258Y-136726488D01*
X125353261Y-136726496D01*
X125449431Y-136932732D01*
X125449432Y-136932734D01*
X125579954Y-137119141D01*
X125740858Y-137280045D01*
X125740861Y-137280047D01*
X125927266Y-137410568D01*
X126133504Y-137506739D01*
X126353308Y-137565635D01*
X126515230Y-137579801D01*
X126579998Y-137585468D01*
X126580000Y-137585468D01*
X126580002Y-137585468D01*
X126636673Y-137580509D01*
X126806692Y-137565635D01*
X127026496Y-137506739D01*
X127232734Y-137410568D01*
X127419139Y-137280047D01*
X127580047Y-137119139D01*
X127710568Y-136932734D01*
X127806739Y-136726496D01*
X127865635Y-136506692D01*
X127885468Y-136280000D01*
X127865635Y-136053308D01*
X127806739Y-135833504D01*
X127710568Y-135627266D01*
X127580047Y-135440861D01*
X127580045Y-135440858D01*
X127419141Y-135279954D01*
X127232734Y-135149432D01*
X127232728Y-135149429D01*
X127174725Y-135122382D01*
X127122285Y-135076210D01*
X127103133Y-135009017D01*
X127123348Y-134942135D01*
X127174725Y-134897618D01*
X127232734Y-134870568D01*
X127419139Y-134740047D01*
X127580047Y-134579139D01*
X127710568Y-134392734D01*
X127806739Y-134186496D01*
X127865635Y-133966692D01*
X127885468Y-133740000D01*
X127865635Y-133513308D01*
X127806739Y-133293504D01*
X127710568Y-133087266D01*
X127580047Y-132900861D01*
X127580045Y-132900858D01*
X127419141Y-132739954D01*
X127232734Y-132609432D01*
X127232728Y-132609429D01*
X127174725Y-132582382D01*
X127122285Y-132536210D01*
X127103133Y-132469017D01*
X127123348Y-132402135D01*
X127174725Y-132357618D01*
X127232734Y-132330568D01*
X127419139Y-132200047D01*
X127580047Y-132039139D01*
X127710568Y-131852734D01*
X127806739Y-131646496D01*
X127865635Y-131426692D01*
X127885468Y-131200000D01*
X127885468Y-131199998D01*
X132894532Y-131199998D01*
X132894532Y-131200001D01*
X132914364Y-131426686D01*
X132914366Y-131426697D01*
X132973258Y-131646488D01*
X132973261Y-131646497D01*
X133069431Y-131852732D01*
X133069432Y-131852734D01*
X133199954Y-132039141D01*
X133360858Y-132200045D01*
X133360861Y-132200047D01*
X133547266Y-132330568D01*
X133605275Y-132357618D01*
X133657714Y-132403791D01*
X133676866Y-132470984D01*
X133656650Y-132537865D01*
X133605275Y-132582382D01*
X133547267Y-132609431D01*
X133547265Y-132609432D01*
X133360858Y-132739954D01*
X133199954Y-132900858D01*
X133069432Y-133087265D01*
X133069431Y-133087267D01*
X132973261Y-133293502D01*
X132973258Y-133293511D01*
X132914366Y-133513302D01*
X132914364Y-133513313D01*
X132894532Y-133739998D01*
X132894532Y-133740001D01*
X132914364Y-133966686D01*
X132914366Y-133966697D01*
X132973258Y-134186488D01*
X132973261Y-134186497D01*
X133069431Y-134392732D01*
X133069432Y-134392734D01*
X133199954Y-134579141D01*
X133360858Y-134740045D01*
X133360861Y-134740047D01*
X133547266Y-134870568D01*
X133605275Y-134897618D01*
X133657714Y-134943791D01*
X133676866Y-135010984D01*
X133656650Y-135077865D01*
X133605275Y-135122382D01*
X133547267Y-135149431D01*
X133547265Y-135149432D01*
X133360858Y-135279954D01*
X133199954Y-135440858D01*
X133069432Y-135627265D01*
X133069431Y-135627267D01*
X132973261Y-135833502D01*
X132973258Y-135833511D01*
X132914366Y-136053302D01*
X132914364Y-136053313D01*
X132894532Y-136279998D01*
X132894532Y-136280001D01*
X132914364Y-136506686D01*
X132914366Y-136506697D01*
X132973258Y-136726488D01*
X132973261Y-136726496D01*
X133069431Y-136932732D01*
X133069432Y-136932734D01*
X133199954Y-137119141D01*
X133360858Y-137280045D01*
X133360861Y-137280047D01*
X133547266Y-137410568D01*
X133589249Y-137430145D01*
X133605275Y-137437618D01*
X133657714Y-137483791D01*
X133676866Y-137550984D01*
X133656650Y-137617865D01*
X133605275Y-137662382D01*
X133547267Y-137689431D01*
X133547265Y-137689432D01*
X133360858Y-137819954D01*
X133199954Y-137980858D01*
X133069432Y-138167265D01*
X133069431Y-138167267D01*
X132973261Y-138373502D01*
X132973258Y-138373511D01*
X132914366Y-138593302D01*
X132914364Y-138593313D01*
X132894532Y-138819998D01*
X132894532Y-138820001D01*
X132914364Y-139046686D01*
X132914366Y-139046697D01*
X132973258Y-139266488D01*
X132973261Y-139266497D01*
X133069431Y-139472732D01*
X133069432Y-139472734D01*
X133199954Y-139659141D01*
X133360858Y-139820045D01*
X133360861Y-139820047D01*
X133547266Y-139950568D01*
X133753504Y-140046739D01*
X133973308Y-140105635D01*
X134135230Y-140119801D01*
X134199998Y-140125468D01*
X134200000Y-140125468D01*
X134200002Y-140125468D01*
X134256673Y-140120509D01*
X134426692Y-140105635D01*
X134646496Y-140046739D01*
X134852734Y-139950568D01*
X135039139Y-139820047D01*
X135200047Y-139659139D01*
X135330568Y-139472734D01*
X135426739Y-139266496D01*
X135485635Y-139046692D01*
X135505468Y-138820000D01*
X135485635Y-138593308D01*
X135426739Y-138373504D01*
X135330568Y-138167266D01*
X135200047Y-137980861D01*
X135200045Y-137980858D01*
X135039141Y-137819954D01*
X134852734Y-137689432D01*
X134852728Y-137689429D01*
X134794725Y-137662382D01*
X134742285Y-137616210D01*
X134723133Y-137549017D01*
X134743348Y-137482135D01*
X134794725Y-137437618D01*
X134852734Y-137410568D01*
X135039139Y-137280047D01*
X135200047Y-137119139D01*
X135330568Y-136932734D01*
X135426739Y-136726496D01*
X135485635Y-136506692D01*
X135505468Y-136280000D01*
X135505468Y-136279998D01*
X138894532Y-136279998D01*
X138894532Y-136280001D01*
X138914364Y-136506686D01*
X138914366Y-136506697D01*
X138973258Y-136726488D01*
X138973261Y-136726496D01*
X139069431Y-136932732D01*
X139069432Y-136932734D01*
X139199954Y-137119141D01*
X139360858Y-137280045D01*
X139360861Y-137280047D01*
X139547266Y-137410568D01*
X139589249Y-137430145D01*
X139605275Y-137437618D01*
X139657714Y-137483791D01*
X139676866Y-137550984D01*
X139656650Y-137617865D01*
X139605275Y-137662382D01*
X139547267Y-137689431D01*
X139547265Y-137689432D01*
X139360858Y-137819954D01*
X139199954Y-137980858D01*
X139069432Y-138167265D01*
X139069431Y-138167267D01*
X138973261Y-138373502D01*
X138973258Y-138373511D01*
X138914366Y-138593302D01*
X138914364Y-138593313D01*
X138894532Y-138819998D01*
X138894532Y-138820001D01*
X138914364Y-139046686D01*
X138914366Y-139046697D01*
X138973258Y-139266488D01*
X138973261Y-139266497D01*
X139069431Y-139472732D01*
X139069432Y-139472734D01*
X139199954Y-139659141D01*
X139360858Y-139820045D01*
X139360861Y-139820047D01*
X139547266Y-139950568D01*
X139605275Y-139977618D01*
X139657714Y-140023791D01*
X139676866Y-140090984D01*
X139656650Y-140157865D01*
X139605275Y-140202382D01*
X139547267Y-140229431D01*
X139547265Y-140229432D01*
X139360858Y-140359954D01*
X139199954Y-140520858D01*
X139069432Y-140707265D01*
X139069431Y-140707267D01*
X138973261Y-140913502D01*
X138973258Y-140913511D01*
X138914366Y-141133302D01*
X138914364Y-141133313D01*
X138894532Y-141359998D01*
X138894532Y-141360001D01*
X138914364Y-141586686D01*
X138914366Y-141586697D01*
X138973258Y-141806488D01*
X138973261Y-141806497D01*
X139069431Y-142012732D01*
X139069432Y-142012734D01*
X139199954Y-142199141D01*
X139360858Y-142360045D01*
X139400914Y-142388092D01*
X139547266Y-142490568D01*
X139605275Y-142517618D01*
X139657714Y-142563791D01*
X139676866Y-142630984D01*
X139656650Y-142697865D01*
X139605275Y-142742381D01*
X139605118Y-142742455D01*
X139547267Y-142769431D01*
X139547265Y-142769432D01*
X139360858Y-142899954D01*
X139199954Y-143060858D01*
X139069432Y-143247265D01*
X139069431Y-143247267D01*
X138973261Y-143453502D01*
X138973258Y-143453511D01*
X138914366Y-143673302D01*
X138914364Y-143673313D01*
X138894532Y-143899998D01*
X138894532Y-143900001D01*
X138914364Y-144126686D01*
X138914366Y-144126697D01*
X138973258Y-144346488D01*
X138973261Y-144346497D01*
X139069431Y-144552732D01*
X139069432Y-144552734D01*
X139199954Y-144739141D01*
X139360858Y-144900045D01*
X139360861Y-144900047D01*
X139547266Y-145030568D01*
X139753504Y-145126739D01*
X139973308Y-145185635D01*
X140135230Y-145199801D01*
X140199998Y-145205468D01*
X140200000Y-145205468D01*
X140200002Y-145205468D01*
X140256807Y-145200498D01*
X140426692Y-145185635D01*
X140646496Y-145126739D01*
X140852734Y-145030568D01*
X141039139Y-144900047D01*
X141200047Y-144739139D01*
X141330568Y-144552734D01*
X141426739Y-144346496D01*
X141485635Y-144126692D01*
X141505468Y-143900000D01*
X141485635Y-143673308D01*
X141426739Y-143453504D01*
X141330568Y-143247266D01*
X141200047Y-143060861D01*
X141200045Y-143060858D01*
X141039141Y-142899954D01*
X140852734Y-142769432D01*
X140852728Y-142769429D01*
X140794882Y-142742455D01*
X140794724Y-142742381D01*
X140742285Y-142696210D01*
X140723133Y-142629017D01*
X140743348Y-142562135D01*
X140794725Y-142517618D01*
X140852734Y-142490568D01*
X141039139Y-142360047D01*
X141200047Y-142199139D01*
X141330568Y-142012734D01*
X141426739Y-141806496D01*
X141485635Y-141586692D01*
X141505468Y-141360000D01*
X141485635Y-141133308D01*
X141426739Y-140913504D01*
X141330568Y-140707266D01*
X141200047Y-140520861D01*
X141200045Y-140520858D01*
X141039141Y-140359954D01*
X140852734Y-140229432D01*
X140852728Y-140229429D01*
X140794725Y-140202382D01*
X140742285Y-140156210D01*
X140723133Y-140089017D01*
X140743348Y-140022135D01*
X140794725Y-139977618D01*
X140852734Y-139950568D01*
X141039139Y-139820047D01*
X141200047Y-139659139D01*
X141330568Y-139472734D01*
X141426739Y-139266496D01*
X141485635Y-139046692D01*
X141505468Y-138820000D01*
X141485635Y-138593308D01*
X141426739Y-138373504D01*
X141330568Y-138167266D01*
X141200047Y-137980861D01*
X141200045Y-137980858D01*
X141039141Y-137819954D01*
X140852734Y-137689432D01*
X140852728Y-137689429D01*
X140794725Y-137662382D01*
X140742285Y-137616210D01*
X140723133Y-137549017D01*
X140743348Y-137482135D01*
X140794725Y-137437618D01*
X140852734Y-137410568D01*
X141039139Y-137280047D01*
X141200047Y-137119139D01*
X141330568Y-136932734D01*
X141426739Y-136726496D01*
X141485635Y-136506692D01*
X141505468Y-136280000D01*
X141485635Y-136053308D01*
X141426739Y-135833504D01*
X141330568Y-135627266D01*
X141200047Y-135440861D01*
X141200045Y-135440858D01*
X141039141Y-135279954D01*
X140852734Y-135149432D01*
X140852732Y-135149431D01*
X140646497Y-135053261D01*
X140646488Y-135053258D01*
X140426697Y-134994366D01*
X140426693Y-134994365D01*
X140426692Y-134994365D01*
X140426691Y-134994364D01*
X140426686Y-134994364D01*
X140200002Y-134974532D01*
X140199998Y-134974532D01*
X139973313Y-134994364D01*
X139973302Y-134994366D01*
X139753511Y-135053258D01*
X139753502Y-135053261D01*
X139547267Y-135149431D01*
X139547265Y-135149432D01*
X139360858Y-135279954D01*
X139199954Y-135440858D01*
X139069432Y-135627265D01*
X139069431Y-135627267D01*
X138973261Y-135833502D01*
X138973258Y-135833511D01*
X138914366Y-136053302D01*
X138914364Y-136053313D01*
X138894532Y-136279998D01*
X135505468Y-136279998D01*
X135485635Y-136053308D01*
X135426739Y-135833504D01*
X135330568Y-135627266D01*
X135200047Y-135440861D01*
X135200045Y-135440858D01*
X135039141Y-135279954D01*
X134852734Y-135149432D01*
X134852728Y-135149429D01*
X134794725Y-135122382D01*
X134742285Y-135076210D01*
X134723133Y-135009017D01*
X134743348Y-134942135D01*
X134794725Y-134897618D01*
X134852734Y-134870568D01*
X135039139Y-134740047D01*
X135200047Y-134579139D01*
X135330568Y-134392734D01*
X135426739Y-134186496D01*
X135485635Y-133966692D01*
X135505468Y-133740000D01*
X135485635Y-133513308D01*
X135426739Y-133293504D01*
X135330568Y-133087266D01*
X135200047Y-132900861D01*
X135200045Y-132900858D01*
X135039141Y-132739954D01*
X134852734Y-132609432D01*
X134852728Y-132609429D01*
X134794725Y-132582382D01*
X134742285Y-132536210D01*
X134723133Y-132469017D01*
X134743348Y-132402135D01*
X134794725Y-132357618D01*
X134852734Y-132330568D01*
X135039139Y-132200047D01*
X135200047Y-132039139D01*
X135330568Y-131852734D01*
X135426739Y-131646496D01*
X135485635Y-131426692D01*
X135505468Y-131200000D01*
X135485635Y-130973308D01*
X135426739Y-130753504D01*
X135330568Y-130547266D01*
X135200047Y-130360861D01*
X135200045Y-130360858D01*
X135039141Y-130199954D01*
X134852734Y-130069432D01*
X134852732Y-130069431D01*
X134646497Y-129973261D01*
X134646488Y-129973258D01*
X134426697Y-129914366D01*
X134426693Y-129914365D01*
X134426692Y-129914365D01*
X134426691Y-129914364D01*
X134426686Y-129914364D01*
X134200002Y-129894532D01*
X134199998Y-129894532D01*
X133973313Y-129914364D01*
X133973302Y-129914366D01*
X133753511Y-129973258D01*
X133753502Y-129973261D01*
X133547267Y-130069431D01*
X133547265Y-130069432D01*
X133360858Y-130199954D01*
X133199954Y-130360858D01*
X133069432Y-130547265D01*
X133069431Y-130547267D01*
X132973261Y-130753502D01*
X132973258Y-130753511D01*
X132914366Y-130973302D01*
X132914364Y-130973313D01*
X132894532Y-131199998D01*
X127885468Y-131199998D01*
X127865635Y-130973308D01*
X127806739Y-130753504D01*
X127710568Y-130547266D01*
X127580047Y-130360861D01*
X127580045Y-130360858D01*
X127419141Y-130199954D01*
X127232734Y-130069432D01*
X127232728Y-130069429D01*
X127174725Y-130042382D01*
X127122285Y-129996210D01*
X127103133Y-129929017D01*
X127123348Y-129862135D01*
X127174725Y-129817618D01*
X127232734Y-129790568D01*
X127419139Y-129660047D01*
X127580047Y-129499139D01*
X127710568Y-129312734D01*
X127806739Y-129106496D01*
X127865635Y-128886692D01*
X127885468Y-128660000D01*
X127885468Y-128659998D01*
X138894532Y-128659998D01*
X138894532Y-128660001D01*
X138914364Y-128886686D01*
X138914366Y-128886697D01*
X138973258Y-129106488D01*
X138973261Y-129106497D01*
X139069431Y-129312732D01*
X139069432Y-129312734D01*
X139199954Y-129499141D01*
X139360858Y-129660045D01*
X139360861Y-129660047D01*
X139547266Y-129790568D01*
X139605275Y-129817618D01*
X139657714Y-129863791D01*
X139676866Y-129930984D01*
X139656650Y-129997865D01*
X139605275Y-130042382D01*
X139547267Y-130069431D01*
X139547265Y-130069432D01*
X139360858Y-130199954D01*
X139199954Y-130360858D01*
X139069432Y-130547265D01*
X139069431Y-130547267D01*
X138973261Y-130753502D01*
X138973258Y-130753511D01*
X138914366Y-130973302D01*
X138914364Y-130973313D01*
X138894532Y-131199998D01*
X138894532Y-131200001D01*
X138914364Y-131426686D01*
X138914366Y-131426697D01*
X138973258Y-131646488D01*
X138973261Y-131646497D01*
X139069431Y-131852732D01*
X139069432Y-131852734D01*
X139199954Y-132039141D01*
X139360858Y-132200045D01*
X139360861Y-132200047D01*
X139547266Y-132330568D01*
X139753504Y-132426739D01*
X139973308Y-132485635D01*
X140135230Y-132499801D01*
X140199998Y-132505468D01*
X140200000Y-132505468D01*
X140200002Y-132505468D01*
X140256673Y-132500509D01*
X140426692Y-132485635D01*
X140646496Y-132426739D01*
X140852734Y-132330568D01*
X141039139Y-132200047D01*
X141200047Y-132039139D01*
X141330568Y-131852734D01*
X141426739Y-131646496D01*
X141427463Y-131643796D01*
X141460633Y-131519999D01*
X141475244Y-131465470D01*
X141507335Y-131409885D01*
X144257222Y-128659998D01*
X146514532Y-128659998D01*
X146514532Y-128660001D01*
X146534364Y-128886686D01*
X146534366Y-128886697D01*
X146593258Y-129106488D01*
X146593261Y-129106497D01*
X146689431Y-129312732D01*
X146689432Y-129312734D01*
X146819954Y-129499141D01*
X146980858Y-129660045D01*
X146980861Y-129660047D01*
X147167266Y-129790568D01*
X147225275Y-129817618D01*
X147277714Y-129863791D01*
X147296866Y-129930984D01*
X147276650Y-129997865D01*
X147225275Y-130042382D01*
X147167267Y-130069431D01*
X147167265Y-130069432D01*
X146980858Y-130199954D01*
X146819954Y-130360858D01*
X146689432Y-130547265D01*
X146689431Y-130547267D01*
X146593261Y-130753502D01*
X146593258Y-130753511D01*
X146534366Y-130973302D01*
X146534364Y-130973313D01*
X146514532Y-131199998D01*
X146514532Y-131200001D01*
X146534364Y-131426686D01*
X146534366Y-131426697D01*
X146593258Y-131646488D01*
X146593261Y-131646497D01*
X146689431Y-131852732D01*
X146689432Y-131852734D01*
X146819954Y-132039141D01*
X146980858Y-132200045D01*
X146980861Y-132200047D01*
X147167266Y-132330568D01*
X147225275Y-132357618D01*
X147277714Y-132403791D01*
X147296866Y-132470984D01*
X147276650Y-132537865D01*
X147225275Y-132582382D01*
X147167267Y-132609431D01*
X147167265Y-132609432D01*
X146980858Y-132739954D01*
X146819954Y-132900858D01*
X146689432Y-133087265D01*
X146689431Y-133087267D01*
X146593261Y-133293502D01*
X146593258Y-133293511D01*
X146534366Y-133513302D01*
X146534364Y-133513313D01*
X146514532Y-133739998D01*
X146514532Y-133740001D01*
X146534364Y-133966686D01*
X146534366Y-133966697D01*
X146593258Y-134186488D01*
X146593261Y-134186497D01*
X146689431Y-134392732D01*
X146689432Y-134392734D01*
X146819954Y-134579141D01*
X146980858Y-134740045D01*
X146980861Y-134740047D01*
X147167266Y-134870568D01*
X147225275Y-134897618D01*
X147277714Y-134943791D01*
X147296866Y-135010984D01*
X147276650Y-135077865D01*
X147225275Y-135122382D01*
X147167267Y-135149431D01*
X147167265Y-135149432D01*
X146980858Y-135279954D01*
X146819954Y-135440858D01*
X146689432Y-135627265D01*
X146689431Y-135627267D01*
X146593261Y-135833502D01*
X146593258Y-135833511D01*
X146534366Y-136053302D01*
X146534364Y-136053313D01*
X146514532Y-136279998D01*
X146514532Y-136280001D01*
X146534364Y-136506686D01*
X146534366Y-136506697D01*
X146593258Y-136726488D01*
X146593261Y-136726496D01*
X146689431Y-136932732D01*
X146689432Y-136932734D01*
X146819954Y-137119141D01*
X146980858Y-137280045D01*
X146980861Y-137280047D01*
X147167266Y-137410568D01*
X147209249Y-137430145D01*
X147225275Y-137437618D01*
X147277714Y-137483791D01*
X147296866Y-137550984D01*
X147276650Y-137617865D01*
X147225275Y-137662382D01*
X147167267Y-137689431D01*
X147167265Y-137689432D01*
X146980858Y-137819954D01*
X146819954Y-137980858D01*
X146689432Y-138167265D01*
X146689431Y-138167267D01*
X146593261Y-138373502D01*
X146593258Y-138373511D01*
X146534366Y-138593302D01*
X146534364Y-138593313D01*
X146514532Y-138819998D01*
X146514532Y-138820001D01*
X146534364Y-139046686D01*
X146534366Y-139046697D01*
X146593258Y-139266488D01*
X146593261Y-139266497D01*
X146689431Y-139472732D01*
X146689432Y-139472734D01*
X146819954Y-139659141D01*
X146980858Y-139820045D01*
X146980861Y-139820047D01*
X147167266Y-139950568D01*
X147225275Y-139977618D01*
X147277714Y-140023791D01*
X147296866Y-140090984D01*
X147276650Y-140157865D01*
X147225275Y-140202382D01*
X147167267Y-140229431D01*
X147167265Y-140229432D01*
X146980858Y-140359954D01*
X146819954Y-140520858D01*
X146689432Y-140707265D01*
X146689431Y-140707267D01*
X146593261Y-140913502D01*
X146593258Y-140913511D01*
X146534366Y-141133302D01*
X146534364Y-141133313D01*
X146514532Y-141359998D01*
X146514532Y-141360001D01*
X146534364Y-141586686D01*
X146534366Y-141586697D01*
X146593258Y-141806488D01*
X146593261Y-141806497D01*
X146689431Y-142012732D01*
X146689432Y-142012734D01*
X146819954Y-142199141D01*
X146980858Y-142360045D01*
X147005462Y-142377273D01*
X147049087Y-142431849D01*
X147056281Y-142501348D01*
X147024758Y-142563703D01*
X146964529Y-142599117D01*
X146947593Y-142602138D01*
X146912516Y-142605908D01*
X146777671Y-142656202D01*
X146777664Y-142656206D01*
X146662455Y-142742452D01*
X146662452Y-142742455D01*
X146576206Y-142857664D01*
X146576202Y-142857671D01*
X146525908Y-142992517D01*
X146519501Y-143052116D01*
X146519501Y-143052123D01*
X146519500Y-143052135D01*
X146519500Y-144747870D01*
X146519501Y-144747876D01*
X146525908Y-144807483D01*
X146576202Y-144942328D01*
X146576206Y-144942335D01*
X146662452Y-145057544D01*
X146662455Y-145057547D01*
X146777664Y-145143793D01*
X146777671Y-145143797D01*
X146912517Y-145194091D01*
X146912516Y-145194091D01*
X146919444Y-145194835D01*
X146972127Y-145200500D01*
X148667872Y-145200499D01*
X148727483Y-145194091D01*
X148862331Y-145143796D01*
X148977546Y-145057546D01*
X149063796Y-144942331D01*
X149114091Y-144807483D01*
X149120500Y-144747873D01*
X149120500Y-144715000D01*
X149140185Y-144647961D01*
X149192989Y-144602206D01*
X149244500Y-144591000D01*
X162108060Y-144591000D01*
X162197870Y-144573134D01*
X162241557Y-144564445D01*
X162367311Y-144512356D01*
X162480487Y-144436735D01*
X165738234Y-141178985D01*
X165799555Y-141145502D01*
X165847624Y-141146676D01*
X165847974Y-141144694D01*
X165853298Y-141145632D01*
X165853308Y-141145635D01*
X166015230Y-141159801D01*
X166079998Y-141165468D01*
X166080000Y-141165468D01*
X166080002Y-141165468D01*
X166111421Y-141162719D01*
X166306692Y-141145635D01*
X166306704Y-141145631D01*
X166312029Y-141144694D01*
X166312464Y-141147166D01*
X166371732Y-141148522D01*
X166421766Y-141178988D01*
X167663266Y-142420487D01*
X167733346Y-142490567D01*
X167759514Y-142516735D01*
X167872682Y-142592352D01*
X167872695Y-142592359D01*
X167965945Y-142630984D01*
X167998443Y-142644445D01*
X167998447Y-142644445D01*
X167998448Y-142644446D01*
X168131939Y-142671000D01*
X168131942Y-142671000D01*
X174188060Y-142671000D01*
X174277870Y-142653134D01*
X174321557Y-142644445D01*
X174423698Y-142602137D01*
X174447309Y-142592357D01*
X174447312Y-142592355D01*
X174560487Y-142516735D01*
X175898233Y-141178987D01*
X175959556Y-141145503D01*
X176007629Y-141146646D01*
X176007974Y-141144694D01*
X176013298Y-141145632D01*
X176013308Y-141145635D01*
X176175230Y-141159801D01*
X176239998Y-141165468D01*
X176240000Y-141165468D01*
X176240002Y-141165468D01*
X176296673Y-141160509D01*
X176466692Y-141145635D01*
X176686496Y-141086739D01*
X176892734Y-140990568D01*
X177079139Y-140860047D01*
X177240047Y-140699139D01*
X177370568Y-140512734D01*
X177397618Y-140454724D01*
X177443790Y-140402285D01*
X177510983Y-140383133D01*
X177577865Y-140403348D01*
X177622382Y-140454725D01*
X177649429Y-140512728D01*
X177649432Y-140512734D01*
X177779954Y-140699141D01*
X177940858Y-140860045D01*
X177940861Y-140860047D01*
X178127266Y-140990568D01*
X178333504Y-141086739D01*
X178553308Y-141145635D01*
X178715230Y-141159801D01*
X178779998Y-141165468D01*
X178780000Y-141165468D01*
X178780002Y-141165468D01*
X178836673Y-141160509D01*
X179006692Y-141145635D01*
X179226496Y-141086739D01*
X179432734Y-140990568D01*
X179619139Y-140860047D01*
X179780047Y-140699139D01*
X179910568Y-140512734D01*
X180006739Y-140306496D01*
X180065635Y-140086692D01*
X180085468Y-139860000D01*
X180065635Y-139633308D01*
X180006739Y-139413504D01*
X179910568Y-139207266D01*
X179801940Y-139052128D01*
X179780045Y-139020858D01*
X179619141Y-138859954D01*
X179432734Y-138729432D01*
X179432732Y-138729431D01*
X179226497Y-138633261D01*
X179226488Y-138633258D01*
X179006697Y-138574366D01*
X179006693Y-138574365D01*
X179006692Y-138574365D01*
X179006691Y-138574364D01*
X179006686Y-138574364D01*
X178780002Y-138554532D01*
X178779998Y-138554532D01*
X178553313Y-138574364D01*
X178553302Y-138574366D01*
X178333511Y-138633258D01*
X178333502Y-138633261D01*
X178127267Y-138729431D01*
X178127265Y-138729432D01*
X177940858Y-138859954D01*
X177779954Y-139020858D01*
X177649432Y-139207265D01*
X177649431Y-139207267D01*
X177622382Y-139265275D01*
X177576209Y-139317714D01*
X177509016Y-139336866D01*
X177442135Y-139316650D01*
X177397618Y-139265275D01*
X177370568Y-139207267D01*
X177370567Y-139207265D01*
X177363963Y-139197834D01*
X177261940Y-139052128D01*
X177240045Y-139020858D01*
X177079141Y-138859954D01*
X176892734Y-138729432D01*
X176892732Y-138729431D01*
X176686497Y-138633261D01*
X176686488Y-138633258D01*
X176466697Y-138574366D01*
X176466693Y-138574365D01*
X176466692Y-138574365D01*
X176466691Y-138574364D01*
X176466686Y-138574364D01*
X176240002Y-138554532D01*
X176239998Y-138554532D01*
X176013313Y-138574364D01*
X176013302Y-138574366D01*
X175793511Y-138633258D01*
X175793502Y-138633261D01*
X175587267Y-138729431D01*
X175587265Y-138729432D01*
X175400858Y-138859954D01*
X175239954Y-139020858D01*
X175109432Y-139207265D01*
X175109431Y-139207267D01*
X175082382Y-139265275D01*
X175036209Y-139317714D01*
X174969016Y-139336866D01*
X174902135Y-139316650D01*
X174857618Y-139265275D01*
X174830568Y-139207267D01*
X174830567Y-139207265D01*
X174823963Y-139197834D01*
X174721940Y-139052128D01*
X174700045Y-139020858D01*
X174539141Y-138859954D01*
X174352734Y-138729432D01*
X174352732Y-138729431D01*
X174146497Y-138633261D01*
X174146488Y-138633258D01*
X173926697Y-138574366D01*
X173926693Y-138574365D01*
X173926692Y-138574365D01*
X173926691Y-138574364D01*
X173926686Y-138574364D01*
X173700002Y-138554532D01*
X173699998Y-138554532D01*
X173473313Y-138574364D01*
X173473302Y-138574366D01*
X173253511Y-138633258D01*
X173253502Y-138633261D01*
X173047267Y-138729431D01*
X173047265Y-138729432D01*
X172860858Y-138859954D01*
X172699954Y-139020858D01*
X172569432Y-139207265D01*
X172569431Y-139207267D01*
X172542382Y-139265275D01*
X172496209Y-139317714D01*
X172429016Y-139336866D01*
X172362135Y-139316650D01*
X172317618Y-139265275D01*
X172290568Y-139207267D01*
X172290567Y-139207265D01*
X172283963Y-139197834D01*
X172181940Y-139052128D01*
X172160045Y-139020858D01*
X171999141Y-138859954D01*
X171883527Y-138779001D01*
X171839902Y-138724424D01*
X171833033Y-138701617D01*
X171824446Y-138658450D01*
X171824445Y-138658443D01*
X171802685Y-138605909D01*
X171772358Y-138532692D01*
X171763880Y-138520005D01*
X171763878Y-138520000D01*
X171763878Y-138520001D01*
X171763877Y-138519999D01*
X184844341Y-138519999D01*
X184844341Y-138520000D01*
X184864936Y-138755403D01*
X184864938Y-138755413D01*
X184926094Y-138983655D01*
X184926096Y-138983659D01*
X184926097Y-138983663D01*
X184958026Y-139052135D01*
X185025965Y-139197830D01*
X185025967Y-139197834D01*
X185161501Y-139391395D01*
X185161506Y-139391402D01*
X185328597Y-139558493D01*
X185328603Y-139558498D01*
X185514158Y-139688425D01*
X185557783Y-139743002D01*
X185564977Y-139812500D01*
X185533454Y-139874855D01*
X185514158Y-139891575D01*
X185328597Y-140021505D01*
X185161505Y-140188597D01*
X185025965Y-140382169D01*
X185025964Y-140382171D01*
X184926098Y-140596335D01*
X184926094Y-140596344D01*
X184864938Y-140824586D01*
X184864936Y-140824596D01*
X184844341Y-141059999D01*
X184844341Y-141060000D01*
X184864936Y-141295403D01*
X184864938Y-141295413D01*
X184926094Y-141523655D01*
X184926096Y-141523659D01*
X184926097Y-141523663D01*
X185025965Y-141737830D01*
X185025967Y-141737834D01*
X185074045Y-141806496D01*
X185161505Y-141931401D01*
X185328599Y-142098495D01*
X185425384Y-142166265D01*
X185522165Y-142234032D01*
X185522167Y-142234033D01*
X185522170Y-142234035D01*
X185736337Y-142333903D01*
X185964592Y-142395063D01*
X186152918Y-142411539D01*
X186199999Y-142415659D01*
X186200000Y-142415659D01*
X186200001Y-142415659D01*
X186239234Y-142412226D01*
X186435408Y-142395063D01*
X186663663Y-142333903D01*
X186877830Y-142234035D01*
X187071401Y-142098495D01*
X187238495Y-141931401D01*
X187374035Y-141737830D01*
X187473903Y-141523663D01*
X187535063Y-141295408D01*
X187555659Y-141060000D01*
X187535063Y-140824592D01*
X187473903Y-140596337D01*
X187374035Y-140382171D01*
X187321042Y-140306488D01*
X187238494Y-140188597D01*
X187071402Y-140021506D01*
X187071396Y-140021501D01*
X186885842Y-139891575D01*
X186842217Y-139836998D01*
X186835023Y-139767500D01*
X186866546Y-139705145D01*
X186885842Y-139688425D01*
X186964557Y-139633308D01*
X187071401Y-139558495D01*
X187238495Y-139391401D01*
X187374035Y-139197830D01*
X187473903Y-138983663D01*
X187535063Y-138755408D01*
X187555659Y-138520000D01*
X187535063Y-138284592D01*
X187473903Y-138056337D01*
X187374035Y-137842171D01*
X187267086Y-137689432D01*
X187238496Y-137648600D01*
X187183157Y-137593261D01*
X187116567Y-137526671D01*
X187083084Y-137465351D01*
X187088068Y-137395659D01*
X187129939Y-137339725D01*
X187160915Y-137322810D01*
X187292331Y-137273796D01*
X187407546Y-137187546D01*
X187493796Y-137072331D01*
X187544091Y-136937483D01*
X187550500Y-136877873D01*
X187550499Y-135082128D01*
X187544091Y-135022517D01*
X187539789Y-135010984D01*
X187493797Y-134887671D01*
X187493793Y-134887664D01*
X187407547Y-134772455D01*
X187407544Y-134772452D01*
X187292335Y-134686206D01*
X187292328Y-134686202D01*
X187157482Y-134635908D01*
X187157483Y-134635908D01*
X187097883Y-134629501D01*
X187097881Y-134629500D01*
X187097873Y-134629500D01*
X187097864Y-134629500D01*
X185302129Y-134629500D01*
X185302123Y-134629501D01*
X185242516Y-134635908D01*
X185107671Y-134686202D01*
X185107664Y-134686206D01*
X184992455Y-134772452D01*
X184992452Y-134772455D01*
X184906206Y-134887664D01*
X184906202Y-134887671D01*
X184855908Y-135022517D01*
X184850136Y-135076210D01*
X184849501Y-135082123D01*
X184849500Y-135082135D01*
X184849500Y-136877870D01*
X184849501Y-136877876D01*
X184855908Y-136937483D01*
X184906202Y-137072328D01*
X184906206Y-137072335D01*
X184992452Y-137187544D01*
X184992455Y-137187547D01*
X185107664Y-137273793D01*
X185107671Y-137273797D01*
X185239081Y-137322810D01*
X185295015Y-137364681D01*
X185319432Y-137430145D01*
X185304580Y-137498418D01*
X185283430Y-137526673D01*
X185161503Y-137648600D01*
X185025965Y-137842169D01*
X185025964Y-137842171D01*
X184926098Y-138056335D01*
X184926094Y-138056344D01*
X184864938Y-138284586D01*
X184864936Y-138284596D01*
X184844341Y-138519999D01*
X171763877Y-138519999D01*
X171696733Y-138419511D01*
X171696730Y-138419508D01*
X170140492Y-136863269D01*
X170140485Y-136863263D01*
X170027312Y-136787644D01*
X170027309Y-136787642D01*
X169901561Y-136735556D01*
X169901549Y-136735553D01*
X169856016Y-136726496D01*
X169856015Y-136726496D01*
X169768060Y-136709000D01*
X169768058Y-136709000D01*
X151711942Y-136709000D01*
X151711940Y-136709000D01*
X151623985Y-136726496D01*
X151623984Y-136726496D01*
X151578450Y-136735553D01*
X151578438Y-136735556D01*
X151452695Y-136787640D01*
X151452682Y-136787647D01*
X151339514Y-136863264D01*
X151339510Y-136863267D01*
X149334201Y-138868575D01*
X149272878Y-138902060D01*
X149203186Y-138897076D01*
X149147253Y-138855204D01*
X149122992Y-138791701D01*
X149119383Y-138750446D01*
X149105635Y-138593308D01*
X149046739Y-138373504D01*
X148950568Y-138167266D01*
X148820047Y-137980861D01*
X148820045Y-137980858D01*
X148659141Y-137819954D01*
X148472734Y-137689432D01*
X148472728Y-137689429D01*
X148414725Y-137662382D01*
X148362285Y-137616210D01*
X148343133Y-137549017D01*
X148363348Y-137482135D01*
X148414725Y-137437618D01*
X148472734Y-137410568D01*
X148659139Y-137280047D01*
X148820047Y-137119139D01*
X148950568Y-136932734D01*
X149046739Y-136726496D01*
X149105635Y-136506692D01*
X149125468Y-136280000D01*
X149105635Y-136053308D01*
X149046739Y-135833504D01*
X148950568Y-135627266D01*
X148820047Y-135440861D01*
X148820045Y-135440858D01*
X148659141Y-135279954D01*
X148472734Y-135149432D01*
X148472728Y-135149429D01*
X148414725Y-135122382D01*
X148362285Y-135076210D01*
X148343133Y-135009017D01*
X148363348Y-134942135D01*
X148414725Y-134897618D01*
X148472734Y-134870568D01*
X148659139Y-134740047D01*
X148820047Y-134579139D01*
X148950568Y-134392734D01*
X149046739Y-134186496D01*
X149105635Y-133966692D01*
X149125468Y-133740000D01*
X149105635Y-133513308D01*
X149046739Y-133293504D01*
X148950568Y-133087266D01*
X148820047Y-132900861D01*
X148820045Y-132900858D01*
X148819185Y-132899998D01*
X169009532Y-132899998D01*
X169009532Y-132900001D01*
X169029364Y-133126686D01*
X169029366Y-133126697D01*
X169088258Y-133346488D01*
X169088261Y-133346497D01*
X169184431Y-133552732D01*
X169184432Y-133552734D01*
X169314954Y-133739141D01*
X169475858Y-133900045D01*
X169475861Y-133900047D01*
X169662266Y-134030568D01*
X169868504Y-134126739D01*
X170088308Y-134185635D01*
X170250230Y-134199801D01*
X170314998Y-134205468D01*
X170315000Y-134205468D01*
X170315002Y-134205468D01*
X170371673Y-134200509D01*
X170541692Y-134185635D01*
X170761496Y-134126739D01*
X170967734Y-134030568D01*
X171154139Y-133900047D01*
X171315047Y-133739139D01*
X171445568Y-133552734D01*
X171541739Y-133346496D01*
X171600635Y-133126692D01*
X171620468Y-132900000D01*
X171620468Y-132899998D01*
X176629532Y-132899998D01*
X176629532Y-132900001D01*
X176649364Y-133126686D01*
X176649366Y-133126697D01*
X176708258Y-133346488D01*
X176708261Y-133346497D01*
X176804431Y-133552732D01*
X176804432Y-133552734D01*
X176934954Y-133739141D01*
X177095858Y-133900045D01*
X177095861Y-133900047D01*
X177282266Y-134030568D01*
X177488504Y-134126739D01*
X177708308Y-134185635D01*
X177870230Y-134199801D01*
X177934998Y-134205468D01*
X177935000Y-134205468D01*
X177935002Y-134205468D01*
X177991673Y-134200509D01*
X178161692Y-134185635D01*
X178381496Y-134126739D01*
X178587734Y-134030568D01*
X178774139Y-133900047D01*
X178935047Y-133739139D01*
X179065568Y-133552734D01*
X179161739Y-133346496D01*
X179220635Y-133126692D01*
X179240468Y-132900000D01*
X179238338Y-132875659D01*
X179231186Y-132793903D01*
X179220635Y-132673308D01*
X179161739Y-132453504D01*
X179065568Y-132247266D01*
X178935047Y-132060861D01*
X178935045Y-132060858D01*
X178774141Y-131899954D01*
X178587734Y-131769432D01*
X178587732Y-131769431D01*
X178381497Y-131673261D01*
X178381488Y-131673258D01*
X178161697Y-131614366D01*
X178161693Y-131614365D01*
X178161692Y-131614365D01*
X178161691Y-131614364D01*
X178161686Y-131614364D01*
X177935002Y-131594532D01*
X177934998Y-131594532D01*
X177708313Y-131614364D01*
X177708302Y-131614366D01*
X177488511Y-131673258D01*
X177488502Y-131673261D01*
X177282267Y-131769431D01*
X177282265Y-131769432D01*
X177095858Y-131899954D01*
X176934954Y-132060858D01*
X176804432Y-132247265D01*
X176804431Y-132247267D01*
X176708261Y-132453502D01*
X176708258Y-132453511D01*
X176649366Y-132673302D01*
X176649364Y-132673313D01*
X176629532Y-132899998D01*
X171620468Y-132899998D01*
X171618338Y-132875659D01*
X171611186Y-132793903D01*
X171600635Y-132673308D01*
X171541739Y-132453504D01*
X171445568Y-132247266D01*
X171315047Y-132060861D01*
X171315045Y-132060858D01*
X171154141Y-131899954D01*
X170967734Y-131769432D01*
X170967732Y-131769431D01*
X170761497Y-131673261D01*
X170761488Y-131673258D01*
X170541697Y-131614366D01*
X170541693Y-131614365D01*
X170541692Y-131614365D01*
X170541691Y-131614364D01*
X170541686Y-131614364D01*
X170315002Y-131594532D01*
X170314998Y-131594532D01*
X170088313Y-131614364D01*
X170088302Y-131614366D01*
X169868511Y-131673258D01*
X169868502Y-131673261D01*
X169662267Y-131769431D01*
X169662265Y-131769432D01*
X169475858Y-131899954D01*
X169314954Y-132060858D01*
X169184432Y-132247265D01*
X169184431Y-132247267D01*
X169088261Y-132453502D01*
X169088258Y-132453511D01*
X169029366Y-132673302D01*
X169029364Y-132673313D01*
X169009532Y-132899998D01*
X148819185Y-132899998D01*
X148659141Y-132739954D01*
X148472734Y-132609432D01*
X148472728Y-132609429D01*
X148414725Y-132582382D01*
X148362285Y-132536210D01*
X148343133Y-132469017D01*
X148363348Y-132402135D01*
X148414725Y-132357618D01*
X148472734Y-132330568D01*
X148659139Y-132200047D01*
X148820047Y-132039139D01*
X148950568Y-131852734D01*
X149046739Y-131646496D01*
X149105635Y-131426692D01*
X149125468Y-131200000D01*
X149105635Y-130973308D01*
X149046739Y-130753504D01*
X148950568Y-130547266D01*
X148820047Y-130360861D01*
X148820045Y-130360858D01*
X148659141Y-130199954D01*
X148472734Y-130069432D01*
X148472728Y-130069429D01*
X148414725Y-130042382D01*
X148362285Y-129996210D01*
X148343133Y-129929017D01*
X148363348Y-129862135D01*
X148414725Y-129817618D01*
X148472734Y-129790568D01*
X148659139Y-129660047D01*
X148767051Y-129552135D01*
X150899500Y-129552135D01*
X150899500Y-131247870D01*
X150899501Y-131247876D01*
X150905908Y-131307483D01*
X150956202Y-131442328D01*
X150956206Y-131442335D01*
X151042452Y-131557544D01*
X151042455Y-131557547D01*
X151157664Y-131643793D01*
X151157671Y-131643797D01*
X151292517Y-131694091D01*
X151292516Y-131694091D01*
X151299444Y-131694835D01*
X151352127Y-131700500D01*
X153047872Y-131700499D01*
X153107483Y-131694091D01*
X153242331Y-131643796D01*
X153357546Y-131557546D01*
X153443796Y-131442331D01*
X153494091Y-131307483D01*
X153500500Y-131247873D01*
X153500499Y-129899998D01*
X169009532Y-129899998D01*
X169009532Y-129900001D01*
X169029364Y-130126686D01*
X169029366Y-130126697D01*
X169088258Y-130346488D01*
X169088261Y-130346497D01*
X169184431Y-130552732D01*
X169184432Y-130552734D01*
X169314954Y-130739141D01*
X169475858Y-130900045D01*
X169475861Y-130900047D01*
X169662266Y-131030568D01*
X169868504Y-131126739D01*
X170088308Y-131185635D01*
X170250230Y-131199801D01*
X170314998Y-131205468D01*
X170315000Y-131205468D01*
X170315002Y-131205468D01*
X170377522Y-131199998D01*
X170541692Y-131185635D01*
X170761496Y-131126739D01*
X170967734Y-131030568D01*
X171154139Y-130900047D01*
X171315047Y-130739139D01*
X171445568Y-130552734D01*
X171541739Y-130346496D01*
X171600635Y-130126692D01*
X171620468Y-129900000D01*
X171620468Y-129899998D01*
X176629532Y-129899998D01*
X176629532Y-129900001D01*
X176649364Y-130126686D01*
X176649366Y-130126697D01*
X176708258Y-130346488D01*
X176708261Y-130346497D01*
X176804431Y-130552732D01*
X176804432Y-130552734D01*
X176934954Y-130739141D01*
X177095858Y-130900045D01*
X177095861Y-130900047D01*
X177282266Y-131030568D01*
X177488504Y-131126739D01*
X177708308Y-131185635D01*
X177870230Y-131199801D01*
X177934998Y-131205468D01*
X177935000Y-131205468D01*
X177935002Y-131205468D01*
X177997522Y-131199998D01*
X178161692Y-131185635D01*
X178381496Y-131126739D01*
X178587734Y-131030568D01*
X178774139Y-130900047D01*
X178935047Y-130739139D01*
X179065568Y-130552734D01*
X179161739Y-130346496D01*
X179220635Y-130126692D01*
X179240468Y-129900000D01*
X179220635Y-129673308D01*
X179161739Y-129453504D01*
X179065568Y-129247266D01*
X178935047Y-129060861D01*
X178935045Y-129060858D01*
X178774141Y-128899954D01*
X178587734Y-128769432D01*
X178587732Y-128769431D01*
X178381497Y-128673261D01*
X178381488Y-128673258D01*
X178161697Y-128614366D01*
X178161693Y-128614365D01*
X178161692Y-128614365D01*
X178161691Y-128614364D01*
X178161686Y-128614364D01*
X177935002Y-128594532D01*
X177934998Y-128594532D01*
X177708313Y-128614364D01*
X177708302Y-128614366D01*
X177488511Y-128673258D01*
X177488502Y-128673261D01*
X177282267Y-128769431D01*
X177282265Y-128769432D01*
X177095858Y-128899954D01*
X176934954Y-129060858D01*
X176804432Y-129247265D01*
X176804431Y-129247267D01*
X176708261Y-129453502D01*
X176708258Y-129453511D01*
X176649366Y-129673302D01*
X176649364Y-129673313D01*
X176629532Y-129899998D01*
X171620468Y-129899998D01*
X171600635Y-129673308D01*
X171541739Y-129453504D01*
X171445568Y-129247266D01*
X171315047Y-129060861D01*
X171315045Y-129060858D01*
X171154141Y-128899954D01*
X170967734Y-128769432D01*
X170967732Y-128769431D01*
X170761497Y-128673261D01*
X170761488Y-128673258D01*
X170541697Y-128614366D01*
X170541693Y-128614365D01*
X170541692Y-128614365D01*
X170541691Y-128614364D01*
X170541686Y-128614364D01*
X170315002Y-128594532D01*
X170314998Y-128594532D01*
X170088313Y-128614364D01*
X170088302Y-128614366D01*
X169868511Y-128673258D01*
X169868502Y-128673261D01*
X169662267Y-128769431D01*
X169662265Y-128769432D01*
X169475858Y-128899954D01*
X169314954Y-129060858D01*
X169184432Y-129247265D01*
X169184431Y-129247267D01*
X169088261Y-129453502D01*
X169088258Y-129453511D01*
X169029366Y-129673302D01*
X169029364Y-129673313D01*
X169009532Y-129899998D01*
X153500499Y-129899998D01*
X153500499Y-129552128D01*
X153494091Y-129492517D01*
X153479539Y-129453502D01*
X153443797Y-129357671D01*
X153443793Y-129357664D01*
X153357547Y-129242455D01*
X153357544Y-129242452D01*
X153242335Y-129156206D01*
X153242328Y-129156202D01*
X153107482Y-129105908D01*
X153107483Y-129105908D01*
X153047883Y-129099501D01*
X153047881Y-129099500D01*
X153047873Y-129099500D01*
X153047864Y-129099500D01*
X151352129Y-129099500D01*
X151352123Y-129099501D01*
X151292516Y-129105908D01*
X151157671Y-129156202D01*
X151157664Y-129156206D01*
X151042455Y-129242452D01*
X151042452Y-129242455D01*
X150956206Y-129357664D01*
X150956202Y-129357671D01*
X150905908Y-129492517D01*
X150899501Y-129552116D01*
X150899501Y-129552123D01*
X150899500Y-129552135D01*
X148767051Y-129552135D01*
X148820047Y-129499139D01*
X148950568Y-129312734D01*
X149046739Y-129106496D01*
X149105635Y-128886692D01*
X149125468Y-128660000D01*
X149121475Y-128614365D01*
X149105635Y-128433313D01*
X149105635Y-128433308D01*
X149046739Y-128213504D01*
X148950568Y-128007266D01*
X148820047Y-127820861D01*
X148820045Y-127820858D01*
X148659141Y-127659954D01*
X148472734Y-127529432D01*
X148472732Y-127529431D01*
X148266497Y-127433261D01*
X148266488Y-127433258D01*
X148046697Y-127374366D01*
X148046693Y-127374365D01*
X148046692Y-127374365D01*
X148046691Y-127374364D01*
X148046686Y-127374364D01*
X147820002Y-127354532D01*
X147819998Y-127354532D01*
X147593313Y-127374364D01*
X147593302Y-127374366D01*
X147373511Y-127433258D01*
X147373502Y-127433261D01*
X147167267Y-127529431D01*
X147167265Y-127529432D01*
X146980858Y-127659954D01*
X146819954Y-127820858D01*
X146689432Y-128007265D01*
X146689431Y-128007267D01*
X146593261Y-128213502D01*
X146593258Y-128213511D01*
X146534366Y-128433302D01*
X146534364Y-128433313D01*
X146514532Y-128659998D01*
X144257222Y-128659998D01*
X146017222Y-126899998D01*
X169009532Y-126899998D01*
X169009532Y-126900001D01*
X169029364Y-127126686D01*
X169029366Y-127126697D01*
X169088258Y-127346488D01*
X169088261Y-127346497D01*
X169184431Y-127552732D01*
X169184432Y-127552734D01*
X169314954Y-127739141D01*
X169475858Y-127900045D01*
X169475861Y-127900047D01*
X169662266Y-128030568D01*
X169868504Y-128126739D01*
X170088308Y-128185635D01*
X170250230Y-128199801D01*
X170314998Y-128205468D01*
X170315000Y-128205468D01*
X170315002Y-128205468D01*
X170371673Y-128200509D01*
X170541692Y-128185635D01*
X170761496Y-128126739D01*
X170967734Y-128030568D01*
X171154139Y-127900047D01*
X171315047Y-127739139D01*
X171445568Y-127552734D01*
X171541739Y-127346496D01*
X171600635Y-127126692D01*
X171617634Y-126932384D01*
X171620468Y-126900001D01*
X171620468Y-126899998D01*
X176629532Y-126899998D01*
X176629532Y-126900001D01*
X176649364Y-127126686D01*
X176649366Y-127126697D01*
X176708258Y-127346488D01*
X176708261Y-127346497D01*
X176804431Y-127552732D01*
X176804432Y-127552734D01*
X176934954Y-127739141D01*
X177095858Y-127900045D01*
X177095861Y-127900047D01*
X177282266Y-128030568D01*
X177488504Y-128126739D01*
X177708308Y-128185635D01*
X177870230Y-128199801D01*
X177934998Y-128205468D01*
X177935000Y-128205468D01*
X177935002Y-128205468D01*
X177991673Y-128200509D01*
X178161692Y-128185635D01*
X178381496Y-128126739D01*
X178587734Y-128030568D01*
X178774139Y-127900047D01*
X178935047Y-127739139D01*
X179065568Y-127552734D01*
X179161739Y-127346496D01*
X179220635Y-127126692D01*
X179237634Y-126932384D01*
X179240468Y-126900001D01*
X179240468Y-126899998D01*
X179220819Y-126675413D01*
X179220635Y-126673308D01*
X179161739Y-126453504D01*
X179065568Y-126247266D01*
X178935047Y-126060861D01*
X178935045Y-126060858D01*
X178774141Y-125899954D01*
X178587734Y-125769432D01*
X178587732Y-125769431D01*
X178381497Y-125673261D01*
X178381488Y-125673258D01*
X178161697Y-125614366D01*
X178161693Y-125614365D01*
X178161692Y-125614365D01*
X178161691Y-125614364D01*
X178161686Y-125614364D01*
X177935002Y-125594532D01*
X177934998Y-125594532D01*
X177708313Y-125614364D01*
X177708302Y-125614366D01*
X177488511Y-125673258D01*
X177488502Y-125673261D01*
X177282267Y-125769431D01*
X177282265Y-125769432D01*
X177095858Y-125899954D01*
X176934954Y-126060858D01*
X176804432Y-126247265D01*
X176804431Y-126247267D01*
X176708261Y-126453502D01*
X176708258Y-126453511D01*
X176649366Y-126673302D01*
X176649364Y-126673313D01*
X176629532Y-126899998D01*
X171620468Y-126899998D01*
X171600819Y-126675413D01*
X171600635Y-126673308D01*
X171541739Y-126453504D01*
X171445568Y-126247266D01*
X171315047Y-126060861D01*
X171315045Y-126060858D01*
X171154141Y-125899954D01*
X170967734Y-125769432D01*
X170967732Y-125769431D01*
X170761497Y-125673261D01*
X170761488Y-125673258D01*
X170541697Y-125614366D01*
X170541693Y-125614365D01*
X170541692Y-125614365D01*
X170541691Y-125614364D01*
X170541686Y-125614364D01*
X170315002Y-125594532D01*
X170314998Y-125594532D01*
X170088313Y-125614364D01*
X170088302Y-125614366D01*
X169868511Y-125673258D01*
X169868502Y-125673261D01*
X169662267Y-125769431D01*
X169662265Y-125769432D01*
X169475858Y-125899954D01*
X169314954Y-126060858D01*
X169184432Y-126247265D01*
X169184431Y-126247267D01*
X169088261Y-126453502D01*
X169088258Y-126453511D01*
X169029366Y-126673302D01*
X169029364Y-126673313D01*
X169009532Y-126899998D01*
X146017222Y-126899998D01*
X149017221Y-123899998D01*
X169009532Y-123899998D01*
X169009532Y-123900001D01*
X169029364Y-124126686D01*
X169029366Y-124126697D01*
X169088258Y-124346488D01*
X169088261Y-124346497D01*
X169184431Y-124552732D01*
X169184432Y-124552734D01*
X169314954Y-124739141D01*
X169475858Y-124900045D01*
X169475861Y-124900047D01*
X169662266Y-125030568D01*
X169868504Y-125126739D01*
X170088308Y-125185635D01*
X170250230Y-125199801D01*
X170314998Y-125205468D01*
X170315000Y-125205468D01*
X170315002Y-125205468D01*
X170371673Y-125200509D01*
X170541692Y-125185635D01*
X170761496Y-125126739D01*
X170967734Y-125030568D01*
X171154139Y-124900047D01*
X171315047Y-124739139D01*
X171445568Y-124552734D01*
X171541739Y-124346496D01*
X171600635Y-124126692D01*
X171620468Y-123900000D01*
X171620468Y-123899998D01*
X176629532Y-123899998D01*
X176629532Y-123900001D01*
X176649364Y-124126686D01*
X176649366Y-124126697D01*
X176708258Y-124346488D01*
X176708261Y-124346497D01*
X176804431Y-124552732D01*
X176804432Y-124552734D01*
X176934954Y-124739141D01*
X177095858Y-124900045D01*
X177095861Y-124900047D01*
X177282266Y-125030568D01*
X177488504Y-125126739D01*
X177708308Y-125185635D01*
X177870230Y-125199801D01*
X177934998Y-125205468D01*
X177935000Y-125205468D01*
X177935002Y-125205468D01*
X177991673Y-125200509D01*
X178161692Y-125185635D01*
X178381496Y-125126739D01*
X178587734Y-125030568D01*
X178774139Y-124900047D01*
X178935047Y-124739139D01*
X179065568Y-124552734D01*
X179161739Y-124346496D01*
X179220635Y-124126692D01*
X179240468Y-123900000D01*
X179220635Y-123673308D01*
X179161739Y-123453504D01*
X179065568Y-123247266D01*
X178935047Y-123060861D01*
X178935045Y-123060858D01*
X178774141Y-122899954D01*
X178587734Y-122769432D01*
X178587732Y-122769431D01*
X178381497Y-122673261D01*
X178381488Y-122673258D01*
X178161697Y-122614366D01*
X178161693Y-122614365D01*
X178161692Y-122614365D01*
X178161691Y-122614364D01*
X178161686Y-122614364D01*
X177935002Y-122594532D01*
X177934998Y-122594532D01*
X177708313Y-122614364D01*
X177708302Y-122614366D01*
X177488511Y-122673258D01*
X177488502Y-122673261D01*
X177282267Y-122769431D01*
X177282265Y-122769432D01*
X177095858Y-122899954D01*
X176934954Y-123060858D01*
X176804432Y-123247265D01*
X176804431Y-123247267D01*
X176708261Y-123453502D01*
X176708258Y-123453511D01*
X176649366Y-123673302D01*
X176649364Y-123673313D01*
X176629532Y-123899998D01*
X171620468Y-123899998D01*
X171600635Y-123673308D01*
X171541739Y-123453504D01*
X171445568Y-123247266D01*
X171315047Y-123060861D01*
X171315045Y-123060858D01*
X171154141Y-122899954D01*
X170967734Y-122769432D01*
X170967732Y-122769431D01*
X170761497Y-122673261D01*
X170761488Y-122673258D01*
X170541697Y-122614366D01*
X170541693Y-122614365D01*
X170541692Y-122614365D01*
X170541691Y-122614364D01*
X170541686Y-122614364D01*
X170315002Y-122594532D01*
X170314998Y-122594532D01*
X170088313Y-122614364D01*
X170088302Y-122614366D01*
X169868511Y-122673258D01*
X169868502Y-122673261D01*
X169662267Y-122769431D01*
X169662265Y-122769432D01*
X169475858Y-122899954D01*
X169314954Y-123060858D01*
X169184432Y-123247265D01*
X169184431Y-123247267D01*
X169088261Y-123453502D01*
X169088258Y-123453511D01*
X169029366Y-123673302D01*
X169029364Y-123673313D01*
X169009532Y-123899998D01*
X149017221Y-123899998D01*
X150198234Y-122718985D01*
X150259555Y-122685502D01*
X150307624Y-122686676D01*
X150307974Y-122684694D01*
X150313298Y-122685632D01*
X150313308Y-122685635D01*
X150475230Y-122699801D01*
X150539998Y-122705468D01*
X150540000Y-122705468D01*
X150540002Y-122705468D01*
X150596807Y-122700498D01*
X150766692Y-122685635D01*
X150986496Y-122626739D01*
X151192734Y-122530568D01*
X151379139Y-122400047D01*
X151540047Y-122239139D01*
X151670568Y-122052734D01*
X151697618Y-121994724D01*
X151743790Y-121942285D01*
X151810983Y-121923133D01*
X151877865Y-121943348D01*
X151922382Y-121994725D01*
X151949429Y-122052728D01*
X151949432Y-122052734D01*
X152079954Y-122239141D01*
X152240858Y-122400045D01*
X152240861Y-122400047D01*
X152427266Y-122530568D01*
X152633504Y-122626739D01*
X152853308Y-122685635D01*
X153015230Y-122699801D01*
X153079998Y-122705468D01*
X153080000Y-122705468D01*
X153080002Y-122705468D01*
X153136807Y-122700498D01*
X153306692Y-122685635D01*
X153526496Y-122626739D01*
X153732734Y-122530568D01*
X153919139Y-122400047D01*
X154080047Y-122239139D01*
X154210568Y-122052734D01*
X154306739Y-121846496D01*
X154365635Y-121626692D01*
X154385468Y-121400000D01*
X154385468Y-121399998D01*
X159394532Y-121399998D01*
X159394532Y-121400001D01*
X159414364Y-121626686D01*
X159414366Y-121626697D01*
X159473258Y-121846488D01*
X159473261Y-121846497D01*
X159569431Y-122052732D01*
X159569432Y-122052734D01*
X159699954Y-122239141D01*
X159860858Y-122400045D01*
X159860861Y-122400047D01*
X160047266Y-122530568D01*
X160253504Y-122626739D01*
X160473308Y-122685635D01*
X160635230Y-122699801D01*
X160699998Y-122705468D01*
X160700000Y-122705468D01*
X160700002Y-122705468D01*
X160756807Y-122700498D01*
X160926692Y-122685635D01*
X161146496Y-122626739D01*
X161352734Y-122530568D01*
X161539139Y-122400047D01*
X161700047Y-122239139D01*
X161830568Y-122052734D01*
X161926739Y-121846496D01*
X161985635Y-121626692D01*
X162005468Y-121400000D01*
X162001968Y-121360000D01*
X161988998Y-121211748D01*
X161985635Y-121173308D01*
X161926739Y-120953504D01*
X161901789Y-120899998D01*
X169009532Y-120899998D01*
X169009532Y-120900001D01*
X169029364Y-121126686D01*
X169029366Y-121126697D01*
X169088258Y-121346488D01*
X169088261Y-121346497D01*
X169184431Y-121552732D01*
X169184432Y-121552734D01*
X169314954Y-121739141D01*
X169475858Y-121900045D01*
X169521801Y-121932214D01*
X169662266Y-122030568D01*
X169868504Y-122126739D01*
X170088308Y-122185635D01*
X170250230Y-122199801D01*
X170314998Y-122205468D01*
X170315000Y-122205468D01*
X170315002Y-122205468D01*
X170371673Y-122200509D01*
X170541692Y-122185635D01*
X170761496Y-122126739D01*
X170967734Y-122030568D01*
X171154139Y-121900047D01*
X171315047Y-121739139D01*
X171445568Y-121552734D01*
X171541739Y-121346496D01*
X171600635Y-121126692D01*
X171620468Y-120900000D01*
X171620468Y-120899998D01*
X176629532Y-120899998D01*
X176629532Y-120900001D01*
X176649364Y-121126686D01*
X176649366Y-121126697D01*
X176708258Y-121346488D01*
X176708261Y-121346497D01*
X176804431Y-121552732D01*
X176804432Y-121552734D01*
X176934954Y-121739141D01*
X177095858Y-121900045D01*
X177141801Y-121932214D01*
X177282266Y-122030568D01*
X177488504Y-122126739D01*
X177708308Y-122185635D01*
X177870230Y-122199801D01*
X177934998Y-122205468D01*
X177935000Y-122205468D01*
X177935002Y-122205468D01*
X177991673Y-122200509D01*
X178161692Y-122185635D01*
X178381496Y-122126739D01*
X178587734Y-122030568D01*
X178774139Y-121900047D01*
X178935047Y-121739139D01*
X179065568Y-121552734D01*
X179161739Y-121346496D01*
X179220635Y-121126692D01*
X179240468Y-120900000D01*
X179240147Y-120896335D01*
X179232181Y-120805275D01*
X179220635Y-120673308D01*
X179161739Y-120453504D01*
X179065568Y-120247266D01*
X178962102Y-120099500D01*
X178935045Y-120060858D01*
X178774141Y-119899954D01*
X178587734Y-119769432D01*
X178587732Y-119769431D01*
X178381497Y-119673261D01*
X178381488Y-119673258D01*
X178161697Y-119614366D01*
X178161693Y-119614365D01*
X178161692Y-119614365D01*
X178161691Y-119614364D01*
X178161686Y-119614364D01*
X177935002Y-119594532D01*
X177934998Y-119594532D01*
X177708313Y-119614364D01*
X177708302Y-119614366D01*
X177488511Y-119673258D01*
X177488502Y-119673261D01*
X177282267Y-119769431D01*
X177282265Y-119769432D01*
X177095858Y-119899954D01*
X176934954Y-120060858D01*
X176804432Y-120247265D01*
X176804431Y-120247267D01*
X176708261Y-120453502D01*
X176708258Y-120453511D01*
X176649366Y-120673302D01*
X176649364Y-120673313D01*
X176629532Y-120899998D01*
X171620468Y-120899998D01*
X171620147Y-120896335D01*
X171612181Y-120805275D01*
X171600635Y-120673308D01*
X171541739Y-120453504D01*
X171445568Y-120247266D01*
X171342102Y-120099500D01*
X171315045Y-120060858D01*
X171154141Y-119899954D01*
X170967734Y-119769432D01*
X170967732Y-119769431D01*
X170761497Y-119673261D01*
X170761488Y-119673258D01*
X170541697Y-119614366D01*
X170541693Y-119614365D01*
X170541692Y-119614365D01*
X170541691Y-119614364D01*
X170541686Y-119614364D01*
X170315002Y-119594532D01*
X170314998Y-119594532D01*
X170088313Y-119614364D01*
X170088302Y-119614366D01*
X169868511Y-119673258D01*
X169868502Y-119673261D01*
X169662267Y-119769431D01*
X169662265Y-119769432D01*
X169475858Y-119899954D01*
X169314954Y-120060858D01*
X169184432Y-120247265D01*
X169184431Y-120247267D01*
X169088261Y-120453502D01*
X169088258Y-120453511D01*
X169029366Y-120673302D01*
X169029364Y-120673313D01*
X169009532Y-120899998D01*
X161901789Y-120899998D01*
X161830568Y-120747266D01*
X161700047Y-120560861D01*
X161700045Y-120560858D01*
X161539141Y-120399954D01*
X161352734Y-120269432D01*
X161352732Y-120269431D01*
X161146497Y-120173261D01*
X161146488Y-120173258D01*
X160926697Y-120114366D01*
X160926693Y-120114365D01*
X160926692Y-120114365D01*
X160926691Y-120114364D01*
X160926686Y-120114364D01*
X160700002Y-120094532D01*
X160699998Y-120094532D01*
X160473313Y-120114364D01*
X160473302Y-120114366D01*
X160253511Y-120173258D01*
X160253502Y-120173261D01*
X160047267Y-120269431D01*
X160047265Y-120269432D01*
X159860858Y-120399954D01*
X159699954Y-120560858D01*
X159569432Y-120747265D01*
X159569431Y-120747267D01*
X159473261Y-120953502D01*
X159473258Y-120953511D01*
X159414366Y-121173302D01*
X159414364Y-121173313D01*
X159394532Y-121399998D01*
X154385468Y-121399998D01*
X154381968Y-121360000D01*
X154368998Y-121211748D01*
X154365635Y-121173308D01*
X154306739Y-120953504D01*
X154210568Y-120747266D01*
X154080047Y-120560861D01*
X154080045Y-120560858D01*
X153919141Y-120399954D01*
X153732734Y-120269432D01*
X153732732Y-120269431D01*
X153526497Y-120173261D01*
X153526488Y-120173258D01*
X153306697Y-120114366D01*
X153306693Y-120114365D01*
X153306692Y-120114365D01*
X153306691Y-120114364D01*
X153306686Y-120114364D01*
X153080002Y-120094532D01*
X153079998Y-120094532D01*
X152853313Y-120114364D01*
X152853302Y-120114366D01*
X152633511Y-120173258D01*
X152633502Y-120173261D01*
X152427267Y-120269431D01*
X152427265Y-120269432D01*
X152240858Y-120399954D01*
X152079954Y-120560858D01*
X151949432Y-120747265D01*
X151949431Y-120747267D01*
X151922382Y-120805275D01*
X151876209Y-120857714D01*
X151809016Y-120876866D01*
X151742135Y-120856650D01*
X151697618Y-120805275D01*
X151670568Y-120747267D01*
X151670567Y-120747265D01*
X151618782Y-120673308D01*
X151540047Y-120560861D01*
X151540045Y-120560858D01*
X151379141Y-120399954D01*
X151192734Y-120269432D01*
X151192732Y-120269431D01*
X150986497Y-120173261D01*
X150986488Y-120173258D01*
X150766697Y-120114366D01*
X150766693Y-120114365D01*
X150766692Y-120114365D01*
X150766691Y-120114364D01*
X150766686Y-120114364D01*
X150540002Y-120094532D01*
X150539998Y-120094532D01*
X150313313Y-120114364D01*
X150313302Y-120114366D01*
X150093511Y-120173258D01*
X150093502Y-120173261D01*
X149887267Y-120269431D01*
X149887265Y-120269432D01*
X149700858Y-120399954D01*
X149539954Y-120560858D01*
X149522725Y-120585464D01*
X149468147Y-120629088D01*
X149398648Y-120636280D01*
X149336294Y-120604757D01*
X149300882Y-120544526D01*
X149297861Y-120527591D01*
X149294091Y-120492516D01*
X149243797Y-120357671D01*
X149243793Y-120357664D01*
X149157547Y-120242455D01*
X149157544Y-120242452D01*
X149042335Y-120156206D01*
X149042328Y-120156202D01*
X148907482Y-120105908D01*
X148907483Y-120105908D01*
X148847883Y-120099501D01*
X148847881Y-120099500D01*
X148847873Y-120099500D01*
X148847864Y-120099500D01*
X147152129Y-120099500D01*
X147152123Y-120099501D01*
X147092516Y-120105908D01*
X146957671Y-120156202D01*
X146957664Y-120156206D01*
X146842455Y-120242452D01*
X146842452Y-120242455D01*
X146756206Y-120357664D01*
X146756202Y-120357671D01*
X146705908Y-120492517D01*
X146699501Y-120552116D01*
X146699500Y-120552135D01*
X146699500Y-122247870D01*
X146699501Y-122247876D01*
X146705908Y-122307483D01*
X146756202Y-122442328D01*
X146756206Y-122442335D01*
X146842452Y-122557544D01*
X146842455Y-122557547D01*
X146957664Y-122643793D01*
X146957671Y-122643797D01*
X147092517Y-122694091D01*
X147092516Y-122694091D01*
X147099444Y-122694835D01*
X147152127Y-122700500D01*
X147962916Y-122700499D01*
X148029955Y-122720183D01*
X148075710Y-122772987D01*
X148085654Y-122842146D01*
X148056629Y-122905702D01*
X148050597Y-122912180D01*
X141548694Y-129414082D01*
X141487371Y-129447567D01*
X141417679Y-129442583D01*
X141361746Y-129400711D01*
X141337329Y-129335247D01*
X141348630Y-129273999D01*
X141426739Y-129106496D01*
X141485635Y-128886692D01*
X141505468Y-128660000D01*
X141501475Y-128614365D01*
X141485635Y-128433313D01*
X141485635Y-128433308D01*
X141426739Y-128213504D01*
X141330568Y-128007266D01*
X141200047Y-127820861D01*
X141200045Y-127820858D01*
X141039141Y-127659954D01*
X140852734Y-127529432D01*
X140852732Y-127529431D01*
X140646497Y-127433261D01*
X140646488Y-127433258D01*
X140426697Y-127374366D01*
X140426693Y-127374365D01*
X140426692Y-127374365D01*
X140426691Y-127374364D01*
X140426686Y-127374364D01*
X140200002Y-127354532D01*
X140199998Y-127354532D01*
X139973313Y-127374364D01*
X139973302Y-127374366D01*
X139753511Y-127433258D01*
X139753502Y-127433261D01*
X139547267Y-127529431D01*
X139547265Y-127529432D01*
X139360858Y-127659954D01*
X139199954Y-127820858D01*
X139069432Y-128007265D01*
X139069431Y-128007267D01*
X138973261Y-128213502D01*
X138973258Y-128213511D01*
X138914366Y-128433302D01*
X138914364Y-128433313D01*
X138894532Y-128659998D01*
X127885468Y-128659998D01*
X127881475Y-128614365D01*
X127865635Y-128433313D01*
X127865635Y-128433308D01*
X127806739Y-128213504D01*
X127710568Y-128007266D01*
X127580047Y-127820861D01*
X127419139Y-127659953D01*
X127323876Y-127593249D01*
X127280251Y-127538672D01*
X127271000Y-127491674D01*
X127271000Y-125357583D01*
X127290685Y-125290544D01*
X127307319Y-125269902D01*
X131177221Y-121400000D01*
X140894540Y-121400000D01*
X140914326Y-121588256D01*
X140914327Y-121588259D01*
X140972818Y-121768277D01*
X140972821Y-121768284D01*
X141067467Y-121932216D01*
X141175982Y-122052734D01*
X141194129Y-122072888D01*
X141347265Y-122184148D01*
X141347270Y-122184151D01*
X141520192Y-122261142D01*
X141520193Y-122261142D01*
X141520197Y-122261144D01*
X141692187Y-122297701D01*
X141753669Y-122330893D01*
X141754088Y-122331310D01*
X143271918Y-123849139D01*
X143305403Y-123910462D01*
X143307557Y-123923852D01*
X143314326Y-123988256D01*
X143314327Y-123988259D01*
X143372818Y-124168277D01*
X143372821Y-124168284D01*
X143467467Y-124332216D01*
X143594129Y-124472888D01*
X143747265Y-124584148D01*
X143747270Y-124584151D01*
X143920192Y-124661142D01*
X143920197Y-124661144D01*
X144105354Y-124700500D01*
X144105355Y-124700500D01*
X144294644Y-124700500D01*
X144294646Y-124700500D01*
X144479803Y-124661144D01*
X144652730Y-124584151D01*
X144805871Y-124472888D01*
X144932533Y-124332216D01*
X145027179Y-124168284D01*
X145085674Y-123988256D01*
X145105460Y-123800000D01*
X145085674Y-123611744D01*
X145027179Y-123431716D01*
X144932533Y-123267784D01*
X144805871Y-123127112D01*
X144805870Y-123127111D01*
X144652734Y-123015851D01*
X144652729Y-123015848D01*
X144479807Y-122938857D01*
X144479802Y-122938855D01*
X144307810Y-122902298D01*
X144246328Y-122869106D01*
X144245910Y-122868689D01*
X142728081Y-121350860D01*
X142694596Y-121289537D01*
X142692441Y-121276138D01*
X142685674Y-121211748D01*
X142685674Y-121211745D01*
X142685672Y-121211740D01*
X142627179Y-121031716D01*
X142532533Y-120867784D01*
X142405871Y-120727112D01*
X142344015Y-120682171D01*
X142252734Y-120615851D01*
X142252729Y-120615848D01*
X142079807Y-120538857D01*
X142079802Y-120538855D01*
X141934001Y-120507865D01*
X141894646Y-120499500D01*
X141705354Y-120499500D01*
X141672897Y-120506398D01*
X141520197Y-120538855D01*
X141520192Y-120538857D01*
X141347270Y-120615848D01*
X141347265Y-120615851D01*
X141194129Y-120727111D01*
X141067466Y-120867785D01*
X140972821Y-121031715D01*
X140972818Y-121031722D01*
X140926813Y-121173313D01*
X140914326Y-121211744D01*
X140894540Y-121400000D01*
X131177221Y-121400000D01*
X133949902Y-118627319D01*
X134011225Y-118593834D01*
X134037583Y-118591000D01*
X169146675Y-118591000D01*
X169213714Y-118610685D01*
X169248250Y-118643877D01*
X169314954Y-118739141D01*
X169475858Y-118900045D01*
X169475861Y-118900047D01*
X169662266Y-119030568D01*
X169868504Y-119126739D01*
X170088308Y-119185635D01*
X170250230Y-119199801D01*
X170314998Y-119205468D01*
X170315000Y-119205468D01*
X170315002Y-119205468D01*
X170371673Y-119200509D01*
X170541692Y-119185635D01*
X170761496Y-119126739D01*
X170967734Y-119030568D01*
X171154139Y-118900047D01*
X171315047Y-118739139D01*
X171445568Y-118552734D01*
X171541739Y-118346496D01*
X171600635Y-118126692D01*
X171620468Y-117900000D01*
X171620468Y-117899998D01*
X176629532Y-117899998D01*
X176629532Y-117900001D01*
X176649364Y-118126686D01*
X176649366Y-118126697D01*
X176708258Y-118346488D01*
X176708261Y-118346497D01*
X176804431Y-118552732D01*
X176804432Y-118552734D01*
X176934954Y-118739141D01*
X177095858Y-118900045D01*
X177095861Y-118900047D01*
X177282266Y-119030568D01*
X177488504Y-119126739D01*
X177708308Y-119185635D01*
X177870230Y-119199801D01*
X177934998Y-119205468D01*
X177935000Y-119205468D01*
X177935002Y-119205468D01*
X177991673Y-119200509D01*
X178161692Y-119185635D01*
X178381496Y-119126739D01*
X178587734Y-119030568D01*
X178774139Y-118900047D01*
X178854187Y-118819999D01*
X182304341Y-118819999D01*
X182304341Y-118820000D01*
X182324936Y-119055403D01*
X182324938Y-119055413D01*
X182386094Y-119283655D01*
X182386096Y-119283659D01*
X182386097Y-119283663D01*
X182485965Y-119497830D01*
X182485967Y-119497834D01*
X182621501Y-119691395D01*
X182621506Y-119691402D01*
X182788597Y-119858493D01*
X182788603Y-119858498D01*
X182974158Y-119988425D01*
X183017783Y-120043002D01*
X183024977Y-120112500D01*
X182993454Y-120174855D01*
X182974158Y-120191575D01*
X182788597Y-120321505D01*
X182621505Y-120488597D01*
X182485965Y-120682169D01*
X182485964Y-120682171D01*
X182386098Y-120896335D01*
X182386094Y-120896344D01*
X182324938Y-121124586D01*
X182324936Y-121124596D01*
X182304341Y-121359999D01*
X182304341Y-121360000D01*
X182324936Y-121595403D01*
X182324938Y-121595413D01*
X182386094Y-121823655D01*
X182386096Y-121823659D01*
X182386097Y-121823663D01*
X182441412Y-121942285D01*
X182485965Y-122037830D01*
X182485967Y-122037834D01*
X182621501Y-122231395D01*
X182621506Y-122231402D01*
X182788597Y-122398493D01*
X182788603Y-122398498D01*
X182974158Y-122528425D01*
X183017783Y-122583002D01*
X183024977Y-122652500D01*
X182993454Y-122714855D01*
X182974158Y-122731575D01*
X182788597Y-122861505D01*
X182621505Y-123028597D01*
X182485965Y-123222169D01*
X182485964Y-123222171D01*
X182386098Y-123436335D01*
X182386094Y-123436344D01*
X182324938Y-123664586D01*
X182324936Y-123664596D01*
X182304341Y-123899999D01*
X182304341Y-123900000D01*
X182324936Y-124135403D01*
X182324938Y-124135413D01*
X182386094Y-124363655D01*
X182386096Y-124363659D01*
X182386097Y-124363663D01*
X182437030Y-124472888D01*
X182485965Y-124577830D01*
X182485967Y-124577834D01*
X182621501Y-124771395D01*
X182621506Y-124771402D01*
X182788597Y-124938493D01*
X182788603Y-124938498D01*
X182974158Y-125068425D01*
X183017783Y-125123002D01*
X183024977Y-125192500D01*
X182993454Y-125254855D01*
X182974158Y-125271575D01*
X182788597Y-125401505D01*
X182621505Y-125568597D01*
X182485965Y-125762169D01*
X182485964Y-125762171D01*
X182386098Y-125976335D01*
X182386094Y-125976344D01*
X182324938Y-126204586D01*
X182324936Y-126204596D01*
X182304341Y-126439999D01*
X182304341Y-126440000D01*
X182324936Y-126675403D01*
X182324938Y-126675413D01*
X182386094Y-126903655D01*
X182386096Y-126903659D01*
X182386097Y-126903663D01*
X182485965Y-127117830D01*
X182485967Y-127117834D01*
X182621501Y-127311395D01*
X182621506Y-127311402D01*
X182788597Y-127478493D01*
X182788603Y-127478498D01*
X182974158Y-127608425D01*
X183017783Y-127663002D01*
X183024977Y-127732500D01*
X182993454Y-127794855D01*
X182974158Y-127811575D01*
X182788597Y-127941505D01*
X182621505Y-128108597D01*
X182485965Y-128302169D01*
X182485964Y-128302171D01*
X182386098Y-128516335D01*
X182386094Y-128516344D01*
X182324938Y-128744586D01*
X182324936Y-128744596D01*
X182304341Y-128979999D01*
X182304341Y-128980000D01*
X182324936Y-129215403D01*
X182324938Y-129215413D01*
X182386094Y-129443655D01*
X182386096Y-129443659D01*
X182386097Y-129443663D01*
X182485965Y-129657830D01*
X182485967Y-129657834D01*
X182621501Y-129851395D01*
X182621506Y-129851402D01*
X182788597Y-130018493D01*
X182788603Y-130018498D01*
X182974158Y-130148425D01*
X183017783Y-130203002D01*
X183024977Y-130272500D01*
X182993454Y-130334855D01*
X182974158Y-130351575D01*
X182788597Y-130481505D01*
X182621505Y-130648597D01*
X182485965Y-130842169D01*
X182485964Y-130842171D01*
X182386098Y-131056335D01*
X182386094Y-131056344D01*
X182324938Y-131284586D01*
X182324936Y-131284596D01*
X182304341Y-131519999D01*
X182304341Y-131520000D01*
X182324936Y-131755403D01*
X182324938Y-131755413D01*
X182386094Y-131983655D01*
X182386096Y-131983659D01*
X182386097Y-131983663D01*
X182411966Y-132039139D01*
X182485965Y-132197830D01*
X182485967Y-132197834D01*
X182578909Y-132330568D01*
X182621505Y-132391401D01*
X182788599Y-132558495D01*
X182861340Y-132609429D01*
X182982165Y-132694032D01*
X182982167Y-132694033D01*
X182982170Y-132694035D01*
X183196337Y-132793903D01*
X183424592Y-132855063D01*
X183612918Y-132871539D01*
X183659999Y-132875659D01*
X183660000Y-132875659D01*
X183660001Y-132875659D01*
X183699234Y-132872226D01*
X183895408Y-132855063D01*
X184123663Y-132793903D01*
X184337830Y-132694035D01*
X184531401Y-132558495D01*
X184698495Y-132391401D01*
X184834035Y-132197830D01*
X184933903Y-131983663D01*
X184995063Y-131755408D01*
X185015659Y-131520000D01*
X184995063Y-131284592D01*
X184933903Y-131056337D01*
X184834035Y-130842171D01*
X184698495Y-130648599D01*
X184698494Y-130648597D01*
X184531402Y-130481506D01*
X184531396Y-130481501D01*
X184345842Y-130351575D01*
X184302217Y-130296998D01*
X184295023Y-130227500D01*
X184326546Y-130165145D01*
X184345842Y-130148425D01*
X184376888Y-130126686D01*
X184531401Y-130018495D01*
X184698495Y-129851401D01*
X184834035Y-129657830D01*
X184933903Y-129443663D01*
X184995063Y-129215408D01*
X185015659Y-128980000D01*
X184995063Y-128744592D01*
X184933903Y-128516337D01*
X184834035Y-128302171D01*
X184766324Y-128205468D01*
X184698494Y-128108597D01*
X184531402Y-127941506D01*
X184531396Y-127941501D01*
X184345842Y-127811575D01*
X184302217Y-127756998D01*
X184295023Y-127687500D01*
X184326546Y-127625145D01*
X184345842Y-127608425D01*
X184425377Y-127552734D01*
X184531401Y-127478495D01*
X184698495Y-127311401D01*
X184834035Y-127117830D01*
X184933903Y-126903663D01*
X184995063Y-126675408D01*
X185015659Y-126440000D01*
X184995063Y-126204592D01*
X184933903Y-125976337D01*
X184834035Y-125762171D01*
X184730542Y-125614366D01*
X184698494Y-125568597D01*
X184531402Y-125401506D01*
X184531396Y-125401501D01*
X184345842Y-125271575D01*
X184302217Y-125216998D01*
X184295023Y-125147500D01*
X184326546Y-125085145D01*
X184345842Y-125068425D01*
X184399909Y-125030567D01*
X184531401Y-124938495D01*
X184698495Y-124771401D01*
X184834035Y-124577830D01*
X184933903Y-124363663D01*
X184995063Y-124135408D01*
X185015659Y-123900000D01*
X184995063Y-123664592D01*
X184933903Y-123436337D01*
X184834035Y-123222171D01*
X184767475Y-123127112D01*
X184698494Y-123028597D01*
X184531402Y-122861506D01*
X184531396Y-122861501D01*
X184345842Y-122731575D01*
X184302217Y-122676998D01*
X184295023Y-122607500D01*
X184326546Y-122545145D01*
X184345842Y-122528425D01*
X184468791Y-122442335D01*
X184531401Y-122398495D01*
X184698495Y-122231401D01*
X184834035Y-122037830D01*
X184933903Y-121823663D01*
X184995063Y-121595408D01*
X185015659Y-121360000D01*
X184995063Y-121124592D01*
X184934885Y-120900001D01*
X184933905Y-120896344D01*
X184933904Y-120896343D01*
X184933903Y-120896337D01*
X184834035Y-120682171D01*
X184787598Y-120615851D01*
X184698494Y-120488597D01*
X184531402Y-120321506D01*
X184531396Y-120321501D01*
X184345842Y-120191575D01*
X184302217Y-120136998D01*
X184295023Y-120067500D01*
X184326546Y-120005145D01*
X184345842Y-119988425D01*
X184472191Y-119899954D01*
X184531401Y-119858495D01*
X184698495Y-119691401D01*
X184834035Y-119497830D01*
X184933903Y-119283663D01*
X184995063Y-119055408D01*
X185015659Y-118820000D01*
X184995063Y-118584592D01*
X184933903Y-118356337D01*
X184834035Y-118142171D01*
X184823192Y-118126686D01*
X184698496Y-117948600D01*
X184649894Y-117899998D01*
X184576567Y-117826671D01*
X184543084Y-117765351D01*
X184548068Y-117695659D01*
X184589939Y-117639725D01*
X184620915Y-117622810D01*
X184752331Y-117573796D01*
X184867546Y-117487546D01*
X184953796Y-117372331D01*
X185004091Y-117237483D01*
X185010500Y-117177873D01*
X185010499Y-115382128D01*
X185004091Y-115322517D01*
X184958581Y-115200499D01*
X184953797Y-115187671D01*
X184953793Y-115187664D01*
X184867547Y-115072455D01*
X184867544Y-115072452D01*
X184752335Y-114986206D01*
X184752328Y-114986202D01*
X184617482Y-114935908D01*
X184617483Y-114935908D01*
X184557883Y-114929501D01*
X184557881Y-114929500D01*
X184557873Y-114929500D01*
X184557864Y-114929500D01*
X182762129Y-114929500D01*
X182762123Y-114929501D01*
X182702516Y-114935908D01*
X182567671Y-114986202D01*
X182567664Y-114986206D01*
X182452455Y-115072452D01*
X182452452Y-115072455D01*
X182366206Y-115187664D01*
X182366202Y-115187671D01*
X182315908Y-115322517D01*
X182309501Y-115382116D01*
X182309501Y-115382123D01*
X182309500Y-115382135D01*
X182309500Y-117177870D01*
X182309501Y-117177876D01*
X182315908Y-117237483D01*
X182366202Y-117372328D01*
X182366206Y-117372335D01*
X182452452Y-117487544D01*
X182452455Y-117487547D01*
X182567664Y-117573793D01*
X182567671Y-117573797D01*
X182699081Y-117622810D01*
X182755015Y-117664681D01*
X182779432Y-117730145D01*
X182764580Y-117798418D01*
X182743430Y-117826673D01*
X182621503Y-117948600D01*
X182485965Y-118142169D01*
X182485964Y-118142171D01*
X182386098Y-118356335D01*
X182386094Y-118356344D01*
X182324938Y-118584586D01*
X182324936Y-118584596D01*
X182304341Y-118819999D01*
X178854187Y-118819999D01*
X178935047Y-118739139D01*
X179065568Y-118552734D01*
X179161739Y-118346496D01*
X179220635Y-118126692D01*
X179240468Y-117900000D01*
X179220635Y-117673308D01*
X179170861Y-117487547D01*
X179161741Y-117453511D01*
X179161738Y-117453502D01*
X179123886Y-117372328D01*
X179065568Y-117247266D01*
X178935047Y-117060861D01*
X178935045Y-117060858D01*
X178774141Y-116899954D01*
X178587734Y-116769432D01*
X178587732Y-116769431D01*
X178381497Y-116673261D01*
X178381488Y-116673258D01*
X178161697Y-116614366D01*
X178161693Y-116614365D01*
X178161692Y-116614365D01*
X178161691Y-116614364D01*
X178161686Y-116614364D01*
X177935002Y-116594532D01*
X177934998Y-116594532D01*
X177708313Y-116614364D01*
X177708302Y-116614366D01*
X177488511Y-116673258D01*
X177488502Y-116673261D01*
X177282267Y-116769431D01*
X177282265Y-116769432D01*
X177095858Y-116899954D01*
X176934954Y-117060858D01*
X176804432Y-117247265D01*
X176804431Y-117247267D01*
X176708261Y-117453502D01*
X176708258Y-117453511D01*
X176649366Y-117673302D01*
X176649364Y-117673313D01*
X176629532Y-117899998D01*
X171620468Y-117899998D01*
X171600635Y-117673308D01*
X171550861Y-117487547D01*
X171541741Y-117453511D01*
X171541738Y-117453502D01*
X171503886Y-117372328D01*
X171445568Y-117247266D01*
X171315047Y-117060861D01*
X171315045Y-117060858D01*
X171154141Y-116899954D01*
X170967734Y-116769432D01*
X170967732Y-116769431D01*
X170761497Y-116673261D01*
X170761488Y-116673258D01*
X170541697Y-116614366D01*
X170541693Y-116614365D01*
X170541692Y-116614365D01*
X170541691Y-116614364D01*
X170541686Y-116614364D01*
X170315002Y-116594532D01*
X170314998Y-116594532D01*
X170088313Y-116614364D01*
X170088302Y-116614366D01*
X169868511Y-116673258D01*
X169868502Y-116673261D01*
X169662267Y-116769431D01*
X169662265Y-116769432D01*
X169475858Y-116899954D01*
X169314954Y-117060858D01*
X169248250Y-117156123D01*
X169193673Y-117199748D01*
X169146675Y-117209000D01*
X133631940Y-117209000D01*
X133498448Y-117235553D01*
X133498438Y-117235556D01*
X133372695Y-117287640D01*
X133372682Y-117287647D01*
X133259514Y-117363264D01*
X133259510Y-117363267D01*
X126043269Y-124579507D01*
X126043266Y-124579510D01*
X125978033Y-124677140D01*
X125967643Y-124692688D01*
X125967642Y-124692690D01*
X125915556Y-124818438D01*
X125915553Y-124818448D01*
X125889000Y-124951939D01*
X125889000Y-127491674D01*
X125869315Y-127558713D01*
X125836124Y-127593249D01*
X125740863Y-127659951D01*
X125579951Y-127820862D01*
X125449432Y-128007265D01*
X125449431Y-128007267D01*
X125353261Y-128213502D01*
X125353258Y-128213511D01*
X125294366Y-128433302D01*
X125294364Y-128433313D01*
X125274532Y-128659998D01*
X116200500Y-128659998D01*
X116200500Y-112377135D01*
X123349500Y-112377135D01*
X123349500Y-114172870D01*
X123349501Y-114172876D01*
X123355908Y-114232483D01*
X123406202Y-114367328D01*
X123406206Y-114367335D01*
X123492452Y-114482544D01*
X123492455Y-114482547D01*
X123607664Y-114568793D01*
X123607671Y-114568797D01*
X123742517Y-114619091D01*
X123742516Y-114619091D01*
X123749444Y-114619835D01*
X123802127Y-114625500D01*
X125597872Y-114625499D01*
X125657483Y-114619091D01*
X125792331Y-114568796D01*
X125907546Y-114482546D01*
X125993796Y-114367331D01*
X126044091Y-114232483D01*
X126050500Y-114172873D01*
X126050499Y-113189887D01*
X127489438Y-113189887D01*
X127509204Y-113441038D01*
X127568013Y-113685997D01*
X127664420Y-113918746D01*
X127796047Y-114133540D01*
X127796048Y-114133543D01*
X127829639Y-114172873D01*
X127959663Y-114325111D01*
X128017754Y-114374725D01*
X128151230Y-114488725D01*
X128151233Y-114488726D01*
X128366027Y-114620353D01*
X128493873Y-114673308D01*
X128598776Y-114716760D01*
X128843739Y-114775570D01*
X129094887Y-114795336D01*
X129346035Y-114775570D01*
X129590998Y-114716760D01*
X129823746Y-114620353D01*
X130038546Y-114488723D01*
X130230111Y-114325111D01*
X130393723Y-114133546D01*
X130525353Y-113918746D01*
X130621760Y-113685998D01*
X130680570Y-113441035D01*
X130700336Y-113189887D01*
X130689495Y-113052135D01*
X141899500Y-113052135D01*
X141899500Y-114747870D01*
X141899501Y-114747876D01*
X141905908Y-114807483D01*
X141956202Y-114942328D01*
X141956206Y-114942335D01*
X142042452Y-115057544D01*
X142042455Y-115057547D01*
X142157664Y-115143793D01*
X142157671Y-115143797D01*
X142292517Y-115194091D01*
X142292516Y-115194091D01*
X142299444Y-115194835D01*
X142352127Y-115200500D01*
X144047872Y-115200499D01*
X144107483Y-115194091D01*
X144242331Y-115143796D01*
X144357546Y-115057546D01*
X144443796Y-114942331D01*
X144494091Y-114807483D01*
X144500500Y-114747873D01*
X144500499Y-113779998D01*
X146694532Y-113779998D01*
X146694532Y-113780001D01*
X146714364Y-114006686D01*
X146714366Y-114006697D01*
X146773258Y-114226488D01*
X146773261Y-114226497D01*
X146869431Y-114432732D01*
X146869432Y-114432734D01*
X146999954Y-114619141D01*
X147160858Y-114780045D01*
X147160861Y-114780047D01*
X147347266Y-114910568D01*
X147553504Y-115006739D01*
X147773308Y-115065635D01*
X147935230Y-115079801D01*
X147999998Y-115085468D01*
X148000000Y-115085468D01*
X148000002Y-115085468D01*
X148056673Y-115080509D01*
X148226692Y-115065635D01*
X148446496Y-115006739D01*
X148652734Y-114910568D01*
X148839139Y-114780047D01*
X149000047Y-114619139D01*
X149130568Y-114432734D01*
X149157618Y-114374724D01*
X149203790Y-114322285D01*
X149270983Y-114303133D01*
X149337865Y-114323348D01*
X149382382Y-114374725D01*
X149409429Y-114432728D01*
X149409432Y-114432734D01*
X149539954Y-114619141D01*
X149700858Y-114780045D01*
X149700861Y-114780047D01*
X149887266Y-114910568D01*
X150093504Y-115006739D01*
X150313308Y-115065635D01*
X150475230Y-115079801D01*
X150539998Y-115085468D01*
X150540000Y-115085468D01*
X150540002Y-115085468D01*
X150596673Y-115080509D01*
X150766692Y-115065635D01*
X150986496Y-115006739D01*
X151192734Y-114910568D01*
X151379139Y-114780047D01*
X151540047Y-114619139D01*
X151670568Y-114432734D01*
X151697618Y-114374724D01*
X151743790Y-114322285D01*
X151810983Y-114303133D01*
X151877865Y-114323348D01*
X151922382Y-114374725D01*
X151949429Y-114432728D01*
X151949432Y-114432734D01*
X152079954Y-114619141D01*
X152240858Y-114780045D01*
X152240861Y-114780047D01*
X152427266Y-114910568D01*
X152633504Y-115006739D01*
X152853308Y-115065635D01*
X153015230Y-115079801D01*
X153079998Y-115085468D01*
X153080000Y-115085468D01*
X153080002Y-115085468D01*
X153136673Y-115080509D01*
X153306692Y-115065635D01*
X153526496Y-115006739D01*
X153732734Y-114910568D01*
X153919139Y-114780047D01*
X154080047Y-114619139D01*
X154210568Y-114432734D01*
X154237618Y-114374724D01*
X154283790Y-114322285D01*
X154350983Y-114303133D01*
X154417865Y-114323348D01*
X154462382Y-114374725D01*
X154489429Y-114432728D01*
X154489432Y-114432734D01*
X154619954Y-114619141D01*
X154780858Y-114780045D01*
X154780861Y-114780047D01*
X154967266Y-114910568D01*
X155173504Y-115006739D01*
X155393308Y-115065635D01*
X155555230Y-115079801D01*
X155619998Y-115085468D01*
X155620000Y-115085468D01*
X155620002Y-115085468D01*
X155676673Y-115080509D01*
X155846692Y-115065635D01*
X156066496Y-115006739D01*
X156272734Y-114910568D01*
X156459139Y-114780047D01*
X156620047Y-114619139D01*
X156750568Y-114432734D01*
X156777618Y-114374724D01*
X156823790Y-114322285D01*
X156890983Y-114303133D01*
X156957865Y-114323348D01*
X157002382Y-114374725D01*
X157029429Y-114432728D01*
X157029432Y-114432734D01*
X157159954Y-114619141D01*
X157320858Y-114780045D01*
X157320861Y-114780047D01*
X157507266Y-114910568D01*
X157713504Y-115006739D01*
X157933308Y-115065635D01*
X158095230Y-115079801D01*
X158159998Y-115085468D01*
X158160000Y-115085468D01*
X158160002Y-115085468D01*
X158216673Y-115080509D01*
X158386692Y-115065635D01*
X158606496Y-115006739D01*
X158812734Y-114910568D01*
X158999139Y-114780047D01*
X159160047Y-114619139D01*
X159290568Y-114432734D01*
X159317618Y-114374724D01*
X159363790Y-114322285D01*
X159430983Y-114303133D01*
X159497865Y-114323348D01*
X159542382Y-114374725D01*
X159569429Y-114432728D01*
X159569432Y-114432734D01*
X159699954Y-114619141D01*
X159860858Y-114780045D01*
X159860861Y-114780047D01*
X160047266Y-114910568D01*
X160253504Y-115006739D01*
X160473308Y-115065635D01*
X160635230Y-115079801D01*
X160699998Y-115085468D01*
X160700000Y-115085468D01*
X160700002Y-115085468D01*
X160756673Y-115080509D01*
X160926692Y-115065635D01*
X161146496Y-115006739D01*
X161352734Y-114910568D01*
X161539139Y-114780047D01*
X161700047Y-114619139D01*
X161830568Y-114432734D01*
X161857618Y-114374724D01*
X161903790Y-114322285D01*
X161970983Y-114303133D01*
X162037865Y-114323348D01*
X162082382Y-114374725D01*
X162109429Y-114432728D01*
X162109432Y-114432734D01*
X162239954Y-114619141D01*
X162400858Y-114780045D01*
X162400861Y-114780047D01*
X162587266Y-114910568D01*
X162793504Y-115006739D01*
X163013308Y-115065635D01*
X163175230Y-115079801D01*
X163239998Y-115085468D01*
X163240000Y-115085468D01*
X163240002Y-115085468D01*
X163296673Y-115080509D01*
X163466692Y-115065635D01*
X163686496Y-115006739D01*
X163892734Y-114910568D01*
X163907830Y-114899998D01*
X169009532Y-114899998D01*
X169009532Y-114900001D01*
X169029364Y-115126686D01*
X169029366Y-115126697D01*
X169088258Y-115346488D01*
X169088261Y-115346497D01*
X169184431Y-115552732D01*
X169184432Y-115552734D01*
X169314954Y-115739141D01*
X169475858Y-115900045D01*
X169475861Y-115900047D01*
X169662266Y-116030568D01*
X169868504Y-116126739D01*
X170088308Y-116185635D01*
X170250230Y-116199801D01*
X170314998Y-116205468D01*
X170315000Y-116205468D01*
X170315002Y-116205468D01*
X170371673Y-116200509D01*
X170541692Y-116185635D01*
X170761496Y-116126739D01*
X170967734Y-116030568D01*
X171154139Y-115900047D01*
X171315047Y-115739139D01*
X171445568Y-115552734D01*
X171541739Y-115346496D01*
X171600635Y-115126692D01*
X171620468Y-114900000D01*
X171620468Y-114899998D01*
X176629532Y-114899998D01*
X176629532Y-114900001D01*
X176649364Y-115126686D01*
X176649366Y-115126697D01*
X176708258Y-115346488D01*
X176708261Y-115346497D01*
X176804431Y-115552732D01*
X176804432Y-115552734D01*
X176934954Y-115739141D01*
X177095858Y-115900045D01*
X177095861Y-115900047D01*
X177282266Y-116030568D01*
X177488504Y-116126739D01*
X177708308Y-116185635D01*
X177870230Y-116199801D01*
X177934998Y-116205468D01*
X177935000Y-116205468D01*
X177935002Y-116205468D01*
X177991673Y-116200509D01*
X178161692Y-116185635D01*
X178381496Y-116126739D01*
X178587734Y-116030568D01*
X178774139Y-115900047D01*
X178935047Y-115739139D01*
X179065568Y-115552734D01*
X179161739Y-115346496D01*
X179220635Y-115126692D01*
X179240468Y-114900000D01*
X179220635Y-114673308D01*
X179161739Y-114453504D01*
X179065568Y-114247266D01*
X178935047Y-114060861D01*
X178935045Y-114060858D01*
X178774141Y-113899954D01*
X178587734Y-113769432D01*
X178587732Y-113769431D01*
X178381497Y-113673261D01*
X178381488Y-113673258D01*
X178161697Y-113614366D01*
X178161693Y-113614365D01*
X178161692Y-113614365D01*
X178161691Y-113614364D01*
X178161686Y-113614364D01*
X177935002Y-113594532D01*
X177934998Y-113594532D01*
X177708313Y-113614364D01*
X177708302Y-113614366D01*
X177488511Y-113673258D01*
X177488502Y-113673261D01*
X177282267Y-113769431D01*
X177282265Y-113769432D01*
X177095858Y-113899954D01*
X176934954Y-114060858D01*
X176804432Y-114247265D01*
X176804431Y-114247267D01*
X176708261Y-114453502D01*
X176708258Y-114453511D01*
X176649366Y-114673302D01*
X176649364Y-114673313D01*
X176629532Y-114899998D01*
X171620468Y-114899998D01*
X171600635Y-114673308D01*
X171541739Y-114453504D01*
X171445568Y-114247266D01*
X171315047Y-114060861D01*
X171315045Y-114060858D01*
X171154141Y-113899954D01*
X170967734Y-113769432D01*
X170967732Y-113769431D01*
X170761497Y-113673261D01*
X170761488Y-113673258D01*
X170541697Y-113614366D01*
X170541693Y-113614365D01*
X170541692Y-113614365D01*
X170541691Y-113614364D01*
X170541686Y-113614364D01*
X170315002Y-113594532D01*
X170314998Y-113594532D01*
X170088313Y-113614364D01*
X170088302Y-113614366D01*
X169868511Y-113673258D01*
X169868502Y-113673261D01*
X169662267Y-113769431D01*
X169662265Y-113769432D01*
X169475858Y-113899954D01*
X169314954Y-114060858D01*
X169184432Y-114247265D01*
X169184431Y-114247267D01*
X169088261Y-114453502D01*
X169088258Y-114453511D01*
X169029366Y-114673302D01*
X169029364Y-114673313D01*
X169009532Y-114899998D01*
X163907830Y-114899998D01*
X164079139Y-114780047D01*
X164240047Y-114619139D01*
X164370568Y-114432734D01*
X164466739Y-114226496D01*
X164525635Y-114006692D01*
X164545468Y-113780000D01*
X164544543Y-113769432D01*
X164537244Y-113685997D01*
X164525635Y-113553308D01*
X164466739Y-113333504D01*
X164370568Y-113127266D01*
X164240047Y-112940861D01*
X164240045Y-112940858D01*
X164079141Y-112779954D01*
X163892734Y-112649432D01*
X163892732Y-112649431D01*
X163686497Y-112553261D01*
X163686488Y-112553258D01*
X163466697Y-112494366D01*
X163466693Y-112494365D01*
X163466692Y-112494365D01*
X163466691Y-112494364D01*
X163466686Y-112494364D01*
X163240002Y-112474532D01*
X163239998Y-112474532D01*
X163013313Y-112494364D01*
X163013302Y-112494366D01*
X162793511Y-112553258D01*
X162793502Y-112553261D01*
X162587267Y-112649431D01*
X162587265Y-112649432D01*
X162400858Y-112779954D01*
X162239954Y-112940858D01*
X162109432Y-113127265D01*
X162109431Y-113127267D01*
X162082382Y-113185275D01*
X162036209Y-113237714D01*
X161969016Y-113256866D01*
X161902135Y-113236650D01*
X161857618Y-113185275D01*
X161830568Y-113127267D01*
X161830567Y-113127265D01*
X161777955Y-113052127D01*
X161700047Y-112940861D01*
X161700045Y-112940858D01*
X161539141Y-112779954D01*
X161352734Y-112649432D01*
X161352732Y-112649431D01*
X161146497Y-112553261D01*
X161146488Y-112553258D01*
X160926697Y-112494366D01*
X160926693Y-112494365D01*
X160926692Y-112494365D01*
X160926691Y-112494364D01*
X160926686Y-112494364D01*
X160700002Y-112474532D01*
X160699998Y-112474532D01*
X160473313Y-112494364D01*
X160473302Y-112494366D01*
X160253511Y-112553258D01*
X160253502Y-112553261D01*
X160047267Y-112649431D01*
X160047265Y-112649432D01*
X159860858Y-112779954D01*
X159699954Y-112940858D01*
X159569432Y-113127265D01*
X159569431Y-113127267D01*
X159542382Y-113185275D01*
X159496209Y-113237714D01*
X159429016Y-113256866D01*
X159362135Y-113236650D01*
X159317618Y-113185275D01*
X159290568Y-113127267D01*
X159290567Y-113127265D01*
X159237955Y-113052127D01*
X159160047Y-112940861D01*
X159160045Y-112940858D01*
X158999141Y-112779954D01*
X158812734Y-112649432D01*
X158812732Y-112649431D01*
X158606497Y-112553261D01*
X158606488Y-112553258D01*
X158386697Y-112494366D01*
X158386693Y-112494365D01*
X158386692Y-112494365D01*
X158386691Y-112494364D01*
X158386686Y-112494364D01*
X158160002Y-112474532D01*
X158159998Y-112474532D01*
X157933313Y-112494364D01*
X157933302Y-112494366D01*
X157713511Y-112553258D01*
X157713502Y-112553261D01*
X157507267Y-112649431D01*
X157507265Y-112649432D01*
X157320858Y-112779954D01*
X157159954Y-112940858D01*
X157029432Y-113127265D01*
X157029431Y-113127267D01*
X157002382Y-113185275D01*
X156956209Y-113237714D01*
X156889016Y-113256866D01*
X156822135Y-113236650D01*
X156777618Y-113185275D01*
X156750568Y-113127267D01*
X156750567Y-113127265D01*
X156697955Y-113052127D01*
X156620047Y-112940861D01*
X156620045Y-112940858D01*
X156459141Y-112779954D01*
X156272734Y-112649432D01*
X156272732Y-112649431D01*
X156066497Y-112553261D01*
X156066488Y-112553258D01*
X155846697Y-112494366D01*
X155846693Y-112494365D01*
X155846692Y-112494365D01*
X155846691Y-112494364D01*
X155846686Y-112494364D01*
X155620002Y-112474532D01*
X155619998Y-112474532D01*
X155393313Y-112494364D01*
X155393302Y-112494366D01*
X155173511Y-112553258D01*
X155173502Y-112553261D01*
X154967267Y-112649431D01*
X154967265Y-112649432D01*
X154780858Y-112779954D01*
X154619954Y-112940858D01*
X154489432Y-113127265D01*
X154489431Y-113127267D01*
X154462382Y-113185275D01*
X154416209Y-113237714D01*
X154349016Y-113256866D01*
X154282135Y-113236650D01*
X154237618Y-113185275D01*
X154210568Y-113127267D01*
X154210567Y-113127265D01*
X154157955Y-113052127D01*
X154080047Y-112940861D01*
X154080045Y-112940858D01*
X153919141Y-112779954D01*
X153732734Y-112649432D01*
X153732732Y-112649431D01*
X153526497Y-112553261D01*
X153526488Y-112553258D01*
X153306697Y-112494366D01*
X153306693Y-112494365D01*
X153306692Y-112494365D01*
X153306691Y-112494364D01*
X153306686Y-112494364D01*
X153080002Y-112474532D01*
X153079998Y-112474532D01*
X152853313Y-112494364D01*
X152853302Y-112494366D01*
X152633511Y-112553258D01*
X152633502Y-112553261D01*
X152427267Y-112649431D01*
X152427265Y-112649432D01*
X152240858Y-112779954D01*
X152079954Y-112940858D01*
X151949432Y-113127265D01*
X151949431Y-113127267D01*
X151922382Y-113185275D01*
X151876209Y-113237714D01*
X151809016Y-113256866D01*
X151742135Y-113236650D01*
X151697618Y-113185275D01*
X151670568Y-113127267D01*
X151670567Y-113127265D01*
X151617955Y-113052127D01*
X151540047Y-112940861D01*
X151540045Y-112940858D01*
X151379141Y-112779954D01*
X151192734Y-112649432D01*
X151192732Y-112649431D01*
X150986497Y-112553261D01*
X150986488Y-112553258D01*
X150766697Y-112494366D01*
X150766693Y-112494365D01*
X150766692Y-112494365D01*
X150766691Y-112494364D01*
X150766686Y-112494364D01*
X150540002Y-112474532D01*
X150539998Y-112474532D01*
X150313313Y-112494364D01*
X150313302Y-112494366D01*
X150093511Y-112553258D01*
X150093502Y-112553261D01*
X149887267Y-112649431D01*
X149887265Y-112649432D01*
X149700858Y-112779954D01*
X149539954Y-112940858D01*
X149409432Y-113127265D01*
X149409431Y-113127267D01*
X149382382Y-113185275D01*
X149336209Y-113237714D01*
X149269016Y-113256866D01*
X149202135Y-113236650D01*
X149157618Y-113185275D01*
X149130568Y-113127267D01*
X149130567Y-113127265D01*
X149077955Y-113052127D01*
X149000047Y-112940861D01*
X149000045Y-112940858D01*
X148839141Y-112779954D01*
X148652734Y-112649432D01*
X148652732Y-112649431D01*
X148446497Y-112553261D01*
X148446488Y-112553258D01*
X148226697Y-112494366D01*
X148226693Y-112494365D01*
X148226692Y-112494365D01*
X148226691Y-112494364D01*
X148226686Y-112494364D01*
X148000002Y-112474532D01*
X147999998Y-112474532D01*
X147773313Y-112494364D01*
X147773302Y-112494366D01*
X147553511Y-112553258D01*
X147553502Y-112553261D01*
X147347267Y-112649431D01*
X147347265Y-112649432D01*
X147160858Y-112779954D01*
X146999954Y-112940858D01*
X146869432Y-113127265D01*
X146869431Y-113127267D01*
X146773261Y-113333502D01*
X146773258Y-113333511D01*
X146714366Y-113553302D01*
X146714364Y-113553313D01*
X146694532Y-113779998D01*
X144500499Y-113779998D01*
X144500499Y-113052128D01*
X144494091Y-112992517D01*
X144474823Y-112940858D01*
X144443797Y-112857671D01*
X144443793Y-112857664D01*
X144357547Y-112742455D01*
X144357544Y-112742452D01*
X144242335Y-112656206D01*
X144242328Y-112656202D01*
X144107482Y-112605908D01*
X144107483Y-112605908D01*
X144047883Y-112599501D01*
X144047881Y-112599500D01*
X144047873Y-112599500D01*
X144047864Y-112599500D01*
X142352129Y-112599500D01*
X142352123Y-112599501D01*
X142292516Y-112605908D01*
X142157671Y-112656202D01*
X142157664Y-112656206D01*
X142042455Y-112742452D01*
X142042452Y-112742455D01*
X141956206Y-112857664D01*
X141956202Y-112857671D01*
X141905908Y-112992517D01*
X141899501Y-113052116D01*
X141899501Y-113052123D01*
X141899500Y-113052135D01*
X130689495Y-113052135D01*
X130680570Y-112938739D01*
X130621760Y-112693776D01*
X130603392Y-112649431D01*
X130525353Y-112461027D01*
X130393726Y-112246233D01*
X130393725Y-112246230D01*
X130339434Y-112182664D01*
X130230111Y-112054663D01*
X130077710Y-111924500D01*
X130038543Y-111891048D01*
X130038540Y-111891047D01*
X129823746Y-111759420D01*
X129590997Y-111663013D01*
X129346038Y-111604204D01*
X129094887Y-111584438D01*
X128843735Y-111604204D01*
X128598776Y-111663013D01*
X128366027Y-111759420D01*
X128151233Y-111891047D01*
X128151230Y-111891048D01*
X127959663Y-112054663D01*
X127796048Y-112246230D01*
X127796047Y-112246233D01*
X127664420Y-112461027D01*
X127568013Y-112693776D01*
X127509204Y-112938735D01*
X127489438Y-113189887D01*
X126050499Y-113189887D01*
X126050499Y-112377128D01*
X126044091Y-112317517D01*
X125993796Y-112182669D01*
X125993795Y-112182668D01*
X125993793Y-112182664D01*
X125907547Y-112067455D01*
X125907544Y-112067452D01*
X125792335Y-111981206D01*
X125792328Y-111981202D01*
X125657482Y-111930908D01*
X125657483Y-111930908D01*
X125597883Y-111924501D01*
X125597881Y-111924500D01*
X125597873Y-111924500D01*
X125597864Y-111924500D01*
X123802129Y-111924500D01*
X123802123Y-111924501D01*
X123742516Y-111930908D01*
X123607671Y-111981202D01*
X123607664Y-111981206D01*
X123492455Y-112067452D01*
X123492452Y-112067455D01*
X123406206Y-112182664D01*
X123406202Y-112182671D01*
X123355908Y-112317517D01*
X123353790Y-112337222D01*
X123349501Y-112377123D01*
X123349500Y-112377135D01*
X116200500Y-112377135D01*
X116200500Y-110447022D01*
X136499500Y-110447022D01*
X136499500Y-112142757D01*
X136499501Y-112142763D01*
X136505908Y-112202370D01*
X136556202Y-112337215D01*
X136556206Y-112337222D01*
X136642452Y-112452431D01*
X136642455Y-112452434D01*
X136757664Y-112538680D01*
X136757671Y-112538684D01*
X136892517Y-112588978D01*
X136892516Y-112588978D01*
X136899444Y-112589722D01*
X136952127Y-112595387D01*
X138647872Y-112595386D01*
X138707483Y-112588978D01*
X138842331Y-112538683D01*
X138957546Y-112452433D01*
X139043796Y-112337218D01*
X139094091Y-112202370D01*
X139100500Y-112142760D01*
X139100499Y-110447015D01*
X139094091Y-110387404D01*
X139043796Y-110252556D01*
X139043795Y-110252555D01*
X139043793Y-110252551D01*
X138957547Y-110137342D01*
X138957544Y-110137339D01*
X138842335Y-110051093D01*
X138842328Y-110051089D01*
X138707482Y-110000795D01*
X138707483Y-110000795D01*
X138647883Y-109994388D01*
X138647881Y-109994387D01*
X138647873Y-109994387D01*
X138647864Y-109994387D01*
X136952129Y-109994387D01*
X136952123Y-109994388D01*
X136892516Y-110000795D01*
X136757671Y-110051089D01*
X136757664Y-110051093D01*
X136642455Y-110137339D01*
X136642452Y-110137342D01*
X136556206Y-110252551D01*
X136556202Y-110252558D01*
X136505908Y-110387404D01*
X136499501Y-110447003D01*
X136499501Y-110447010D01*
X136499500Y-110447022D01*
X116200500Y-110447022D01*
X116200500Y-107995533D01*
X141094387Y-107995533D01*
X141094387Y-108224240D01*
X141130165Y-108450133D01*
X141130165Y-108450136D01*
X141200837Y-108667642D01*
X141200839Y-108667645D01*
X141304670Y-108871425D01*
X141439101Y-109056453D01*
X141600821Y-109218173D01*
X141785849Y-109352604D01*
X141989629Y-109456435D01*
X141989631Y-109456436D01*
X142207138Y-109527108D01*
X142207139Y-109527108D01*
X142207142Y-109527109D01*
X142433033Y-109562887D01*
X142433034Y-109562887D01*
X142756740Y-109562887D01*
X142756741Y-109562887D01*
X142982632Y-109527109D01*
X142982635Y-109527108D01*
X142982636Y-109527108D01*
X143200142Y-109456436D01*
X143200142Y-109456435D01*
X143200145Y-109456435D01*
X143403925Y-109352604D01*
X143588953Y-109218173D01*
X143750673Y-109056453D01*
X143885104Y-108871425D01*
X143988935Y-108667645D01*
X144059609Y-108450132D01*
X144095387Y-108224241D01*
X144095387Y-107995533D01*
X144059609Y-107769642D01*
X144059608Y-107769638D01*
X144059608Y-107769637D01*
X143988936Y-107552131D01*
X143885103Y-107348348D01*
X143750673Y-107163321D01*
X143588953Y-107001601D01*
X143403925Y-106867170D01*
X143200142Y-106763337D01*
X142982635Y-106692665D01*
X142813213Y-106665831D01*
X142756741Y-106656887D01*
X142433033Y-106656887D01*
X142357736Y-106668813D01*
X142207140Y-106692665D01*
X142207137Y-106692665D01*
X141989631Y-106763337D01*
X141785848Y-106867170D01*
X141681696Y-106942842D01*
X141600821Y-107001601D01*
X141600819Y-107001603D01*
X141600818Y-107001603D01*
X141439103Y-107163318D01*
X141439103Y-107163319D01*
X141439101Y-107163321D01*
X141381367Y-107242783D01*
X141304670Y-107348348D01*
X141200837Y-107552131D01*
X141130165Y-107769637D01*
X141130165Y-107769640D01*
X141094387Y-107995533D01*
X116200500Y-107995533D01*
X116200500Y-105569879D01*
X156999558Y-105569879D01*
X156999558Y-105569894D01*
X157018851Y-105864250D01*
X157018852Y-105864260D01*
X157018853Y-105864267D01*
X157018855Y-105864277D01*
X157076405Y-106153603D01*
X157076408Y-106153617D01*
X157171236Y-106432967D01*
X157301712Y-106697547D01*
X157301716Y-106697554D01*
X157465612Y-106942842D01*
X157660128Y-107164645D01*
X157869601Y-107348348D01*
X157881930Y-107359160D01*
X158127222Y-107523059D01*
X158391810Y-107653539D01*
X158671165Y-107748368D01*
X158960507Y-107805921D01*
X158988775Y-107807773D01*
X159254880Y-107825216D01*
X159254887Y-107825216D01*
X159254894Y-107825216D01*
X159490562Y-107809768D01*
X159549267Y-107805921D01*
X159838609Y-107748368D01*
X160117964Y-107653539D01*
X160382552Y-107523059D01*
X160627844Y-107359160D01*
X160849645Y-107164645D01*
X161044160Y-106942844D01*
X161208059Y-106697552D01*
X161338539Y-106432964D01*
X161433368Y-106153609D01*
X161490921Y-105864267D01*
X161510216Y-105569887D01*
X161510216Y-105569879D01*
X161490922Y-105275523D01*
X161490921Y-105275507D01*
X161433368Y-104986165D01*
X161338539Y-104706810D01*
X161208059Y-104442223D01*
X161197341Y-104426183D01*
X161095445Y-104273684D01*
X161044160Y-104196930D01*
X160934790Y-104072218D01*
X160849645Y-103975128D01*
X160627842Y-103780612D01*
X160382554Y-103616716D01*
X160382547Y-103616712D01*
X160117967Y-103486236D01*
X159838617Y-103391408D01*
X159838611Y-103391406D01*
X159838609Y-103391406D01*
X159549267Y-103333853D01*
X159549260Y-103333852D01*
X159549250Y-103333851D01*
X159254894Y-103314558D01*
X159254880Y-103314558D01*
X158960523Y-103333851D01*
X158960511Y-103333852D01*
X158960507Y-103333853D01*
X158960499Y-103333854D01*
X158960496Y-103333855D01*
X158671170Y-103391405D01*
X158671156Y-103391408D01*
X158391806Y-103486236D01*
X158127221Y-103616715D01*
X157881928Y-103780615D01*
X157660128Y-103975128D01*
X157465615Y-104196928D01*
X157301715Y-104442221D01*
X157171236Y-104706806D01*
X157076408Y-104986156D01*
X157076405Y-104986170D01*
X157018855Y-105275496D01*
X157018851Y-105275523D01*
X156999558Y-105569879D01*
X116200500Y-105569879D01*
X116200500Y-103202424D01*
X116200596Y-103197556D01*
X116202067Y-103160118D01*
X116218186Y-102749847D01*
X116218949Y-102740149D01*
X116271331Y-102297571D01*
X116272849Y-102287987D01*
X116353602Y-101882022D01*
X127494387Y-101882022D01*
X127494387Y-104177757D01*
X127494388Y-104177763D01*
X127500795Y-104237370D01*
X127551089Y-104372215D01*
X127551093Y-104372222D01*
X127637339Y-104487431D01*
X127637342Y-104487434D01*
X127752551Y-104573680D01*
X127752558Y-104573684D01*
X127887404Y-104623978D01*
X127887403Y-104623978D01*
X127894331Y-104624722D01*
X127947014Y-104630387D01*
X130242759Y-104630386D01*
X130302370Y-104623978D01*
X130437218Y-104573683D01*
X130552433Y-104487433D01*
X130638683Y-104372218D01*
X130688978Y-104237370D01*
X130695387Y-104177760D01*
X130695386Y-102182022D01*
X135294387Y-102182022D01*
X135294387Y-103877757D01*
X135294388Y-103877763D01*
X135300795Y-103937370D01*
X135351089Y-104072215D01*
X135351093Y-104072222D01*
X135437339Y-104187431D01*
X135437342Y-104187434D01*
X135552551Y-104273680D01*
X135552558Y-104273684D01*
X135687404Y-104323978D01*
X135687403Y-104323978D01*
X135694331Y-104324722D01*
X135747014Y-104330387D01*
X137442759Y-104330386D01*
X137502370Y-104323978D01*
X137637218Y-104273683D01*
X137752433Y-104187433D01*
X137838683Y-104072218D01*
X137888978Y-103937370D01*
X137895387Y-103877760D01*
X137895386Y-102182015D01*
X137888978Y-102122404D01*
X137860648Y-102046448D01*
X137854335Y-102029522D01*
X141094387Y-102029522D01*
X141094387Y-104030257D01*
X141094388Y-104030263D01*
X141100795Y-104089870D01*
X141151089Y-104224715D01*
X141151093Y-104224722D01*
X141237339Y-104339931D01*
X141237342Y-104339934D01*
X141352551Y-104426180D01*
X141352558Y-104426184D01*
X141487404Y-104476478D01*
X141487403Y-104476478D01*
X141494331Y-104477222D01*
X141547014Y-104482887D01*
X143642759Y-104482886D01*
X143702370Y-104476478D01*
X143837218Y-104426183D01*
X143952433Y-104339933D01*
X144038683Y-104224718D01*
X144088978Y-104089870D01*
X144095387Y-104030260D01*
X144095386Y-102029515D01*
X144088978Y-101969904D01*
X144052589Y-101872341D01*
X144038684Y-101835058D01*
X144038680Y-101835051D01*
X143952434Y-101719842D01*
X143952431Y-101719839D01*
X143837222Y-101633593D01*
X143837215Y-101633589D01*
X143702369Y-101583295D01*
X143702370Y-101583295D01*
X143642770Y-101576888D01*
X143642768Y-101576887D01*
X143642760Y-101576887D01*
X143642751Y-101576887D01*
X141547016Y-101576887D01*
X141547010Y-101576888D01*
X141487403Y-101583295D01*
X141352558Y-101633589D01*
X141352551Y-101633593D01*
X141237342Y-101719839D01*
X141237339Y-101719842D01*
X141151093Y-101835051D01*
X141151089Y-101835058D01*
X141100795Y-101969904D01*
X141094388Y-102029503D01*
X141094388Y-102029510D01*
X141094387Y-102029522D01*
X137854335Y-102029522D01*
X137838684Y-101987558D01*
X137838680Y-101987551D01*
X137752434Y-101872342D01*
X137752431Y-101872339D01*
X137637222Y-101786093D01*
X137637215Y-101786089D01*
X137502369Y-101735795D01*
X137502370Y-101735795D01*
X137442770Y-101729388D01*
X137442768Y-101729387D01*
X137442760Y-101729387D01*
X137442751Y-101729387D01*
X135747016Y-101729387D01*
X135747010Y-101729388D01*
X135687403Y-101735795D01*
X135552558Y-101786089D01*
X135552551Y-101786093D01*
X135437342Y-101872339D01*
X135437339Y-101872342D01*
X135351093Y-101987551D01*
X135351089Y-101987558D01*
X135300795Y-102122404D01*
X135294388Y-102182003D01*
X135294388Y-102182010D01*
X135294387Y-102182022D01*
X130695386Y-102182022D01*
X130695386Y-101882015D01*
X130688978Y-101822404D01*
X130675433Y-101786089D01*
X130638684Y-101687558D01*
X130638680Y-101687551D01*
X130552434Y-101572342D01*
X130552431Y-101572339D01*
X130437222Y-101486093D01*
X130437215Y-101486089D01*
X130302369Y-101435795D01*
X130302370Y-101435795D01*
X130242770Y-101429388D01*
X130242768Y-101429387D01*
X130242760Y-101429387D01*
X130242751Y-101429387D01*
X127947016Y-101429387D01*
X127947010Y-101429388D01*
X127887403Y-101435795D01*
X127752558Y-101486089D01*
X127752551Y-101486093D01*
X127637342Y-101572339D01*
X127637339Y-101572342D01*
X127551093Y-101687551D01*
X127551089Y-101687558D01*
X127500795Y-101822404D01*
X127495427Y-101872339D01*
X127494388Y-101882010D01*
X127494387Y-101882022D01*
X116353602Y-101882022D01*
X116359793Y-101850897D01*
X116362063Y-101841445D01*
X116483027Y-101412538D01*
X116486032Y-101403290D01*
X116579228Y-101150672D01*
X116640278Y-100985188D01*
X116643993Y-100976217D01*
X116830577Y-100571485D01*
X116834988Y-100562832D01*
X117052736Y-100174016D01*
X117057823Y-100165714D01*
X117236151Y-99898827D01*
X117305409Y-99795173D01*
X117311110Y-99787327D01*
X117587026Y-99437331D01*
X117593318Y-99429964D01*
X117895845Y-99102691D01*
X117902691Y-99095845D01*
X118229964Y-98793318D01*
X118237331Y-98787026D01*
X118587327Y-98511110D01*
X118595173Y-98505409D01*
X118965716Y-98257821D01*
X118974016Y-98252736D01*
X119362832Y-98034988D01*
X119371485Y-98030577D01*
X119776217Y-97843993D01*
X119785188Y-97840278D01*
X120203301Y-97686028D01*
X120212538Y-97683027D01*
X120641455Y-97562060D01*
X120650897Y-97559793D01*
X121087987Y-97472849D01*
X121097571Y-97471331D01*
X121540156Y-97418948D01*
X121549847Y-97418186D01*
X121997557Y-97400596D01*
X122002425Y-97400500D01*
X122039882Y-97400500D01*
X185960118Y-97400500D01*
X185997575Y-97400500D01*
X186002443Y-97400596D01*
G37*
%TD.AperFunction*%
%TD*%
M02*
