%TF.GenerationSoftware,KiCad,Pcbnew,8.0.3*%
%TF.CreationDate,2024-10-06T22:03:06-03:00*%
%TF.ProjectId,digital_dice,64696769-7461-46c5-9f64-6963652e6b69,rev?*%
%TF.SameCoordinates,Original*%
%TF.FileFunction,Drillmap*%
%TF.FilePolarity,Positive*%
%FSLAX45Y45*%
G04 Gerber Fmt 4.5, Leading zero omitted, Abs format (unit mm)*
G04 Created by KiCad (PCBNEW 8.0.3) date 2024-10-06 22:03:06*
%MOMM*%
%LPD*%
G01*
G04 APERTURE LIST*
%ADD10C,0.050000*%
%ADD11C,0.200000*%
%ADD12C,0.350000*%
G04 APERTURE END LIST*
D10*
X19200000Y-15200000D02*
X19200000Y-10320000D01*
X12200000Y-15800000D02*
X18600000Y-15800000D01*
X11600000Y-10320000D02*
X11600000Y-15200000D01*
X18600000Y-9720000D02*
X12200000Y-9720000D01*
X18600000Y-9720000D02*
G75*
G02*
X19200000Y-10320000I0J-600000D01*
G01*
X19200000Y-15200000D02*
G75*
G02*
X18600000Y-15800000I-600000J0D01*
G01*
X12200000Y-15800000D02*
G75*
G02*
X11600000Y-15200000I0J600000D01*
G01*
X11600000Y-10320000D02*
G75*
G02*
X12200000Y-9720000I600000J0D01*
G01*
D11*
D12*
X15750489Y-10381989D02*
X16100489Y-10731989D01*
X16100489Y-10381989D02*
X15750489Y-10731989D01*
D11*
X11858277Y-16113984D02*
X11858277Y-15913984D01*
X11858277Y-15913984D02*
X11905896Y-15913984D01*
X11905896Y-15913984D02*
X11934467Y-15923508D01*
X11934467Y-15923508D02*
X11953515Y-15942555D01*
X11953515Y-15942555D02*
X11963039Y-15961603D01*
X11963039Y-15961603D02*
X11972562Y-15999698D01*
X11972562Y-15999698D02*
X11972562Y-16028269D01*
X11972562Y-16028269D02*
X11963039Y-16066365D01*
X11963039Y-16066365D02*
X11953515Y-16085412D01*
X11953515Y-16085412D02*
X11934467Y-16104460D01*
X11934467Y-16104460D02*
X11905896Y-16113984D01*
X11905896Y-16113984D02*
X11858277Y-16113984D01*
X12058277Y-16113984D02*
X12058277Y-15980650D01*
X12058277Y-16018746D02*
X12067801Y-15999698D01*
X12067801Y-15999698D02*
X12077324Y-15990174D01*
X12077324Y-15990174D02*
X12096372Y-15980650D01*
X12096372Y-15980650D02*
X12115420Y-15980650D01*
X12182086Y-16113984D02*
X12182086Y-15980650D01*
X12182086Y-15913984D02*
X12172562Y-15923508D01*
X12172562Y-15923508D02*
X12182086Y-15933031D01*
X12182086Y-15933031D02*
X12191610Y-15923508D01*
X12191610Y-15923508D02*
X12182086Y-15913984D01*
X12182086Y-15913984D02*
X12182086Y-15933031D01*
X12305896Y-16113984D02*
X12286848Y-16104460D01*
X12286848Y-16104460D02*
X12277324Y-16085412D01*
X12277324Y-16085412D02*
X12277324Y-15913984D01*
X12410658Y-16113984D02*
X12391610Y-16104460D01*
X12391610Y-16104460D02*
X12382086Y-16085412D01*
X12382086Y-16085412D02*
X12382086Y-15913984D01*
X12639229Y-16113984D02*
X12639229Y-15913984D01*
X12639229Y-15913984D02*
X12705896Y-16056841D01*
X12705896Y-16056841D02*
X12772562Y-15913984D01*
X12772562Y-15913984D02*
X12772562Y-16113984D01*
X12953515Y-16113984D02*
X12953515Y-16009222D01*
X12953515Y-16009222D02*
X12943991Y-15990174D01*
X12943991Y-15990174D02*
X12924943Y-15980650D01*
X12924943Y-15980650D02*
X12886848Y-15980650D01*
X12886848Y-15980650D02*
X12867801Y-15990174D01*
X12953515Y-16104460D02*
X12934467Y-16113984D01*
X12934467Y-16113984D02*
X12886848Y-16113984D01*
X12886848Y-16113984D02*
X12867801Y-16104460D01*
X12867801Y-16104460D02*
X12858277Y-16085412D01*
X12858277Y-16085412D02*
X12858277Y-16066365D01*
X12858277Y-16066365D02*
X12867801Y-16047317D01*
X12867801Y-16047317D02*
X12886848Y-16037793D01*
X12886848Y-16037793D02*
X12934467Y-16037793D01*
X12934467Y-16037793D02*
X12953515Y-16028269D01*
X13048753Y-15980650D02*
X13048753Y-16180650D01*
X13048753Y-15990174D02*
X13067801Y-15980650D01*
X13067801Y-15980650D02*
X13105896Y-15980650D01*
X13105896Y-15980650D02*
X13124943Y-15990174D01*
X13124943Y-15990174D02*
X13134467Y-15999698D01*
X13134467Y-15999698D02*
X13143991Y-16018746D01*
X13143991Y-16018746D02*
X13143991Y-16075888D01*
X13143991Y-16075888D02*
X13134467Y-16094936D01*
X13134467Y-16094936D02*
X13124943Y-16104460D01*
X13124943Y-16104460D02*
X13105896Y-16113984D01*
X13105896Y-16113984D02*
X13067801Y-16113984D01*
X13067801Y-16113984D02*
X13048753Y-16104460D01*
X13229705Y-16094936D02*
X13239229Y-16104460D01*
X13239229Y-16104460D02*
X13229705Y-16113984D01*
X13229705Y-16113984D02*
X13220182Y-16104460D01*
X13220182Y-16104460D02*
X13229705Y-16094936D01*
X13229705Y-16094936D02*
X13229705Y-16113984D01*
X13229705Y-15990174D02*
X13239229Y-15999698D01*
X13239229Y-15999698D02*
X13229705Y-16009222D01*
X13229705Y-16009222D02*
X13220182Y-15999698D01*
X13220182Y-15999698D02*
X13229705Y-15990174D01*
X13229705Y-15990174D02*
X13229705Y-16009222D01*
X11397500Y-16342500D02*
X11597500Y-16542500D01*
X11597500Y-16342500D02*
X11397500Y-16542500D01*
X11839229Y-16333984D02*
X11963039Y-16333984D01*
X11963039Y-16333984D02*
X11896372Y-16410174D01*
X11896372Y-16410174D02*
X11924943Y-16410174D01*
X11924943Y-16410174D02*
X11943991Y-16419698D01*
X11943991Y-16419698D02*
X11953515Y-16429222D01*
X11953515Y-16429222D02*
X11963039Y-16448269D01*
X11963039Y-16448269D02*
X11963039Y-16495888D01*
X11963039Y-16495888D02*
X11953515Y-16514936D01*
X11953515Y-16514936D02*
X11943991Y-16524460D01*
X11943991Y-16524460D02*
X11924943Y-16533984D01*
X11924943Y-16533984D02*
X11867801Y-16533984D01*
X11867801Y-16533984D02*
X11848753Y-16524460D01*
X11848753Y-16524460D02*
X11839229Y-16514936D01*
X12048753Y-16514936D02*
X12058277Y-16524460D01*
X12058277Y-16524460D02*
X12048753Y-16533984D01*
X12048753Y-16533984D02*
X12039229Y-16524460D01*
X12039229Y-16524460D02*
X12048753Y-16514936D01*
X12048753Y-16514936D02*
X12048753Y-16533984D01*
X12239229Y-16333984D02*
X12143991Y-16333984D01*
X12143991Y-16333984D02*
X12134467Y-16429222D01*
X12134467Y-16429222D02*
X12143991Y-16419698D01*
X12143991Y-16419698D02*
X12163039Y-16410174D01*
X12163039Y-16410174D02*
X12210658Y-16410174D01*
X12210658Y-16410174D02*
X12229705Y-16419698D01*
X12229705Y-16419698D02*
X12239229Y-16429222D01*
X12239229Y-16429222D02*
X12248753Y-16448269D01*
X12248753Y-16448269D02*
X12248753Y-16495888D01*
X12248753Y-16495888D02*
X12239229Y-16514936D01*
X12239229Y-16514936D02*
X12229705Y-16524460D01*
X12229705Y-16524460D02*
X12210658Y-16533984D01*
X12210658Y-16533984D02*
X12163039Y-16533984D01*
X12163039Y-16533984D02*
X12143991Y-16524460D01*
X12143991Y-16524460D02*
X12134467Y-16514936D01*
X12372562Y-16333984D02*
X12391610Y-16333984D01*
X12391610Y-16333984D02*
X12410658Y-16343508D01*
X12410658Y-16343508D02*
X12420182Y-16353031D01*
X12420182Y-16353031D02*
X12429705Y-16372079D01*
X12429705Y-16372079D02*
X12439229Y-16410174D01*
X12439229Y-16410174D02*
X12439229Y-16457793D01*
X12439229Y-16457793D02*
X12429705Y-16495888D01*
X12429705Y-16495888D02*
X12420182Y-16514936D01*
X12420182Y-16514936D02*
X12410658Y-16524460D01*
X12410658Y-16524460D02*
X12391610Y-16533984D01*
X12391610Y-16533984D02*
X12372562Y-16533984D01*
X12372562Y-16533984D02*
X12353515Y-16524460D01*
X12353515Y-16524460D02*
X12343991Y-16514936D01*
X12343991Y-16514936D02*
X12334467Y-16495888D01*
X12334467Y-16495888D02*
X12324943Y-16457793D01*
X12324943Y-16457793D02*
X12324943Y-16410174D01*
X12324943Y-16410174D02*
X12334467Y-16372079D01*
X12334467Y-16372079D02*
X12343991Y-16353031D01*
X12343991Y-16353031D02*
X12353515Y-16343508D01*
X12353515Y-16343508D02*
X12372562Y-16333984D01*
X12563039Y-16333984D02*
X12582086Y-16333984D01*
X12582086Y-16333984D02*
X12601134Y-16343508D01*
X12601134Y-16343508D02*
X12610658Y-16353031D01*
X12610658Y-16353031D02*
X12620182Y-16372079D01*
X12620182Y-16372079D02*
X12629705Y-16410174D01*
X12629705Y-16410174D02*
X12629705Y-16457793D01*
X12629705Y-16457793D02*
X12620182Y-16495888D01*
X12620182Y-16495888D02*
X12610658Y-16514936D01*
X12610658Y-16514936D02*
X12601134Y-16524460D01*
X12601134Y-16524460D02*
X12582086Y-16533984D01*
X12582086Y-16533984D02*
X12563039Y-16533984D01*
X12563039Y-16533984D02*
X12543991Y-16524460D01*
X12543991Y-16524460D02*
X12534467Y-16514936D01*
X12534467Y-16514936D02*
X12524943Y-16495888D01*
X12524943Y-16495888D02*
X12515420Y-16457793D01*
X12515420Y-16457793D02*
X12515420Y-16410174D01*
X12515420Y-16410174D02*
X12524943Y-16372079D01*
X12524943Y-16372079D02*
X12534467Y-16353031D01*
X12534467Y-16353031D02*
X12543991Y-16343508D01*
X12543991Y-16343508D02*
X12563039Y-16333984D01*
X12715420Y-16533984D02*
X12715420Y-16400650D01*
X12715420Y-16419698D02*
X12724943Y-16410174D01*
X12724943Y-16410174D02*
X12743991Y-16400650D01*
X12743991Y-16400650D02*
X12772563Y-16400650D01*
X12772563Y-16400650D02*
X12791610Y-16410174D01*
X12791610Y-16410174D02*
X12801134Y-16429222D01*
X12801134Y-16429222D02*
X12801134Y-16533984D01*
X12801134Y-16429222D02*
X12810658Y-16410174D01*
X12810658Y-16410174D02*
X12829705Y-16400650D01*
X12829705Y-16400650D02*
X12858277Y-16400650D01*
X12858277Y-16400650D02*
X12877324Y-16410174D01*
X12877324Y-16410174D02*
X12886848Y-16429222D01*
X12886848Y-16429222D02*
X12886848Y-16533984D01*
X12982086Y-16533984D02*
X12982086Y-16400650D01*
X12982086Y-16419698D02*
X12991610Y-16410174D01*
X12991610Y-16410174D02*
X13010658Y-16400650D01*
X13010658Y-16400650D02*
X13039229Y-16400650D01*
X13039229Y-16400650D02*
X13058277Y-16410174D01*
X13058277Y-16410174D02*
X13067801Y-16429222D01*
X13067801Y-16429222D02*
X13067801Y-16533984D01*
X13067801Y-16429222D02*
X13077324Y-16410174D01*
X13077324Y-16410174D02*
X13096372Y-16400650D01*
X13096372Y-16400650D02*
X13124943Y-16400650D01*
X13124943Y-16400650D02*
X13143991Y-16410174D01*
X13143991Y-16410174D02*
X13153515Y-16429222D01*
X13153515Y-16429222D02*
X13153515Y-16533984D01*
X13543991Y-16324460D02*
X13372563Y-16581603D01*
X13801134Y-16333984D02*
X13820182Y-16333984D01*
X13820182Y-16333984D02*
X13839229Y-16343508D01*
X13839229Y-16343508D02*
X13848753Y-16353031D01*
X13848753Y-16353031D02*
X13858277Y-16372079D01*
X13858277Y-16372079D02*
X13867801Y-16410174D01*
X13867801Y-16410174D02*
X13867801Y-16457793D01*
X13867801Y-16457793D02*
X13858277Y-16495888D01*
X13858277Y-16495888D02*
X13848753Y-16514936D01*
X13848753Y-16514936D02*
X13839229Y-16524460D01*
X13839229Y-16524460D02*
X13820182Y-16533984D01*
X13820182Y-16533984D02*
X13801134Y-16533984D01*
X13801134Y-16533984D02*
X13782086Y-16524460D01*
X13782086Y-16524460D02*
X13772563Y-16514936D01*
X13772563Y-16514936D02*
X13763039Y-16495888D01*
X13763039Y-16495888D02*
X13753515Y-16457793D01*
X13753515Y-16457793D02*
X13753515Y-16410174D01*
X13753515Y-16410174D02*
X13763039Y-16372079D01*
X13763039Y-16372079D02*
X13772563Y-16353031D01*
X13772563Y-16353031D02*
X13782086Y-16343508D01*
X13782086Y-16343508D02*
X13801134Y-16333984D01*
X13953515Y-16514936D02*
X13963039Y-16524460D01*
X13963039Y-16524460D02*
X13953515Y-16533984D01*
X13953515Y-16533984D02*
X13943991Y-16524460D01*
X13943991Y-16524460D02*
X13953515Y-16514936D01*
X13953515Y-16514936D02*
X13953515Y-16533984D01*
X14153515Y-16533984D02*
X14039229Y-16533984D01*
X14096372Y-16533984D02*
X14096372Y-16333984D01*
X14096372Y-16333984D02*
X14077325Y-16362555D01*
X14077325Y-16362555D02*
X14058277Y-16381603D01*
X14058277Y-16381603D02*
X14039229Y-16391127D01*
X14220182Y-16333984D02*
X14343991Y-16333984D01*
X14343991Y-16333984D02*
X14277325Y-16410174D01*
X14277325Y-16410174D02*
X14305896Y-16410174D01*
X14305896Y-16410174D02*
X14324944Y-16419698D01*
X14324944Y-16419698D02*
X14334467Y-16429222D01*
X14334467Y-16429222D02*
X14343991Y-16448269D01*
X14343991Y-16448269D02*
X14343991Y-16495888D01*
X14343991Y-16495888D02*
X14334467Y-16514936D01*
X14334467Y-16514936D02*
X14324944Y-16524460D01*
X14324944Y-16524460D02*
X14305896Y-16533984D01*
X14305896Y-16533984D02*
X14248753Y-16533984D01*
X14248753Y-16533984D02*
X14229706Y-16524460D01*
X14229706Y-16524460D02*
X14220182Y-16514936D01*
X14410658Y-16333984D02*
X14543991Y-16333984D01*
X14543991Y-16333984D02*
X14458277Y-16533984D01*
X14648753Y-16419698D02*
X14629706Y-16410174D01*
X14629706Y-16410174D02*
X14620182Y-16400650D01*
X14620182Y-16400650D02*
X14610658Y-16381603D01*
X14610658Y-16381603D02*
X14610658Y-16372079D01*
X14610658Y-16372079D02*
X14620182Y-16353031D01*
X14620182Y-16353031D02*
X14629706Y-16343508D01*
X14629706Y-16343508D02*
X14648753Y-16333984D01*
X14648753Y-16333984D02*
X14686848Y-16333984D01*
X14686848Y-16333984D02*
X14705896Y-16343508D01*
X14705896Y-16343508D02*
X14715420Y-16353031D01*
X14715420Y-16353031D02*
X14724944Y-16372079D01*
X14724944Y-16372079D02*
X14724944Y-16381603D01*
X14724944Y-16381603D02*
X14715420Y-16400650D01*
X14715420Y-16400650D02*
X14705896Y-16410174D01*
X14705896Y-16410174D02*
X14686848Y-16419698D01*
X14686848Y-16419698D02*
X14648753Y-16419698D01*
X14648753Y-16419698D02*
X14629706Y-16429222D01*
X14629706Y-16429222D02*
X14620182Y-16438746D01*
X14620182Y-16438746D02*
X14610658Y-16457793D01*
X14610658Y-16457793D02*
X14610658Y-16495888D01*
X14610658Y-16495888D02*
X14620182Y-16514936D01*
X14620182Y-16514936D02*
X14629706Y-16524460D01*
X14629706Y-16524460D02*
X14648753Y-16533984D01*
X14648753Y-16533984D02*
X14686848Y-16533984D01*
X14686848Y-16533984D02*
X14705896Y-16524460D01*
X14705896Y-16524460D02*
X14715420Y-16514936D01*
X14715420Y-16514936D02*
X14724944Y-16495888D01*
X14724944Y-16495888D02*
X14724944Y-16457793D01*
X14724944Y-16457793D02*
X14715420Y-16438746D01*
X14715420Y-16438746D02*
X14705896Y-16429222D01*
X14705896Y-16429222D02*
X14686848Y-16419698D01*
X14801134Y-16333984D02*
X14801134Y-16372079D01*
X14877325Y-16333984D02*
X14877325Y-16372079D01*
X15172563Y-16610174D02*
X15163039Y-16600650D01*
X15163039Y-16600650D02*
X15143991Y-16572079D01*
X15143991Y-16572079D02*
X15134468Y-16553031D01*
X15134468Y-16553031D02*
X15124944Y-16524460D01*
X15124944Y-16524460D02*
X15115420Y-16476841D01*
X15115420Y-16476841D02*
X15115420Y-16438746D01*
X15115420Y-16438746D02*
X15124944Y-16391127D01*
X15124944Y-16391127D02*
X15134468Y-16362555D01*
X15134468Y-16362555D02*
X15143991Y-16343508D01*
X15143991Y-16343508D02*
X15163039Y-16314936D01*
X15163039Y-16314936D02*
X15172563Y-16305412D01*
X15353515Y-16533984D02*
X15239229Y-16533984D01*
X15296372Y-16533984D02*
X15296372Y-16333984D01*
X15296372Y-16333984D02*
X15277325Y-16362555D01*
X15277325Y-16362555D02*
X15258277Y-16381603D01*
X15258277Y-16381603D02*
X15239229Y-16391127D01*
X15591610Y-16533984D02*
X15591610Y-16333984D01*
X15677325Y-16533984D02*
X15677325Y-16429222D01*
X15677325Y-16429222D02*
X15667801Y-16410174D01*
X15667801Y-16410174D02*
X15648753Y-16400650D01*
X15648753Y-16400650D02*
X15620182Y-16400650D01*
X15620182Y-16400650D02*
X15601134Y-16410174D01*
X15601134Y-16410174D02*
X15591610Y-16419698D01*
X15801134Y-16533984D02*
X15782087Y-16524460D01*
X15782087Y-16524460D02*
X15772563Y-16514936D01*
X15772563Y-16514936D02*
X15763039Y-16495888D01*
X15763039Y-16495888D02*
X15763039Y-16438746D01*
X15763039Y-16438746D02*
X15772563Y-16419698D01*
X15772563Y-16419698D02*
X15782087Y-16410174D01*
X15782087Y-16410174D02*
X15801134Y-16400650D01*
X15801134Y-16400650D02*
X15829706Y-16400650D01*
X15829706Y-16400650D02*
X15848753Y-16410174D01*
X15848753Y-16410174D02*
X15858277Y-16419698D01*
X15858277Y-16419698D02*
X15867801Y-16438746D01*
X15867801Y-16438746D02*
X15867801Y-16495888D01*
X15867801Y-16495888D02*
X15858277Y-16514936D01*
X15858277Y-16514936D02*
X15848753Y-16524460D01*
X15848753Y-16524460D02*
X15829706Y-16533984D01*
X15829706Y-16533984D02*
X15801134Y-16533984D01*
X15982087Y-16533984D02*
X15963039Y-16524460D01*
X15963039Y-16524460D02*
X15953515Y-16505412D01*
X15953515Y-16505412D02*
X15953515Y-16333984D01*
X16134468Y-16524460D02*
X16115420Y-16533984D01*
X16115420Y-16533984D02*
X16077325Y-16533984D01*
X16077325Y-16533984D02*
X16058277Y-16524460D01*
X16058277Y-16524460D02*
X16048753Y-16505412D01*
X16048753Y-16505412D02*
X16048753Y-16429222D01*
X16048753Y-16429222D02*
X16058277Y-16410174D01*
X16058277Y-16410174D02*
X16077325Y-16400650D01*
X16077325Y-16400650D02*
X16115420Y-16400650D01*
X16115420Y-16400650D02*
X16134468Y-16410174D01*
X16134468Y-16410174D02*
X16143991Y-16429222D01*
X16143991Y-16429222D02*
X16143991Y-16448269D01*
X16143991Y-16448269D02*
X16048753Y-16467317D01*
X16210658Y-16610174D02*
X16220182Y-16600650D01*
X16220182Y-16600650D02*
X16239230Y-16572079D01*
X16239230Y-16572079D02*
X16248753Y-16553031D01*
X16248753Y-16553031D02*
X16258277Y-16524460D01*
X16258277Y-16524460D02*
X16267801Y-16476841D01*
X16267801Y-16476841D02*
X16267801Y-16438746D01*
X16267801Y-16438746D02*
X16258277Y-16391127D01*
X16258277Y-16391127D02*
X16248753Y-16362555D01*
X16248753Y-16362555D02*
X16239230Y-16343508D01*
X16239230Y-16343508D02*
X16220182Y-16314936D01*
X16220182Y-16314936D02*
X16210658Y-16305412D01*
X16572563Y-16610174D02*
X16563039Y-16600650D01*
X16563039Y-16600650D02*
X16543991Y-16572079D01*
X16543991Y-16572079D02*
X16534468Y-16553031D01*
X16534468Y-16553031D02*
X16524944Y-16524460D01*
X16524944Y-16524460D02*
X16515420Y-16476841D01*
X16515420Y-16476841D02*
X16515420Y-16438746D01*
X16515420Y-16438746D02*
X16524944Y-16391127D01*
X16524944Y-16391127D02*
X16534468Y-16362555D01*
X16534468Y-16362555D02*
X16543991Y-16343508D01*
X16543991Y-16343508D02*
X16563039Y-16314936D01*
X16563039Y-16314936D02*
X16572563Y-16305412D01*
X16648753Y-16400650D02*
X16648753Y-16533984D01*
X16648753Y-16419698D02*
X16658277Y-16410174D01*
X16658277Y-16410174D02*
X16677325Y-16400650D01*
X16677325Y-16400650D02*
X16705896Y-16400650D01*
X16705896Y-16400650D02*
X16724944Y-16410174D01*
X16724944Y-16410174D02*
X16734468Y-16429222D01*
X16734468Y-16429222D02*
X16734468Y-16533984D01*
X16858277Y-16533984D02*
X16839230Y-16524460D01*
X16839230Y-16524460D02*
X16829706Y-16514936D01*
X16829706Y-16514936D02*
X16820182Y-16495888D01*
X16820182Y-16495888D02*
X16820182Y-16438746D01*
X16820182Y-16438746D02*
X16829706Y-16419698D01*
X16829706Y-16419698D02*
X16839230Y-16410174D01*
X16839230Y-16410174D02*
X16858277Y-16400650D01*
X16858277Y-16400650D02*
X16886849Y-16400650D01*
X16886849Y-16400650D02*
X16905896Y-16410174D01*
X16905896Y-16410174D02*
X16915420Y-16419698D01*
X16915420Y-16419698D02*
X16924944Y-16438746D01*
X16924944Y-16438746D02*
X16924944Y-16495888D01*
X16924944Y-16495888D02*
X16915420Y-16514936D01*
X16915420Y-16514936D02*
X16905896Y-16524460D01*
X16905896Y-16524460D02*
X16886849Y-16533984D01*
X16886849Y-16533984D02*
X16858277Y-16533984D01*
X16982087Y-16400650D02*
X17058277Y-16400650D01*
X17010658Y-16333984D02*
X17010658Y-16505412D01*
X17010658Y-16505412D02*
X17020182Y-16524460D01*
X17020182Y-16524460D02*
X17039230Y-16533984D01*
X17039230Y-16533984D02*
X17058277Y-16533984D01*
X17277325Y-16400650D02*
X17277325Y-16600650D01*
X17277325Y-16410174D02*
X17296373Y-16400650D01*
X17296373Y-16400650D02*
X17334468Y-16400650D01*
X17334468Y-16400650D02*
X17353515Y-16410174D01*
X17353515Y-16410174D02*
X17363039Y-16419698D01*
X17363039Y-16419698D02*
X17372563Y-16438746D01*
X17372563Y-16438746D02*
X17372563Y-16495888D01*
X17372563Y-16495888D02*
X17363039Y-16514936D01*
X17363039Y-16514936D02*
X17353515Y-16524460D01*
X17353515Y-16524460D02*
X17334468Y-16533984D01*
X17334468Y-16533984D02*
X17296373Y-16533984D01*
X17296373Y-16533984D02*
X17277325Y-16524460D01*
X17486849Y-16533984D02*
X17467801Y-16524460D01*
X17467801Y-16524460D02*
X17458277Y-16505412D01*
X17458277Y-16505412D02*
X17458277Y-16333984D01*
X17648754Y-16533984D02*
X17648754Y-16429222D01*
X17648754Y-16429222D02*
X17639230Y-16410174D01*
X17639230Y-16410174D02*
X17620182Y-16400650D01*
X17620182Y-16400650D02*
X17582087Y-16400650D01*
X17582087Y-16400650D02*
X17563039Y-16410174D01*
X17648754Y-16524460D02*
X17629706Y-16533984D01*
X17629706Y-16533984D02*
X17582087Y-16533984D01*
X17582087Y-16533984D02*
X17563039Y-16524460D01*
X17563039Y-16524460D02*
X17553515Y-16505412D01*
X17553515Y-16505412D02*
X17553515Y-16486365D01*
X17553515Y-16486365D02*
X17563039Y-16467317D01*
X17563039Y-16467317D02*
X17582087Y-16457793D01*
X17582087Y-16457793D02*
X17629706Y-16457793D01*
X17629706Y-16457793D02*
X17648754Y-16448269D01*
X17715420Y-16400650D02*
X17791611Y-16400650D01*
X17743992Y-16333984D02*
X17743992Y-16505412D01*
X17743992Y-16505412D02*
X17753515Y-16524460D01*
X17753515Y-16524460D02*
X17772563Y-16533984D01*
X17772563Y-16533984D02*
X17791611Y-16533984D01*
X17934468Y-16524460D02*
X17915420Y-16533984D01*
X17915420Y-16533984D02*
X17877325Y-16533984D01*
X17877325Y-16533984D02*
X17858277Y-16524460D01*
X17858277Y-16524460D02*
X17848754Y-16505412D01*
X17848754Y-16505412D02*
X17848754Y-16429222D01*
X17848754Y-16429222D02*
X17858277Y-16410174D01*
X17858277Y-16410174D02*
X17877325Y-16400650D01*
X17877325Y-16400650D02*
X17915420Y-16400650D01*
X17915420Y-16400650D02*
X17934468Y-16410174D01*
X17934468Y-16410174D02*
X17943992Y-16429222D01*
X17943992Y-16429222D02*
X17943992Y-16448269D01*
X17943992Y-16448269D02*
X17848754Y-16467317D01*
X18115420Y-16533984D02*
X18115420Y-16333984D01*
X18115420Y-16524460D02*
X18096373Y-16533984D01*
X18096373Y-16533984D02*
X18058277Y-16533984D01*
X18058277Y-16533984D02*
X18039230Y-16524460D01*
X18039230Y-16524460D02*
X18029706Y-16514936D01*
X18029706Y-16514936D02*
X18020182Y-16495888D01*
X18020182Y-16495888D02*
X18020182Y-16438746D01*
X18020182Y-16438746D02*
X18029706Y-16419698D01*
X18029706Y-16419698D02*
X18039230Y-16410174D01*
X18039230Y-16410174D02*
X18058277Y-16400650D01*
X18058277Y-16400650D02*
X18096373Y-16400650D01*
X18096373Y-16400650D02*
X18115420Y-16410174D01*
X18191611Y-16610174D02*
X18201135Y-16600650D01*
X18201135Y-16600650D02*
X18220182Y-16572079D01*
X18220182Y-16572079D02*
X18229706Y-16553031D01*
X18229706Y-16553031D02*
X18239230Y-16524460D01*
X18239230Y-16524460D02*
X18248754Y-16476841D01*
X18248754Y-16476841D02*
X18248754Y-16438746D01*
X18248754Y-16438746D02*
X18239230Y-16391127D01*
X18239230Y-16391127D02*
X18229706Y-16362555D01*
X18229706Y-16362555D02*
X18220182Y-16343508D01*
X18220182Y-16343508D02*
X18201135Y-16314936D01*
X18201135Y-16314936D02*
X18191611Y-16305412D01*
M02*
